<svg viewBox="0 0 330 200" xmlns="http://www.w3.org/2000/svg"><g><g><g><g><g><line x1="74.78125" y1="176" x2="69.78125" y2="176" style="visibility: inherit;" fill="rgb(0, 0, 0)" stroke="rgb(204, 204, 204)" stroke-width="1px"></line><line x1="74.78125" y1="160" x2="69.78125" y2="160" style="visibility: inherit;" fill="rgb(0, 0, 0)" stroke="rgb(204, 204, 204)" stroke-width="1px"></line><line x1="74.78125" y1="144" x2="69.78125" y2="144" style="visibility: inherit;" fill="rgb(0, 0, 0)" stroke="rgb(204, 204, 204)" stroke-width="1px"></line><line x1="74.78125" y1="128" x2="69.78125" y2="128" style="visibility: inherit;" fill="rgb(0, 0, 0)" stroke="rgb(204, 204, 204)" stroke-width="1px"></line><line x1="74.78125" y1="112" x2="69.78125" y2="112" style="visibility: inherit;" fill="rgb(0, 0, 0)" stroke="rgb(204, 204, 204)" stroke-width="1px"></line><line x1="74.78125" y1="96" x2="69.78125" y2="96" style="visibility: inherit;" fill="rgb(0, 0, 0)" stroke="rgb(204, 204, 204)" stroke-width="1px"></line><line x1="74.78125" y1="80" x2="69.78125" y2="80" style="visibility: inherit;" fill="rgb(0, 0, 0)" stroke="rgb(204, 204, 204)" stroke-width="1px"></line><line x1="74.78125" y1="64.00000000000003" x2="69.78125" y2="64.00000000000003" style="visibility: inherit;" fill="rgb(0, 0, 0)" stroke="rgb(204, 204, 204)" stroke-width="1px"></line><line x1="74.78125" y1="48" x2="69.78125" y2="48" style="visibility: inherit;" fill="rgb(0, 0, 0)" stroke="rgb(204, 204, 204)" stroke-width="1px"></line><line x1="74.78125" y1="31.999999999999993" x2="69.78125" y2="31.999999999999993" style="visibility: inherit;" fill="rgb(0, 0, 0)" stroke="rgb(204, 204, 204)" stroke-width="1px"></line><line x1="74.78125" y1="16.000000000000007" x2="69.78125" y2="16.000000000000007" style="visibility: inherit;" fill="rgb(0, 0, 0)" stroke="rgb(204, 204, 204)" stroke-width="1px"></line><line x1="74.78125" y1="0" x2="69.78125" y2="0" style="visibility: inherit;" fill="rgb(0, 0, 0)" stroke="rgb(204, 204, 204)" stroke-width="1px"></line></g><g transform="translate(64.78125, 0)"><text x="0" y="176" dx="0em" dy="0.3em" style="text-anchor: end; visibility: hidden; font-family: Roboto, sans-serif; font-size: 12px; font-weight: 200;" fill="rgb(33, 33, 33)" stroke="none" stroke-width="1px">0</text><text x="0" y="160" dx="0em" dy="0.3em" style="text-anchor: end; visibility: inherit; font-family: Roboto, sans-serif; font-size: 12px; font-weight: 200;" fill="rgb(33, 33, 33)" stroke="none" stroke-width="1px">1e-5</text><text x="0" y="144" dx="0em" dy="0.3em" style="text-anchor: end; visibility: hidden; font-family: Roboto, sans-serif; font-size: 12px; font-weight: 200;" fill="rgb(33, 33, 33)" stroke="none" stroke-width="1px">2e-5</text><text x="0" y="128" dx="0em" dy="0.3em" style="text-anchor: end; visibility: inherit; font-family: Roboto, sans-serif; font-size: 12px; font-weight: 200;" fill="rgb(33, 33, 33)" stroke="none" stroke-width="1px">3e-5</text><text x="0" y="112" dx="0em" dy="0.3em" style="text-anchor: end; visibility: hidden; font-family: Roboto, sans-serif; font-size: 12px; font-weight: 200;" fill="rgb(33, 33, 33)" stroke="none" stroke-width="1px">4e-5</text><text x="0" y="96" dx="0em" dy="0.3em" style="text-anchor: end; visibility: inherit; font-family: Roboto, sans-serif; font-size: 12px; font-weight: 200;" fill="rgb(33, 33, 33)" stroke="none" stroke-width="1px">5e-5</text><text x="0" y="80" dx="0em" dy="0.3em" style="text-anchor: end; visibility: hidden; font-family: Roboto, sans-serif; font-size: 12px; font-weight: 200;" fill="rgb(33, 33, 33)" stroke="none" stroke-width="1px">6e-5</text><text x="0" y="64.00000000000003" dx="0em" dy="0.3em" style="text-anchor: end; visibility: inherit; font-family: Roboto, sans-serif; font-size: 12px; font-weight: 200;" fill="rgb(33, 33, 33)" stroke="none" stroke-width="1px">7e-5</text><text x="0" y="48" dx="0em" dy="0.3em" style="text-anchor: end; visibility: hidden; font-family: Roboto, sans-serif; font-size: 12px; font-weight: 200;" fill="rgb(33, 33, 33)" stroke="none" stroke-width="1px">8e-5</text><text x="0" y="31.999999999999993" dx="0em" dy="0.3em" style="text-anchor: end; visibility: inherit; font-family: Roboto, sans-serif; font-size: 12px; font-weight: 200;" fill="rgb(33, 33, 33)" stroke="none" stroke-width="1px">9e-5</text><text x="0" y="16.000000000000007" dx="0em" dy="0.3em" style="text-anchor: end; visibility: hidden; font-family: Roboto, sans-serif; font-size: 12px; font-weight: 200;" fill="rgb(33, 33, 33)" stroke="none" stroke-width="1px">1e-4</text><text x="0" y="0" dx="0em" dy="0.3em" style="text-anchor: end; visibility: hidden; font-family: Roboto, sans-serif; font-size: 12px; font-weight: 200;" fill="rgb(33, 33, 33)" stroke="none" stroke-width="1px">1.1e-4</text></g><line x1="74.78125" y1="0" x2="74.78125" y2="176" fill="rgb(0, 0, 0)" stroke="rgb(204, 204, 204)" stroke-width="1px"></line></g></g><g transform="translate(74, 0)" clip-path="url(#clip_0)"><clipPath id="clip_0"><rect width="255" height="176"></rect></clipPath><g><g><g><line x1="0" y1="0" x2="0" y2="176" fill="rgb(0, 0, 0)" stroke="rgb(66, 66, 66)" stroke-width="1px" opacity="0.25"></line><line x1="28.357638888888886" y1="0" x2="28.357638888888886" y2="176" fill="rgb(0, 0, 0)" stroke="rgb(66, 66, 66)" stroke-width="1px" opacity="0.25"></line><line x1="56.71527777777777" y1="0" x2="56.71527777777777" y2="176" fill="rgb(0, 0, 0)" stroke="rgb(66, 66, 66)" stroke-width="1px" opacity="0.25"></line><line x1="85.07291666666666" y1="0" x2="85.07291666666666" y2="176" fill="rgb(0, 0, 0)" stroke="rgb(66, 66, 66)" stroke-width="1px" opacity="0.25"></line><line x1="113.43055555555554" y1="0" x2="113.43055555555554" y2="176" fill="rgb(0, 0, 0)" stroke="rgb(66, 66, 66)" stroke-width="1px" opacity="0.25"></line><line x1="141.78819444444446" y1="0" x2="141.78819444444446" y2="176" fill="rgb(0, 0, 0)" stroke="rgb(66, 66, 66)" stroke-width="1px" opacity="0.25"></line><line x1="170.14583333333331" y1="0" x2="170.14583333333331" y2="176" fill="rgb(0, 0, 0)" stroke="rgb(66, 66, 66)" stroke-width="1px" opacity="0.25"></line><line x1="198.50347222222223" y1="0" x2="198.50347222222223" y2="176" fill="rgb(0, 0, 0)" stroke="rgb(66, 66, 66)" stroke-width="1px" opacity="0.25"></line><line x1="226.8611111111111" y1="0" x2="226.8611111111111" y2="176" fill="rgb(0, 0, 0)" stroke="rgb(66, 66, 66)" stroke-width="1px" opacity="0.25"></line><line x1="255.21875" y1="0" x2="255.21875" y2="176" fill="rgb(0, 0, 0)" stroke="rgb(66, 66, 66)" stroke-width="1px" opacity="0.25"></line></g><g><line x1="0" y1="176" x2="255.21875" y2="176" fill="rgb(0, 0, 0)" stroke="rgb(66, 66, 66)" stroke-width="1px" opacity="0.25"></line><line x1="0" y1="160" x2="255.21875" y2="160" fill="rgb(0, 0, 0)" stroke="rgb(66, 66, 66)" stroke-width="1px" opacity="0.25"></line><line x1="0" y1="144" x2="255.21875" y2="144" fill="rgb(0, 0, 0)" stroke="rgb(66, 66, 66)" stroke-width="1px" opacity="0.25"></line><line x1="0" y1="128" x2="255.21875" y2="128" fill="rgb(0, 0, 0)" stroke="rgb(66, 66, 66)" stroke-width="1px" opacity="0.25"></line><line x1="0" y1="112" x2="255.21875" y2="112" fill="rgb(0, 0, 0)" stroke="rgb(66, 66, 66)" stroke-width="1px" opacity="0.25"></line><line x1="0" y1="96" x2="255.21875" y2="96" fill="rgb(0, 0, 0)" stroke="rgb(66, 66, 66)" stroke-width="1px" opacity="0.25"></line><line x1="0" y1="80" x2="255.21875" y2="80" fill="rgb(0, 0, 0)" stroke="rgb(66, 66, 66)" stroke-width="1px" opacity="0.25"></line><line x1="0" y1="64.00000000000003" x2="255.21875" y2="64.00000000000003" fill="rgb(0, 0, 0)" stroke="rgb(66, 66, 66)" stroke-width="1px" opacity="0.25"></line><line x1="0" y1="48" x2="255.21875" y2="48" fill="rgb(0, 0, 0)" stroke="rgb(66, 66, 66)" stroke-width="1px" opacity="0.25"></line><line x1="0" y1="31.999999999999993" x2="255.21875" y2="31.999999999999993" fill="rgb(0, 0, 0)" stroke="rgb(66, 66, 66)" stroke-width="1px" opacity="0.25"></line><line x1="0" y1="16.000000000000007" x2="255.21875" y2="16.000000000000007" fill="rgb(0, 0, 0)" stroke="rgb(66, 66, 66)" stroke-width="1px" opacity="0.25"></line><line x1="0" y1="0" x2="255.21875" y2="0" fill="rgb(0, 0, 0)" stroke="rgb(66, 66, 66)" stroke-width="1px" opacity="0.25"></line></g></g></g><g><g><line x1="0" y1="176" x2="255.21875" y2="176" fill="rgb(0, 0, 0)" stroke="rgb(153, 153, 153)" stroke-width="1.5px"></line></g></g><g><g><line x1="28.357638888888886" y1="0" x2="28.357638888888886" y2="176" fill="rgb(0, 0, 0)" stroke="rgb(153, 153, 153)" stroke-width="1.5px"></line></g></g><g><g><g><g><g><path stroke="rgb(255, 112, 67)" stroke-width="2px" d="M28.499427083333334,16.000004041939974L28.783003472222223,16.000004041939974L28.924791666666664,16.000004041939974L29.066579861111112,16.000004041939974L29.775520833333335,16.000004041939974L29.91730902777778,16.000004041939974L30.05909722222222,16.000004041939974L30.484461805555558,16.000004041939974L30.62625,16.000004041939974L30.768038194444443,16.000004041939974L31.051614583333336,16.000004041939995L31.193402777777777,16.000004041939974L31.33519097222222,16.000004041939974L31.618767361111114,16.000004041939974L31.760555555555555,16.000004041939974L32.18592013888889,16.000004041939974L32.327708333333334,16.000004041939974L32.46949652777777,16.000004041939974L32.61128472222222,16.000004041939995L32.75307291666667,16.000004041939974L33.1784375,16.000004041939995L33.320225694444446,16.000004041939974L33.60380208333333,16.000004041939995L33.74559027777777,16.000004041939995L33.887378472222224,16.000004041939974L34.02916666666667,16.000004041939995L34.17095486111111,16.000004041939974L35.163472222222225,16.000004041939974L35.30526041666667,16.000004041939995L35.447048611111114,16.000004041939995L35.58883680555556,16.000004041939974L35.730625,16.000004041939974L35.87241319444444,16.000004041939953L36.014201388888885,16.000004041939974L36.15598958333333,16.000004041939974L36.297777777777775,16.000004041939974L36.58135416666667,16.000004041939974L37.00671875,16.000004041939974L37.14850694444444,16.000004041939995L37.29029513888889,16.000004041939974L37.43208333333333,16.000004041939974L37.81774722222222,16.000004041939995L37.95953541666667,16.000004041939974L38.10132361111111,16.000004041939974L38.24311180555556,16.000004041939995L38.526688194444446,16.000004041939974L38.66847638888889,16.000004041939974L38.95205277777777,16.000004041939974L39.23562916666667,16.000004041939974L39.51920555555556,16.000004041939974L39.66099375,16.000004041939995L39.80278194444444,16.000004041939995L39.944570138888885,16.000004041939974L40.228146527777774,16.000004041939995L40.369934722222226,16.000004041939995L40.653511111111115,16.000004041939974L40.79529930555556,16.000004041939974L40.9370875,16.000004041939974L41.220663888888886,16.000004041939995L41.36245208333333,16.00000404194003L42.07139305555555,16.00000404194003L42.63854583333333,16.00000404194003L42.780334027777776,16.000004041939995L43.20569861111111,16.000004041939995L43.347486805555555,16.000004041939995L43.631063194444444,16.000004041939995L43.77285138888889,16.000004041939995L43.91463958333333,16.000004041939995L44.05642777777778,16.000004041939995L44.19821597222223,16.000004041939974L44.34000416666667,16.000004041939974L44.48179236111111,16.000004041939995L44.76536875,16.000004041939995L44.907156944444445,16.00000404194003L45.04894513888889,16.00000404194003L45.61609791666667,16.00000404194003L45.75788611111111,16.00000404194003L46.32503888888889,16.00000404194003L46.46682708333333,16.00000404194003L46.85249097222222,16.00000404194003L46.99427916666667,16.00000404194003L47.13606736111112,16.00000404194003L47.277855555555554,16.00000404194003L47.41964375,16.00000404194003L47.70322013888889,16.00000404194003L47.98679652777778,16.00000404194003L48.12858472222222,16.00000404194003L48.270372916666666,16.00000404194003L48.41216111111111,16.00000404194003L48.97931388888889,16.00000404194003L49.121102083333334,16.00000404194003L49.26289027777778,16.00000404194003L49.404678472222216,16.00000404194003L49.54646666666667,16.00000404194003L49.97183125,16.00000404194003L50.53898402777777,16.00000404194003L50.82256041666667,16.00000404194003L50.96434861111111,16.00000404194003L51.247925,16.00000404194003L51.38971319444445,16.00000404194003L51.67328958333333,16.00000404194003L51.81507777777777,16.00000404194003L51.95686597222222,16.00000404194003L52.240442361111114,16.00000404194003L52.52401875,16.00000404194003L52.807595138888885,16.00000404194003L52.94938333333333,16.00000404194003L53.091171527777774,16.00000404194003L53.37474791666667,16.00000404194003L53.516536111111115,16.00000404194003L53.65832430555556,16.00000404194003L53.8001125,16.00000404194003L53.94190069444444,16.00000404194003L54.22547708333333,16.00000404194003L54.367265277777776,16.00000404194003L54.50905347222222,16.00000404194003L54.65084166666667,16.00000404194003L54.792629861111116,16.00000404194003L54.934418055555554,16.00000404194003L55.07620625,16.00000404194003L55.50157083333333,16.00000404194003L55.64335902777778,16.00000404194003L55.78514722222222,16.00000404194003L56.02902291666667,16.00000404194003L56.4543875,16.00000404194003L56.87975208333333,16.00000404194003L57.021540277777774,16.00000404194003L57.16332847222222,16.00000404194003L57.446904861111115,16.00000404194003L57.58869305555556,16.00000404194003L57.730481250000004,16.00000404194003L57.87226944444444,16.00000404194003L58.15584583333333,16.00000404194003L58.297634027777775,16.00000404194003L58.43942222222222,16.00000404194003L58.722998611111116,16.00000404194003L59.006575,16.00000404194003L59.29015138888889,16.00000404194003L59.43193958333333,16.00000404194003L59.71551597222222,16.00000404194003L59.85730416666667,16.00000404194003L59.99909236111111,16.00000404194003L60.140880555555555,16.00000404194003L60.28266875,16.00000404194003L60.56624513888889,16.00000404194003L60.70803333333333,16.00000404194003L60.84982152777778,16.00000404194003L61.27518611111111,16.00000404194003L61.5587625,16.00000404194003L61.700550694444445,16.00000404194003L61.984127083333334,16.00000404194003L62.12591527777778,16.00000404194003L62.267703472222216,16.00000404194003L62.40949166666667,16.00000404194003L62.55127986111111,16.00000404194003L62.69306805555556,16.00000404194003L62.976644444444446,16.00000404194003L63.11843263888889,16.00000404194003L63.40200902777777,16.00000404194003L63.54379722222222,16.00000404194003L63.68558541666667,16.00000404194003L63.82737361111112,16.00000404194003L63.96916180555556,16.00000404194003L64.11094999999999,16.00000404194003L64.53631458333334,16.00000404194003L64.67810277777778,16.00000404194003L64.81989097222223,16.00000404194003L64.96167916666667,16.00000404194003L65.34734305555556,16.00000404194003L65.48913125,16.00000404194003L65.63091944444444,16.00000404194003L65.77270763888889,16.00000404194003L66.05628402777778,16.00000404194003L66.19807222222222,16.00000404194003L66.90701319444443,16.00000404194003L67.19058958333333,16.00000404194003L67.33237777777778,16.00000404194003L67.75774236111111,16.00000404194003L67.89953055555554,16.00000404194003L68.04131875,16.00000404194003L68.32489513888889,16.00000404194003L68.46668333333334,16.00000404194003L68.60847152777778,16.00000404194003L68.75025972222222,16.00000404194003L68.89204791666667,16.00000404194003L69.03383611111111,16.00000404194003L69.17562430555554,16.00000404194003L69.3174125,16.00000404194003L69.60098888888889,16.00000404194003L69.74277708333334,16.00000404194003L70.02635347222223,16.00000404194003L70.16814166666666,16.00000404194003L70.73529444444443,16.00000404194003L70.8770826388889,16.00000404194003L71.01887083333334,16.00000404194003L71.16065902777778,16.00000404194003L71.30244722222223,16.00000404194003L71.44423541666666,16.00000404194003L72.01138819444444,16.00000404194003L72.1531763888889,16.00000404194003L72.29496458333334,16.00000404194003L72.43675277777777,16.00000404194003L72.57854097222223,16.00000404194003L72.72032916666666,16.00000404194003L73.00390555555555,16.00000404194003L73.14569375,16.00000404194003L73.28748194444444,16.00000404194003L73.42927013888888,16.00000404194003L73.57105833333334,16.00000404194003L73.71284652777777,16.00000404194003L73.99642291666666,16.00000404194003L74.13821111111112,16.00000404194003L74.38208680555556,16.00000404194003L74.52387499999999,16.00000404194003L74.66566319444445,16.00000404194003L74.94923958333334,16.00000404194003L75.37460416666667,16.00000404194003L75.65818055555556,16.00000404194003L75.79996874999999,16.00000404194003L75.94175694444445,16.00000404194003L76.0835451388889,16.00000404194003L76.22533333333334,16.00000404194003L76.7924861111111,16.00000404194003L76.93427430555556,16.00000404194003L77.21785069444445,16.00000404194003L77.50142708333333,16.00000404194003L77.64321527777778,16.00000404194003L77.78500347222221,16.00000404194003L77.92679166666667,16.00000404194003L78.0685798611111,16.00000404194003L78.35215625,16.00000404194003L78.49394444444445,16.00000404194003L78.6357326388889,16.00000404194003L78.91930902777779,16.00000404194003L79.06109722222222,16.00000404194003L79.20288541666667,16.00000404194003L79.3446736111111,16.00000404194003L79.62825,16.00000404194003L79.77003819444444,16.00000404194003L80.05361458333333,16.00000404194003L80.19540277777779,16.00000404194003L80.33719097222222,16.00000404194003L80.47897916666668,16.00000404194003L80.6207673611111,16.00000404194003L80.76255555555555,16.00000404194003L80.90434375,16.00000404194003L81.04613194444444,16.00000404194003L81.1879201388889,16.00000404194003L81.32970833333333,16.00000404194003L81.89686111111111,16.00000404194003L82.03864930555555,16.00000404194003L82.1804375,16.00000404194003L82.4640138888889,16.00000404194003L82.60580208333333,16.00000404194003L83.17295486111111,16.00000404194003L83.55861875000001,16.00000404194003L83.70040694444444,16.00000404194003L83.84219513888888,16.00000404194003L84.26755972222223,16.00000404194003L84.40934791666666,16.00000404194003L84.55113611111112,16.00000404194003L84.69292430555555,16.00000404194003L84.8347125,16.00000404194003L84.97650069444444,16.00000404194003L85.11828888888888,16.00000404194003L85.26007708333334,16.00000404194003L85.40186527777777,16.00000404194003L85.54365347222223,16.00000404194003L85.68544166666666,16.00000404194003L85.82722986111112,16.00000404194003L85.96901805555555,16.00000404194003L86.11080625,16.00000404194003L86.39438263888889,16.00000404194003L86.67795902777777,16.00000404194003L86.81974722222223,16.00000404194003L86.96153541666666,16.00000404194003L87.10332361111111,16.00000404194003L87.52868819444444,16.00000404194003L87.67047638888889,16.00000404194003L87.81226458333335,16.00000404194003L87.95405277777778,16.00000404194003L88.37941736111111,16.00000404194003L88.52120555555555,16.00000404194003L88.80478194444444,16.00000404194003L88.94657013888889,16.00000404194003L89.37193472222222,16.00000404194003L89.51372291666667,16.00000404194003L89.65551111111111,16.00000404194003L89.9390875,16.00000404194003L90.08087569444444,16.00000404194003L90.22266388888889,16.00000404194003L90.64802847222222,16.00000404194003L90.78981666666667,16.00000404194003L90.93160486111111,16.00000404194003L91.07339305555556,16.00000404194003L91.21518125,16.00000404194003L91.35696944444445,16.00000404194003L91.49875763888889,16.00000404194003L91.64054583333333,16.00000404194003L91.92412222222222,16.00000404194003L92.06591041666667,16.00000404194003L92.20769861111111,16.00000404194003L92.34948680555556,16.00000404194003L93.01872708333333,16.00000404194003L93.16051527777779,16.00000404194003L93.30230347222222,16.00000404194003L93.44409166666667,16.00000404194003L93.58587986111111,16.00000404194003L93.86945625,16.00000404194003L94.15303263888889,16.00000404194003L94.43660902777778,16.00000404194003L94.57839722222222,16.00000404194003L94.72018541666667,16.00000404194003L95.00376180555556,16.00000404194003L95.14555,16.00000404194003L95.28733819444444,16.00000404194003L95.57091458333333,16.00000404194003L95.85449097222222,16.00000404194003L95.99627916666667,16.00000404194003L96.27985555555556,16.00000404194003L96.42164375,16.00000404194003L96.56343194444445,16.00000404194003L96.98879652777778,16.00000404194003L97.13058472222222,16.00000404194003L97.27237291666667,16.00000404194003L97.41416111111111,16.00000404194003L97.55594930555556,16.00000404194003L97.69773749999999,16.00000404194003L97.83952569444445,16.00000404194003L98.12310208333334,16.00000404194003L98.26489027777778,16.00000404194003L98.40667847222223,16.00000404194003L98.54846666666667,16.00000404194003L98.69025486111111,16.00000404194003L98.83204305555556,16.00000404194003L99.25740763888888,16.00000404194003L99.39919583333334,16.00000404194003L99.68277222222223,16.00000404194003L99.82456041666667,16.00000404194003L99.9663486111111,16.00000404194003L100.24992499999999,16.00000404194003L100.39171319444445,16.00000404194003L100.53350138888888,16.00000404194003L100.95886597222221,16.00000404194003L101.10065416666667,16.00000404194003L101.2424423611111,16.00000404194003L101.38423055555556,16.00000404194003L101.52601874999999,16.00000404194003L101.66780694444445,16.00000404194003L101.91168263888889,16.00000404194003L102.05347083333334,16.00000404194003L102.19525902777778,16.00000404194003L102.47883541666667,16.00000404194003L102.62062361111111,16.00000404194003L102.76241180555556,16.00000404194003L102.9042,16.00000404194003L103.04598819444443,16.00000404194003L103.18777638888889,16.00000404194003L103.47135277777778,16.00000404194003L103.89671736111111,16.00000404194003L104.4638701388889,16.00000404194003L104.88923472222223,16.00000404194003L105.03102291666666,16.00000404194003L105.17281111111112,16.00000404194003L105.31459930555555,16.00000404194003L105.4563875,16.00000404194003L105.59817569444444,16.00000404194003L105.7399638888889,16.00000404194003L105.88175208333334,16.00000404194003L106.02354027777778,16.00000404194003L106.16532847222223,16.00000404194003L106.30711666666666,16.00000404194003L106.44890486111112,16.00000404194003L106.73248125,16.00000404194003L106.87426944444444,16.00000404194003L107.29963402777777,16.00000404194003L107.58321041666666,16.00000404194003L107.72499861111112,16.00000404194003L107.86678680555555,16.00000404194003L108.00857500000001,16.00000404194003L108.15036319444444,16.00000404194003L108.43393958333334,16.00000404194003L109.00109236111112,16.00000404194003L109.14288055555555,16.00000404194003L109.28466875000001,16.00000404194003L109.56824513888888,16.00000404194003L109.71003333333334,16.00000404194003L109.85182152777777,16.00000404194003L109.99360972222223,16.00000404194003L110.27718611111112,16.00000404194003L110.5607625,16.00000404194003L111.08821458333334,16.00000404194003L111.6553673611111,16.00000404194003L112.22252013888888,16.00000404194003L112.36430833333333,16.00000404194003L112.50609652777779,16.00000404194003L112.78967291666667,16.00000404194003L112.9314611111111,16.00000404194003L113.07324930555556,16.00000404194003L113.2150375,16.00000404194003L113.35682569444445,16.00000404194003L113.64040208333333,16.00000404194003L113.78219027777779,16.00000404194003L113.92397847222222,16.00000404194003L114.06576666666668,16.00000404194003L114.2075548611111,16.00000404194003L114.34934305555556,16.00000404194003L114.63291944444444,16.00000404194003L114.77470763888888,16.00000404194003L114.91649583333333,16.00000404194003L115.20007222222222,16.00000404194003L115.48364861111111,16.00000404194003L115.62543680555557,16.00000404194003L115.767225,16.00000404194003L115.90901319444444,16.00000404194003L116.33437777777779,16.00000404194003L116.47616597222222,16.00000404194003L116.75974236111111,16.00000404194003L116.90153055555555,16.00000404194003L117.04331875,16.00000404194003L117.32689513888889,16.00000404194003L117.61047152777779,16.00000404194003L117.75225972222222,16.00000404194003L118.03583611111111,16.00000404194003L118.17762430555555,16.00000404194003L118.3194125,16.00000404194003L118.46120069444444,16.00000404194003L118.60298888888889,16.00000404194003L119.02835347222222,16.00000404194003L119.17014166666667,16.00000404194003L119.31192986111111,16.00000404194003L119.45371805555556,16.00000404194003L119.73729444444444,16.00000404194003L120.26474652777777,16.00000404194003L120.40653472222223,16.00000404194003L120.54832291666666,16.00000404194003L120.69011111111112,16.00000404194003L120.83189930555555,16.00000404194003L120.9736875,16.00000404194003L121.39905208333333,16.00000404194003L121.54084027777778,16.00000404194003L121.82441666666666,16.00000404194003L121.96620486111111,16.00000404194003L122.10799305555555,16.00000404194003L122.24978125,16.00000404194003L122.39156944444444,16.00000404194003L122.81693402777778,16.00000404194003L122.95872222222224,16.00000404194003L123.10051041666667,16.00000404194003L123.24229861111111,16.00000404194003L124.09302777777778,16.00000404194003L124.37660416666667,16.00000404194003L124.51839236111111,16.00000404194003L124.94375694444444,16.00000404194003L125.22733333333332,16.00000404194003L125.36912152777778,16.00000404194003L125.51090972222222,16.00000404194003L125.65269791666667,16.00000404194003L125.79448611111111,16.00000404194003L125.93627430555556,16.00000404194003L126.21985069444445,16.00000404194003L126.36163888888889,16.00000404194003L126.50342708333332,16.00000404194003L126.64521527777778,16.00000404194003L126.92879166666667,16.00000404194003L127.07057986111111,16.00000404194003L127.21236805555556,16.00000404194003L127.35415625,16.00000404194003L127.63773263888888,16.00000404194003L127.77952083333334,16.00000404194003L127.92130902777778,16.00000404194003L128.0630972222222,16.00000404194003L128.20488541666666,16.00000404194003L128.34667361111113,16.00000404194003L128.63025,16.00000404194003L129.05561458333335,16.00000404194003L129.1974027777778,16.00000404194003L129.58306666666667,73.60000258684163L130.15021944444445,108.16000171378259L130.2920076388889,128.89600118994716L130.57558402777778,141.33760087564588L130.71737222222222,148.80256068706512L131.0009486111111,153.28153657391667L131.284525,155.9689221060276L131.5681013888889,157.58135342529417L131.70988958333334,158.54881221685412L131.85167777777778,159.12928749179005L132.13525416666667,159.47757265675162L132.2770423611111,159.68654375572856L132.41883055555556,159.81192641511473L132.56061875,159.88715601074645L132.70240694444442,159.93229376812545L132.8441951388889,159.95937642255288L132.98598333333334,159.97562601520931L133.12777152777778,159.9853757708032L133.26955972222223,159.9912256241595L133.41134791666667,159.99473553617332L133.55313611111112,159.9968414833816L133.8367125,159.99810505170655L134.26207708333334,159.99886319270152L134.40386527777778,159.9993180772985L134.54565347222223,159.9995910080567L134.82922986111112,159.99975476651161L134.97101805555556,159.99985302158456L135.11280625,159.99991197462833L135.25459444444442,159.9999473464546L135.3963826388889,159.99996856955036L136.10532361111112,159.99998130340782L136.24711180555556,159.9999889437223L136.6724763888889,159.99999352791096L136.81426458333334,159.99999627842416L137.09784097222223,159.9999979287321L137.23962916666665,159.99999891891684L137.80678194444442,159.99999951302772L137.9485701388889,159.99999986949422L138.09035833333334,160.00000008337415L138.37393472222223,160.0000002117021L138.61781041666669,160.00000028869886L138.7595986111111,160.0000003348969L138.90138680555555,160.00000036261576L139.043175,160.00000037924704L139.18496319444446,160.00000038922582L139.32675138888888,160.0000003952131L139.61032777777777,160.00000039880544L139.75211597222224,160.0000004009609L139.8939041666667,160.0000004022541L140.0356923611111,160.00000040303007L140.17748055555555,160.00000040349565L140.31926875,160.00000040377498L140.46105694444446,160.0000004039426L140.60284513888888,160.00000040404313L140.74463333333333,160.0000004041035L141.1699979166667,160.00000040413968L141.45357430555555,160.0000004041614L141.5953625,160.00000040417444L141.87893888888888,160.0000004041823L142.16251527777777,160.00000040418695L142.30430347222222,160.0000004041898L142.4460916666667,160.00000040419147L142.5878798611111,160.00000040419246L142.72966805555555,160.0000004041931L143.01324444444447,160.00000040419346L143.15503263888888,160.00000040419366L143.7221854166667,160.0000004041938L143.8639736111111,160.00000040419388L144.00576180555555,160.0000004041939L144.14755,160.00000040419397L144.57291458333333,160.00000040419397L144.71470277777777,160.00000040419397L144.9982791666667,160.000000404194L145.1400673611111,160.000000404194L145.56543194444444,160.000000404194L145.70722013888889,160.000000404194L145.84900833333333,160.000000404194L145.99079652777777,160.000000404194L146.13258472222222,160.000000404194L146.2743729166667,160.000000404194L146.4161611111111,160.000000404194L146.55794930555555,160.000000404194L146.6997375,160.000000404194L146.84152569444444,160.000000404194L146.9833138888889,160.000000404194L147.12510208333333,160.000000404194L147.40867847222222,160.000000404194L147.79434236111112,160.000000404194L147.93613055555554,160.000000404194L148.21970694444445,160.000000404194L148.3614951388889,160.000000404194L148.50328333333331,160.000000404194L148.78685972222223,160.000000404194L148.92864791666668,160.000000404194L149.21222430555554,160.000000404194L149.3540125,160.000000404194L149.6375888888889,160.000000404194L149.92116527777776,160.000000404194L150.34652986111112,160.000000404194L150.48831805555554,160.000000404194L150.9136826388889,160.000000404194L151.19725902777776,160.000000404194L151.33904722222223,160.000000404194L151.48083541666668,160.000000404194L151.76441180555554,160.000000404194L151.90619999999998,160.000000404194L152.04798819444446,160.000000404194L152.47335277777776,160.000000404194L152.61514097222224,160.000000404194L152.89871736111112,160.000000404194L153.18229374999999,160.000000404194L153.32408194444446,160.000000404194L153.74944652777776,160.000000404194L154.03302291666668,160.000000404194L154.17481111111113,160.000000404194L154.60017569444446,160.000000404194L154.7419638888889,160.000000404194L154.88375208333332,160.000000404194L155.02554027777776,160.000000404194L155.1673284722222,160.000000404194L155.30911666666668,160.000000404194L155.45090486111113,160.000000404194L155.59269305555554,160.000000404194L155.73448125,160.000000404194L155.87626944444446,160.000000404194L156.0180576388889,160.000000404194L156.30163402777777,160.000000404194L156.4434222222222,160.000000404194L156.72699861111113,160.000000404194L157.1126625,160.000000404194L157.25445069444444,160.000000404194L157.67981527777778,160.000000404194L157.82160347222222,160.000000404194L158.1051798611111,160.000000404194L158.24696805555556,160.000000404194L158.38875625,160.000000404194L158.53054444444444,160.000000404194L158.6723326388889,160.000000404194L158.95590902777778,160.000000404194L159.09769722222222,160.000000404194L159.3812736111111,160.000000404194L159.52306180555556,160.000000404194L159.80663819444445,160.000000404194L159.9484263888889,160.000000404194L160.09021458333333,160.000000404194L160.23200277777775,160.000000404194L160.37379097222222,160.000000404194L160.51557916666667,160.000000404194L160.79915555555556,160.000000404194L161.36630833333334,160.000000404194L161.50809652777775,160.000000404194L161.64988472222223,160.000000404194L161.79167291666667,160.000000404194L161.93346111111111,160.000000404194L162.07524930555556,160.000000404194L162.2170375,160.000000404194L162.35882569444445,160.000000404194L162.5006138888889,160.000000404194L163.06776666666667,160.000000404194L163.20955486111112,160.000000404194L163.35134305555556,160.000000404194L163.49313124999998,160.000000404194L163.91849583333334,160.000000404194L164.06028402777775,160.000000404194L164.20207222222223,160.000000404194L164.48564861111112,160.000000404194L164.62743680555556,160.000000404194L164.91101319444445,160.000000404194L165.19458958333334,160.000000404194L165.33637777777776,160.000000404194L165.47816597222223,160.000000404194L165.90353055555556,160.000000404194L166.14740625000002,160.000000404194L166.28919444444443,160.000000404194L166.43098263888888,160.000000404194L166.57277083333332,160.000000404194L166.7145590277778,160.000000404194L166.8563472222222,160.000000404194L167.1399236111111,160.000000404194L167.28171180555557,160.000000404194L167.70707638888888,160.000000404194L168.4160173611111,160.000000404194L168.69959375000002,160.000000404194L168.84138194444444,160.000000404194L168.98317013888888,160.000000404194L169.12495833333332,160.000000404194L169.2667465277778,160.000000404194L169.4085347222222,160.000000404194L169.83389930555555,160.000000404194L169.97568750000002,160.000000404194L170.11747569444444,160.000000404194L170.25926388888888,160.000000404194L170.40105208333333,160.000000404194L170.68462847222222,160.000000404194L170.9682048611111,160.000000404194L171.10999305555555,160.000000404194L171.25178125000002,160.000000404194L171.53535763888888,160.000000404194L171.67714583333333,160.000000404194L171.8189340277778,160.000000404194L171.96072222222222,160.000000404194L172.10251041666666,160.000000404194L172.2442986111111,160.000000404194L172.38608680555555,160.000000404194L172.52787500000002,160.000000404194L172.66966319444444,160.000000404194L172.81145138888888,160.000000404194L173.37860416666666,160.000000404194L173.66218055555555,160.000000404194L173.80396875000002,160.000000404194L173.94575694444444,160.000000404194L174.08754513888888,160.000000404194L174.22933333333333,160.000000404194L174.65469791666666,160.000000404194L174.93827430555555,160.000000404194L175.60751458333334,160.000000404194L175.89109097222223,160.000000404194L176.03287916666667,160.000000404194L176.31645555555556,160.000000404194L176.88360833333334,160.000000404194L177.0253965277778,160.000000404194L177.16718472222223,160.000000404194L177.30897291666668,160.000000404194L177.4507611111111,160.000000404194L178.01791388888887,160.000000404194L178.3014902777778,160.000000404194L178.44327847222223,160.000000404194L178.7268548611111,160.000000404194L178.86864305555557,160.000000404194L179.29400763888887,160.000000404194L179.43579583333332,160.000000404194L179.5775840277778,160.000000404194L179.86116041666668,160.000000404194L180.14473680555557,160.000000404194L180.286525,160.000000404194L180.42831319444446,160.000000404194L180.71188958333332,160.000000404194L180.8536777777778,160.000000404194L181.13725416666668,160.000000404194L181.2790423611111,160.000000404194L181.42083055555554,160.000000404194L181.70440694444446,160.000000404194L181.84619513888887,160.000000404194L181.98798333333332,160.000000404194L182.1297715277778,160.000000404194L182.27155972222224,160.000000404194L182.41334791666668,160.000000404194L182.8387125,160.000000404194L182.98050069444446,160.000000404194L183.26407708333332,160.000000404194L183.4058652777778,160.000000404194L183.54765347222224,160.000000404194L183.68944166666668,160.000000404194L183.97301805555554,160.000000404194L184.11480625000002,160.000000404194L184.25659444444446,160.000000404194L184.5004701388889,160.000000404194L184.92583472222222,160.000000404194L185.06762291666666,160.000000404194L185.20941111111114,160.000000404194L185.91835208333333,160.000000404194L186.20192847222222,160.000000404194L186.48550486111114,160.000000404194L186.62729305555555,160.000000404194L186.76908125,160.000000404194L187.19444583333333,160.000000404194L187.33623402777778,160.000000404194L187.47802222222222,160.000000404194L187.61981041666667,160.000000404194L187.7615986111111,160.000000404194L187.90338680555556,160.000000404194L188.045175,160.000000404194L188.18696319444444,160.000000404194L188.47053958333333,160.000000404194L188.61232777777778,160.000000404194L188.89590416666667,160.000000404194L189.0376923611111,160.000000404194L189.17948055555556,160.000000404194L189.32126875,160.000000404194L189.74663333333334,160.000000404194L189.88842152777778,160.000000404194L190.17199791666667,160.000000404194L190.3137861111111,160.000000404194L190.45557430555556,160.000000404194L190.5973625,160.000000404194L190.73915069444445,160.000000404194L190.8809388888889,160.000000404194L191.0227270833333,160.000000404194L191.16451527777778,160.000000404194L191.30630347222223,160.000000404194L191.44809166666667,160.000000404194L191.73166805555556,160.000000404194L191.87345625,160.000000404194L192.1570326388889,160.000000404194L192.2988208333333,160.000000404194L192.58239722222223,160.000000404194L192.72418541666667,160.000000404194L193.00776180555556,160.000000404194L193.14955,160.000000404194L193.29133819444445,160.000000404194L193.4331263888889,160.000000404194L193.67700208333335,160.000000404194L193.81879027777777,160.000000404194L194.10236666666665,160.000000404194L194.38594305555557,160.000000404194L194.66951944444443,160.000000404194L194.8113076388889,160.000000404194L195.09488402777777,160.000000404194L195.2366722222222,160.000000404194L195.37846041666666,160.000000404194L195.52024861111113,160.000000404194L195.66203680555557,160.000000404194L195.803825,160.000000404194L195.94561319444443,160.000000404194L196.5127659722222,160.000000404194L196.65455416666666,160.000000404194L196.79634236111113,160.000000404194L197.07991875,160.000000404194L197.22170694444443,160.000000404194L197.36349513888888,160.000000404194L197.64707152777777,160.000000404194L197.93064791666666,160.000000404194L198.21422430555558,160.000000404194L198.49780069444444,160.000000404194L198.78137708333335,160.000000404194L198.92316527777777,160.000000404194L199.06495347222221,160.000000404194L199.20674166666666,160.000000404194L199.49031805555558,160.000000404194L199.63210625,160.000000404194L199.77389444444444,160.000000404194L199.91568263888888,160.000000404194L200.05747083333335,160.000000404194L200.19925902777777,160.000000404194L200.6246236111111,160.000000404194L200.76641180555558,160.000000404194L201.19177638888888,160.000000404194L201.33356458333336,160.000000404194L201.47535277777777,160.000000404194L201.75892916666666,160.000000404194L201.9007173611111,160.000000404194L202.32608194444444,160.000000404194L202.46787013888888,160.000000404194L202.60965833333336,160.000000404194L202.9953222222222,160.000000404194L203.13711041666667,160.000000404194L203.562475,160.000000404194L203.70426319444442,160.000000404194L203.8460513888889,160.000000404194L204.12962777777778,160.000000404194L204.55499236111112,160.000000404194L204.69678055555556,160.000000404194L205.1221451388889,160.000000404194L205.26393333333334,160.000000404194L205.40572152777779,160.000000404194L205.97287430555556,160.000000404194L206.25645069444442,160.000000404194L206.3982388888889,160.000000404194L206.54002708333334,160.000000404194L206.6818152777778,160.000000404194L206.8236034722222,160.000000404194L206.96539166666665,160.000000404194L207.10717986111112,160.000000404194L207.53254444444443,160.000000404194L207.6743326388889,160.000000404194L207.81612083333334,160.000000404194L207.9579090277778,160.000000404194L208.24148541666665,160.000000404194L208.52506180555557,160.000000404194L208.66685,160.000000404194L209.09221458333334,160.000000404194L209.2340027777778,160.000000404194L209.51757916666665,160.000000404194L209.65936736111112,160.000000404194L209.80115555555557,160.000000404194L209.94294375,160.000000404194L210.08473194444443,160.000000404194L210.22652013888887,160.000000404194L210.6518847222222,160.000000404194L210.79367291666665,160.000000404194L211.36082569444443,160.000000404194L211.50261388888887,160.000000404194L211.64440208333335,160.000000404194L211.7861902777778,160.000000404194L212.03006597222222,160.000000404194L212.3136423611111,160.000000404194L212.45543055555555,160.000000404194L212.73900694444447,160.000000404194L212.88079513888889,160.000000404194L213.16437152777777,160.000000404194L213.44794791666666,160.000000404194L213.5897361111111,160.000000404194L213.73152430555555,160.000000404194L213.8733125,160.000000404194L214.1568888888889,160.000000404194L214.29867708333333,160.000000404194L214.58225347222222,160.000000404194L214.72404166666666,160.000000404194L215.00761805555555,160.000000404194L215.14940625,160.000000404194L215.4329826388889,160.000000404194L215.57477083333333,160.000000404194L215.71655902777778,160.000000404194L215.85834722222222,160.000000404194L216.28371180555555,160.000000404194L216.56728819444444,160.000000404194L216.7090763888889,160.000000404194L216.85086458333333,160.000000404194L216.99265277777778,160.000000404194L217.4180173611111,160.000000404194L217.55980555555556,160.000000404194L217.70159375,160.000000404194L217.9851701388889,160.000000404194L218.12695833333333,160.000000404194L218.26874652777778,160.000000404194L218.41053472222222,160.000000404194L218.55232291666664,160.000000404194L218.83589930555556,160.000000404194L219.54484027777778,160.000000404194L219.82841666666664,160.000000404194L220.67914583333334,160.000000404194L220.82093402777778,160.000000404194L221.20659791666668,160.000000404194L221.3483861111111,160.000000404194L221.6319625,160.000000404194L221.77375069444446,160.000000404194L222.19911527777776,160.000000404194L222.34090347222224,160.000000404194L222.6244798611111,160.000000404194L222.76626805555554,160.000000404194L222.90805625,160.000000404194L223.04984444444446,160.000000404194L223.1916326388889,160.000000404194L223.47520902777777,160.000000404194L223.75878541666668,160.000000404194L223.9005736111111,160.000000404194L224.04236180555554,160.000000404194L224.18415,160.000000404194L224.32593819444446,160.000000404194L224.4677263888889,160.000000404194L224.60951458333332,160.000000404194L225.1766673611111,160.000000404194L225.31845555555554,160.000000404194L225.46024375,160.000000404194L225.60203194444446,160.000000404194L225.7438201388889,160.000000404194L226.1691847222222,160.000000404194L226.31097291666669,160.000000404194L226.4527611111111,160.000000404194L227.0199138888889,160.000000404194L227.16170208333332,160.000000404194L227.30349027777777,160.000000404194L227.7288548611111,160.000000404194L227.87064305555555,160.000000404194L228.15421944444444,160.000000404194L228.2960076388889,160.000000404194L228.57958402777777,160.000000404194L228.72137222222221,160.000000404194L229.0049486111111,160.000000404194L229.14673680555555,160.000000404194L229.43031319444444,160.000000404194L229.5721013888889,160.000000404194L229.71388958333333,160.000000404194L229.85567777777777,160.000000404194L229.99746597222222,160.000000404194L230.1392541666667,160.000000404194L231.09207083333334,160.000000404194L231.51743541666667,160.000000404194L231.65922361111112,160.000000404194L231.9428,160.000000404194L232.2263763888889,160.000000404194L232.36816458333334,160.000000404194L232.79352916666667,160.000000404194L232.93531736111112,160.000000404194L233.07710555555556,160.000000404194L233.21889374999998,160.000000404194L233.64425833333334,160.000000404194L233.78604652777776,160.000000404194L233.92783472222223,160.000000404194L234.06962291666667,160.000000404194L234.35319930555556,160.000000404194L234.63677569444445,160.000000404194L234.7785638888889,160.000000404194L234.92035208333334,160.000000404194L235.06214027777776,160.000000404194L235.48750486111112,160.000000404194L235.77108124999998,160.000000404194L235.91286944444445,160.000000404194L236.0546576388889,160.000000404194L236.19644583333334,160.000000404194L236.33823402777776,160.000000404194L236.4800222222222,160.000000404194L236.62181041666668,160.000000404194L236.90538680555557,160.000000404194L237.04717499999998,160.000000404194L237.18896319444445,160.000000404194L237.3307513888889,160.000000404194L237.47253958333334,160.000000404194L237.61432777777776,160.000000404194L237.7561159722222,160.000000404194L237.89790416666668,160.000000404194L238.03969236111112,160.000000404194L238.18148055555557,160.000000404194L238.32326874999998,160.000000404194L239.17399791666668,160.000000404194L239.55966180555555,160.000000404194L239.70145000000002,160.000000404194L239.84323819444444,160.000000404194L240.12681458333333,160.000000404194L240.2686027777778,160.000000404194L240.83575555555555,160.000000404194L240.97754375000002,160.000000404194L241.11933194444444,160.000000404194L241.26112013888888,160.000000404194L241.68648472222222,160.000000404194L241.82827291666666,160.000000404194L241.9700611111111,160.000000404194L242.11184930555555,160.000000404194L242.25363750000002,160.000000404194L242.53721388888889,160.000000404194L242.67900208333333,160.000000404194L243.2461548611111,160.000000404194L243.38794305555555,160.000000404194" style="fill: none;" fill="none"></path></g></g></g></g><g opacity="0.2"><g><g><g><path stroke="rgb(255, 112, 67)" stroke-width="2px" d="M28.499427083333334,16.000004041939974L28.783003472222223,16.000004041939974L28.924791666666664,16.000004041939974L29.066579861111112,16.000004041939974L29.775520833333335,16.000004041939974L29.91730902777778,16.000004041939974L30.05909722222222,16.000004041939974L30.484461805555558,16.000004041939974L30.62625,16.000004041939974L30.768038194444443,16.000004041939974L31.051614583333336,16.000004041939974L31.193402777777777,16.000004041939974L31.33519097222222,16.000004041939974L31.618767361111114,16.000004041939974L31.760555555555555,16.000004041939974L32.18592013888889,16.000004041939974L32.327708333333334,16.000004041939974L32.46949652777777,16.000004041939974L32.61128472222222,16.000004041939974L32.75307291666667,16.000004041939974L33.1784375,16.000004041939974L33.320225694444446,16.000004041939974L33.60380208333333,16.000004041939974L33.74559027777777,16.000004041939974L33.887378472222224,16.000004041939974L34.02916666666667,16.000004041939974L34.17095486111111,16.000004041939974L35.163472222222225,16.000004041939974L35.30526041666667,16.000004041939974L35.447048611111114,16.000004041939974L35.58883680555556,16.000004041939974L35.730625,16.000004041939974L35.87241319444444,16.000004041939974L36.014201388888885,16.000004041939974L36.15598958333333,16.000004041939974L36.297777777777775,16.000004041939974L36.58135416666667,16.000004041939974L37.00671875,16.000004041939974L37.14850694444444,16.000004041939974L37.29029513888889,16.000004041939974L37.43208333333333,16.000004041939974L37.81774722222222,16.000004041939974L37.95953541666667,16.000004041939974L38.10132361111111,16.000004041939974L38.24311180555556,16.000004041939974L38.526688194444446,16.000004041939974L38.66847638888889,16.000004041939974L38.95205277777777,16.000004041939974L39.23562916666667,16.000004041939974L39.51920555555556,16.000004041939974L39.66099375,16.000004041939974L39.80278194444444,16.000004041939974L39.944570138888885,16.000004041939974L40.228146527777774,16.000004041939974L40.369934722222226,16.000004041939974L40.653511111111115,16.000004041939974L40.79529930555556,16.000004041939974L40.9370875,16.000004041939974L41.220663888888886,16.000004041939974L41.36245208333333,16.000004041939974L42.07139305555555,16.000004041939974L42.63854583333333,16.000004041939974L42.780334027777776,16.000004041939974L43.20569861111111,16.000004041939974L43.347486805555555,16.000004041939974L43.631063194444444,16.000004041939974L43.77285138888889,16.000004041939974L43.91463958333333,16.000004041939974L44.05642777777778,16.000004041939974L44.19821597222223,16.000004041939974L44.34000416666667,16.000004041939974L44.48179236111111,16.000004041939974L44.76536875,16.000004041939974L44.907156944444445,16.000004041939974L45.04894513888889,16.000004041939974L45.61609791666667,16.000004041939974L45.75788611111111,16.000004041939974L46.32503888888889,16.000004041939974L46.46682708333333,16.000004041939974L46.85249097222222,16.000004041939974L46.99427916666667,16.000004041939974L47.13606736111112,16.000004041939974L47.277855555555554,16.000004041939974L47.41964375,16.000004041939974L47.70322013888889,16.000004041939974L47.98679652777778,16.000004041939974L48.12858472222222,16.000004041939974L48.270372916666666,16.000004041939974L48.41216111111111,16.000004041939974L48.97931388888889,16.000004041939974L49.121102083333334,16.000004041939974L49.26289027777778,16.000004041939974L49.404678472222216,16.000004041939974L49.54646666666667,16.000004041939974L49.97183125,16.000004041939974L50.53898402777777,16.000004041939974L50.82256041666667,16.000004041939974L50.96434861111111,16.000004041939974L51.247925,16.000004041939974L51.38971319444445,16.000004041939974L51.67328958333333,16.000004041939974L51.81507777777777,16.000004041939974L51.95686597222222,16.000004041939974L52.240442361111114,16.000004041939974L52.52401875,16.000004041939974L52.807595138888885,16.000004041939974L52.94938333333333,16.000004041939974L53.091171527777774,16.000004041939974L53.37474791666667,16.000004041939974L53.516536111111115,16.000004041939974L53.65832430555556,16.000004041939974L53.8001125,16.000004041939974L53.94190069444444,16.000004041939974L54.22547708333333,16.000004041939974L54.367265277777776,16.000004041939974L54.50905347222222,16.000004041939974L54.65084166666667,16.000004041939974L54.792629861111116,16.000004041939974L54.934418055555554,16.000004041939974L55.07620625,16.000004041939974L55.50157083333333,16.000004041939974L55.64335902777778,16.000004041939974L55.78514722222222,16.000004041939974L56.02902291666667,16.000004041939974L56.4543875,16.000004041939974L56.87975208333333,16.000004041939974L57.021540277777774,16.000004041939974L57.16332847222222,16.000004041939974L57.446904861111115,16.000004041939974L57.58869305555556,16.000004041939974L57.730481250000004,16.000004041939974L57.87226944444444,16.000004041939974L58.15584583333333,16.000004041939974L58.297634027777775,16.000004041939974L58.43942222222222,16.000004041939974L58.722998611111116,16.000004041939974L59.006575,16.000004041939974L59.29015138888889,16.000004041939974L59.43193958333333,16.000004041939974L59.71551597222222,16.000004041939974L59.85730416666667,16.000004041939974L59.99909236111111,16.000004041939974L60.140880555555555,16.000004041939974L60.28266875,16.000004041939974L60.56624513888889,16.000004041939974L60.70803333333333,16.000004041939974L60.84982152777778,16.000004041939974L61.27518611111111,16.000004041939974L61.5587625,16.000004041939974L61.700550694444445,16.000004041939974L61.984127083333334,16.000004041939974L62.12591527777778,16.000004041939974L62.267703472222216,16.000004041939974L62.40949166666667,16.000004041939974L62.55127986111111,16.000004041939974L62.69306805555556,16.000004041939974L62.976644444444446,16.000004041939974L63.11843263888889,16.000004041939974L63.40200902777777,16.000004041939974L63.54379722222222,16.000004041939974L63.68558541666667,16.000004041939974L63.82737361111112,16.000004041939974L63.96916180555556,16.000004041939974L64.11094999999999,16.000004041939974L64.53631458333334,16.000004041939974L64.67810277777778,16.000004041939974L64.81989097222223,16.000004041939974L64.96167916666667,16.000004041939974L65.34734305555556,16.000004041939974L65.48913125,16.000004041939974L65.63091944444444,16.000004041939974L65.77270763888889,16.000004041939974L66.05628402777778,16.000004041939974L66.19807222222222,16.000004041939974L66.90701319444443,16.000004041939974L67.19058958333333,16.000004041939974L67.33237777777778,16.000004041939974L67.75774236111111,16.000004041939974L67.89953055555554,16.000004041939974L68.04131875,16.000004041939974L68.32489513888889,16.000004041939974L68.46668333333334,16.000004041939974L68.60847152777778,16.000004041939974L68.75025972222222,16.000004041939974L68.89204791666667,16.000004041939974L69.03383611111111,16.000004041939974L69.17562430555554,16.000004041939974L69.3174125,16.000004041939974L69.60098888888889,16.000004041939974L69.74277708333334,16.000004041939974L70.02635347222223,16.000004041939974L70.16814166666666,16.000004041939974L70.73529444444443,16.000004041939974L70.8770826388889,16.000004041939974L71.01887083333334,16.000004041939974L71.16065902777778,16.000004041939974L71.30244722222223,16.000004041939974L71.44423541666666,16.000004041939974L72.01138819444444,16.000004041939974L72.1531763888889,16.000004041939974L72.29496458333334,16.000004041939974L72.43675277777777,16.000004041939974L72.57854097222223,16.000004041939974L72.72032916666666,16.000004041939974L73.00390555555555,16.000004041939974L73.14569375,16.000004041939974L73.28748194444444,16.000004041939974L73.42927013888888,16.000004041939974L73.57105833333334,16.000004041939974L73.71284652777777,16.000004041939974L73.99642291666666,16.000004041939974L74.13821111111112,16.000004041939974L74.38208680555556,16.000004041939974L74.52387499999999,16.000004041939974L74.66566319444445,16.000004041939974L74.94923958333334,16.000004041939974L75.37460416666667,16.000004041939974L75.65818055555556,16.000004041939974L75.79996874999999,16.000004041939974L75.94175694444445,16.000004041939974L76.0835451388889,16.000004041939974L76.22533333333334,16.000004041939974L76.7924861111111,16.000004041939974L76.93427430555556,16.000004041939974L77.21785069444445,16.000004041939974L77.50142708333333,16.000004041939974L77.64321527777778,16.000004041939974L77.78500347222221,16.000004041939974L77.92679166666667,16.000004041939974L78.0685798611111,16.000004041939974L78.35215625,16.000004041939974L78.49394444444445,16.000004041939974L78.6357326388889,16.000004041939974L78.91930902777779,16.000004041939974L79.06109722222222,16.000004041939974L79.20288541666667,16.000004041939974L79.3446736111111,16.000004041939974L79.62825,16.000004041939974L79.77003819444444,16.000004041939974L80.05361458333333,16.000004041939974L80.19540277777779,16.000004041939974L80.33719097222222,16.000004041939974L80.47897916666668,16.000004041939974L80.6207673611111,16.000004041939974L80.76255555555555,16.000004041939974L80.90434375,16.000004041939974L81.04613194444444,16.000004041939974L81.1879201388889,16.000004041939974L81.32970833333333,16.000004041939974L81.89686111111111,16.000004041939974L82.03864930555555,16.000004041939974L82.1804375,16.000004041939974L82.4640138888889,16.000004041939974L82.60580208333333,16.000004041939974L83.17295486111111,16.000004041939974L83.55861875000001,16.000004041939974L83.70040694444444,16.000004041939974L83.84219513888888,16.000004041939974L84.26755972222223,16.000004041939974L84.40934791666666,16.000004041939974L84.55113611111112,16.000004041939974L84.69292430555555,16.000004041939974L84.8347125,16.000004041939974L84.97650069444444,16.000004041939974L85.11828888888888,16.000004041939974L85.26007708333334,16.000004041939974L85.40186527777777,16.000004041939974L85.54365347222223,16.000004041939974L85.68544166666666,16.000004041939974L85.82722986111112,16.000004041939974L85.96901805555555,16.000004041939974L86.11080625,16.000004041939974L86.39438263888889,16.000004041939974L86.67795902777777,16.000004041939974L86.81974722222223,16.000004041939974L86.96153541666666,16.000004041939974L87.10332361111111,16.000004041939974L87.52868819444444,16.000004041939974L87.67047638888889,16.000004041939974L87.81226458333335,16.000004041939974L87.95405277777778,16.000004041939974L88.37941736111111,16.000004041939974L88.52120555555555,16.000004041939974L88.80478194444444,16.000004041939974L88.94657013888889,16.000004041939974L89.37193472222222,16.000004041939974L89.51372291666667,16.000004041939974L89.65551111111111,16.000004041939974L89.9390875,16.000004041939974L90.08087569444444,16.000004041939974L90.22266388888889,16.000004041939974L90.64802847222222,16.000004041939974L90.78981666666667,16.000004041939974L90.93160486111111,16.000004041939974L91.07339305555556,16.000004041939974L91.21518125,16.000004041939974L91.35696944444445,16.000004041939974L91.49875763888889,16.000004041939974L91.64054583333333,16.000004041939974L91.92412222222222,16.000004041939974L92.06591041666667,16.000004041939974L92.20769861111111,16.000004041939974L92.34948680555556,16.000004041939974L93.01872708333333,16.000004041939974L93.16051527777779,16.000004041939974L93.30230347222222,16.000004041939974L93.44409166666667,16.000004041939974L93.58587986111111,16.000004041939974L93.86945625,16.000004041939974L94.15303263888889,16.000004041939974L94.43660902777778,16.000004041939974L94.57839722222222,16.000004041939974L94.72018541666667,16.000004041939974L95.00376180555556,16.000004041939974L95.14555,16.000004041939974L95.28733819444444,16.000004041939974L95.57091458333333,16.000004041939974L95.85449097222222,16.000004041939974L95.99627916666667,16.000004041939974L96.27985555555556,16.000004041939974L96.42164375,16.000004041939974L96.56343194444445,16.000004041939974L96.98879652777778,16.000004041939974L97.13058472222222,16.000004041939974L97.27237291666667,16.000004041939974L97.41416111111111,16.000004041939974L97.55594930555556,16.000004041939974L97.69773749999999,16.000004041939974L97.83952569444445,16.000004041939974L98.12310208333334,16.000004041939974L98.26489027777778,16.000004041939974L98.40667847222223,16.000004041939974L98.54846666666667,16.000004041939974L98.69025486111111,16.000004041939974L98.83204305555556,16.000004041939974L99.25740763888888,16.000004041939974L99.39919583333334,16.000004041939974L99.68277222222223,16.000004041939974L99.82456041666667,16.000004041939974L99.9663486111111,16.000004041939974L100.24992499999999,16.000004041939974L100.39171319444445,16.000004041939974L100.53350138888888,16.000004041939974L100.95886597222221,16.000004041939974L101.10065416666667,16.000004041939974L101.2424423611111,16.000004041939974L101.38423055555556,16.000004041939974L101.52601874999999,16.000004041939974L101.66780694444445,16.000004041939974L101.91168263888889,16.000004041939974L102.05347083333334,16.000004041939974L102.19525902777778,16.000004041939974L102.47883541666667,16.000004041939974L102.62062361111111,16.000004041939974L102.76241180555556,16.000004041939974L102.9042,16.000004041939974L103.04598819444443,16.000004041939974L103.18777638888889,16.000004041939974L103.47135277777778,16.000004041939974L103.89671736111111,16.000004041939974L104.4638701388889,16.000004041939974L104.88923472222223,16.000004041939974L105.03102291666666,16.000004041939974L105.17281111111112,16.000004041939974L105.31459930555555,16.000004041939974L105.4563875,16.000004041939974L105.59817569444444,16.000004041939974L105.7399638888889,16.000004041939974L105.88175208333334,16.000004041939974L106.02354027777778,16.000004041939974L106.16532847222223,16.000004041939974L106.30711666666666,16.000004041939974L106.44890486111112,16.000004041939974L106.73248125,16.000004041939974L106.87426944444444,16.000004041939974L107.29963402777777,16.000004041939974L107.58321041666666,16.000004041939974L107.72499861111112,16.000004041939974L107.86678680555555,16.000004041939974L108.00857500000001,16.000004041939974L108.15036319444444,16.000004041939974L108.43393958333334,16.000004041939974L109.00109236111112,16.000004041939974L109.14288055555555,16.000004041939974L109.28466875000001,16.000004041939974L109.56824513888888,16.000004041939974L109.71003333333334,16.000004041939974L109.85182152777777,16.000004041939974L109.99360972222223,16.000004041939974L110.27718611111112,16.000004041939974L110.5607625,16.000004041939974L111.08821458333334,16.000004041939974L111.6553673611111,16.000004041939974L112.22252013888888,16.000004041939974L112.36430833333333,16.000004041939974L112.50609652777779,16.000004041939974L112.78967291666667,16.000004041939974L112.9314611111111,16.000004041939974L113.07324930555556,16.000004041939974L113.2150375,16.000004041939974L113.35682569444445,16.000004041939974L113.64040208333333,16.000004041939974L113.78219027777779,16.000004041939974L113.92397847222222,16.000004041939974L114.06576666666668,16.000004041939974L114.2075548611111,16.000004041939974L114.34934305555556,16.000004041939974L114.63291944444444,16.000004041939974L114.77470763888888,16.000004041939974L114.91649583333333,16.000004041939974L115.20007222222222,16.000004041939974L115.48364861111111,16.000004041939974L115.62543680555557,16.000004041939974L115.767225,16.000004041939974L115.90901319444444,16.000004041939974L116.33437777777779,16.000004041939974L116.47616597222222,16.000004041939974L116.75974236111111,16.000004041939974L116.90153055555555,16.000004041939974L117.04331875,16.000004041939974L117.32689513888889,16.000004041939974L117.61047152777779,16.000004041939974L117.75225972222222,16.000004041939974L118.03583611111111,16.000004041939974L118.17762430555555,16.000004041939974L118.3194125,16.000004041939974L118.46120069444444,16.000004041939974L118.60298888888889,16.000004041939974L119.02835347222222,16.000004041939974L119.17014166666667,16.000004041939974L119.31192986111111,16.000004041939974L119.45371805555556,16.000004041939974L119.73729444444444,16.000004041939974L120.26474652777777,16.000004041939974L120.40653472222223,16.000004041939974L120.54832291666666,16.000004041939974L120.69011111111112,16.000004041939974L120.83189930555555,16.000004041939974L120.9736875,16.000004041939974L121.39905208333333,16.000004041939974L121.54084027777778,16.000004041939974L121.82441666666666,16.000004041939974L121.96620486111111,16.000004041939974L122.10799305555555,16.000004041939974L122.24978125,16.000004041939974L122.39156944444444,16.000004041939974L122.81693402777778,16.000004041939974L122.95872222222224,16.000004041939974L123.10051041666667,16.000004041939974L123.24229861111111,16.000004041939974L124.09302777777778,16.000004041939974L124.37660416666667,16.000004041939974L124.51839236111111,16.000004041939974L124.94375694444444,16.000004041939974L125.22733333333332,16.000004041939974L125.36912152777778,16.000004041939974L125.51090972222222,16.000004041939974L125.65269791666667,16.000004041939974L125.79448611111111,16.000004041939974L125.93627430555556,16.000004041939974L126.21985069444445,16.000004041939974L126.36163888888889,16.000004041939974L126.50342708333332,16.000004041939974L126.64521527777778,16.000004041939974L126.92879166666667,16.000004041939974L127.07057986111111,16.000004041939974L127.21236805555556,16.000004041939974L127.35415625,16.000004041939974L127.63773263888888,16.000004041939974L127.77952083333334,16.000004041939974L127.92130902777778,16.000004041939974L128.0630972222222,16.000004041939974L128.20488541666666,16.000004041939974L128.34667361111113,16.000004041939974L128.63025,16.000004041939974L129.05561458333335,16.000004041939974L129.1974027777778,16.000004041939974L129.58306666666667,160.000000404194L130.15021944444445,160.000000404194L130.2920076388889,160.000000404194L130.57558402777778,160.000000404194L130.71737222222222,160.000000404194L131.0009486111111,160.000000404194L131.284525,160.000000404194L131.5681013888889,160.000000404194L131.70988958333334,160.000000404194L131.85167777777778,160.000000404194L132.13525416666667,160.000000404194L132.2770423611111,160.000000404194L132.41883055555556,160.000000404194L132.56061875,160.000000404194L132.70240694444442,160.000000404194L132.8441951388889,160.000000404194L132.98598333333334,160.000000404194L133.12777152777778,160.000000404194L133.26955972222223,160.000000404194L133.41134791666667,160.000000404194L133.55313611111112,160.000000404194L133.8367125,160.000000404194L134.26207708333334,160.000000404194L134.40386527777778,160.000000404194L134.54565347222223,160.000000404194L134.82922986111112,160.000000404194L134.97101805555556,160.000000404194L135.11280625,160.000000404194L135.25459444444442,160.000000404194L135.3963826388889,160.000000404194L136.10532361111112,160.000000404194L136.24711180555556,160.000000404194L136.6724763888889,160.000000404194L136.81426458333334,160.000000404194L137.09784097222223,160.000000404194L137.23962916666665,160.000000404194L137.80678194444442,160.000000404194L137.9485701388889,160.000000404194L138.09035833333334,160.000000404194L138.37393472222223,160.000000404194L138.61781041666669,160.000000404194L138.7595986111111,160.000000404194L138.90138680555555,160.000000404194L139.043175,160.000000404194L139.18496319444446,160.000000404194L139.32675138888888,160.000000404194L139.61032777777777,160.000000404194L139.75211597222224,160.000000404194L139.8939041666667,160.000000404194L140.0356923611111,160.000000404194L140.17748055555555,160.000000404194L140.31926875,160.000000404194L140.46105694444446,160.000000404194L140.60284513888888,160.000000404194L140.74463333333333,160.000000404194L141.1699979166667,160.000000404194L141.45357430555555,160.000000404194L141.5953625,160.000000404194L141.87893888888888,160.000000404194L142.16251527777777,160.000000404194L142.30430347222222,160.000000404194L142.4460916666667,160.000000404194L142.5878798611111,160.000000404194L142.72966805555555,160.000000404194L143.01324444444447,160.000000404194L143.15503263888888,160.000000404194L143.7221854166667,160.000000404194L143.8639736111111,160.000000404194L144.00576180555555,160.000000404194L144.14755,160.000000404194L144.57291458333333,160.000000404194L144.71470277777777,160.000000404194L144.9982791666667,160.000000404194L145.1400673611111,160.000000404194L145.56543194444444,160.000000404194L145.70722013888889,160.000000404194L145.84900833333333,160.000000404194L145.99079652777777,160.000000404194L146.13258472222222,160.000000404194L146.2743729166667,160.000000404194L146.4161611111111,160.000000404194L146.55794930555555,160.000000404194L146.6997375,160.000000404194L146.84152569444444,160.000000404194L146.9833138888889,160.000000404194L147.12510208333333,160.000000404194L147.40867847222222,160.000000404194L147.79434236111112,160.000000404194L147.93613055555554,160.000000404194L148.21970694444445,160.000000404194L148.3614951388889,160.000000404194L148.50328333333331,160.000000404194L148.78685972222223,160.000000404194L148.92864791666668,160.000000404194L149.21222430555554,160.000000404194L149.3540125,160.000000404194L149.6375888888889,160.000000404194L149.92116527777776,160.000000404194L150.34652986111112,160.000000404194L150.48831805555554,160.000000404194L150.9136826388889,160.000000404194L151.19725902777776,160.000000404194L151.33904722222223,160.000000404194L151.48083541666668,160.000000404194L151.76441180555554,160.000000404194L151.90619999999998,160.000000404194L152.04798819444446,160.000000404194L152.47335277777776,160.000000404194L152.61514097222224,160.000000404194L152.89871736111112,160.000000404194L153.18229374999999,160.000000404194L153.32408194444446,160.000000404194L153.74944652777776,160.000000404194L154.03302291666668,160.000000404194L154.17481111111113,160.000000404194L154.60017569444446,160.000000404194L154.7419638888889,160.000000404194L154.88375208333332,160.000000404194L155.02554027777776,160.000000404194L155.1673284722222,160.000000404194L155.30911666666668,160.000000404194L155.45090486111113,160.000000404194L155.59269305555554,160.000000404194L155.73448125,160.000000404194L155.87626944444446,160.000000404194L156.0180576388889,160.000000404194L156.30163402777777,160.000000404194L156.4434222222222,160.000000404194L156.72699861111113,160.000000404194L157.1126625,160.000000404194L157.25445069444444,160.000000404194L157.67981527777778,160.000000404194L157.82160347222222,160.000000404194L158.1051798611111,160.000000404194L158.24696805555556,160.000000404194L158.38875625,160.000000404194L158.53054444444444,160.000000404194L158.6723326388889,160.000000404194L158.95590902777778,160.000000404194L159.09769722222222,160.000000404194L159.3812736111111,160.000000404194L159.52306180555556,160.000000404194L159.80663819444445,160.000000404194L159.9484263888889,160.000000404194L160.09021458333333,160.000000404194L160.23200277777775,160.000000404194L160.37379097222222,160.000000404194L160.51557916666667,160.000000404194L160.79915555555556,160.000000404194L161.36630833333334,160.000000404194L161.50809652777775,160.000000404194L161.64988472222223,160.000000404194L161.79167291666667,160.000000404194L161.93346111111111,160.000000404194L162.07524930555556,160.000000404194L162.2170375,160.000000404194L162.35882569444445,160.000000404194L162.5006138888889,160.000000404194L163.06776666666667,160.000000404194L163.20955486111112,160.000000404194L163.35134305555556,160.000000404194L163.49313124999998,160.000000404194L163.91849583333334,160.000000404194L164.06028402777775,160.000000404194L164.20207222222223,160.000000404194L164.48564861111112,160.000000404194L164.62743680555556,160.000000404194L164.91101319444445,160.000000404194L165.19458958333334,160.000000404194L165.33637777777776,160.000000404194L165.47816597222223,160.000000404194L165.90353055555556,160.000000404194L166.14740625000002,160.000000404194L166.28919444444443,160.000000404194L166.43098263888888,160.000000404194L166.57277083333332,160.000000404194L166.7145590277778,160.000000404194L166.8563472222222,160.000000404194L167.1399236111111,160.000000404194L167.28171180555557,160.000000404194L167.70707638888888,160.000000404194L168.4160173611111,160.000000404194L168.69959375000002,160.000000404194L168.84138194444444,160.000000404194L168.98317013888888,160.000000404194L169.12495833333332,160.000000404194L169.2667465277778,160.000000404194L169.4085347222222,160.000000404194L169.83389930555555,160.000000404194L169.97568750000002,160.000000404194L170.11747569444444,160.000000404194L170.25926388888888,160.000000404194L170.40105208333333,160.000000404194L170.68462847222222,160.000000404194L170.9682048611111,160.000000404194L171.10999305555555,160.000000404194L171.25178125000002,160.000000404194L171.53535763888888,160.000000404194L171.67714583333333,160.000000404194L171.8189340277778,160.000000404194L171.96072222222222,160.000000404194L172.10251041666666,160.000000404194L172.2442986111111,160.000000404194L172.38608680555555,160.000000404194L172.52787500000002,160.000000404194L172.66966319444444,160.000000404194L172.81145138888888,160.000000404194L173.37860416666666,160.000000404194L173.66218055555555,160.000000404194L173.80396875000002,160.000000404194L173.94575694444444,160.000000404194L174.08754513888888,160.000000404194L174.22933333333333,160.000000404194L174.65469791666666,160.000000404194L174.93827430555555,160.000000404194L175.60751458333334,160.000000404194L175.89109097222223,160.000000404194L176.03287916666667,160.000000404194L176.31645555555556,160.000000404194L176.88360833333334,160.000000404194L177.0253965277778,160.000000404194L177.16718472222223,160.000000404194L177.30897291666668,160.000000404194L177.4507611111111,160.000000404194L178.01791388888887,160.000000404194L178.3014902777778,160.000000404194L178.44327847222223,160.000000404194L178.7268548611111,160.000000404194L178.86864305555557,160.000000404194L179.29400763888887,160.000000404194L179.43579583333332,160.000000404194L179.5775840277778,160.000000404194L179.86116041666668,160.000000404194L180.14473680555557,160.000000404194L180.286525,160.000000404194L180.42831319444446,160.000000404194L180.71188958333332,160.000000404194L180.8536777777778,160.000000404194L181.13725416666668,160.000000404194L181.2790423611111,160.000000404194L181.42083055555554,160.000000404194L181.70440694444446,160.000000404194L181.84619513888887,160.000000404194L181.98798333333332,160.000000404194L182.1297715277778,160.000000404194L182.27155972222224,160.000000404194L182.41334791666668,160.000000404194L182.8387125,160.000000404194L182.98050069444446,160.000000404194L183.26407708333332,160.000000404194L183.4058652777778,160.000000404194L183.54765347222224,160.000000404194L183.68944166666668,160.000000404194L183.97301805555554,160.000000404194L184.11480625000002,160.000000404194L184.25659444444446,160.000000404194L184.5004701388889,160.000000404194L184.92583472222222,160.000000404194L185.06762291666666,160.000000404194L185.20941111111114,160.000000404194L185.91835208333333,160.000000404194L186.20192847222222,160.000000404194L186.48550486111114,160.000000404194L186.62729305555555,160.000000404194L186.76908125,160.000000404194L187.19444583333333,160.000000404194L187.33623402777778,160.000000404194L187.47802222222222,160.000000404194L187.61981041666667,160.000000404194L187.7615986111111,160.000000404194L187.90338680555556,160.000000404194L188.045175,160.000000404194L188.18696319444444,160.000000404194L188.47053958333333,160.000000404194L188.61232777777778,160.000000404194L188.89590416666667,160.000000404194L189.0376923611111,160.000000404194L189.17948055555556,160.000000404194L189.32126875,160.000000404194L189.74663333333334,160.000000404194L189.88842152777778,160.000000404194L190.17199791666667,160.000000404194L190.3137861111111,160.000000404194L190.45557430555556,160.000000404194L190.5973625,160.000000404194L190.73915069444445,160.000000404194L190.8809388888889,160.000000404194L191.0227270833333,160.000000404194L191.16451527777778,160.000000404194L191.30630347222223,160.000000404194L191.44809166666667,160.000000404194L191.73166805555556,160.000000404194L191.87345625,160.000000404194L192.1570326388889,160.000000404194L192.2988208333333,160.000000404194L192.58239722222223,160.000000404194L192.72418541666667,160.000000404194L193.00776180555556,160.000000404194L193.14955,160.000000404194L193.29133819444445,160.000000404194L193.4331263888889,160.000000404194L193.67700208333335,160.000000404194L193.81879027777777,160.000000404194L194.10236666666665,160.000000404194L194.38594305555557,160.000000404194L194.66951944444443,160.000000404194L194.8113076388889,160.000000404194L195.09488402777777,160.000000404194L195.2366722222222,160.000000404194L195.37846041666666,160.000000404194L195.52024861111113,160.000000404194L195.66203680555557,160.000000404194L195.803825,160.000000404194L195.94561319444443,160.000000404194L196.5127659722222,160.000000404194L196.65455416666666,160.000000404194L196.79634236111113,160.000000404194L197.07991875,160.000000404194L197.22170694444443,160.000000404194L197.36349513888888,160.000000404194L197.64707152777777,160.000000404194L197.93064791666666,160.000000404194L198.21422430555558,160.000000404194L198.49780069444444,160.000000404194L198.78137708333335,160.000000404194L198.92316527777777,160.000000404194L199.06495347222221,160.000000404194L199.20674166666666,160.000000404194L199.49031805555558,160.000000404194L199.63210625,160.000000404194L199.77389444444444,160.000000404194L199.91568263888888,160.000000404194L200.05747083333335,160.000000404194L200.19925902777777,160.000000404194L200.6246236111111,160.000000404194L200.76641180555558,160.000000404194L201.19177638888888,160.000000404194L201.33356458333336,160.000000404194L201.47535277777777,160.000000404194L201.75892916666666,160.000000404194L201.9007173611111,160.000000404194L202.32608194444444,160.000000404194L202.46787013888888,160.000000404194L202.60965833333336,160.000000404194L202.9953222222222,160.000000404194L203.13711041666667,160.000000404194L203.562475,160.000000404194L203.70426319444442,160.000000404194L203.8460513888889,160.000000404194L204.12962777777778,160.000000404194L204.55499236111112,160.000000404194L204.69678055555556,160.000000404194L205.1221451388889,160.000000404194L205.26393333333334,160.000000404194L205.40572152777779,160.000000404194L205.97287430555556,160.000000404194L206.25645069444442,160.000000404194L206.3982388888889,160.000000404194L206.54002708333334,160.000000404194L206.6818152777778,160.000000404194L206.8236034722222,160.000000404194L206.96539166666665,160.000000404194L207.10717986111112,160.000000404194L207.53254444444443,160.000000404194L207.6743326388889,160.000000404194L207.81612083333334,160.000000404194L207.9579090277778,160.000000404194L208.24148541666665,160.000000404194L208.52506180555557,160.000000404194L208.66685,160.000000404194L209.09221458333334,160.000000404194L209.2340027777778,160.000000404194L209.51757916666665,160.000000404194L209.65936736111112,160.000000404194L209.80115555555557,160.000000404194L209.94294375,160.000000404194L210.08473194444443,160.000000404194L210.22652013888887,160.000000404194L210.6518847222222,160.000000404194L210.79367291666665,160.000000404194L211.36082569444443,160.000000404194L211.50261388888887,160.000000404194L211.64440208333335,160.000000404194L211.7861902777778,160.000000404194L212.03006597222222,160.000000404194L212.3136423611111,160.000000404194L212.45543055555555,160.000000404194L212.73900694444447,160.000000404194L212.88079513888889,160.000000404194L213.16437152777777,160.000000404194L213.44794791666666,160.000000404194L213.5897361111111,160.000000404194L213.73152430555555,160.000000404194L213.8733125,160.000000404194L214.1568888888889,160.000000404194L214.29867708333333,160.000000404194L214.58225347222222,160.000000404194L214.72404166666666,160.000000404194L215.00761805555555,160.000000404194L215.14940625,160.000000404194L215.4329826388889,160.000000404194L215.57477083333333,160.000000404194L215.71655902777778,160.000000404194L215.85834722222222,160.000000404194L216.28371180555555,160.000000404194L216.56728819444444,160.000000404194L216.7090763888889,160.000000404194L216.85086458333333,160.000000404194L216.99265277777778,160.000000404194L217.4180173611111,160.000000404194L217.55980555555556,160.000000404194L217.70159375,160.000000404194L217.9851701388889,160.000000404194L218.12695833333333,160.000000404194L218.26874652777778,160.000000404194L218.41053472222222,160.000000404194L218.55232291666664,160.000000404194L218.83589930555556,160.000000404194L219.54484027777778,160.000000404194L219.82841666666664,160.000000404194L220.67914583333334,160.000000404194L220.82093402777778,160.000000404194L221.20659791666668,160.000000404194L221.3483861111111,160.000000404194L221.6319625,160.000000404194L221.77375069444446,160.000000404194L222.19911527777776,160.000000404194L222.34090347222224,160.000000404194L222.6244798611111,160.000000404194L222.76626805555554,160.000000404194L222.90805625,160.000000404194L223.04984444444446,160.000000404194L223.1916326388889,160.000000404194L223.47520902777777,160.000000404194L223.75878541666668,160.000000404194L223.9005736111111,160.000000404194L224.04236180555554,160.000000404194L224.18415,160.000000404194L224.32593819444446,160.000000404194L224.4677263888889,160.000000404194L224.60951458333332,160.000000404194L225.1766673611111,160.000000404194L225.31845555555554,160.000000404194L225.46024375,160.000000404194L225.60203194444446,160.000000404194L225.7438201388889,160.000000404194L226.1691847222222,160.000000404194L226.31097291666669,160.000000404194L226.4527611111111,160.000000404194L227.0199138888889,160.000000404194L227.16170208333332,160.000000404194L227.30349027777777,160.000000404194L227.7288548611111,160.000000404194L227.87064305555555,160.000000404194L228.15421944444444,160.000000404194L228.2960076388889,160.000000404194L228.57958402777777,160.000000404194L228.72137222222221,160.000000404194L229.0049486111111,160.000000404194L229.14673680555555,160.000000404194L229.43031319444444,160.000000404194L229.5721013888889,160.000000404194L229.71388958333333,160.000000404194L229.85567777777777,160.000000404194L229.99746597222222,160.000000404194L230.1392541666667,160.000000404194L231.09207083333334,160.000000404194L231.51743541666667,160.000000404194L231.65922361111112,160.000000404194L231.9428,160.000000404194L232.2263763888889,160.000000404194L232.36816458333334,160.000000404194L232.79352916666667,160.000000404194L232.93531736111112,160.000000404194L233.07710555555556,160.000000404194L233.21889374999998,160.000000404194L233.64425833333334,160.000000404194L233.78604652777776,160.000000404194L233.92783472222223,160.000000404194L234.06962291666667,160.000000404194L234.35319930555556,160.000000404194L234.63677569444445,160.000000404194L234.7785638888889,160.000000404194L234.92035208333334,160.000000404194L235.06214027777776,160.000000404194L235.48750486111112,160.000000404194L235.77108124999998,160.000000404194L235.91286944444445,160.000000404194L236.0546576388889,160.000000404194L236.19644583333334,160.000000404194L236.33823402777776,160.000000404194L236.4800222222222,160.000000404194L236.62181041666668,160.000000404194L236.90538680555557,160.000000404194L237.04717499999998,160.000000404194L237.18896319444445,160.000000404194L237.3307513888889,160.000000404194L237.47253958333334,160.000000404194L237.61432777777776,160.000000404194L237.7561159722222,160.000000404194L237.89790416666668,160.000000404194L238.03969236111112,160.000000404194L238.18148055555557,160.000000404194L238.32326874999998,160.000000404194L239.17399791666668,160.000000404194L239.55966180555555,160.000000404194L239.70145000000002,160.000000404194L239.84323819444444,160.000000404194L240.12681458333333,160.000000404194L240.2686027777778,160.000000404194L240.83575555555555,160.000000404194L240.97754375000002,160.000000404194L241.11933194444444,160.000000404194L241.26112013888888,160.000000404194L241.68648472222222,160.000000404194L241.82827291666666,160.000000404194L241.9700611111111,160.000000404194L242.11184930555555,160.000000404194L242.25363750000002,160.000000404194L242.53721388888889,160.000000404194L242.67900208333333,160.000000404194L243.2461548611111,160.000000404194L243.38794305555555,160.000000404194" style="fill: none;" fill="none"></path></g></g></g></g></g></g><g transform="translate(74, 176)" clip-path="url(#clip_1)"><clipPath id="clip_1"><rect width="255" height="24"></rect></clipPath><g><g><line x1="0" y1="0" x2="0" y2="5" style="visibility: inherit;" fill="rgb(0, 0, 0)" stroke="rgb(204, 204, 204)" stroke-width="1px"></line><line x1="28.357638888888886" y1="0" x2="28.357638888888886" y2="5" style="visibility: inherit;" fill="rgb(0, 0, 0)" stroke="rgb(204, 204, 204)" stroke-width="1px"></line><line x1="56.71527777777777" y1="0" x2="56.71527777777777" y2="5" style="visibility: inherit;" fill="rgb(0, 0, 0)" stroke="rgb(204, 204, 204)" stroke-width="1px"></line><line x1="85.07291666666666" y1="0" x2="85.07291666666666" y2="5" style="visibility: inherit;" fill="rgb(0, 0, 0)" stroke="rgb(204, 204, 204)" stroke-width="1px"></line><line x1="113.43055555555554" y1="0" x2="113.43055555555554" y2="5" style="visibility: inherit;" fill="rgb(0, 0, 0)" stroke="rgb(204, 204, 204)" stroke-width="1px"></line><line x1="141.78819444444446" y1="0" x2="141.78819444444446" y2="5" style="visibility: inherit;" fill="rgb(0, 0, 0)" stroke="rgb(204, 204, 204)" stroke-width="1px"></line><line x1="170.14583333333331" y1="0" x2="170.14583333333331" y2="5" style="visibility: inherit;" fill="rgb(0, 0, 0)" stroke="rgb(204, 204, 204)" stroke-width="1px"></line><line x1="198.50347222222223" y1="0" x2="198.50347222222223" y2="5" style="visibility: inherit;" fill="rgb(0, 0, 0)" stroke="rgb(204, 204, 204)" stroke-width="1px"></line><line x1="226.8611111111111" y1="0" x2="226.8611111111111" y2="5" style="visibility: inherit;" fill="rgb(0, 0, 0)" stroke="rgb(204, 204, 204)" stroke-width="1px"></line><line x1="255.21875" y1="0" x2="255.21875" y2="5" style="visibility: inherit;" fill="rgb(0, 0, 0)" stroke="rgb(204, 204, 204)" stroke-width="1px"></line></g><g transform="translate(0, 8)"><text x="0" y="0" dx="0em" dy="0.95em" style="text-anchor: middle; visibility: hidden; font-family: Roboto, sans-serif; font-size: 12px; font-weight: 200;" fill="rgb(33, 33, 33)" stroke="none" stroke-width="1px">-10k</text><text x="28.357638888888886" y="0" dx="0em" dy="0.95em" style="text-anchor: middle; visibility: inherit; font-family: Roboto, sans-serif; font-size: 12px; font-weight: 200;" fill="rgb(33, 33, 33)" stroke="none" stroke-width="1px">0</text><text x="56.71527777777777" y="0" dx="0em" dy="0.95em" style="text-anchor: middle; visibility: inherit; font-family: Roboto, sans-serif; font-size: 12px; font-weight: 200;" fill="rgb(33, 33, 33)" stroke="none" stroke-width="1px">10k</text><text x="85.07291666666666" y="0" dx="0em" dy="0.95em" style="text-anchor: middle; visibility: inherit; font-family: Roboto, sans-serif; font-size: 12px; font-weight: 200;" fill="rgb(33, 33, 33)" stroke="none" stroke-width="1px">20k</text><text x="113.43055555555554" y="0" dx="0em" dy="0.95em" style="text-anchor: middle; visibility: inherit; font-family: Roboto, sans-serif; font-size: 12px; font-weight: 200;" fill="rgb(33, 33, 33)" stroke="none" stroke-width="1px">30k</text><text x="141.78819444444446" y="0" dx="0em" dy="0.95em" style="text-anchor: middle; visibility: inherit; font-family: Roboto, sans-serif; font-size: 12px; font-weight: 200;" fill="rgb(33, 33, 33)" stroke="none" stroke-width="1px">40k</text><text x="170.14583333333331" y="0" dx="0em" dy="0.95em" style="text-anchor: middle; visibility: inherit; font-family: Roboto, sans-serif; font-size: 12px; font-weight: 200;" fill="rgb(33, 33, 33)" stroke="none" stroke-width="1px">50k</text><text x="198.50347222222223" y="0" dx="0em" dy="0.95em" style="text-anchor: middle; visibility: inherit; font-family: Roboto, sans-serif; font-size: 12px; font-weight: 200;" fill="rgb(33, 33, 33)" stroke="none" stroke-width="1px">60k</text><text x="226.8611111111111" y="0" dx="0em" dy="0.95em" style="text-anchor: middle; visibility: inherit; font-family: Roboto, sans-serif; font-size: 12px; font-weight: 200;" fill="rgb(33, 33, 33)" stroke="none" stroke-width="1px">70k</text><text x="255.21875" y="0" dx="0em" dy="0.95em" style="text-anchor: middle; visibility: hidden; font-family: Roboto, sans-serif; font-size: 12px; font-weight: 200;" fill="rgb(33, 33, 33)" stroke="none" stroke-width="1px">80k</text></g><line x1="0" y1="0" x2="255.21875" y2="0" fill="rgb(0, 0, 0)" stroke="rgb(204, 204, 204)" stroke-width="1px"></line></g></g></g></g></svg>