<svg viewBox="0 0 330 200" xmlns="http://www.w3.org/2000/svg"><g><g><g><g><g><line x1="53.1875" y1="176" x2="48.1875" y2="176" style="visibility: inherit;" fill="rgb(0, 0, 0)" stroke="rgb(204, 204, 204)" stroke-width="1px"></line><line x1="53.1875" y1="162.46153846153848" x2="48.1875" y2="162.46153846153848" style="visibility: inherit;" fill="rgb(0, 0, 0)" stroke="rgb(204, 204, 204)" stroke-width="1px"></line><line x1="53.1875" y1="148.92307692307693" x2="48.1875" y2="148.92307692307693" style="visibility: inherit;" fill="rgb(0, 0, 0)" stroke="rgb(204, 204, 204)" stroke-width="1px"></line><line x1="53.1875" y1="135.38461538461536" x2="48.1875" y2="135.38461538461536" style="visibility: inherit;" fill="rgb(0, 0, 0)" stroke="rgb(204, 204, 204)" stroke-width="1px"></line><line x1="53.1875" y1="121.84615384615384" x2="48.1875" y2="121.84615384615384" style="visibility: inherit;" fill="rgb(0, 0, 0)" stroke="rgb(204, 204, 204)" stroke-width="1px"></line><line x1="53.1875" y1="108.30769230769232" x2="48.1875" y2="108.30769230769232" style="visibility: inherit;" fill="rgb(0, 0, 0)" stroke="rgb(204, 204, 204)" stroke-width="1px"></line><line x1="53.1875" y1="94.76923076923079" x2="48.1875" y2="94.76923076923079" style="visibility: inherit;" fill="rgb(0, 0, 0)" stroke="rgb(204, 204, 204)" stroke-width="1px"></line><line x1="53.1875" y1="81.23076923076924" x2="48.1875" y2="81.23076923076924" style="visibility: inherit;" fill="rgb(0, 0, 0)" stroke="rgb(204, 204, 204)" stroke-width="1px"></line><line x1="53.1875" y1="67.69230769230768" x2="48.1875" y2="67.69230769230768" style="visibility: inherit;" fill="rgb(0, 0, 0)" stroke="rgb(204, 204, 204)" stroke-width="1px"></line><line x1="53.1875" y1="54.15384615384616" x2="48.1875" y2="54.15384615384616" style="visibility: inherit;" fill="rgb(0, 0, 0)" stroke="rgb(204, 204, 204)" stroke-width="1px"></line><line x1="53.1875" y1="40.61538461538463" x2="48.1875" y2="40.61538461538463" style="visibility: inherit;" fill="rgb(0, 0, 0)" stroke="rgb(204, 204, 204)" stroke-width="1px"></line><line x1="53.1875" y1="27.07692307692308" x2="48.1875" y2="27.07692307692308" style="visibility: inherit;" fill="rgb(0, 0, 0)" stroke="rgb(204, 204, 204)" stroke-width="1px"></line><line x1="53.1875" y1="13.53846153846153" x2="48.1875" y2="13.53846153846153" style="visibility: inherit;" fill="rgb(0, 0, 0)" stroke="rgb(204, 204, 204)" stroke-width="1px"></line><line x1="53.1875" y1="0" x2="48.1875" y2="0" style="visibility: inherit;" fill="rgb(0, 0, 0)" stroke="rgb(204, 204, 204)" stroke-width="1px"></line></g><g transform="translate(43.1875, 0)"><text x="0" y="176" dx="0em" dy="0.3em" style="text-anchor: end; visibility: hidden; font-family: Roboto, sans-serif; font-size: 12px; font-weight: 200;" fill="rgb(33, 33, 33)" stroke="none" stroke-width="1px">0.04</text><text x="0" y="162.46153846153848" dx="0em" dy="0.3em" style="text-anchor: end; visibility: inherit; font-family: Roboto, sans-serif; font-size: 12px; font-weight: 200;" fill="rgb(33, 33, 33)" stroke="none" stroke-width="1px">0.06</text><text x="0" y="148.92307692307693" dx="0em" dy="0.3em" style="text-anchor: end; visibility: hidden; font-family: Roboto, sans-serif; font-size: 12px; font-weight: 200;" fill="rgb(33, 33, 33)" stroke="none" stroke-width="1px">0.08</text><text x="0" y="135.38461538461536" dx="0em" dy="0.3em" style="text-anchor: end; visibility: inherit; font-family: Roboto, sans-serif; font-size: 12px; font-weight: 200;" fill="rgb(33, 33, 33)" stroke="none" stroke-width="1px">0.1</text><text x="0" y="121.84615384615384" dx="0em" dy="0.3em" style="text-anchor: end; visibility: hidden; font-family: Roboto, sans-serif; font-size: 12px; font-weight: 200;" fill="rgb(33, 33, 33)" stroke="none" stroke-width="1px">0.12</text><text x="0" y="108.30769230769232" dx="0em" dy="0.3em" style="text-anchor: end; visibility: inherit; font-family: Roboto, sans-serif; font-size: 12px; font-weight: 200;" fill="rgb(33, 33, 33)" stroke="none" stroke-width="1px">0.14</text><text x="0" y="94.76923076923079" dx="0em" dy="0.3em" style="text-anchor: end; visibility: hidden; font-family: Roboto, sans-serif; font-size: 12px; font-weight: 200;" fill="rgb(33, 33, 33)" stroke="none" stroke-width="1px">0.16</text><text x="0" y="81.23076923076924" dx="0em" dy="0.3em" style="text-anchor: end; visibility: inherit; font-family: Roboto, sans-serif; font-size: 12px; font-weight: 200;" fill="rgb(33, 33, 33)" stroke="none" stroke-width="1px">0.18</text><text x="0" y="67.69230769230768" dx="0em" dy="0.3em" style="text-anchor: end; visibility: hidden; font-family: Roboto, sans-serif; font-size: 12px; font-weight: 200;" fill="rgb(33, 33, 33)" stroke="none" stroke-width="1px">0.2</text><text x="0" y="54.15384615384616" dx="0em" dy="0.3em" style="text-anchor: end; visibility: inherit; font-family: Roboto, sans-serif; font-size: 12px; font-weight: 200;" fill="rgb(33, 33, 33)" stroke="none" stroke-width="1px">0.22</text><text x="0" y="40.61538461538463" dx="0em" dy="0.3em" style="text-anchor: end; visibility: hidden; font-family: Roboto, sans-serif; font-size: 12px; font-weight: 200;" fill="rgb(33, 33, 33)" stroke="none" stroke-width="1px">0.24</text><text x="0" y="27.07692307692308" dx="0em" dy="0.3em" style="text-anchor: end; visibility: inherit; font-family: Roboto, sans-serif; font-size: 12px; font-weight: 200;" fill="rgb(33, 33, 33)" stroke="none" stroke-width="1px">0.26</text><text x="0" y="13.53846153846153" dx="0em" dy="0.3em" style="text-anchor: end; visibility: hidden; font-family: Roboto, sans-serif; font-size: 12px; font-weight: 200;" fill="rgb(33, 33, 33)" stroke="none" stroke-width="1px">0.28</text><text x="0" y="0" dx="0em" dy="0.3em" style="text-anchor: end; visibility: hidden; font-family: Roboto, sans-serif; font-size: 12px; font-weight: 200;" fill="rgb(33, 33, 33)" stroke="none" stroke-width="1px">0.3</text></g><line x1="53.1875" y1="0" x2="53.1875" y2="176" fill="rgb(0, 0, 0)" stroke="rgb(204, 204, 204)" stroke-width="1px"></line></g></g><g transform="translate(53, 0)" clip-path="url(#clip_0)"><clipPath id="clip_0"><rect width="276" height="176"></rect></clipPath><g><g><g><line x1="0" y1="0" x2="0" y2="176" fill="rgb(0, 0, 0)" stroke="rgb(66, 66, 66)" stroke-width="1px" opacity="0.25"></line><line x1="30.756944444444443" y1="0" x2="30.756944444444443" y2="176" fill="rgb(0, 0, 0)" stroke="rgb(66, 66, 66)" stroke-width="1px" opacity="0.25"></line><line x1="61.513888888888886" y1="0" x2="61.513888888888886" y2="176" fill="rgb(0, 0, 0)" stroke="rgb(66, 66, 66)" stroke-width="1px" opacity="0.25"></line><line x1="92.27083333333333" y1="0" x2="92.27083333333333" y2="176" fill="rgb(0, 0, 0)" stroke="rgb(66, 66, 66)" stroke-width="1px" opacity="0.25"></line><line x1="123.02777777777777" y1="0" x2="123.02777777777777" y2="176" fill="rgb(0, 0, 0)" stroke="rgb(66, 66, 66)" stroke-width="1px" opacity="0.25"></line><line x1="153.78472222222223" y1="0" x2="153.78472222222223" y2="176" fill="rgb(0, 0, 0)" stroke="rgb(66, 66, 66)" stroke-width="1px" opacity="0.25"></line><line x1="184.54166666666666" y1="0" x2="184.54166666666666" y2="176" fill="rgb(0, 0, 0)" stroke="rgb(66, 66, 66)" stroke-width="1px" opacity="0.25"></line><line x1="215.29861111111111" y1="0" x2="215.29861111111111" y2="176" fill="rgb(0, 0, 0)" stroke="rgb(66, 66, 66)" stroke-width="1px" opacity="0.25"></line><line x1="246.05555555555554" y1="0" x2="246.05555555555554" y2="176" fill="rgb(0, 0, 0)" stroke="rgb(66, 66, 66)" stroke-width="1px" opacity="0.25"></line><line x1="276.8125" y1="0" x2="276.8125" y2="176" fill="rgb(0, 0, 0)" stroke="rgb(66, 66, 66)" stroke-width="1px" opacity="0.25"></line></g><g><line x1="0" y1="176" x2="276.8125" y2="176" fill="rgb(0, 0, 0)" stroke="rgb(66, 66, 66)" stroke-width="1px" opacity="0.25"></line><line x1="0" y1="162.46153846153848" x2="276.8125" y2="162.46153846153848" fill="rgb(0, 0, 0)" stroke="rgb(66, 66, 66)" stroke-width="1px" opacity="0.25"></line><line x1="0" y1="148.92307692307693" x2="276.8125" y2="148.92307692307693" fill="rgb(0, 0, 0)" stroke="rgb(66, 66, 66)" stroke-width="1px" opacity="0.25"></line><line x1="0" y1="135.38461538461536" x2="276.8125" y2="135.38461538461536" fill="rgb(0, 0, 0)" stroke="rgb(66, 66, 66)" stroke-width="1px" opacity="0.25"></line><line x1="0" y1="121.84615384615384" x2="276.8125" y2="121.84615384615384" fill="rgb(0, 0, 0)" stroke="rgb(66, 66, 66)" stroke-width="1px" opacity="0.25"></line><line x1="0" y1="108.30769230769232" x2="276.8125" y2="108.30769230769232" fill="rgb(0, 0, 0)" stroke="rgb(66, 66, 66)" stroke-width="1px" opacity="0.25"></line><line x1="0" y1="94.76923076923079" x2="276.8125" y2="94.76923076923079" fill="rgb(0, 0, 0)" stroke="rgb(66, 66, 66)" stroke-width="1px" opacity="0.25"></line><line x1="0" y1="81.23076923076924" x2="276.8125" y2="81.23076923076924" fill="rgb(0, 0, 0)" stroke="rgb(66, 66, 66)" stroke-width="1px" opacity="0.25"></line><line x1="0" y1="67.69230769230768" x2="276.8125" y2="67.69230769230768" fill="rgb(0, 0, 0)" stroke="rgb(66, 66, 66)" stroke-width="1px" opacity="0.25"></line><line x1="0" y1="54.15384615384616" x2="276.8125" y2="54.15384615384616" fill="rgb(0, 0, 0)" stroke="rgb(66, 66, 66)" stroke-width="1px" opacity="0.25"></line><line x1="0" y1="40.61538461538463" x2="276.8125" y2="40.61538461538463" fill="rgb(0, 0, 0)" stroke="rgb(66, 66, 66)" stroke-width="1px" opacity="0.25"></line><line x1="0" y1="27.07692307692308" x2="276.8125" y2="27.07692307692308" fill="rgb(0, 0, 0)" stroke="rgb(66, 66, 66)" stroke-width="1px" opacity="0.25"></line><line x1="0" y1="13.53846153846153" x2="276.8125" y2="13.53846153846153" fill="rgb(0, 0, 0)" stroke="rgb(66, 66, 66)" stroke-width="1px" opacity="0.25"></line><line x1="0" y1="0" x2="276.8125" y2="0" fill="rgb(0, 0, 0)" stroke="rgb(66, 66, 66)" stroke-width="1px" opacity="0.25"></line></g></g></g><g><g><line x1="0" y1="203.07692307692307" x2="276.8125" y2="203.07692307692307" fill="rgb(0, 0, 0)" stroke="rgb(153, 153, 153)" stroke-width="1.5px"></line></g></g><g><g><line x1="30.756944444444443" y1="0" x2="30.756944444444443" y2="176" fill="rgb(0, 0, 0)" stroke="rgb(153, 153, 153)" stroke-width="1.5px"></line></g></g><g><g><g><g><g><path stroke="rgb(255, 112, 67)" stroke-width="2px" d="M41.01746111111111,-1.495402743370395L41.17124583333333,0.43804808959648867L41.32503055555556,4.637700915407894L41.47881527777778,0.7524068260250214L41.78638472222222,6.325009476352449L41.94016944444445,8.001417781164186L42.24773888888889,14.696918214812984L42.555308333333336,15.444258511577045L42.86287777777778,21.170996940488603L43.0166625,26.732358231599655L43.170447222222215,38.52792140285191L43.32423194444444,35.28795792217798L43.63180138888889,31.154589357841594L43.78558611111111,23.641298190318146L44.093155555555555,26.70212742376048L44.24694027777778,30.308963609173723L44.400724999999994,35.58242102685655L44.70829444444444,35.31362740026073L44.86207916666667,37.654949253219954L45.63100277777777,46.994153487244375L46.24614166666667,50.323635952209955L46.39992638888889,54.376733102017305L46.86128055555555,54.233904021014524L47.01506527777777,44.74398709175156L47.32263472222222,52.28946024586749L47.476419444444446,60.68853531770063L47.630204166666665,64.83174364768448L47.78398888888889,63.32520538707825L47.93777361111111,61.79033627135167L48.09155833333333,61.795246596654536L48.24534305555555,61.58957470113332L48.5529125,65.2548261846514L48.706697222222225,68.38734179620721L48.860481944444444,62.711987380111275L49.47562083333333,67.82758001598086L49.62940555555556,71.73009262335337L50.24454444444445,72.51774744624197L50.39832916666666,75.98687564118362L50.81662361111111,80.06066440260756L50.97040833333334,80.78009514777133L51.12419305555556,77.72017145798183L51.27797777777778,79.4651172162902L51.4317625,78.71824749077078L51.739331944444444,80.67409358617952L52.04690138888889,81.37559297844301L52.20068611111111,82.02302107496394L52.35447083333333,81.69686665933101L52.50825555555555,81.35644256170437L53.12339444444444,88.56382540934177L53.27717916666667,78.75773136292403L53.43096388888889,80.19266627301097L53.58474861111111,85.10990045937262L53.73853333333333,89.3133132696797L54.1998875,90.32643140980117L54.81502638888889,90.70346469199228L55.122595833333335,95.62210085240807L55.276380555555555,96.76132922411949L55.58395,94.42286747489197L55.73773472222223,90.39472484190635L56.04530416666666,95.18378369019209L56.19908888888889,98.54487412529502L56.35287361111111,98.02893179822203L56.660443055555554,100.27998854388964L56.9680125,100.73142031784802L57.27558194444444,102.88095983148875L57.42936666666667,101.86791182465574L57.583151388888886,100.31110775094484L57.89072083333333,100.07582025852403L58.04450555555556,99.4597990158181L58.19829027777778,93.17052841626108L58.352075,96.39790755315583L58.50585972222222,102.75643737657782L58.813429166666666,103.58167734974666L58.96721388888889,105.87509676770179L59.12099861111111,105.5223760350051L59.27478333333334,104.55452974697964L59.42856805555556,99.36440919398949L59.58235277777777,100.3533005298449L59.7361375,104.74013975288571L60.197491666666664,104.11075635292868L60.35127638888889,105.69974066936219L60.50506111111111,104.39103815537331L60.76957083333333,106.9916352017849L61.230925,111.66300742898392L61.692279166666665,105.71530551083366L61.846063888888885,108.25927713044665L61.99984861111111,110.58466274961434L62.30741805555556,110.10259760000147L62.46120277777778,106.3511051597558L62.614987500000005,111.88089585400871L62.76877222222222,111.43549439048047L63.076341666666664,110.3334785413552L63.23012638888889,109.32832455567907L63.38391111111111,104.95226878712776L63.69148055555556,107.3016028423826L63.99905,107.70452667500587L64.30661944444444,108.83567067290186L64.46040416666666,110.70789221615192L64.76797361111112,113.35207341633291L64.92175833333333,117.26883269309387L65.07554305555556,116.47450061049462L65.22932777777777,114.26581239163109L65.3831125,116.57010637841316L65.69068194444445,114.04604726597988L65.84446666666666,111.12071520381213L65.99825138888889,112.09818095510258L66.45960555555556,113.29066761506785L66.767175,115.76867886059624L66.92095972222222,119.37369254907775L67.22852916666668,117.53223606249485L67.38231388888889,115.07785872675377L67.53609861111111,117.9215589801835L67.68988333333333,119.89027762103434L67.84366805555555,120.39310964618673L67.99745277777778,117.02605567747318L68.30502222222222,118.06623313558174L68.45880694444445,116.43747403920473L68.76637638888889,119.82641103226868L68.92016111111111,119.34677354678102L69.07394583333333,120.14527176820297L69.22773055555557,120.26244121104011L69.38151527777778,123.37700352532308L69.53529999999999,121.52312145371361L69.99665416666667,122.30376585383075L70.15043888888889,120.8088305146718L70.30422361111111,121.63947160961953L70.45800833333334,119.69327629850254L70.87630277777778,118.57324612883296L71.0300875,113.92843026643457L71.18387222222223,115.57485976743287L71.33765694444445,118.40696513930588L71.64522638888889,121.04737414930194L71.79901111111111,122.81471365331738L72.56793472222222,124.27430800167812L72.87550416666666,116.82436898597626L73.0292888888889,120.59637960022741L73.49064305555555,121.98320237074388L73.64442777777776,124.31234114654393L73.7982125,124.42137116319304L74.10578194444444,125.67306575575368L74.25956666666666,126.78335106656445L74.4133513888889,128.51937335808068L74.56713611111111,128.40536436072995L74.72092083333334,126.53839100700897L74.87470555555555,122.24483351566684L75.02849027777778,124.34304546785253L75.182275,123.59685643321491L75.48984444444444,126.92919549092916L75.64362916666667,127.88784057254446L75.95119861111111,126.43972869772777L76.10498333333332,128.38704440628928L76.72012222222222,128.9381655625475L76.87390694444446,130.29298947148894L77.02769166666667,129.8699875596L77.1814763888889,128.99007593208475L77.33526111111111,128.80129222227106L77.48904583333332,127.90325807332468L78.10418472222221,127.7668479811197L78.25796944444446,131.86524567468163L78.41175416666667,133.4655588897474L78.56553888888888,133.8722905490091L78.71932361111111,133.62740346400912L78.87310833333333,132.21330544211162L79.18067777777777,132.21043479953823L79.3344625,130.90044034567708L79.48824722222223,126.79645978928255L79.64203194444444,131.06114042986744L79.79581666666667,134.22684569150718L79.94960138888888,133.2839104060378L80.25717083333333,131.83275799940458L80.41095555555556,130.81901155658664L80.67546527777777,132.23094373286932L80.82925,131.76157178394394L80.98303472222223,132.4293919182104L81.29060416666667,131.93575573468058L81.75195833333333,127.05002848118545L82.05952777777777,132.17507943260213L82.2133125,130.45797432464727L82.36709722222223,130.0494319040183L82.52088194444444,130.56401239863655L82.67466666666667,131.90529415763848L83.28980555555555,133.92151478017598L83.44359027777779,133.69061022543357L83.75115972222223,137.29085631740313L84.05872916666667,135.13114285397478L84.21251388888889,133.65158721807524L84.3662986111111,132.8325438797648L84.52008333333333,134.79232294698073L84.67386805555556,134.97117102302664L84.9814375,136.54541344919946L85.13522222222223,136.27745224385487L85.28900694444445,136.35030115271408L85.59657638888889,135.24706087668235L85.7503611111111,133.69768993124293L85.90414583333333,132.9986911227355L86.05793055555556,135.92231150650355L86.3655,136.94550337717342L86.51928472222221,136.26272825563427L86.82685416666666,136.14466652784816L86.98063888888889,131.18723163773598L87.1344236111111,129.85104104510168L87.28820833333334,132.09024452622387L87.44199305555556,133.41143009521574L87.59577777777777,134.90232108508354L87.7495625,135.43888430419906L87.90334722222222,136.87453539009437L88.05713194444445,136.1963059722745L88.21091666666666,135.94589341994305L88.82605555555556,137.37271876569451L88.97984027777777,134.98372033406505L89.13362500000001,130.76736280422932L89.44119444444445,134.8127382069L89.59497916666666,136.69372337551846L90.21011805555555,139.12665263845147L90.62841250000001,137.20459817392876L90.78219722222222,136.12984995707285L90.93598194444444,135.20190298953304L91.39733611111112,137.63452250461506L91.55112083333333,137.69134584899564L91.70490555555556,139.36631666232333L91.85869027777778,136.92774900377688L92.012475,136.82297222043536L92.16625972222222,135.53136758571907L92.32004444444443,135.97010374223203L92.47382916666668,137.47753921014305L92.62761388888889,139.633735261151L92.78139861111111,139.1804856861213L92.93518333333333,135.45126553892874L93.08896805555557,137.73189573781178L93.24275277777778,137.65263457520848L93.3965375,138.21351805673774L93.70410694444443,138.91820531235638L94.01167638888889,138.8616903171652L94.16546111111111,140.13941637412526L94.31924583333333,140.03059439134856L94.47303055555555,140.89255928972105L94.93438472222222,142.46442261096314L95.08816944444445,137.11485964327323L95.24195416666667,140.4686875937079L95.39573888888889,140.8859950641945L95.85709305555555,141.37365261601494L96.01087777777778,140.22074024426576L96.31844722222223,142.4694850844233L96.47223194444445,144.33571186628322L96.93358611111111,143.93482359123365L97.08737083333334,145.37761529332755L97.24115555555555,143.75734985819352L97.548725,142.87539003095333L97.70250972222223,145.12909392733616L97.85629444444444,143.80391560281709L98.31764861111111,139.02969844052888L98.47143333333334,137.7806783134323L98.62521805555555,139.6164218342743L98.77900277777778,140.05641484642825L98.9327875,141.6707472787465L99.08657222222223,141.96602736170544L99.24035694444444,142.99913076497998L99.39414166666666,141.3960914993252L99.70171111111111,142.99343352772433L99.85549583333334,142.41342507341702L100.00928055555555,140.79526647834118L100.16306527777779,140.94946859607595L100.88892916666667,141.4274804309164L101.0427138888889,141.2374617443498L101.19649861111111,142.33725235653935L101.35028333333332,142.5706670446163L101.50406805555556,142.0525026822024L101.8116375,141.26534112852872L102.11920694444446,141.4630106739387L102.42677638888888,142.29088364875503L102.58056111111111,142.84548225992938L102.73434583333332,145.04730498741327L103.04191527777778,144.1960207807804L103.1957,144.05589284548944L103.34948472222221,144.5456257813927L103.65705416666667,145.27167881268184L103.96462361111111,146.70903656188938L104.11840833333333,145.7497276769032L104.42597777777777,143.8526826123886L104.5797625,145.5214492048961L104.73354722222223,145.66194216269645L105.19490138888888,147.50219058906072L105.34868611111112,148.68169715537266L105.50247083333333,146.6159969737609L105.65625555555556,146.85729525738603L105.81004027777777,146.67061738293785L105.96382499999999,145.39223157331506L106.11760972222223,147.10912920811867L106.42517916666667,146.09343867628766L106.57896388888888,146.73444984265336L106.73274861111112,146.7561244106321L106.88653333333333,146.95487813201487L107.04031805555556,145.10801026849114L107.19410277777777,144.581577147505L107.65545694444444,144.9217456189943L107.80924166666667,144.67840215291417L108.11681111111112,145.90672347611456L108.27059583333333,145.3432010584893L108.42438055555554,144.55529481933527L108.73195,145.0116893694759L108.88573472222222,144.42470059760484L109.03951944444444,145.53473838365306L109.5008736111111,145.35298200137385L109.65465833333333,145.16761845438782L109.80844305555556,144.64082647248338L109.96222777777778,144.30486387266333L110.1160125,145.67162389998117L110.26979722222222,143.92823746606857L110.53430694444445,145.7133393014701L110.68809166666666,144.76674007832094L110.84187638888889,142.80616551957135L111.14944583333335,144.92411448138532L111.30323055555556,144.57607324146696L111.45701527777778,146.7603507765922L111.6108,147.74738878779368L111.76458472222221,146.15224254133418L111.91836944444445,147.82441049173588L112.22593888888889,148.69007698463315L112.68729305555556,147.36397035899984L113.30243194444445,144.0390062074395L113.76378611111112,143.5713659278563L113.91757083333333,144.1410482533902L114.07135555555556,142.87171108862844L114.22514027777777,142.9466651143634L114.37892500000001,144.76403189350114L114.53270972222222,147.52161936779953L114.68649444444445,147.72213543317034L114.84027916666666,148.14152485737299L114.9940638888889,147.06286060164445L115.14784861111112,145.50885422209177L115.30163333333333,142.63933428495233L115.45541805555555,143.78478455029924L115.76298750000001,144.10095215635988L115.91677222222222,146.40648721289972L116.37812638888889,144.41303364231973L116.68569583333333,145.9093049550663L116.83948055555555,147.0157967897559L116.99326527777778,148.01141906518185L117.14705000000001,147.40013696303726L117.30083472222222,145.46626677337053L117.60840416666667,148.46395074078484L118.22354305555557,148.79292424079892L118.37732777777778,146.93816480372618L118.5311125,147.35277041350216L118.83868194444443,143.02622897772025L118.99246666666667,145.08286882525425L119.14625138888889,146.02135582984164L119.30003611111111,147.21518236621927L119.60760555555557,144.99534560025714L119.91517499999999,148.26902933586229L120.48725416666667,148.40002096602169L121.10239305555555,147.75170465607596L121.71753194444445,149.7345195843114L121.87131666666666,151.4358665495347L122.02510138888888,150.91681257275437L122.33267083333334,150.80059475166982L122.48645555555555,149.5158739933711L122.64024027777778,148.88126969631563L122.794025,150.64324751443525L122.94780972222223,147.47848297738534L123.25537916666666,148.0668961876106L123.4091638888889,146.6933948918266L123.56294861111111,147.775703561366L123.71673333333334,149.1137544098627L123.87051805555555,149.31438048610644L124.02430277777779,147.8071234772225L124.33187222222222,147.5747511200953L124.48565694444444,148.19865284684545L124.63944166666666,148.35759535120187L124.94701111111111,147.503687010784L125.25458055555555,148.95474468128168L125.40836527777779,151.276914141697L125.56215,152.0172317123225L125.71593472222222,150.06947997370838L126.1772888888889,149.84169026570743L126.33107361111111,149.13082142272543L126.63864305555556,148.60026543634962L126.79242777777777,150.1042646302039L126.9462125,152.00393164952126L127.25378194444446,151.37265888653985L127.5613513888889,150.00208879500002L127.71513611111111,149.95892451582588L128.02270555555555,149.72156737534684L128.17649027777776,150.04207100581675L128.330275,150.7697718140942L128.4840597222222,150.58328369198858L128.63784444444445,151.0890645825872L129.09919861111112,152.54645684853026L129.25298333333333,149.34298651650903L129.40676805555555,150.25654485778608L129.5605527777778,150.76763860190638L129.8681222222222,151.61384728021872L130.44020138888888,151.92011814120957L130.59398611111112,151.61164606096477L130.74777083333333,148.31139097684516L130.90155555555557,148.79602001766085L131.0553402777778,148.29092578089072L131.209125,148.9946689000248L131.67047916666667,149.97035086740325L131.82426388888888,150.202541639099L132.13183333333333,149.22427964971448L132.28561805555555,149.0899375704425L132.4394027777778,150.10114673081483L132.5931875,151.17691694908177L132.7469722222222,149.09979497917197L133.20832638888888,151.12064127823945L133.36211111111112,151.82098670240367L133.51589583333333,151.84189638938795L133.66968055555554,151.51225487030553L134.59238888888888,151.26194928026248L134.89995833333333,150.90640591711662L135.05374305555554,151.03582201219575L135.51509722222224,151.37216334692363L135.82266666666666,148.64169472317164L135.9764513888889,150.78942539150142L136.13023611111112,148.83302058811833L136.28402083333333,149.56077568277306L136.43780555555554,149.35591146720355L136.59159027777778,148.95678226298907L136.89915972222224,148.89530896861217L137.05294444444445,151.42610799181702L137.20672916666666,150.19171424178305L137.3605138888889,148.4363136828332L137.66808333333333,149.11006841212537L137.82186805555554,149.36284567344663L137.97565277777778,151.1660345932934L138.1294375,151.71137519540332L138.43700694444442,152.80524145740972L138.5907916666667,152.81896060490755L138.7445763888889,147.69368007329513L138.89836111111111,150.30854042177765L139.05214583333333,151.12696005998657L139.20593055555557,150.34529825507764L139.5135,152.39794334355187L139.9748541666667,151.58823031993165L140.1286388888889,151.353272770253L140.54693333333336,153.69858367018028L141.16207222222224,154.75092780408383L141.31585694444445,154.26837904344274L141.62342638888887,155.3589832325044L141.7772111111111,156.86083429598082L142.08478055555557,155.39311990190583L142.39235,156.2239342862081L142.69991944444445,155.8528379162378L142.85370416666666,154.15171915880967L143.00748888888887,154.6891169867597L143.31505833333335,155.76381343411418L143.46884305555557,155.50596719131616L143.62262777777778,155.97673444880647L143.7764125,157.4627725051627L143.9301972222222,158.18882225553904L144.08398194444445,157.3992016048657L144.23776666666666,158.0017057001983L144.3915513888889,158.0500026218026L144.5453361111111,156.41833356589117L144.69912083333335,157.64338094931864L144.85290555555557,157.70096242714217L145.160475,157.2987226081572L145.62182916666666,156.80714392948548L145.7756138888889,156.46945835798942L145.9293986111111,155.9272923751288L146.23696805555556,156.23626158277332L146.39075277777778,159.0735016205319L146.5445375,156.4370432688608L146.6983222222222,157.29812624601027L146.85210694444444,155.05940130725162L147.62103055555556,155.67667406699772L147.77481527777778,155.77611865663636L148.23616944444447,156.68716146709065L148.38995416666668,158.64135808399092L148.6975236111111,158.19278276262833L148.85130833333332,156.7385411592062L149.4664472222222,156.7042531798095L149.62023194444447,158.5987454422966L149.77401666666668,155.69796053717926L150.0815861111111,156.1833100621311L150.34609583333335,157.71228615301072L150.49988055555556,155.87403280466512L150.65366527777778,155.01888261303824L150.80745,155.0119470719428L150.96123472222223,156.67826570515956L151.11501944444444,156.978816090541L151.42258888888887,154.81221600132355L151.57637361111114,157.30688607181182L151.73015833333335,157.33763814949344L151.88394305555556,159.3098792171403L152.03772777777777,158.39833792157822L152.1915125,157.91167857527827L152.34529722222223,156.75999123758592L152.49908194444444,156.76561921641678L152.65286666666665,158.29337874168198L153.11422083333335,158.1964160242826L153.42179027777777,158.4551014538405L153.575575,157.6028271384669L153.88314444444444,156.51508471727016L154.1907138888889,156.86091316556718L154.3444986111111,157.3195871420114L154.49828333333335,158.89412959353885L154.65206805555556,156.96171584458438L154.80585277777777,156.25004097842563L155.11342222222223,157.3145353726717L155.26720694444444,157.66836875731323L155.88234583333335,156.34731674318564L156.03613055555556,157.53817735893253L156.18991527777777,158.9368111739596L156.34369999999998,158.40991416825938L156.80505416666668,158.95731888839975L156.9588388888889,158.6791714861677L157.26640833333335,157.46434682539297L157.42019305555556,158.7204064594349L157.8815472222222,159.9517244085272L158.03533194444447,154.73977441879325L158.18911666666668,156.95969932757836L158.3429013888889,157.72386647888294L158.4966861111111,159.12577102237827L158.65047083333334,159.01212335802066L158.80425555555556,159.1255501120367L158.95804027777777,159.29271438359305L159.11182499999998,159.9895182583461L159.26560972222222,158.1537162310274L159.41939444444446,158.44058931608885L159.57317916666668,158.50654207267144L159.8807486111111,158.7955173500552L160.29904305555556,158.6455757454096L160.45282777777777,158.5496433489862L160.76039722222222,159.36548379234836L160.91418194444444,157.1718136316266L161.06796666666665,157.35504120127257L161.37553611111113,158.52864555394038L161.52932083333334,157.82971482752836L161.83689027777777,158.99338056336364L161.990675,157.98487582847557L162.29824444444444,157.91280925621714L162.6058138888889,157.83867503338212L163.06716805555556,158.44348476791887L163.22095277777777,157.82456033231597L163.68230694444443,157.22848075464282L163.9898763888889,155.82174284268064L164.14366111111113,157.7341964882669L164.29744583333334,156.61428598049395L164.60501527777777,156.6561924114963L164.75879999999998,157.0388396108922L164.91258472222222,158.2965312087632L165.3739388888889,159.005666172932L165.52772361111113,155.48697007406656L165.83529305555555,156.97664873655748L166.14286249999998,157.9232570295744L166.29664722222225,157.94199014603066L166.75800138888889,158.32605541838433L167.06557083333334,157.34672551623305L167.21935555555555,157.11635251619595L167.68070972222225,158.53791056097302L167.83449444444446,159.10151765633995L167.98827916666667,159.2271218467501L168.14206388888888,157.58132559975164L168.2958486111111,158.35866288861965L168.44963333333334,158.610088364334L168.60341805555555,158.76960227895995L168.75720277777776,151.8713129805234L168.91098749999998,155.3965738562767L169.06477222222225,157.32890459631184L169.21855694444446,158.38777861482635L169.52612638888888,156.62525786772486L169.6799111111111,156.56509765276382L169.98748055555555,157.67785959416074L170.405775,157.95586028862675L170.55955972222222,156.30952317402586L171.0209138888889,157.67528237999207L171.17469861111113,157.51862069611798L171.48226805555555,158.0862986988222L171.63605277777776,157.5871052159857L171.7898375,159.41415309714301L171.94362222222222,159.9124532468004L172.09740694444443,159.18416727437184L172.4049763888889,157.9930597521236L172.55876111111112,157.72219033289787L172.86633055555555,157.47978616963664L173.02011527777776,158.40209064104968L173.32768472222222,157.7253225876022L173.48146944444446,158.75933179777712L173.63525416666667,159.78724767785073L173.78903888888888,158.00600881313838L173.94282361111112,158.8668627987285L174.09660833333334,158.56082760760296L174.40417777777776,158.11955982221934L175.01931666666667,158.39178950009853L175.17310138888888,157.71505467499009L175.32688611111112,157.10163234805202L175.48067083333333,157.22735281575495L175.63445555555555,159.17230862161472L175.78824027777776,159.91556909962455L175.942025,158.0591440359865L176.09580972222224,158.72130457291917L176.24959444444445,157.21459415714966L176.86473333333333,157.93181956414688L177.01851805555555,157.27739520616532L177.17230277777776,159.3382142143587L177.32608749999997,159.98134743269964L177.78744166666667,158.21488117449874L177.94122638888888,159.10222262536294L178.09501111111112,158.24295257381866L178.40258055555555,156.8487232616679L178.55636527777776,157.53277975772332L178.86393472222224,159.33706231296458L179.17150416666667,160.46052026562745L179.32528888888888,161.48668269999536L179.47907361111112,160.40988646513696L179.94042777777778,159.54740553331567L180.2049375,159.79166048307533L180.3587222222222,160.67138973933507L180.51250694444443,153.97769349942146L180.66629166666667,156.54663359003982L180.8200763888889,156.42857902481484L180.97386111111112,157.48882713319992L181.28143055555554,158.74485274976388L181.4352152777778,158.97035427769177L181.89656944444445,159.2357101451626L182.66549305555554,159.5178975845599L182.9730625,157.7994210922164L183.12684722222224,157.94246306898387L183.28063194444445,157.81792714112927L183.43441666666666,158.68753480951654L183.5882013888889,159.4835754103517L183.74198611111112,160.55751948297814L184.20334027777776,159.18376160292917L184.357125,157.76743174707806L184.51090972222224,158.691535186083L184.66469444444445,158.3856458337051L184.81847916666666,158.47579914479186L185.12604861111112,158.53998412349293L185.43361805555554,159.02285910824634L185.58740277777775,159.01528163292593L185.74118750000002,159.6445964327233L186.04875694444445,159.77679427385374L186.20254166666666,158.2250507643409L186.3563263888889,156.96154920696128L186.51011111111112,156.69289080441266L186.66389583333333,157.4135606040512L186.81768055555554,158.76099520073217L186.97146527777775,159.46225801380618L187.12525000000002,159.5116650097819L187.27903472222224,157.83244642584265L187.43281944444445,157.34736429205014L188.04795833333333,158.81936281697392L188.35552777777778,159.64529030464874L188.50931250000002,159.4453280835226L188.66309722222223,160.10816083364932L188.81688194444445,159.16756463884036L188.97066666666666,159.23602319997244L189.43202083333333,160.32279727282065L189.73959027777778,159.57483480824195L190.4654541666667,160.2893235848001L190.7730236111111,160.1057194258317L190.92680833333333,159.7684414093865L191.23437777777778,158.55674715118795L191.8495166666667,157.40754777954334L192.0033013888889,158.7335197888714L192.1570861111111,158.387765746473L192.31087083333333,159.07297925743063L192.46465555555554,160.4265513400407L193.07979444444445,161.60606194891483L193.3873638888889,160.38625698899003L193.5411486111111,157.17858908772104L193.84871805555554,158.71132330554963L194.00250277777778,159.37544954463021L194.46385694444444,160.2148506478045L194.61764166666666,159.58711693223833L194.7714263888889,160.17659170076237L195.07899583333332,160.08703826683524L195.3865652777778,158.76623121804042L195.54035000000002,158.69453953907055L195.69413472222223,160.02857641700007L196.00170416666666,157.8822150561444L196.1554888888889,158.18419276536437L196.46305833333332,159.1709748622051L196.61684305555553,159.95726613040853L196.77062777777778,159.75618349674534L197.07819722222223,160.5372841510046L197.23198194444444,161.44108403456804L197.38576666666665,160.51136774903247L197.5395513888889,160.9014087274048L197.6933361111111,159.00573028787673L197.84712083333332,157.47723642571208L198.30847500000002,159.33826088290246L198.46225972222223,157.4087266334895L198.76982916666665,156.216841618451L198.9236138888889,158.5310980651481L199.0773986111111,159.93841061527058L199.23118333333335,158.57097431510633L199.53875277777777,160.43125600923452L199.69253750000001,159.66679174488397L199.84632222222223,159.96922121791334L200.11083194444444,161.74897570909343L200.5721861111111,160.32717292745144L200.72597083333332,159.52327921212176L200.87975555555556,161.14614483249463L201.64867916666668,160.4555100454365L201.9562486111111,160.52756579699505L202.26381805555556,161.0169909989701L202.41760277777777,159.69684871227128L202.57138750000001,159.68038647838625L203.03274166666668,160.45575219075798L203.1865263888889,160.6891354092506L203.3403111111111,160.44964321847655L203.49409583333332,161.07084559896666L203.64788055555553,159.67428851929446L203.8016652777778,160.61619279682307L203.95545,160.56242090587236L204.10923472222223,160.86341614338866L204.41680416666668,156.28893904161933L204.5705888888889,156.2337779446484L204.87815833333332,158.950017969299L205.03194305555553,158.44405016744835L205.1857277777778,158.6124454731121L205.3395125,158.87811160237453L205.80086666666668,159.74632659781952L205.9546513888889,160.51647967099078L206.26222083333332,161.11809406738374L206.41600555555556,158.76606523201633L206.5697902777778,159.85769409843363L206.723575,159.3554109269862L206.87735972222222,161.30217481185977L207.03114444444444,160.48938308811637L207.18492916666665,159.09256005770143L207.3387138888889,160.7771342526584L207.4924986111111,160.36318021508006L207.64628333333332,159.47158380994216L207.9538527777778,159.98824997151686L208.1076375,159.70136508770278L208.41520694444444,159.7871551928875L208.56899166666665,161.24460645012417L208.8765611111111,160.86064369742718L209.03034583333334,160.9038036816122L209.3379152777778,162.09455865523643L209.4917,161.13926701945456L209.64548472222222,161.0096954802509L209.79926944444443,160.9546663279619L210.06377916666668,161.500136856385L210.2175638888889,160.15294680475836L210.52513333333332,160.66291209515947L210.83270277777777,161.31931055231334L211.14027222222222,160.20053633009687L211.29405694444446,160.07045427809257L211.6016263888889,159.3824276181603L211.7554111111111,159.30392508819963L211.9091958333333,159.15592189316496L212.06298055555555,160.67825140581638L212.2167652777778,160.42588432309236L212.37055,160.64075213019834L212.52433472222222,159.743979306167L213.1394736111111,160.54223239902777L213.2932583333333,160.49219990982166L213.44704305555558,158.28841461024658L213.7546125,158.16661032010302L213.90839722222222,156.99992996710972L214.06218194444443,158.5223257767969L214.3697513888889,160.22317500738723L214.6773208333333,159.9796094132247L214.9848902777778,160.2157247306116L215.29245972222222,160.19221221087392L215.60002916666667,160.94096987559897L215.75381388888889,160.7817197389275L215.9075986111111,160.56238474804306L216.0613833333333,156.09120468481498L216.3689527777778,157.5866322253271L216.5227375,157.98498466814303L216.67652222222222,158.2009737022389L216.83030694444443,159.58295552666235L216.98409166666667,159.6787333092131L217.13787638888888,159.742833150412L217.59923055555555,157.9601606152979L217.7530152777778,158.0139537109451L218.21436944444443,157.33132577353126L218.36815416666667,158.32851197782583L218.52193888888888,159.80496242597678L218.82950833333334,160.3680022012338L218.98329305555555,160.09411368399807L219.44464722222222,159.99770400945468L219.59843194444443,160.7416196301871L219.75221666666667,160.5072044558654L220.1705111111111,160.43927411829182L220.32429583333334,160.71919284771576L220.78565,159.947653565333L220.93943472222222,159.8422293019219L221.09321944444446,160.42161469264676L221.40078888888888,157.7897424238691L221.86214305555558,158.54642147096763L222.0159277777778,159.6980678877216L222.47728194444446,158.9689114365796L222.63106666666667,160.22397178301287L222.78485138888888,158.54714083330353L223.3999902777778,158.5620524055842L223.70755972222221,158.15427760148089L223.86134444444446,158.55836434466678L224.01512916666667,159.67709306704975L224.16891388888888,159.6441933053107L224.3226986111111,160.39284021572803L224.4764833333333,158.66295077338356L224.63026805555558,158.6533301945599L225.0916222222222,157.6532780958549L225.24540694444445,159.5628431844407L225.39919166666667,156.6486756815361L225.55297638888888,158.78632410938928L225.86054583333333,158.91282275983008L226.1681152777778,157.102831356199L226.3219,157.72413178508685L226.78325416666667,159.44818070069078L226.93703888888888,159.20861542085345L227.24460833333333,158.2592606077625L227.39839305555557,158.69777683978097L227.55217777777779,159.91304629552482L227.7059625,160.1722786222997L227.8597472222222,158.3097521989911L228.01353194444442,159.8035241772661L228.47488611111112,160.2821820008254L228.62867083333333,159.25657256455352L229.2438097222222,160.27917362733285L229.39759444444442,157.96793828894855L229.5513791666667,158.61300736957884L229.7051638888889,159.35325915713642L229.9696736111111,159.80262517759155L230.27724305555554,159.90847525127867L230.43102777777779,160.76480464874132L230.73859722222224,159.9840081093859L230.89238194444445,159.49119443460597L231.19995138888888,159.74444960261118L231.50752083333333,159.77760477761188L231.66130555555557,159.43139643425982L231.81509027777778,158.9362380240597L231.968875,159.04352234576797L232.27644444444445,157.88793808133352L232.43022916666666,158.40365251983235L232.7377986111111,157.78359388117855L232.89158333333336,159.21229030190213L233.19915277777778,160.279900537765L233.3529375,159.21950398907606L233.66050694444445,159.2654115086941L233.81429166666666,160.489422429708L233.96807638888887,160.37707879627646L234.1218611111111,161.8446173889379L234.58321527777778,161.0788177989915L234.8907847222222,160.68037210088022L235.04456944444445,161.56235205042987L235.19835416666666,160.27860321898285L235.35213888888887,160.4367155193766L235.81349305555557,159.9096988470428L235.96727777777778,159.38213114006678L236.1210625,159.9551799356129L236.42863194444445,160.70400287540792L236.58241666666666,159.1902560856785L236.7362013888889,159.4473622637024L236.8899861111111,160.55570926648562L237.04377083333333,159.64311401796726L237.35134027777778,160.01335340728258L238.1202638888889,159.91096185439764L238.42783333333333,160.08139137502872L239.3505416666667,161.32573882111802L239.5043263888889,161.3951605795877L239.92262083333333,161.5264905650237L240.07640555555557,161.9789632791035L240.383975,163.24613176968825L240.53775972222223,162.45176711514947L240.99911388888887,161.83093736027737L241.1528986111111,160.8070904946858L241.46046805555557,161.22121045302862L241.61425277777778,161.00472695142017L241.7680375,160.6006839113189L241.92182222222223,160.58691691012467L242.07560694444444,160.91671343879824L242.38317638888887,161.3728593822076L242.69074583333335,162.48511158257634L242.84453055555556,162.32846986183242L242.99831527777778,161.98800137504855L243.1521,160.59363890668246L243.30588472222223,160.48952491317638L243.45966944444444,161.03795992688393L243.61345416666666,160.971949795406L244.22859305555556,160.93178389135562L244.38237777777778,158.84427672607455L244.5361625,157.61849273066147L244.68994722222223,158.5090229211704L244.84373194444444,159.37864100419526L245.3050861111111,159.084231147986L245.45887083333335,159.77350564955185L245.61265555555556,160.22843487357207L246.22779444444444,154.35908048649767L246.38157916666665,157.51771728850412L246.5353638888889,158.46385954368165L246.99671805555556,158.8510834900804L247.15050277777777,160.19711991671176L247.4580722222222,161.4364204346239L247.61185694444444,160.80154475802775L247.9194263888889,159.0345749598511L248.0732111111111,158.58599248960837L248.38078055555556,158.55506424934035L248.53456527777777,159.2775019786884L248.8421347222222,158.78066027241343L248.99591944444447,161.25846799199678L249.14970416666668,161.40730766507463L249.3034888888889,161.90440123112487L249.4572736111111,159.12467204736257L249.61105833333335,159.3932344737812L250.64449166666665,159.7724293786798L251.10584583333335,160.16599349123095L251.25963055555556,159.10148561699762L251.5672,160.01966576812197L251.87476944444444,160.2052390178753L252.02855416666665,161.12671857067838L252.48990833333335,162.94040822288423L252.64369305555556,162.26557723509046L252.79747777777777,163.1929556102698L252.95126249999998,161.8618266877068L253.41261666666665,161.64275498690483L253.5664013888889,162.11493563171973L253.72018611111113,161.1498308776515L253.87397083333335,162.03418832459388L254.18154027777777,161.90039119293982L254.48910972222222,161.81840721241284L254.64289444444444,161.85513132587369L254.79667916666665,160.8098212934819L254.9504638888889,160.1062307391934L255.41181805555556,160.63584273249757L255.71938749999998,160.6306291394422L255.87317222222222,160.6547155474189L256.02695694444446,160.93103847333705L256.1807416666667,160.23546606695464L256.3345263888889,160.60198174767564L256.4883111111111,161.23305701709128L256.6420958333333,159.73566955119483L256.9496652777778,159.55212876213122L257.10345,160.56248678847592L257.2572347222222,160.84169511753674L257.41101944444443,160.60242694243038L257.56480416666665,161.15915486496925L257.71858888888886,161.1770043834673L257.8723736111111,161.9262596590709L258.02615833333334,162.38175705810735L258.17994305555555,161.89231439032213L258.33372777777777,155.71933970395176L258.4875125,156.70534847886051L259.41022083333337,157.39003602506511L259.82851527777774,157.9360317037396L259.9823,152.92464612537438L260.1360847222222,156.58951048758377L260.44365416666665,160.12683994090915L260.5974388888889,160.4444772851984L261.21257777777777,159.90342569847638L261.36636250000004,161.72188818569208L261.52014722222225,161.02817043043007L261.67393194444446,161.33892268258737L262.1352861111111,163.03623623762647L262.2890708333333,161.96034465958684L262.4428555555555,163.016188993587L262.59664027777774,162.67537285313884L262.750425,162.39833789721655L263.05799444444443,162.1141622660352L263.21177916666664,160.5039842705145L263.82691805555555,161.51820401568958L263.98070277777776,160.26527987207666" style="fill: none;" fill="none"></path></g></g></g></g><g opacity="0.2"><g><g><g><path stroke="rgb(255, 112, 67)" stroke-width="2px" d="M40.29159722222222,-23.980013040395892L40.44538194444444,3.806520608755248L40.59916666666667,4.460820051339947L41.01746111111111,2.665122839120709L41.17124583333333,3.338224337651175L41.32503055555556,10.937180152306206L41.47881527777778,-5.075534307039689L41.78638472222222,14.683913450974698L41.94016944444445,10.516030238224925L42.24773888888889,24.740168864910437L42.555308333333336,16.565268956697913L42.86287777777778,29.761104583740256L43.0166625,35.07440016819882L43.170447222222215,56.2212661596445L43.32423194444444,30.428012701181274L43.63180138888889,24.954536511347847L43.78558611111111,12.37136143904466L44.093155555555555,31.29337127392109L44.24694027777778,35.719217887291556L44.400724999999994,43.49260715337901L44.70829444444444,34.910436960367065L44.86207916666667,41.16693203265852L45.63100277777777,61.002959838280326L46.24614166666667,55.3178596496582L46.39992638888889,60.45637882672824L46.86128055555555,54.01966039951033L47.01506527777777,30.509111697857215L47.32263472222222,63.6076699770414L47.476419444444446,73.28714792545027L47.630204166666665,71.0465561426603L47.78398888888889,61.065397996168876L47.93777361111111,59.488032597761894L48.09155833333333,61.80261208460882L48.24534305555555,61.28106685785148L48.5529125,70.75270340992856L48.706697222222225,73.0861152135409L48.860481944444444,54.198955755967376L49.47562083333333,75.50096896978526L49.62940555555556,77.5838615344121L50.24454444444445,73.69922968057486L50.39832916666666,81.1905679335961L50.81662361111111,86.17134754474348L50.97040833333334,81.85924126551703L51.12419305555556,73.13028592329759L51.27797777777778,82.08253585375274L51.4317625,77.59794290249165L51.739331944444444,83.60786272929266L52.04690138888889,82.42784206683821L52.20068611111111,82.99416321974535L52.35447083333333,81.20763503588165L52.50825555555555,80.84580641526443L53.12339444444444,99.37489968079788L53.27717916666667,64.04859029329742L53.43096388888889,82.34506863814134L53.58474861111111,92.48575173891507L53.73853333333333,95.61843248514029L54.1998875,91.8461086199834L54.81502638888889,91.26901461527899L55.122595833333335,103.00005509303168L55.276380555555555,98.47017178168664L55.58395,90.91517485105075L55.73773472222223,84.35251089242789L56.04530416666666,102.36737196262068L56.19908888888889,103.58650977794942L56.35287361111111,97.2550183076125L56.660443055555554,103.65657366239108L56.9680125,101.4085679787856L57.27558194444444,106.10526910194984L57.42936666666667,100.34833981440619L57.583151388888886,97.97590164037852L57.89072083333333,99.72288901989278L58.04450555555556,98.53576715175923L58.19829027777778,83.73662251692552L58.352075,101.23897625849798L58.50585972222222,112.29423211171076L58.813429166666666,104.81953730949989L58.96721388888889,109.31522589463455L59.12099861111111,104.99329493596002L59.27478333333334,103.1027603149414L59.42856805555556,91.5792283645043L59.58235277777777,101.83663753362804L59.7361375,111.32039858744696L60.197491666666664,103.16668125299307L60.35127638888889,108.08321714401245L60.50506111111111,102.42798438439003L60.76957083333333,110.89253077140222L61.230925,118.67006576978244L61.692279166666665,96.7937526336083L61.846063888888885,112.0752345598661L61.99984861111111,114.07274117836586L62.30741805555556,109.37949987558218L62.46120277777778,100.72386649938731L62.614987500000005,120.17558189538809L62.76877222222222,110.7673921951881L63.076341666666664,108.68045476766734L63.23012638888889,107.82059357716486L63.38391111111111,98.38818513430081L63.69148055555556,110.8256039252648L63.99905,108.30891242394081L64.30661944444444,110.53238666974582L64.46040416666666,113.51622453102699L64.76797361111112,117.31834521660438L64.92175833333333,123.1439716082353L65.07554305555556,115.28300248659573L65.22932777777777,110.95278006333572L65.3831125,120.02654735858626L65.69068194444445,110.25995859732996L65.84446666666666,106.7327171105605L65.99825138888889,113.5643795820383L66.45960555555556,115.0793976050157L66.767175,119.48569572888889L66.92095972222222,124.78121308180003L67.22852916666668,114.77005133262048L67.38231388888889,111.3962927231422L67.53609861111111,122.1871093603281L67.68988333333333,122.84335558231062L67.84366805555555,121.14735768391535L67.99745277777778,111.9754747244028L68.30502222222222,119.62649932274452L68.45880694444445,113.99433539463922L68.76637638888889,124.90981652186468L68.92016111111111,118.62731731854953L69.07394583333333,121.34301910033594L69.22773055555557,120.43819537529579L69.38151527777778,128.04884699674756L69.53529999999999,118.74229834629938L69.99665416666667,123.4747324540065L70.15043888888889,118.56642750593333L70.30422361111111,122.88543325204117L70.45800833333334,116.77398333182703L70.87630277777778,116.89320087432861L71.0300875,106.96120647283702L71.18387222222223,118.0445040189303L71.33765694444445,122.65512319711539L71.64522638888889,125.0079876642961L71.79901111111111,125.46572290934049L72.56793472222222,126.46369952421924L72.87550416666666,105.64946046242348L73.0292888888889,126.25439552160411L73.49064305555555,124.06343652651861L73.64442777777776,127.80604931024405L73.7982125,124.5849161881667L74.10578194444444,127.55060764459463L74.25956666666666,128.44877903278058L74.4133513888889,131.123406795355L74.56713611111111,128.23435086470386L74.72092083333334,123.73793097642752L74.87470555555555,115.80449727865367L75.02849027777778,127.49036339613109L75.182275,122.47757288125845L75.48984444444444,131.92770407750055L75.64362916666667,129.32580819496744L75.95119861111111,124.26756088550276L76.10498333333332,131.30801796913147L76.72012222222222,129.76484729693487L76.87390694444446,132.3252253349011L77.02769166666667,129.2354846917666L77.1814763888889,127.67020849081187L77.33526111111111,128.51811665755054L77.48904583333332,126.55620684990517L78.10418472222221,127.56223284281216L78.25796944444446,138.01284221502453L78.41175416666667,135.866028712346L78.56553888888888,134.48238803790167L78.71932361111111,133.26007283650912L78.87310833333333,130.09215840926538L79.18067777777777,132.2061288356781L79.3344625,128.9354486648853L79.48824722222223,120.6404889546908L79.64203194444444,137.45816139074475L79.79581666666667,138.9754035839668L79.94960138888888,131.86950747783368L80.25717083333333,129.65602938945477L80.41095555555556,129.2983918923598L80.67546527777777,134.3488419972933L80.82925,131.05751386055582L80.98303472222223,133.43112211961014L81.29060416666667,131.1953014593858L81.75195833333333,119.72143760094276L82.05952777777777,139.8626558597271L82.2133125,127.88231666271504L82.36709722222223,129.43661827307483L82.52088194444444,131.33588314056396L82.67466666666667,133.91721679614142L83.28980555555555,136.9458457139822L83.44359027777779,133.34425339331995L83.75115972222223,142.69122545535748L84.05872916666667,131.89157265883227L84.21251388888889,131.4322537642259L84.3662986111111,131.6039788722992L84.52008333333333,137.73199154780463L84.67386805555556,135.23944313709552L84.9814375,138.9067770884587L85.13522222222223,135.87551043583795L85.28900694444445,136.45957451600296L85.59657638888889,133.59220046263474L85.7503611111111,131.37363351308383L85.90414583333333,131.9501929099743L86.05793055555556,140.30774208215567L86.3655,138.48029118317825L86.51928472222221,135.23856557332553L86.82685416666666,135.96757393616898L86.98063888888889,123.75107930256769L87.1344236111111,127.84675515615024L87.28820833333334,135.44904974790722L87.44199305555556,135.39320844870346L87.59577777777777,137.13865756988525L87.7495625,136.24372913287237L87.90334722222222,139.02801201893732L88.05713194444445,135.17896184554465L88.21091666666666,135.57027459144592L88.82605555555556,139.51295678432172L88.97984027777777,131.40022268662088L89.13362500000001,124.44282650947571L89.44119444444445,140.88080131090604L89.59497916666666,139.51520112844617L90.21011805555555,142.776046532851L90.62841250000001,134.32151647714468L90.78219722222222,134.517727631789L90.93598194444444,133.80998253822327L91.39733611111112,141.2834517772381L91.55112083333333,137.77658086556656L91.70490555555556,141.87877288231485L91.85869027777778,133.26989751595718L92.012475,136.6658070454231L92.16625972222222,133.59396063364468L92.32004444444443,136.6282079770015L92.47382916666668,139.7386924120096L92.62761388888889,142.8680293376629L92.78139861111111,138.50061132357672L92.93518333333333,129.8574353181399L93.08896805555557,141.15284103613632L93.24275277777778,137.53374283130353L93.3965375,139.0548432790316L93.70410694444443,139.97523619578436L94.01167638888889,138.7769178243784L94.16546111111111,142.05600545956537L94.31924583333333,139.8673614171835L94.47303055555555,142.18550663727981L94.93438472222222,144.82221759282626L95.08816944444445,129.09051519173843L95.24195416666667,145.4994295193599L95.39573888888889,141.51195626992447L95.85709305555555,142.10513894374554L96.01087777777778,138.491371686642L96.31844722222223,145.84260234465964L96.47223194444445,147.13505203907306L96.93358611111111,143.33349117865927L97.08737083333334,147.5418028464684L97.24115555555555,141.32695170549246L97.548725,141.55245029009305L97.70250972222223,148.50964977191046L97.85629444444444,141.8161481160384L98.31764861111111,131.86837269709662L98.47143333333334,135.90714812278748L98.62521805555555,142.37003711553723L98.77900277777778,140.71640436465924L98.9327875,144.0922459272238L99.08657222222223,142.40894748614386L99.24035694444444,144.54878586989182L99.39414166666666,138.99153260084302L99.70171111111111,145.38944657032306L99.85549583333334,141.54341239195602L100.00928055555555,138.3680285857274L100.16306527777779,141.18077177267807L100.88892916666667,142.14449818317706L101.0427138888889,140.95243371449985L101.19649861111111,143.98693827482373L101.35028333333332,142.92078907673175L101.50406805555556,141.27525613858148L101.8116375,140.08459879801825L102.11920694444446,141.75951499205368L102.42677638888888,143.53269311097952L102.58056111111111,143.6773801766909L102.73434583333332,148.3500390786391L103.04191527777778,142.91909447083108L103.1957,143.845700942553L103.34948472222221,145.2802251852476L103.65705416666667,146.36075835961563L103.96462361111111,148.86507318570062L104.11840833333333,144.31076434942395L104.42597777777777,141.0071150156168L104.5797625,148.0245990936573L104.73354722222223,145.8726815993969L105.19490138888888,150.26256322860718L105.34868611111112,150.45095700484055L105.50247083333333,143.51744670134323L105.65625555555556,147.21924268282376L105.81004027777777,146.3906005712656L105.96382499999999,143.47465285888083L106.11760972222223,149.6844756603241L106.42517916666667,144.5699028785412L106.57896388888888,147.6959665922018L106.73274861111112,146.78863626260025L106.88653333333333,147.25300871408902L107.04031805555556,142.33770847320557L107.19410277777777,143.79192746602573L107.65545694444444,145.4319983262282L107.80924166666667,144.31338695379407L108.11681111111112,147.7492054609152L108.27059583333333,144.49791743205145L108.42438055555554,143.37343546060416L108.73195,145.6962811946869L108.88573472222222,143.5442174397982L109.03951944444444,147.19979506272537L109.5008736111111,145.08034742795505L109.65465833333333,144.8895731339088L109.80844305555556,143.85063849962674L109.96222777777778,143.80091997293326L110.1160125,147.72176394095786L110.26979722222222,141.31315781519965L110.53430694444445,148.39099205457248L110.68809166666666,143.3468412435972L110.84187638888889,139.86530368144696L111.14944583333335,148.1010379241063L111.30323055555556,144.05401138158948L111.45701527777778,150.03676707927997L111.6108,149.22794580459595L111.76458472222221,143.75952317164496L111.91836944444445,150.33266241733844L112.22593888888889,149.98857672397907L112.68729305555556,145.37481042054984L113.30243194444445,139.05155998009903L113.76378611111112,142.86990550848157L113.91757083333333,144.995571741691L114.07135555555556,140.9677053414858L114.22514027777777,143.05909615296585L114.37892500000001,147.49008206220776L114.53270972222222,151.6580005792471L114.68649444444445,148.02290953122653L114.84027916666666,148.77060899367697L114.9940638888889,145.4448642180516L115.14784861111112,143.1778446527628L115.30163333333333,138.3350543792431L115.45541805555555,145.50295994831964L115.76298750000001,144.57520356545083L115.91677222222222,149.86478979770953L116.37812638888889,141.42285328644974L116.68569583333333,148.15371192418613L116.83948055555555,148.6755345417903L116.99326527777778,149.50485247832077L117.14705000000001,146.48321380982034L117.30083472222222,142.56546148887045L117.60840416666667,152.96047669190628L118.22354305555557,149.2863844908201L118.37732777777778,144.15602564811707L118.5311125,147.97467882816608L118.83868194444443,136.5364168240474L118.99246666666667,148.1678285965553L119.14625138888889,147.42908633672275L119.30003611111111,149.00592217078574L119.60760555555557,141.6655904513139L119.91517499999999,153.17955493927002L120.48725416666667,148.59650841126077L121.10239305555555,146.7792301911574L121.71753194444445,152.7087419766646L121.87131666666666,153.9878869973696L122.02510138888888,150.13823160758383L122.33267083333334,150.626268020043L122.48645555555555,147.588792855923L122.64024027777778,147.92936325073242L122.794025,153.28621424161472L122.94780972222223,142.73133617181045L123.25537916666666,148.94951600294846L123.4091638888889,144.63314294815063L123.56294861111111,149.399166565675L123.71673333333334,151.12083068260782L123.87051805555555,149.61531960047208L124.02430277777779,145.54623796389654L124.33187222222222,147.22619258440457L124.48565694444444,149.13450543697064L124.63944166666666,148.59600910773642L124.94701111111111,146.2228245001573L125.25458055555555,151.13133118702814L125.40836527777779,154.76016833232L125.56215,153.12770806826077L125.71593472222222,147.1478523657872L126.1772888888889,149.500005703706L126.33107361111111,148.0645181582524L126.63864305555556,147.80443145678595L126.79242777777777,152.3602634209853L126.9462125,154.85343217849731L127.25378194444446,150.42574974206778L127.5613513888889,147.94623365769021L127.71513611111111,149.89417809706467L128.02270555555555,149.36553166462824L128.17649027777776,150.52282645152167L128.330275,151.8613230265104L128.4840597222222,150.30355150883014L128.63784444444445,151.84773591848523L129.09919861111112,154.73254524744473L129.25298333333333,144.53778101847723L129.40676805555555,151.6268823697017L129.5605527777778,151.53427921808682L129.8681222222222,152.88316029768723L130.44020138888888,152.37952443269583L130.59398611111112,151.14893794059753L130.74777083333333,143.36100835066574L130.90155555555557,149.52296357888443L131.0553402777778,147.53328442573547L131.209125,150.05028357872598L131.67047916666667,151.4338738184709L131.82426388888888,150.5508277966426L132.13183333333333,147.75688666563767L132.28561805555555,148.88842445153458L132.4394027777778,151.61796047137335L132.5931875,152.7905722764822L132.7469722222222,145.98411202430725L133.20832638888888,154.15191072684067L133.36211111111112,152.87150483865005L133.51589583333333,151.87326091986435L133.66968055555554,151.01779259168185L134.59238888888888,150.88649089519794L134.89995833333333,150.3730908723978L135.05374305555554,151.2299461548145L135.51509722222224,151.87667534901544L135.82266666666666,144.54599178754367L135.9764513888889,154.01102139399603L136.13023611111112,145.89841338304373L136.28402083333333,150.65240832475516L136.43780555555554,149.0486151438493L136.59159027777778,148.3580884566674L136.89915972222224,148.80309902704678L137.05294444444445,155.22230652662427L137.20672916666666,148.3401236167321L137.3605138888889,145.80321284440848L137.66808333333333,150.12070050606363L137.82186805555554,149.74201156542853L137.97565277777778,153.87081797306354L138.1294375,152.52938609856827L138.43700694444442,154.44604085041925L138.5907916666667,152.8395393261543L138.7445763888889,140.00575927587658L138.89836111111111,154.23083094450146L139.05214583333333,152.35458951729996L139.20593055555557,149.17280554771423L139.5135,155.4769109762632L139.9748541666667,150.37366078450128L140.1286388888889,151.00083644573505L140.54693333333336,157.2165500200712L141.16207222222224,156.32944400493915L141.31585694444445,153.54455590248108L141.62342638888887,156.99488951609686L141.7772111111111,159.11361089119546L142.08478055555557,153.19154831079337L142.39235,157.47015586266153L142.69991944444445,155.29619336128235L142.85370416666666,151.6000410226675L143.00748888888887,155.49521372868463L143.31505833333335,157.375858105146L143.46884305555557,155.11919782711908L143.62262777777778,156.68288533504193L143.7764125,159.69182958969705L143.9301972222222,159.27789688110352L144.08398194444445,156.21477062885577L144.23776666666666,158.90546184319717L144.3915513888889,158.1224480042091L144.5453361111111,153.970829982024L144.69912083333335,159.48095202445984L144.85290555555557,157.78733464387747L145.160475,156.69536287967975L145.62182916666666,156.06977591147788L145.7756138888889,155.96293000074536L145.9293986111111,155.11404340083783L146.23696805555556,156.69971539424017L146.39075277777778,163.3293616771698L146.5445375,152.48235574135416L146.6983222222222,158.58975071173447L146.85210694444444,151.7013138991136L147.62103055555556,156.60258320661694L147.77481527777778,155.92528554109427L148.23616944444447,158.05372568277213L148.38995416666668,161.5726530093413L148.6975236111111,157.5199197805845L148.85130833333332,154.55717875407294L149.4664472222222,156.6528212107145L149.62023194444447,161.4404838360273L149.77401666666668,151.34678317950323L150.0815861111111,156.9113343495589L150.34609583333335,160.0057502893301L150.49988055555556,153.11665278214676L150.65366527777778,153.73615732559793L150.80745,155.00154376029968L150.96123472222223,159.17774365498468L151.11501944444444,157.42964166861313L151.42258888888887,151.56231586749738L151.57637361111114,161.04889117754422L151.73015833333335,157.38376626601584L151.88394305555556,162.26824081861056L152.03772777777777,157.03102597823508L152.1915125,157.1816895558284L152.34529722222223,155.03246023104742L152.49908194444444,156.77406118466303L152.65286666666665,160.58501802957974L153.11422083333335,158.0509719481835L153.42179027777777,158.8431295981774L153.575575,156.32441566540643L153.88314444444444,154.88347108547504L154.1907138888889,157.3796558380127L154.3444986111111,158.0075981066777L154.49828333333335,161.25594327083L154.65206805555556,154.06309522115268L154.80585277777777,155.18252867918747L155.11342222222223,158.91127696404092L155.26720694444444,158.19911883427545L155.88234583333335,154.36573872199423L156.03613055555556,159.32446828255289L156.18991527777777,161.0347618965002L156.34369999999998,157.61956865970905L156.80505416666668,159.77842596861035L156.9588388888889,158.26195038281955L157.26640833333335,155.64210983423087L157.42019305555556,160.60449591049783L157.8815472222222,161.79870133216565L158.03533194444447,146.92184943419235L158.18911666666668,160.289586690756L158.3429013888889,158.8701172058399L158.4966861111111,161.22862783762127L158.65047083333334,158.84165186148422L158.80425555555556,159.29569024306076L158.95804027777777,159.54346079092758L159.11182499999998,161.03472407047565L159.26560972222222,155.40001319004938L159.41939444444446,158.87089894368097L159.57317916666668,158.60547120754535L159.8807486111111,159.2289802661309L160.29904305555556,158.4206633384411L160.45282777777777,158.4057447543511L160.76039722222222,160.58924445739157L160.91418194444444,153.881308390544L161.06796666666665,157.62988255574152L161.37553611111113,160.28905208294208L161.52932083333334,156.78131873791034L161.83689027777777,160.7388791671166L161.990675,156.47211872614346L162.29824444444444,157.8047093978295L162.6058138888889,157.72747369912955L163.06716805555556,159.35069936972397L163.22095277777777,156.89617367891165L163.68230694444443,156.33436138813312L163.9898763888889,153.71163597473733L164.14366111111113,160.60287695664627L164.29744583333334,154.9344202188345L164.60501527777777,156.71905205799982L164.75879999999998,157.61281040998608L164.91258472222222,160.18306860556967L165.3739388888889,160.06936861918524L165.52772361111113,150.20892592576834L165.83529305555555,159.21116673029385L166.14286249999998,159.3431694690998L166.29664722222225,157.97008982071512L166.75800138888889,158.90215332691486L167.06557083333334,155.87773066300613L167.21935555555555,156.7707930161403L167.68070972222225,160.6702476281386L167.83449444444446,159.94692829939038L167.98827916666667,159.4155281323653L168.14206388888888,155.11263122925394L168.2958486111111,159.52466882192172L168.44963333333334,158.9872265779055L168.60341805555555,159.00887315089886L168.75720277777776,141.5238790328686L168.91098749999998,160.68446516990662L169.06477222222225,160.22740070636456L169.21855694444446,159.97608964259808L169.52612638888888,153.98147674707266L169.6799111111111,156.47485733032227L169.98748055555555,159.3470025062561L170.405775,158.37286133032578L170.55955972222222,153.84001750212448L171.0209138888889,159.72392118894138L171.17469861111113,157.28362817030686L171.48226805555555,158.93781570287854L171.63605277777776,156.8383149917309L171.7898375,162.154724918879L171.94362222222222,160.65990347128647L172.09740694444443,158.09173831572897L172.4049763888889,156.20639846875116L172.55876111111112,157.3158862040593L172.86633055555555,157.1161799247448L173.02011527777776,159.78554734816916L173.32768472222222,156.71017050743103L173.48146944444446,160.31034561303946L173.63525416666667,161.3291214979612L173.78903888888888,155.33415051606985L173.94282361111112,160.1581437771137L174.09660833333334,158.10177482091464L174.40417777777776,157.4576581441439L175.01931666666667,158.8001340169173L175.17310138888888,156.69995243732745L175.32688611111112,156.18149885764487L175.48067083333333,157.41593351730936L175.63445555555555,162.08974233040445L175.78824027777776,161.03045981663925L175.942025,155.27450644052945L176.09580972222224,159.7145453783182L176.24959444444445,154.9545285334954L176.86473333333333,159.00765767464273L177.01851805555555,156.29575866919296L177.17230277777776,162.42944272664877L177.32608749999997,160.94604726021106L177.78744166666667,155.56518178719742L177.94122638888888,160.4332348016592L178.09501111111112,156.95404749650223L178.40258055555555,154.75737929344177L178.55636527777776,158.55886450180643L178.86393472222224,162.0434861458265L179.17150416666667,162.14570719462174L179.32528888888888,163.02592635154724L179.47907361111112,158.7946921128493L179.94042777777778,158.2536841355837L180.2049375,160.15804290771484L180.3587222222222,161.99098362372473L180.51250694444443,143.937149139551L180.66629166666667,160.4000437259674L180.8200763888889,156.25149717697732L180.97386111111112,159.07919929577753L181.28143055555554,160.62889117460983L181.4352152777778,159.3086065695836L181.89656944444445,159.63374394636887L182.66549305555554,159.94117874365585L182.9730625,155.22170635370108L183.12684722222224,158.15702603413507L183.28063194444445,157.63112324934738L183.43441666666666,159.99194631209738L183.5882013888889,160.67763631160443L183.74198611111112,162.16843559191778L184.20334027777776,157.12312478285568L184.357125,155.64293696330145L184.51090972222224,160.0776903445904L184.66469444444445,157.92681180513821L184.81847916666666,158.61102911142203L185.12604861111112,158.63626159154452L185.43361805555554,159.74717158537644L185.58740277777775,159.00391541994534L185.74118750000002,160.58856863241928L186.04875694444445,159.97509103554947L186.20254166666666,155.8974355000716L186.3563263888889,155.06629687089188L186.51011111111112,156.28990320058972L186.66389583333333,158.49456530350906L186.81768055555554,160.7821470957536L186.97146527777775,160.5141522334172L187.12525000000002,159.58577550374545L187.27903472222224,155.3136185499338L187.43281944444445,156.61974109136142L188.04795833333333,161.02736060435956L188.35552777777778,160.884181536161L188.50931250000002,159.1453847518334L188.66309722222223,161.10240995883942L188.81688194444445,157.75667034662686L188.97066666666666,159.3387110416706L189.43202083333333,161.95295838209302L189.73959027777778,158.4528911113739L190.4654541666667,161.3610567496373L190.7730236111111,159.8303131873791L190.92680833333333,159.2625243847187L191.23437777777778,156.7392057638902L191.8495166666667,155.68374872207642L192.0033013888889,160.7224778028635L192.1570861111111,157.86913468287543L192.31087083333333,160.1007995238671L192.46465555555554,162.4569094639558L193.07979444444445,163.37532786222604L193.3873638888889,158.55654954910278L193.5411486111111,152.36708723581754L193.84871805555554,161.01042463229254L194.00250277777778,160.37163890325107L194.46385694444444,161.47395230256595L194.61764166666666,158.64551635888907L194.7714263888889,161.0608038535485L195.07899583333332,159.9527081159445L195.3865652777778,156.78502064484817L195.54035000000002,158.58700202061578L195.69413472222223,162.02963173389435L196.00170416666666,154.6626730148609L196.1554888888889,158.63715932919428L196.46305833333332,160.65114800746625L196.61684305555553,161.13670303271368L196.77062777777778,159.45455954625055L197.07819722222223,161.70893513239346L197.23198194444444,162.79678385991318L197.38576666666665,159.1167933207292L197.5395513888889,161.4864701949633L197.6933361111111,156.16221262858465L197.84712083333332,155.18449563246506L198.30847500000002,162.12979756868802L198.46225972222223,154.51442525937006L198.76982916666665,154.42901409589328L198.9236138888889,162.0024827351937L199.0773986111111,162.04937944045432L199.23118333333335,156.51981986485995L199.53875277777777,163.2216785504268L199.69253750000001,158.52009534835815L199.84632222222223,160.4228654274574L200.11083194444444,164.41860744586356L200.5721861111111,158.19446875498846L200.72597083333332,158.31743863912732L200.87975555555556,163.5804432630539L201.64867916666668,159.4195578648494L201.9562486111111,160.63564942433283L202.26381805555556,161.7511288019327L202.41760277777777,157.71663528222305L202.57138750000001,159.65569312755878L203.03274166666668,161.6188007593155L203.1865263888889,161.03921023698956L203.3403111111111,160.09040493231552L203.49409583333332,162.00264916970178L203.64788055555553,157.57945289978616L203.8016652777778,162.029049213116L203.95545,160.48176306944626L204.10923472222223,161.31490899966315L204.41680416666668,149.4272233889653L204.5705888888889,156.15103629919201L204.87815833333332,163.02437800627487L205.03194305555553,157.6850984646724L205.1857277777778,158.8650384316078L205.3395125,159.27661079626816L205.80086666666668,161.048649090987L205.9546513888889,161.67170928074762L206.26222083333332,162.0205156619732L206.41600555555556,155.23802197896518L206.5697902777778,161.49513739805954L206.723575,158.60198616981506L206.87735972222222,164.22232063917014L207.03114444444444,159.27019550250128L207.18492916666665,156.99732551207907L207.3387138888889,163.30399554509384L207.4924986111111,159.74224915871255L207.64628333333332,158.1341892022353L207.9538527777778,160.76324921387894L208.1076375,159.27103776198166L208.41520694444444,159.91584035066458L208.56899166666665,163.43078333597916L208.8765611111111,160.28469956838168L209.03034583333334,160.96854365788974L209.3379152777778,163.88069111567276L209.4917,159.7063295657818L209.64548472222222,160.81533817144543L209.79926944444443,160.87212259952838L210.06377916666668,162.31834264901968L210.2175638888889,158.1321617273184L210.52513333333332,161.42786003076114L210.83270277777777,162.30390823804416L211.14027222222222,158.5223749967722L211.29405694444446,159.87533120008618L211.6016263888889,158.35038762826187L211.7554111111111,159.18617129325867L211.9091958333333,158.93391710061294L212.06298055555555,162.96174567479355L212.2167652777778,160.0473336990063L212.37055,160.9630538408573L212.52433472222222,158.39882007012002L213.1394736111111,161.73961203831894L213.2932583333333,160.41715117601248L213.44704305555558,154.98273666088397L213.7546125,157.9839038848877L213.90839722222222,155.24990943761975L214.06218194444443,160.80591949132773L214.3697513888889,162.77444885327265L214.6773208333333,159.61426102198087L214.9848902777778,160.56989770669205L215.29245972222222,160.15694343126736L215.60002916666667,162.06410637268655L215.75381388888889,160.5428445339203L215.9075986111111,160.23338226171643L216.0613833333333,149.38443458997287L216.3689527777778,159.82977353609525L216.5227375,158.58251333236694L216.67652222222222,158.52495725338275L216.83030694444443,161.65592826329745L216.98409166666667,159.82239998303928L217.13787638888888,159.8389829122103L217.59923055555555,155.28615181262677L217.7530152777778,158.0946433544159L218.21436944444443,156.3073838674105L218.36815416666667,159.82429128426773L218.52193888888888,162.01963809820325L218.82950833333334,161.21256186411932L218.98329305555555,159.68328090814444L219.44464722222222,159.8530894976396L219.59843194444443,161.85749306128577L219.75221666666667,160.15558169438287L220.1705111111111,160.33737861193143L220.32429583333334,161.13907094185168L220.78565,158.79034464175885L220.93943472222222,159.6840929068052L221.09321944444446,161.29069277873404L221.40078888888888,153.84193402070267L221.86214305555558,159.68144004161542L222.0159277777778,161.4255375128526L222.47728194444446,157.87517675986655L222.63106666666667,162.10656230266278L222.78485138888888,156.03189440873953L223.3999902777778,158.58441976400525L223.70755972222221,157.54261539532587L223.86134444444446,159.16449445944565L224.01512916666667,161.3551861506242L224.16891388888888,159.59484366270215L224.3226986111111,161.51581058135397L224.4764833333333,156.0681166098668L224.63026805555558,158.63889932632446L225.0916222222222,156.15319994779736L225.24540694444445,162.42719081731943L225.39919166666667,152.27742442717917L225.55297638888888,161.99279675116904L225.86054583333333,159.10257073549124L226.1681152777778,154.38784425075238L226.3219,158.6560824284187L226.78325416666667,162.03425407409668L226.93703888888888,158.84926750109747L227.24460833333333,156.83522838812607L227.39839305555557,159.3555511878087L227.55217777777779,161.73595047914066L227.7059625,160.56112711246197L227.8597472222222,155.51596256402823L228.01353194444442,162.04418214467856L228.47488611111112,161.0001687361644L228.62867083333333,157.7181584101457L229.2438097222222,161.8130752215019L229.39759444444442,154.50108528137207L229.5513791666667,159.5806109905243L229.7051638888889,160.4636368384728L229.9696736111111,160.47667420827426L230.27724305555554,160.06725036180936L230.43102777777779,162.04929874493524L230.73859722222224,158.81281330035284L230.89238194444445,158.75197392243606L231.19995138888888,160.12433235461896L231.50752083333333,159.82733754011304L231.66130555555557,158.91208391923172L231.81509027777778,158.1935004087595L231.968875,159.2044488283304L232.27644444444445,156.15456168468182L232.43022916666666,159.17722417758063L232.7377986111111,156.85350592319782L232.89158333333336,161.35533493298752L233.19915277777778,161.8813158915593L233.3529375,157.62890916604263L233.66050694444445,159.33427278812115L233.81429166666666,162.32543881122882L233.96807638888887,160.2085633461292L234.1218611111111,164.04592527793005L234.58321527777778,159.93011841407187L234.8907847222222,160.0827035537133L235.04456944444445,162.88532197475433L235.19835416666666,158.35297997181232L235.35213888888887,160.6738839699672L235.81349305555557,159.11917383854205L235.96727777777778,158.59077957960278L236.1210625,160.81475312893207L236.42863194444445,161.82723728510052L236.58241666666666,156.91963590108432L236.7362013888889,159.83302153073825L236.8899861111111,162.2182297706604L237.04377083333333,158.27422114518973L237.35134027777778,160.56871249125555L238.1202638888889,159.7573745250702L238.42783333333333,160.33703565597534L239.3505416666667,163.19225999025198L239.5043263888889,161.4992932172922L239.92262083333333,161.72348554317767L240.07640555555557,162.65767235022324L240.383975,165.14688450556534L240.53775972222223,161.26022013334128L240.99911388888887,160.89969272796924L241.1528986111111,159.27132019629843L241.46046805555557,161.84239039054282L241.61425277777778,160.68000169900748L241.7680375,159.99461935116693L241.92182222222223,160.5662664083334L242.07560694444444,161.4114082318086L242.38317638888887,162.05707829732162L242.69074583333335,164.15348988312942L242.84453055555556,162.09350728071652L242.99831527777778,161.47729864487283L243.1521,158.50209520413324L243.30588472222223,160.3333539229173L243.45966944444444,161.86061244744522L243.61345416666666,160.87293459818915L244.22859305555556,160.87153503528006L244.38237777777778,155.71301597815292L244.5361625,155.77981673754178L244.68994722222223,159.8448182069338L244.84373194444444,160.68306812873251L245.3050861111111,158.6426163636721L245.45887083333335,160.80741740190066L245.61265555555556,160.91082870960236L246.22779444444444,145.55504890588614L246.38157916666665,162.25567249151376L246.5353638888889,159.88307292644794L246.99671805555556,159.43191940967853L247.15050277777777,162.2161745566588L247.4580722222222,163.2953712114921L247.61185694444444,159.84923124313354L247.9194263888889,156.38412026258618L248.0732111111111,157.91311878424423L248.38078055555556,158.50867188893832L248.53456527777777,160.36115857271048L248.8421347222222,158.03539771300095L248.99591944444447,164.97517957137183L249.14970416666668,161.6305671746914L249.3034888888889,162.6500415802002L249.4572736111111,154.95507827171915L249.61105833333335,159.7960781134092L250.64449166666665,160.34122173602765L251.10584583333335,160.75633966005765L251.25963055555556,157.50472380564764L251.5672,161.3969359948085L251.87476944444444,160.48359889250534L252.02855416666665,162.50893789988297L252.48990833333335,165.66094270119302L252.64369305555556,161.25333075339978L252.79747777777777,164.5840231730388L252.95126249999998,159.86513330386236L253.41261666666665,161.3141474357018L253.5664013888889,162.8232065989421L253.72018611111113,159.7021737465492L253.87397083333335,163.36072449500745L254.18154027777777,161.69969549545877L254.48910972222222,161.69543124162234L254.64289444444444,161.91021749606497L254.79667916666665,159.2418562448942L254.9504638888889,159.05084490776062L255.41181805555556,161.43026072245377L255.71938749999998,160.62280874985916L255.87317222222222,160.69084515938394L256.02695694444446,161.3455228622143L256.1807416666667,159.19210745738104L256.3345263888889,161.15175526875717L256.4883111111111,162.17966992121475L256.6420958333333,157.48958835235007L256.9496652777778,159.27681757853583L257.10345,162.07802382799298L257.2572347222222,161.26050761112802L257.41101944444443,160.24352467977084L257.56480416666665,161.99424674877756L257.71858888888886,161.20377866121441L257.8723736111111,163.05014257247632L258.02615833333334,163.065003156662L258.17994305555555,161.1581503886443L258.33372777777777,146.4598776743962L258.4875125,158.1843616412236L259.41022083333337,158.4170673443721L259.82851527777774,158.75502522175128L259.9823,145.4075677578266L260.1360847222222,162.0868070308979L260.44365416666665,165.43283412089713L260.5974388888889,160.92093330163223L261.21257777777777,159.0918483183934L261.36636250000004,164.44958191651565L261.52014722222225,159.98759379753702L261.67393194444446,161.80505106082327L262.1352861111111,165.58220657018515L262.2890708333333,160.3465072925274L262.4428555555555,164.59995549458725L262.59664027777774,162.1641486424666L262.750425,161.98278546333313L263.05799444444443,161.68789881926315L263.21177916666664,158.08871727723343L263.82691805555555,163.0395336334522L263.98070277777776,158.3858936566573" style="fill: none;" fill="none"></path></g></g></g></g></g><g><g opacity="0.0226264"><span fill="rgb(0, 0, 0)" stroke="none" stroke-width="1px">Alt + Scroll to Zoom</span></g></g></g><g transform="translate(53, 176)" clip-path="url(#clip_1)"><clipPath id="clip_1"><rect width="276" height="24"></rect></clipPath><g><g><line x1="0" y1="0" x2="0" y2="5" style="visibility: inherit;" fill="rgb(0, 0, 0)" stroke="rgb(204, 204, 204)" stroke-width="1px"></line><line x1="30.756944444444443" y1="0" x2="30.756944444444443" y2="5" style="visibility: inherit;" fill="rgb(0, 0, 0)" stroke="rgb(204, 204, 204)" stroke-width="1px"></line><line x1="61.513888888888886" y1="0" x2="61.513888888888886" y2="5" style="visibility: inherit;" fill="rgb(0, 0, 0)" stroke="rgb(204, 204, 204)" stroke-width="1px"></line><line x1="92.27083333333333" y1="0" x2="92.27083333333333" y2="5" style="visibility: inherit;" fill="rgb(0, 0, 0)" stroke="rgb(204, 204, 204)" stroke-width="1px"></line><line x1="123.02777777777777" y1="0" x2="123.02777777777777" y2="5" style="visibility: inherit;" fill="rgb(0, 0, 0)" stroke="rgb(204, 204, 204)" stroke-width="1px"></line><line x1="153.78472222222223" y1="0" x2="153.78472222222223" y2="5" style="visibility: inherit;" fill="rgb(0, 0, 0)" stroke="rgb(204, 204, 204)" stroke-width="1px"></line><line x1="184.54166666666666" y1="0" x2="184.54166666666666" y2="5" style="visibility: inherit;" fill="rgb(0, 0, 0)" stroke="rgb(204, 204, 204)" stroke-width="1px"></line><line x1="215.29861111111111" y1="0" x2="215.29861111111111" y2="5" style="visibility: inherit;" fill="rgb(0, 0, 0)" stroke="rgb(204, 204, 204)" stroke-width="1px"></line><line x1="246.05555555555554" y1="0" x2="246.05555555555554" y2="5" style="visibility: inherit;" fill="rgb(0, 0, 0)" stroke="rgb(204, 204, 204)" stroke-width="1px"></line><line x1="276.8125" y1="0" x2="276.8125" y2="5" style="visibility: inherit;" fill="rgb(0, 0, 0)" stroke="rgb(204, 204, 204)" stroke-width="1px"></line></g><g transform="translate(0, 8)"><text x="0" y="0" dx="0em" dy="0.95em" style="text-anchor: middle; visibility: hidden; font-family: Roboto, sans-serif; font-size: 12px; font-weight: 200;" fill="rgb(33, 33, 33)" stroke="none" stroke-width="1px">-10k</text><text x="30.756944444444443" y="0" dx="0em" dy="0.95em" style="text-anchor: middle; visibility: inherit; font-family: Roboto, sans-serif; font-size: 12px; font-weight: 200;" fill="rgb(33, 33, 33)" stroke="none" stroke-width="1px">0</text><text x="61.513888888888886" y="0" dx="0em" dy="0.95em" style="text-anchor: middle; visibility: inherit; font-family: Roboto, sans-serif; font-size: 12px; font-weight: 200;" fill="rgb(33, 33, 33)" stroke="none" stroke-width="1px">10k</text><text x="92.27083333333333" y="0" dx="0em" dy="0.95em" style="text-anchor: middle; visibility: inherit; font-family: Roboto, sans-serif; font-size: 12px; font-weight: 200;" fill="rgb(33, 33, 33)" stroke="none" stroke-width="1px">20k</text><text x="123.02777777777777" y="0" dx="0em" dy="0.95em" style="text-anchor: middle; visibility: inherit; font-family: Roboto, sans-serif; font-size: 12px; font-weight: 200;" fill="rgb(33, 33, 33)" stroke="none" stroke-width="1px">30k</text><text x="153.78472222222223" y="0" dx="0em" dy="0.95em" style="text-anchor: middle; visibility: inherit; font-family: Roboto, sans-serif; font-size: 12px; font-weight: 200;" fill="rgb(33, 33, 33)" stroke="none" stroke-width="1px">40k</text><text x="184.54166666666666" y="0" dx="0em" dy="0.95em" style="text-anchor: middle; visibility: inherit; font-family: Roboto, sans-serif; font-size: 12px; font-weight: 200;" fill="rgb(33, 33, 33)" stroke="none" stroke-width="1px">50k</text><text x="215.29861111111111" y="0" dx="0em" dy="0.95em" style="text-anchor: middle; visibility: inherit; font-family: Roboto, sans-serif; font-size: 12px; font-weight: 200;" fill="rgb(33, 33, 33)" stroke="none" stroke-width="1px">60k</text><text x="246.05555555555554" y="0" dx="0em" dy="0.95em" style="text-anchor: middle; visibility: inherit; font-family: Roboto, sans-serif; font-size: 12px; font-weight: 200;" fill="rgb(33, 33, 33)" stroke="none" stroke-width="1px">70k</text><text x="276.8125" y="0" dx="0em" dy="0.95em" style="text-anchor: middle; visibility: hidden; font-family: Roboto, sans-serif; font-size: 12px; font-weight: 200;" fill="rgb(33, 33, 33)" stroke="none" stroke-width="1px">80k</text></g><line x1="0" y1="0" x2="276.8125" y2="0" fill="rgb(0, 0, 0)" stroke="rgb(204, 204, 204)" stroke-width="1px"></line></g></g></g></g></svg>