<svg viewBox="0 0 330 200" xmlns="http://www.w3.org/2000/svg"><g><g><g><g><g><line x1="31.59375" y1="176" x2="26.59375" y2="176" style="visibility: inherit;" fill="rgb(0, 0, 0)" stroke="rgb(204, 204, 204)" stroke-width="1px"></line><line x1="31.59375" y1="154" x2="26.59375" y2="154" style="visibility: inherit;" fill="rgb(0, 0, 0)" stroke="rgb(204, 204, 204)" stroke-width="1px"></line><line x1="31.59375" y1="132" x2="26.59375" y2="132" style="visibility: inherit;" fill="rgb(0, 0, 0)" stroke="rgb(204, 204, 204)" stroke-width="1px"></line><line x1="31.59375" y1="110" x2="26.59375" y2="110" style="visibility: inherit;" fill="rgb(0, 0, 0)" stroke="rgb(204, 204, 204)" stroke-width="1px"></line><line x1="31.59375" y1="88" x2="26.59375" y2="88" style="visibility: inherit;" fill="rgb(0, 0, 0)" stroke="rgb(204, 204, 204)" stroke-width="1px"></line><line x1="31.59375" y1="66" x2="26.59375" y2="66" style="visibility: inherit;" fill="rgb(0, 0, 0)" stroke="rgb(204, 204, 204)" stroke-width="1px"></line><line x1="31.59375" y1="44" x2="26.59375" y2="44" style="visibility: inherit;" fill="rgb(0, 0, 0)" stroke="rgb(204, 204, 204)" stroke-width="1px"></line><line x1="31.59375" y1="22" x2="26.59375" y2="22" style="visibility: inherit;" fill="rgb(0, 0, 0)" stroke="rgb(204, 204, 204)" stroke-width="1px"></line><line x1="31.59375" y1="0" x2="26.59375" y2="0" style="visibility: inherit;" fill="rgb(0, 0, 0)" stroke="rgb(204, 204, 204)" stroke-width="1px"></line></g><g transform="translate(21.59375, 0)"><text x="0" y="176" dx="0em" dy="0.3em" style="text-anchor: end; visibility: hidden; font-family: Roboto, sans-serif; font-size: 12px; font-weight: 200;" fill="rgb(33, 33, 33)" stroke="none" stroke-width="1px">10</text><text x="0" y="154" dx="0em" dy="0.3em" style="text-anchor: end; visibility: inherit; font-family: Roboto, sans-serif; font-size: 12px; font-weight: 200;" fill="rgb(33, 33, 33)" stroke="none" stroke-width="1px">12</text><text x="0" y="132" dx="0em" dy="0.3em" style="text-anchor: end; visibility: hidden; font-family: Roboto, sans-serif; font-size: 12px; font-weight: 200;" fill="rgb(33, 33, 33)" stroke="none" stroke-width="1px">14</text><text x="0" y="110" dx="0em" dy="0.3em" style="text-anchor: end; visibility: inherit; font-family: Roboto, sans-serif; font-size: 12px; font-weight: 200;" fill="rgb(33, 33, 33)" stroke="none" stroke-width="1px">16</text><text x="0" y="88" dx="0em" dy="0.3em" style="text-anchor: end; visibility: hidden; font-family: Roboto, sans-serif; font-size: 12px; font-weight: 200;" fill="rgb(33, 33, 33)" stroke="none" stroke-width="1px">18</text><text x="0" y="66" dx="0em" dy="0.3em" style="text-anchor: end; visibility: inherit; font-family: Roboto, sans-serif; font-size: 12px; font-weight: 200;" fill="rgb(33, 33, 33)" stroke="none" stroke-width="1px">20</text><text x="0" y="44" dx="0em" dy="0.3em" style="text-anchor: end; visibility: hidden; font-family: Roboto, sans-serif; font-size: 12px; font-weight: 200;" fill="rgb(33, 33, 33)" stroke="none" stroke-width="1px">22</text><text x="0" y="22" dx="0em" dy="0.3em" style="text-anchor: end; visibility: inherit; font-family: Roboto, sans-serif; font-size: 12px; font-weight: 200;" fill="rgb(33, 33, 33)" stroke="none" stroke-width="1px">24</text><text x="0" y="0" dx="0em" dy="0.3em" style="text-anchor: end; visibility: hidden; font-family: Roboto, sans-serif; font-size: 12px; font-weight: 200;" fill="rgb(33, 33, 33)" stroke="none" stroke-width="1px">26</text></g><line x1="31.59375" y1="0" x2="31.59375" y2="176" fill="rgb(0, 0, 0)" stroke="rgb(204, 204, 204)" stroke-width="1px"></line></g></g><g transform="translate(31, 0)" clip-path="url(#clip_0)"><clipPath id="clip_0"><rect width="298" height="176"></rect></clipPath><g><g><g><line x1="0" y1="0" x2="0" y2="176" fill="rgb(0, 0, 0)" stroke="rgb(66, 66, 66)" stroke-width="1px" opacity="0.25"></line><line x1="33.15625" y1="0" x2="33.15625" y2="176" fill="rgb(0, 0, 0)" stroke="rgb(66, 66, 66)" stroke-width="1px" opacity="0.25"></line><line x1="66.3125" y1="0" x2="66.3125" y2="176" fill="rgb(0, 0, 0)" stroke="rgb(66, 66, 66)" stroke-width="1px" opacity="0.25"></line><line x1="99.46875" y1="0" x2="99.46875" y2="176" fill="rgb(0, 0, 0)" stroke="rgb(66, 66, 66)" stroke-width="1px" opacity="0.25"></line><line x1="132.625" y1="0" x2="132.625" y2="176" fill="rgb(0, 0, 0)" stroke="rgb(66, 66, 66)" stroke-width="1px" opacity="0.25"></line><line x1="165.78125" y1="0" x2="165.78125" y2="176" fill="rgb(0, 0, 0)" stroke="rgb(66, 66, 66)" stroke-width="1px" opacity="0.25"></line><line x1="198.9375" y1="0" x2="198.9375" y2="176" fill="rgb(0, 0, 0)" stroke="rgb(66, 66, 66)" stroke-width="1px" opacity="0.25"></line><line x1="232.09375" y1="0" x2="232.09375" y2="176" fill="rgb(0, 0, 0)" stroke="rgb(66, 66, 66)" stroke-width="1px" opacity="0.25"></line><line x1="265.25" y1="0" x2="265.25" y2="176" fill="rgb(0, 0, 0)" stroke="rgb(66, 66, 66)" stroke-width="1px" opacity="0.25"></line><line x1="298.40625" y1="0" x2="298.40625" y2="176" fill="rgb(0, 0, 0)" stroke="rgb(66, 66, 66)" stroke-width="1px" opacity="0.25"></line></g><g><line x1="0" y1="176" x2="298.40625" y2="176" fill="rgb(0, 0, 0)" stroke="rgb(66, 66, 66)" stroke-width="1px" opacity="0.25"></line><line x1="0" y1="154" x2="298.40625" y2="154" fill="rgb(0, 0, 0)" stroke="rgb(66, 66, 66)" stroke-width="1px" opacity="0.25"></line><line x1="0" y1="132" x2="298.40625" y2="132" fill="rgb(0, 0, 0)" stroke="rgb(66, 66, 66)" stroke-width="1px" opacity="0.25"></line><line x1="0" y1="110" x2="298.40625" y2="110" fill="rgb(0, 0, 0)" stroke="rgb(66, 66, 66)" stroke-width="1px" opacity="0.25"></line><line x1="0" y1="88" x2="298.40625" y2="88" fill="rgb(0, 0, 0)" stroke="rgb(66, 66, 66)" stroke-width="1px" opacity="0.25"></line><line x1="0" y1="66" x2="298.40625" y2="66" fill="rgb(0, 0, 0)" stroke="rgb(66, 66, 66)" stroke-width="1px" opacity="0.25"></line><line x1="0" y1="44" x2="298.40625" y2="44" fill="rgb(0, 0, 0)" stroke="rgb(66, 66, 66)" stroke-width="1px" opacity="0.25"></line><line x1="0" y1="22" x2="298.40625" y2="22" fill="rgb(0, 0, 0)" stroke="rgb(66, 66, 66)" stroke-width="1px" opacity="0.25"></line><line x1="0" y1="0" x2="298.40625" y2="0" fill="rgb(0, 0, 0)" stroke="rgb(66, 66, 66)" stroke-width="1px" opacity="0.25"></line></g></g></g><g><g><line x1="0" y1="286" x2="298.40625" y2="286" fill="rgb(0, 0, 0)" stroke="rgb(153, 153, 153)" stroke-width="1.5px"></line></g></g><g><g><line x1="33.15625" y1="0" x2="33.15625" y2="176" fill="rgb(0, 0, 0)" stroke="rgb(153, 153, 153)" stroke-width="1.5px"></line></g></g><g><g><g><g><g><path stroke="rgb(255, 112, 67)" stroke-width="2px" d="M43.60046875,-1.815850526587436L43.76625,1.4979553544300153L44.217175,3.532975789320897L44.38295625,6.7150583016597665L44.5487375,8.172162422654527L44.71451875,8.793907957807729L45.04608125,11.12403917180264L45.2118625,11.367911814858267L45.543425,13.518895434910497L45.8749875,15.13746641135873L46.20655,19.627078235523364L46.37233125,24.03553344035884L46.5381125,29.467927272483045L46.70389375,27.295853409384435L47.035456249999996,27.64070403171503L47.2012375,25.32361995931079L47.5328,26.939109109376123L47.698581250000004,30.79159733208161L47.8643625,33.453369501544245L48.195924999999995,33.82283575732304L48.36170625,36.50516461967715L49.19061249999999,41.085129258866964L49.8537375,44.07534437050576L50.01951875,46.27303560179563L50.516862499999995,46.667335460198444L50.68264375,40.367898529536994L51.01420625,44.19562696562259L51.1799875,48.486265797293505L51.345768750000005,51.232272326276494L51.51155,51.178917991713135L51.67733125,49.09030520176616L51.8431125,48.847968979214L52.00889375,49.89296946736235L52.34045625,51.37306729443106L52.506237500000005,53.098127028269964L52.67201875,50.34067553336821L53.33514375,53.91448603901505L53.500925,58.26216284533286L54.16405,59.422906685471204L54.32983125,61.29299572026711L54.78075625,63.45737702200401L54.946537500000005,65.95630258649345L55.11231875000001,64.6331481595621L55.278099999999995,65.73244855760248L55.44388125,64.934179675333L55.77544375,65.95570052370566L56.107006250000005,65.73073080006323L56.2727875,67.3808655430262L56.438568749999995,67.05226734217312L56.60435,65.16228234133902L57.267475000000005,70.12152864552607L57.43325625,66.8043029905383L57.5990375,66.17657212025071L57.764818749999996,67.71267239812698L57.9306,70.36288481094653L58.42794375,72.6505075284136L59.09106875,74.95604853560285L59.42263125,76.33063672023863L59.5884125,75.50868781827596L59.919975,77.59448271049683L60.08575625,72.95371874006764L60.41731875,75.20592799086677L60.583099999999995,78.1484484571177L60.74888125,76.51466264116516L61.08044375,80.3753159867987L61.412006250000005,83.19967079325109L61.743568749999994,84.57554283239597L61.909349999999996,83.38885292111728L62.07513125,81.87970991551217L62.40669375,81.37776949178779L62.572475000000004,82.39366456372503L62.738256250000006,78.48269608320574L62.904037499999994,79.25322925270665L63.069818749999996,81.99963194859664L63.40138125,81.6822658940115L63.5671625,85.16789835476625L63.732943750000004,85.58990832438319L63.898725000000006,84.47328398388773L64.06450625000001,83.91256078339907L64.2302875,85.45149459992226L64.39606875,87.38653396698462L64.8934125,85.39185537774938L65.05919375,87.95974854159104L65.224975,88.26983258442729L65.51011875,87.41765898058804L66.0074625,91.58739729875322L66.50480625,90.06159975620503L66.6705875,88.96914369161365L66.83636875,92.05458649572992L67.16793125,90.79299283371725L67.3337125,90.07497706619714L67.49949375,93.32616986398585L67.665275,92.04149812200478L67.9968375,91.97930179678687L68.16261875,92.46298848774006L68.3284,88.6953979205249L68.6599625,92.63119749254932L68.991525,92.01151878849834L69.3230875,91.70048884878261L69.48886875,91.61401660638869L69.82043125,94.06801705001484L69.98621250000001,96.88478529714756L70.15199375,95.1948673025561L70.317775,96.4324034747954L70.48355624999999,96.09443735465263L70.81511875,96.5540058576158L70.9809,96.07291788834875L71.14668125,96.33002697812644L71.644025,96.39238798253015L71.9755875,98.12147252340479L72.14136875,99.346164611455L72.47293125,100.94174799172649L72.6387125,100.21532726793626L72.80449374999999,101.43592853849614L72.970275,104.51176464262895L73.13605625,105.9748024684387L73.3018375,103.11119678868037L73.6334,104.6958951667141L73.79918125,102.64405458660072L74.13074375,104.66853800708738L74.296525,102.3842542129438L74.46230625,102.19066681609638L74.6280875,100.83904532281213L74.79386875,101.8275902491072L74.95965,100.26120182402485L75.45699375000001,102.10774953679771L75.622775,101.44518103311378L75.78855625000001,105.05348137682626L75.9543375,105.50038716593951L76.4052625,102.3976657712434L76.57104375,100.66217810654487L76.73682500000001,102.15810627188591L76.90260625,104.3741743710417L77.23416875000001,106.41650901715627L77.39994999999999,105.96488648939533L78.22885624999999,109.12488373689894L78.56041875,105.30598798139717L78.7262,105.50082911696327L79.22354375,107.10579532174049L79.38932499999999,108.60199876897204L79.55510625,110.96190040274064L79.88666875,112.87384090997935L80.05245,111.1448810230384L80.21823125,112.61266713921368L80.3840125,112.69143451204384L80.54979375,113.06918085187965L80.715575,107.05089571815904L80.88135625,109.61305696214541L81.0471375,109.9229874518234L81.37870000000001,109.90281743447294L81.54448125,109.16266366625018L81.87604375,107.34098656644935L82.04182499999999,107.13762645525046L82.70495,110.38033206821862L82.87073125,108.61348900533544L83.0365125,110.20270033679502L83.20229375000001,111.23741457463561L83.368075,113.09994767666612L83.53385625,111.76079639530633L84.19698125,110.5753369375256L84.3627625,115.66977720523997L84.52854375,117.95768678823187L84.69432499999999,117.4332615175192L84.86010625,116.27407319774296L85.0258875,114.9466048683528L85.35745,116.19360264574313L85.52323125000001,114.50340867301718L85.6890125,113.31999793208179L85.85479375,117.61525277231061L86.02057500000001,118.71984059771253L86.18635624999999,116.06573309397908L86.51791874999999,114.81983421979078L86.6837,115.17685193263131L86.96884375,116.9734539177575L87.134625,117.74092812458028L87.30040625000001,119.14968344640343L87.63196875000001,117.77401035470729L88.1293125,113.74585686590052L88.460875,116.75535980740653L88.62665625,117.41189508366267L88.7924375,118.18592184023666L88.95821875,119.2532347752846L89.12400000000001,122.20344042266586L89.78712499999999,124.33622173956145L89.95290625,123.18837435538238L90.28446875,126.03029145893255L90.61603124999999,122.33685468492986L90.7818125,121.08603691374111L90.94759375,117.5534623582056L91.113375,120.09380722754544L91.27915625,119.82589836545792L91.61071875,121.79420006053452L91.77650000000001,121.79560496674064L91.94228125000001,121.64454666534711L92.27384375,119.81305208062916L92.43962499999999,119.50967725667826L92.60540625,119.9598594698517L92.7711875,123.56386963088562L93.10275,123.51299066280872L93.26853125,124.36759015879362L93.60009375,125.64668324566681L93.76587500000001,120.97729141102313L93.93165625,121.64569338909433L94.09743750000001,123.2036513850191L94.26321875,123.01898953706615L94.42899999999999,121.93769873017425L94.59478125,120.45037482282135L94.76056249999999,123.52646764576801L94.92634375,123.1482303646825L95.092125,121.56562393353117L95.75525,125.75685139564118L95.92103125,121.12909901182317L96.08681250000001,120.31548583531658L96.41837500000001,122.98945705905128L96.58415624999999,124.68997817525009L97.24728125,123.55024255090201L97.69820625000001,122.37226055129317L97.8639875,123.07288254537549L98.02976874999999,122.9718736007116L98.5271125,124.25101203884495L98.69289375,125.30581504801401L98.858675,125.69769000231915L99.02445625,125.55075397026357L99.1902375,124.60457271296869L99.35601875,124.16463724350386L99.5218,122.28833656057986L99.68758125000001,123.87969177094263L99.8533625,125.20098553375698L100.01914375000001,124.73446690008817L100.18492499999999,122.86528684476481L100.35070625,126.92218876945654L100.5164875,125.73039684932041L100.68226874999999,128.41702419662838L101.01383125,127.8474553474448L101.34539375,127.86273231796395L101.51117500000001,127.71107620413287L101.67695625,127.10927893170823L101.8427375,129.82193065553375L102.34008125,130.10130162757318L102.50586249999999,129.60222461057714L102.67164375,129.55387283702498L102.837425,129.52941041791323L103.33476875,129.12325995924405L103.50055,128.155818997397L103.83211250000001,130.13313220654365L103.99789375,129.63007616230513L104.49523749999999,128.51791653173368L104.66101875,133.52871027670622L104.82679999999999,132.4099557345052L105.1583625,131.85063156753415L105.32414375,132.86484328073044L105.489925,133.11361612774002L105.98726875,131.33982685743013L106.15305000000001,128.36316277705575L106.31883125,129.97640367819633L106.48461250000001,129.05867469593147L106.65039374999999,129.34116947820343L106.816175,129.37000243765448L106.98195625,130.83451405109366L107.14773749999999,131.16805500353217L107.4793,131.58175188639666L107.64508125,132.7927427669698L107.8108625,131.29643881203737L107.97664375000001,128.8765262358308L108.75913125,132.30737287956L108.9249125,133.41567143891766L109.09069375,131.08869119342873L109.256475,132.66723296556893L109.42225625,127.49739979215873L109.75381875000001,128.9025147349144L110.08538125000001,129.48456532898575L110.41694374999999,131.919676727909L110.582725,134.2993642490257L110.74850624999999,137.73610429770642L111.08006875,135.88621709827717L111.24585,134.8517654304751L111.41163125,132.15942160874894L111.74319375,133.3737299000638L112.07475625000001,133.054808923925L112.2405375,134.24718016941847L112.57209999999999,134.46727058028878L112.73788125,136.1437576576215L112.9036625,137.33126001144302L113.40100625,138.6467925821832L113.5667875,139.31038237304037L113.73256875,135.63833818847266L113.89835000000001,136.9090553880592L114.06413125,137.20174579387066L114.2299125,136.78246944287514L114.39569375,138.69181214057858L114.72725625000001,134.18171898295554L114.89303749999999,134.38393411499305L115.05881875,135.41271367944506L115.2246,135.65492381618753L115.39038125,135.70850070694885L115.5561625,134.48658876645447L116.05350625,134.90635107176232L116.21928750000001,133.50118407140212L116.55085000000001,132.12142768222117L116.71663125,135.1471573753239L116.88241249999999,134.09207707900293L117.21397499999999,134.21512783919866L117.37975625,133.77927926394398L117.5455375,136.08122531898653L118.04288125,134.62048430638214L118.2086625,133.19393059847772L118.37444375,135.60820978425755L118.540225,134.56840411152132L118.70600625,136.0463220079284L118.87178750000001,134.88205765483028L119.15693125,135.61114835022238L119.3227125,134.9157719569108L119.48849375,134.31698636750585L119.82005625000001,134.74002740705137L119.9858375,133.18616427137925L120.15161875000001,136.60748713704632L120.3174,137.82441698010376L120.48318124999999,137.05124351081616L120.6489625,137.35313570915082L120.980525,137.22653253327857L121.47786875,137.3448111978236L122.14099375,138.2711250762381L122.6383375,138.63678507687078L122.80411874999999,137.39396374631778L122.9699,137.586580045276L123.13568124999999,138.20683122113533L123.3014625,137.32984175941462L123.46724375,137.2718815723724L123.633025,137.03725041864317L123.79880625,140.43568681429625L123.96458750000001,135.16054004878282L124.13036875,135.71036898166227L124.29615,134.95458366316728L124.46193125,136.3173310389648L124.79349375000001,138.69209730807128L124.95927499999999,140.20697744001856L125.45661874999999,138.53420958107657L125.78818125,139.8820640634653L125.9539625,139.7254317516778L126.11974375,140.84808482615315L126.285525,141.2523792617808L126.45130625,140.17313394744932L126.78286875,142.77577406048619L127.44599375,142.15612758326435L127.611775,141.5740403957838L127.77755625,142.21349314616168L128.10911875,142.3052416549089L128.2749,142.84584602749126L128.44068124999998,140.19931402823792L128.6064625,138.8983371199457L128.938025,138.88185200341272L129.2695875,138.7611779287322L129.88629375,140.85243887393855L130.54941875,140.71387917214145L131.21254375,141.37730859764523L131.378325,141.31078762440742L131.54410625,140.85775820391692L131.87566875000002,142.83526229844878L132.04145,141.02503013602728L132.20723125,140.86506881709002L132.3730125,142.31925262448254L132.53879375,143.1856490936104L132.87035625,143.1190978149309L133.0361375,141.3736727392515L133.20191875,143.42146430944445L133.3677,144.5123790892067L133.53348125,141.9997450347008L133.6992625,141.01202353449233L134.030825,138.74136023885947L134.19660625,139.69794038037622L134.36238749999998,139.6330975717316L134.69395,136.78068709528506L135.0255125,138.52261910531556L135.19129375,142.72307349260828L135.357075,143.31478777537455L135.52285625,143.89307340985366L136.02020000000002,142.38564530018465L136.18598125,141.78408035638034L136.51754375,140.69298315645514L136.683325,145.7039937055186L136.84910625,144.98703474259827L137.18066875,145.20319496665272L137.51223125,143.44507333680315L137.6780125,143.54509041931823L138.009575,142.08890804187416L138.17535625,143.69916582426998L138.3411375,144.4757838268374L138.50691874999998,143.26474809761612L138.6727,141.83524770805695L139.17004375,144.5074806408254L139.335825,141.5572868464093L139.50160625,142.58793579803114L139.6673875,145.12111169854523L139.99895,144.6413002893908L140.61565625,147.68482175383468L140.7814375,147.4716436321348L140.94721875,144.64402362434924L141.113,146.3518732352785L141.27878125,146.59362439893076L141.4445625,145.36552980293268L141.94190625000002,144.871878688034L142.1076875,145.67722381621397L142.43925,144.27754782122253L142.60503125,146.0907646088712L142.7708125,144.59894576483444L142.93659375,146.37249078043388L143.102375,143.21319669299177L143.59971875,147.1761911023429L143.7655,144.05631662063428L143.93128125,143.50365844161882L144.0970625,146.173212521026L145.09175,145.90083188578456L145.4233125,147.14690858581642L145.58909375,146.51918953930726L146.08643750000002,148.02462712690465L146.41799999999998,146.08066449025412L146.58378125000002,146.52535067474332L146.7495625,145.1004315046995L146.91534375,146.0499493019896L147.081125,146.19770601613027L147.24690625,145.30579974188032L147.57846875,144.2838418598987L147.74425,146.9127852032195L147.91003125,145.75623931346001L148.0758125,143.0052416196922L148.407375,142.82987264820693L148.57315625,146.60060455816244L148.73893750000002,145.42667247305664L148.90471875,145.60048705011818L149.23628125,146.74275644821054L149.4020625,145.0292617333062L149.56784375,143.3174918086605L149.733625,146.0146749252842L149.89940625,144.71734949557577L150.0651875,145.60650260811207L150.39675,146.95704693535063L150.89409375000002,147.61735216938908L151.059875,147.93248634435807L151.51080000000002,149.60393417416856L152.17392500000003,150.91531346165445L152.33970625,152.6145639772612L152.67126875,155.24919378491632L152.83704999999998,152.9143813832545L153.1686125,154.16976416015288L153.50017499999998,153.44780614318645L153.8317375,152.89268652404664L153.99751875,152.90614681127857L154.1633,155.04119708945268L154.4948625,156.5455262828464L154.66064375000002,156.1053839307186L154.826425,157.87074111587742L154.99220624999998,157.50500005893076L155.1579875,158.54981018550492L155.32376875,157.53877283005295L155.48955,156.03273139517532L155.65533125,157.4972469456257L155.8211125,156.19044144435296L155.98689375,159.29392642667037L156.15267500000002,159.51041499906864L156.4842375,154.98202567180445L156.98158125,155.9042060189274L157.14736249999999,155.5475292571084L157.31314375,153.4134495000658L157.64470625,155.17557938937057L157.8104875,156.48001155879322L157.97626875,156.36970554367437L158.14204999999998,157.41318151101905L158.30783125000002,157.85893261876964L159.1367375,158.17228935031454L159.30251875,156.11142643611646L159.79986250000002,156.98427987290034L159.96564375,157.5419724952734L160.29720625,157.9080886943076L160.4629875,158.68500099795662L161.12611249999998,159.50245987306596L161.29189375,160.59499284583666L161.457675,157.57976449107133L161.78923749999998,156.2292181764543L162.07438125000002,155.6987285682261L162.2401625,155.64238472394348L162.40594375,156.20388862855555L162.571725,155.46572459559036L162.73750625000002,155.83445718777412L162.9032875,157.3773131066098L163.23485,156.4156285103282L163.40063125,157.1905262456012L163.5664125,158.35335879240466L163.73219375,158.90164540239593L163.897975,159.06558212058795L164.06375624999998,158.91967687855393L164.22953750000002,157.88870950848002L164.39531875,159.1628899354347L164.5611,160.7328944074278L165.05844375,158.719553462694L165.39000625,162.5203413915812L165.55578749999998,158.41577958775636L165.88735,158.2868540746753L166.2189125,158.04604967014697L166.38469375,159.74492220626297L166.550475,158.24630215493454L166.71625625000001,155.4281264467693L166.8820375,155.69200541518072L167.2136,155.79278236592972L167.37938125,155.52754205444555L168.04250625,156.7336837409681L168.2082875,159.47379064314043L168.37406875,161.47014398427294L168.53985,158.61801282794167L169.03719375,159.36243176597887L169.20297499999998,158.9006759174975L169.53453750000003,155.40601834346722L169.70031875,157.27989297324342L170.19766249999998,159.06846259363846L170.36344375000002,155.10749219851704L170.529225,156.8821821629823L170.69500625,157.34525740264777L170.8607875,159.76008870672538L171.02656875000002,157.302037110754L171.19235,158.5287614052463L171.35813125,159.22793685108238L171.5239125,157.89491717046388L171.68969374999998,155.90331420913867L171.855475,159.2215482331248L172.02125625,159.08962258916688L172.35281874999998,159.1658974243497L172.80374375,159.48852542360396L172.96952499999998,160.11010286402566L173.3010875,161.04386704678453L173.46686875,157.6880820841498L173.63264999999998,158.85303975647133L173.9642125,159.83442059460546L174.12999375,158.25417904438535L174.46155625,160.26531794298862L174.6273375,159.0146251835178L174.9589,158.0005811403841L175.2904625,159.68447038833204L175.78780625,159.7535113650793L175.9535875,158.05389591206517L176.45093125,158.16490972131135L176.78249375,155.92491018825555L176.94827500000002,159.0433662179338L177.11405625,157.57432028312846L177.44561875,158.37952106392004L177.61139999999997,157.63342056987057L177.77718125,159.23987633179053L178.27452499999998,161.34134324902547L178.44030625000002,159.21902599641234L178.77186875,157.13569568817945L179.10343125,157.5494021846362L179.2692125,158.64137036046432L179.76655624999998,161.80435689950613L180.09811875,159.37201919951812L180.2639,160.03975853204L180.76124375,159.89962111043494L180.92702500000001,160.13250452356075L181.09280625,159.005332029322L181.2585875,157.3841650226469L181.42436874999999,157.89871648184987L181.59015000000002,158.77490341205913L181.75593125,158.97426707470132L181.92171249999998,155.92958092047994L182.08749375,158.7018521747245L182.253275,162.84851494558177L182.41905625,163.51365150885297L182.75061875,160.71869085953543L182.91639999999998,159.36052245334332L183.2479625,158.5122534897062L183.6988875,159.600617627271L183.86466875,160.37185472248075L184.36201250000002,161.82900463341522L184.52779375,161.76840535878446L184.85935625,161.19684987115448L185.0251375,159.96335566549055L185.19091875,161.39556443994374L185.35670000000002,162.4034298199721L185.52248125,160.2914246522372L185.85404375000002,158.46727689522413L186.019825,157.25859794865792L186.3513875,157.2241132369682L186.51716875,160.22268205350903L186.84873125000001,161.72270377556248L187.0145125,164.2904414181695L187.18029375,164.08680032758627L187.34607499999998,163.57323078554103L187.51185625000002,162.73311998987933L187.6776375,161.30991250601255L188.0092,161.42380875543859L188.672325,159.4726110589272L188.83810624999998,159.04977948020496L189.00388750000002,158.2759950074589L189.16966875,160.4796514936111L189.33545,161.07684843706022L189.50123125,161.09625897983867L189.66701250000003,159.3854668747196L189.83279375,159.4044456369167L189.998575,160.5294830254606L190.6617,159.1851210744316L190.82748125,160.4456029028377L190.9932625,161.11122122351412L191.15904375,160.03146433200885L191.6563875,162.31931156734495L191.82216874999997,161.1962950397722L191.98795,161.60648933465436L192.3195125,161.9451104129264L192.48529374999998,161.82757001667673L192.81685625,160.99400638073357L193.14841875,160.78085664826435L193.3142,160.95679867218615L193.47998125,161.8256718394201L193.977325,160.96861362916474L194.26246875,161.42444439209845L194.42825,162.064633294805L194.59403125,158.46685691169745L194.75981249999998,158.19605500395204L194.92559375000002,159.48901857671206L195.091375,159.72172878823915L195.4229375,162.30784196044345L195.58871875000003,163.54234677782858L196.0860625,163.58941067595006L196.91496874999999,162.89152749382689L197.24653125,158.32114353181862L197.4123125,159.49443630219662L197.57809375,158.73897249603965L197.74387499999997,159.51930856171072L197.90965625,159.74087209381355L198.0754375,160.47676584051666L198.57278125,158.47403481558928L198.7385625,158.13545123908503L198.90434375,158.78935980900278L199.070125,157.9346041208753L199.23590625,159.87772528685625L199.56746875000002,159.65079784606397L199.89903125,160.141750146237L200.0648125,160.17946994858204L200.23059375000003,161.1199084553553L200.56215625,163.06625468930204L200.7279375,161.61366524339078L200.89371875,160.32697638297296L201.0595,160.05068145051132L201.22528125,158.84315568121986L201.3910625,161.43895806022118L201.55684374999998,159.76843312470692L201.72262500000002,161.44609672479976L201.88840625,161.69959620626656L202.0541875,160.98724353308612L202.7173125,160.83111832138974L203.04887499999998,162.36913112161804L203.21465625000002,161.3819191179171L203.3804375,158.08868287333814L203.54621875,158.95768779712301L203.712,162.44907480595936L204.20934375000002,163.42612785171525L204.54090624999998,162.93631979269418L205.32339375,162.1193617608704L205.65495625,161.93770592370976L205.8207375,161.69486728286353L206.15230000000003,160.88269109115367L206.815425,160.73184243789532L206.98120625,159.66399979562294L207.1469875,159.8277875421687L207.31276875,160.30917443264985L207.47854999999998,160.41999677079593L208.141675,160.7517802432637L208.4732375,160.18478549214964L208.63901875,158.42293985302902L208.97058124999998,160.93957781562602L209.13636250000002,159.52031292777892L209.63370625,161.3910383120873L209.7994875,164.0825882277309L209.96526875,163.2172268105399L210.29683125,163.7236748619587L210.62839375000001,162.93433309100334L210.794175,161.64137187303464L210.95995625,161.87199544132568L211.29151875,159.0962700797368L211.4573,159.52578801830106L211.7888625,160.66495820831952L211.95464375,162.24679253668603L212.12042499999998,163.46741451126942L212.4519875,163.96987131418354L212.61776874999998,165.29363657940368L212.78355,163.96786209290588L212.94933125,161.77456186023574L213.1151125,160.27595614079962L213.28089375,157.79033946206766L213.77823750000002,159.49821948534606L213.94401875,158.79315738395667L214.27558125,159.6546717436064L214.44136250000003,161.42314591115408L214.60714375,162.9120715982061L214.77292500000001,161.53335784234653L215.10448749999998,160.30296186422137L215.27026875,161.60757362732187L215.43605,160.77227351599274L215.72119375,163.6173058362802L216.2185375,164.61425404620172L216.38431874999998,164.0741833023548L216.55010000000001,164.6388470633221L217.37900625,165.78066160103035L217.71056875,165.12844868791314L218.04213125,164.7364201801551L218.20791250000002,162.31718207940654L218.37369375,161.9251839729857L218.8710375,160.82163870410392L219.03681875,160.7063770060317L219.2026,159.05428312805748L219.36838125,160.05861472241557L219.53416249999998,159.67087211103723L219.69994375000002,161.7036112182825L219.865725,162.49575758179958L220.03150625,159.57157526136004L220.36306875000002,158.2447056396041L220.52885,157.47500293393335L220.8604125,160.58054848277212L221.02619374999998,162.80890457489278L221.191975,162.71335940753335L221.35775625,160.1981820416147L221.85510000000002,163.0508233637628L222.02088125,165.11310700959066L222.35244375,163.20852582684816L222.518225,161.97102766651906L222.68400625,162.08103884112236L222.84978750000002,160.88446085960507L223.01556875,162.75556169337534L223.18134999999998,164.65654403201643L223.34713125,162.8204606904501L223.5129125,164.9737480481812L223.67869375,164.02231531145267L223.844475,162.3268115806704L224.1760375,161.41122862625872L224.34181875000002,160.94494197922202L224.67338125,161.21073044632226L224.8391625,162.7002541857621L225.170725,163.73273567185765L225.33650624999999,161.5884023894427L225.66806875,165.16296117243516L225.83385,164.91065283261148L225.99963125,163.07028124119284L226.1654125,163.35253480306534L226.45055625,163.8748307420687L226.6163375,161.8986579056904L226.94789999999998,160.30528818823848L227.2794625,163.94920112644405L227.61102499999998,160.94593516561252L227.77680625000002,160.21972174389876L228.10836875,159.3589219745619L228.27415,159.7755101976766L228.43993124999997,160.04271357405028L228.6057125,162.91718354909327L228.77149375000002,160.711320108704L228.937275,163.88409568460716L229.10305624999998,164.04155131335216L229.76618125,164.12988569828963L229.9319625,164.48805257375892L230.09774375,164.85911724982174L230.42930625,163.38823341141648L230.5950875,160.45617346054618L230.76086875,162.1179465537447L231.09243125,165.74098010570873L231.42399375,164.45933224982662L231.75555625,164.83627897636083L232.08711875,165.07027705988875L232.41868125000002,164.6561692266559L232.5844625,164.57128790073963L232.75024375,164.01600920589786L232.916025,161.7913693632604L233.2475875,160.36454673087127L233.41336875,162.28040749714094L233.57915,161.4620265417416L233.74493124999998,163.05641323644633L233.91071250000002,161.7630185503883L234.07649375,162.0642972599937L234.5738375,161.9168235189601L234.73961875,163.6631762341788L235.23696249999998,163.25401154495063L235.40274375,165.1217359980153L235.568525,164.722946994317L235.90008749999998,164.4085831837728L236.06586875,162.20654746275392L236.5632125,163.84664919603617L236.72899375,161.86218225138634L236.894775,164.18467995630056L237.3457,163.51021936599224L237.51148125,162.39097773470763L238.008825,163.02373153828552L238.17460624999998,163.37981395043712L238.34038750000002,163.35796611379254L238.67195,161.48606453460854L239.16929375,164.15066086126805L239.335075,163.32372781558897L239.83241875000002,161.25533135488072L239.9982,159.41098956915403L240.16398125,159.5651480475227L240.82710625,159.08983460182904L241.15866874999998,159.7537523693738L241.32445,164.12436674755202L241.49023125,164.23585814667575L241.6560125,163.13586188812752L241.82179374999998,164.0752667514068L241.987575,162.11051344439875L242.15335625,162.16517510155137L242.6507,161.31838415944156L242.81648125,162.85612983038175L242.98226250000002,160.23857604581204L243.14804375,162.39686686466985L243.47960625,164.88303245705873L243.81116875,162.41762465001648L243.97695,163.43893881894053L244.47429375000002,163.20769350681843L244.640075,162.36779199215258L244.97163749999999,160.14484931333354L245.13741875000002,160.1337239343136L245.3032,160.31608183373268L245.46898125,164.24593457692418L245.6347625,163.46849961944554L245.80054374999997,163.37215316217026L246.2978875,164.5665990109496L246.46366874999998,165.7692414042504L247.12679375,167.17118076784323L247.292575,162.58089716615027L247.45835625,161.84310693372336L247.62413750000002,161.67707349556116L247.90928125,161.9134363275613L248.24084375,161.76980557095084L248.406625,162.5637815359299L248.7381875,162.29201571721222L248.90396875000002,162.24785461770526L249.23553124999998,161.4843264028253L249.56709375,163.0447420361532L249.732875,164.0980938484009L249.89865625,162.1491559153638L250.0644375,162.03913649355422L250.39600000000002,160.45215697547823L250.56178125,161.93677994883674L250.89334374999999,160.91762216852078L251.05912500000002,162.50087389925702L251.3906875,161.52109585749855L251.55646875,161.35347515671106L251.88803125,159.49704183535962L252.0538125,160.7015515172314L252.21959375,162.3052551748652L252.38537499999998,163.99597392095916L252.88271875,163.98049374588604L253.21428125,164.48518574338124L253.3800625,164.81867072642424L253.54584375000002,164.23776691949712L253.711625,164.01422845003813L254.20896875,163.38573395417816L254.37475,162.0989753914278L254.54053125,164.28437035753734L254.87209375,166.06998401566986L255.037875,162.21887067368414L255.20365625,162.574275132482L255.3694375,162.54525630263373L255.53521874999998,162.834941486048L255.86678125,165.1927274343534L256.6956875,163.3838531659343L257.02725,163.5566779426514L258.02193750000004,161.41068179916016L258.18771875,161.98704666799708L258.63864375,162.73956229034906L258.804425,162.85245357599166L259.1359875,165.35145169881764L259.30176875,163.86919278137555L259.7991125,164.60171052356168L259.96489375,163.27310326421025L260.29645625,163.91967212393143L260.4622375,165.0101608945981L260.62801874999997,163.48399151051376L260.79380000000003,162.8001281063815L260.95958125,162.349065282408L261.29114375,162.0012516847036L261.62270625,164.56983021919618L261.7884875,162.81309220805582L261.95426875,161.63858583935985L262.12005,162.25313174348406L262.28583125,161.6350886560758L262.4516125,162.7573891006279L262.61739375,164.04265863432695L263.28051875,166.38974122246628L263.4463,164.55601537251786L263.61208125,163.32686102404784L263.7778625,162.85961835393064L263.94364375000004,162.17639036660646L264.4409875,164.56454164794238L264.60676875,164.00017442113847L264.77255,163.99138959531004L265.435675,161.03671264817723L265.60145625,163.17588386637215L265.7672375,165.6007482153311L266.26458125,165.65515832556096L266.4303625,166.88375814230923L266.76192499999996,165.0537576167088L266.92770625,163.60468079378018L267.25926875,160.34501405793313L267.42505,160.54393737457923L267.7566125,161.6794855173989L267.92239375,162.80691311219715L268.25395625,162.4456114140712L268.4197375,163.61214719817417L268.58551875,163.61903392437327L268.7513,162.48972670533198L268.91708124999997,159.45802974878512L269.08286250000003,160.57612285720563L270.1969125,161.89908405367885L270.69425625,161.35047338142607L270.8600375,161.00263403495916L271.1916,163.62838248396375L271.5231625,164.0428402661351L271.68894375,165.66147533888028L272.1862875,165.77997007271293L272.35206875,167.01489480913068L272.51785,165.86204815256826L272.68363124999996,164.155631448914L273.180975,164.32856601839626L273.34675625,166.67759081343033L273.5125375,165.92827499281893L273.67831875,164.07365353328902L274.00988125,165.5377845729763L274.34144375,165.61643600257486L274.507225,165.37662582273632L274.67300625,163.43279388353437L274.83878749999997,163.1392512965513L275.33613125,163.9756146817394L275.66769375,164.84570091658756L275.833475,165.6293668847914L275.99925625000003,162.7323690475008L276.1650375,164.03574520474564L276.33081875,162.9979352362507L276.4966,162.45794731423575L276.66238125,165.48087610033346L276.99394374999997,163.20797794596666L277.159725,162.30517121277043L277.32550625,163.461646581422L277.4912875,164.75851680322333L277.65706875,162.94238387038615L277.82285,163.9009413390774L277.98863124999997,164.0798695367228L278.15441250000003,163.72933651695556L278.32019375,162.0398762326831L278.485975,163.48273692735398L278.65175625,162.97335263614872L279.64644375,162.65649731472146L280.09736875,162.9770324678124L280.26315,160.7767075330556L280.42893125,164.20552456560972L280.76049374999997,167.43010871519593L280.92627500000003,165.86160526818006L281.5894,165.62700344411115L281.75518125,164.86103025250185L281.92096250000003,164.60702914698453L282.08674375,167.77616740884503L282.5840875,169.26693373693297L282.74986875,166.32204760177893L282.91564999999997,166.86180766262987L283.08143125,165.96230897807106L283.2472125,166.38696447314635L283.578775,166.09212283671982L283.74455625,163.42287929285223L284.40768125,162.4908022369662L284.5734625,162.89945647035356" style="fill: none;" fill="none"></path></g></g></g></g><g opacity="0.2"><g><g><g><path stroke="rgb(255, 112, 67)" stroke-width="2px" d="M43.434687499999995,-4.316743850708008L43.60046875,2.345174789428711L43.76625,6.468664169311523L44.217175,6.585506439208984L44.38295625,11.488182067871094L44.5487375,10.357818603515625L44.71451875,9.726526260375977L45.04608125,14.61923599243164L45.2118625,11.733720779418945L45.543425,16.745370864868164L45.8749875,17.565322875976562L46.20655,26.361495971679688L46.37233125,30.648216247558594L46.5381125,37.61651802062988L46.70389375,24.037742614746094L47.035456249999996,28.15797996520996L47.2012375,21.847993850708008L47.5328,29.362342834472656L47.698581250000004,36.570329666137695L47.8643625,37.446027755737305L48.195924999999995,34.37703514099121L48.36170625,40.52865791320801L49.19061249999999,47.95507621765137L49.8537375,48.56066703796387L50.01951875,49.56957244873047L50.516862499999995,47.258785247802734L50.68264375,30.918743133544922L51.01420625,49.93721961975098L51.1799875,54.922224044799805L51.345768750000005,55.35128211975098L51.51155,51.098886489868164L51.67733125,45.9573860168457L51.8431125,48.48446464538574L52.00889375,51.46047019958496L52.34045625,53.59321403503418L52.506237500000005,55.68571662902832L52.67201875,46.204498291015625L53.33514375,59.27520179748535L53.500925,64.78367805480957L54.16405,61.16402244567871L54.32983125,64.09812927246094L54.78075625,66.70394897460938L54.946537500000005,69.70469093322754L55.11231875000001,62.64841651916504L55.278099999999995,67.38139915466309L55.44388125,63.73677635192871L55.77544375,67.48798179626465L56.107006250000005,65.39327621459961L56.2727875,69.8560676574707L56.438568749999995,66.55937004089355L56.60435,62.32730484008789L57.267475000000005,77.56039810180664L57.43325625,61.82846450805664L57.5990375,65.23497581481934L57.764818749999996,70.0168228149414L57.9306,74.33820343017578L58.42794375,76.08194160461426L59.09106875,78.41436004638672L59.42263125,78.39251899719238L59.5884125,74.27576446533203L59.919975,80.72317504882812L60.08575625,65.99257278442383L60.41731875,78.58424186706543L60.583099999999995,82.56222915649414L60.74888125,74.06398391723633L61.08044375,86.16629600524902L61.412006250000005,87.43620300292969L61.743568749999994,86.63935089111328L61.909349999999996,81.60881805419922L62.07513125,79.61599540710449L62.40669375,80.62485885620117L62.572475000000004,83.91750717163086L62.738256250000006,72.61624336242676L62.904037499999994,80.40902900695801L63.069818749999996,86.11923599243164L63.40138125,81.20621681213379L63.5671625,90.39634704589844L63.732943750000004,86.2229232788086L63.898725000000006,82.79834747314453L64.06450625000001,83.07147598266602L64.2302875,87.75989532470703L64.39606875,90.28909301757812L64.8934125,82.39983749389648L65.05919375,91.81158828735352L65.224975,88.73495864868164L65.51011875,86.1393985748291L66.0074625,97.84200477600098L66.50480625,87.77290344238281L66.6705875,87.33045959472656L66.83636875,96.6827507019043L67.16793125,88.90060234069824L67.3337125,88.99795341491699L67.49949375,98.20295906066895L67.665275,90.1144905090332L67.9968375,91.88600730895996L68.16261875,93.18851852416992L68.3284,83.04401206970215L68.6599625,98.53489685058594L68.991525,91.08200073242188L69.3230875,91.23394393920898L69.48886875,91.48430824279785L69.82043125,97.7490177154541L69.98621250000001,101.10993766784668L70.15199375,92.65999031066895L70.317775,98.2887077331543L70.48355624999999,95.58748817443848L70.81511875,97.24335861206055L70.9809,95.35128593444824L71.14668125,96.71569061279297L71.644025,96.48592948913574L71.9755875,100.7150993347168L72.14136875,101.18320274353027L72.47293125,103.33512306213379L72.6387125,99.12569618225098L72.80449374999999,103.26683044433594L72.970275,109.12551879882812L73.13605625,108.16935920715332L73.3018375,98.81578826904297L73.6334,107.07294273376465L73.79918125,99.56629371643066L74.13074375,107.70526313781738L74.296525,98.95782852172852L74.46230625,101.9002857208252L74.6280875,98.81161308288574L74.79386875,103.3104076385498L74.95965,97.91161918640137L75.45699375000001,104.87757110595703L75.622775,100.45132827758789L75.78855625000001,110.46593189239502L75.9543375,106.17074584960938L76.4052625,97.74358367919922L76.57104375,98.05894660949707L76.73682500000001,104.40199851989746L76.90260625,107.69827651977539L77.23416875000001,109.48001098632812L77.39994999999999,105.2874526977539L78.22885624999999,113.8648796081543L78.56041875,99.57764434814453L78.7262,105.7930908203125L79.22354375,109.51324462890625L79.38932499999999,110.84630393981934L79.55510625,114.50175285339355L79.88666875,115.7417516708374L80.05245,108.55144119262695L80.21823125,114.81434631347656L80.3840125,112.80958557128906L80.54979375,113.6358003616333L80.715575,98.02346801757812L80.88135625,113.456298828125L81.0471375,110.38788318634033L81.37870000000001,109.87256240844727L81.54448125,108.05243301391602L81.87604375,104.60847091674805L82.04182499999999,106.83258628845215L82.70495,115.2443904876709L82.87073125,105.96322441101074L83.0365125,112.58651733398438L83.20229375000001,112.78948593139648L83.368075,115.89374732971191L83.53385625,109.7520694732666L84.19698125,108.79714775085449L84.3627625,123.31143760681152L84.52854375,121.38955116271973L84.69432499999999,116.6466236114502L84.86010625,114.53529071807861L85.0258875,112.95540237426758L85.35745,118.06409931182861L85.52323125000001,111.96811771392822L85.6890125,111.54488182067871L85.85479375,124.05813503265381L86.02057500000001,120.37672233581543L86.18635624999999,112.0845718383789L86.51791874999999,112.9509859085083L86.6837,115.71237850189209L86.96884375,119.66835689544678L87.134625,118.89213943481445L87.30040625000001,121.26281642913818L87.63196875000001,115.71050071716309L88.1293125,107.70362663269043L88.460875,121.26961421966553L88.62665625,118.39669799804688L88.7924375,119.34696197509766L88.95821875,120.85420417785645L89.12400000000001,126.6287488937378L89.78712499999999,127.53539371490479L89.95290625,121.46660327911377L90.28446875,130.2931671142578L90.61603124999999,116.79669952392578L90.7818125,119.20981025695801L90.94759375,112.25460052490234L91.113375,123.90432453155518L91.27915625,119.42403507232666L91.61071875,124.74665260314941L91.77650000000001,121.7977123260498L91.94228125000001,121.41795921325684L92.27384375,117.06581020355225L92.43962499999999,119.05461502075195L92.60540625,120.63513278961182L92.7711875,128.96988487243652L93.10275,123.43667221069336L93.26853125,125.649489402771L93.60009375,127.56532287597656L93.76587500000001,113.97320365905762L93.93165625,122.64829635620117L94.09743750000001,125.54058837890625L94.26321875,122.74199676513672L94.42899999999999,120.31576251983643L94.59478125,118.21938896179199L94.76056249999999,128.140606880188L94.92634375,122.5808744430542L95.092125,119.1917142868042L95.75525,132.04369258880615L95.92103125,114.18747043609619L96.08681250000001,119.09506607055664L96.41837500000001,127.00041389465332L96.58415624999999,127.24075984954834L97.24728125,121.84063911437988L97.69820625000001,120.60528755187988L97.8639875,124.12381553649902L98.02976874999999,122.82036018371582L98.5271125,126.16971969604492L98.69289375,126.88801956176758L98.858675,126.28550243377686L99.02445625,125.33034992218018L99.1902375,123.18530082702637L99.35601875,123.50473403930664L99.5218,119.47388553619385L99.68758125000001,126.26672458648682L99.8533625,127.18292617797852L100.01914375000001,124.03468894958496L100.18492499999999,120.06151676177979L100.35070625,133.00754165649414L100.5164875,123.94270896911621L100.68226874999999,132.44696521759033L101.01383125,126.99310207366943L101.34539375,127.88564777374268L101.51117500000001,127.48359203338623L101.67695625,126.20658302307129L101.8427375,133.89090824127197L102.34008125,130.52035808563232L102.50586249999999,128.853609085083L102.67164375,129.48134517669678L102.837425,129.4927167892456L103.33476875,128.51403427124023L103.50055,126.70465755462646L103.83211250000001,133.09910202026367L103.99789375,128.87549209594727L104.49523749999999,126.84967708587646L104.66101875,141.04490089416504L104.82679999999999,130.7318239212036L105.1583625,131.01164531707764L105.32414375,134.3861608505249L105.489925,133.4867753982544L105.98726875,128.67914295196533L106.15305000000001,123.89816665649414L106.31883125,132.39626502990723L106.48461250000001,127.68208122253418L106.65039374999999,129.76491165161133L106.816175,129.41325187683105L106.98195625,133.03128147125244L107.14773749999999,131.66836643218994L107.4793,132.20229721069336L107.64508125,134.6092290878296L107.8108625,129.05198287963867L107.97664375000001,125.246657371521L108.75913125,137.4536428451538L108.9249125,135.0781192779541L109.09069375,127.59822082519531L109.256475,135.0350456237793L109.42225625,119.74265003204346L109.75381875000001,131.01018714904785L110.08538125000001,130.35764122009277L110.41694374999999,135.57234382629395L110.582725,137.86889553070068L110.74850624999999,142.89121437072754L111.08006875,133.1113862991333L111.24585,133.30008792877197L111.41163125,128.12090587615967L111.74319375,135.19519233703613L112.07475625000001,132.5764274597168L112.2405375,136.0357370376587L112.57209999999999,134.79740619659424L112.73788125,138.6584882736206L112.9036625,139.1125135421753L113.40100625,140.62009143829346L113.5667875,140.30576705932617L113.73256875,130.1302719116211L113.89835000000001,138.81513118743896L114.06413125,137.6407814025879L114.2299125,136.15355491638184L114.39569375,141.5558261871338L114.72725625000001,127.416579246521L114.89303749999999,134.68725681304932L115.05881875,136.95588302612305L115.2246,136.01823902130127L115.39038125,135.78886604309082L115.5561625,132.6537208557129L116.05350625,135.53599452972412L116.21928750000001,131.39343357086182L116.55085000000001,130.0517930984497L116.71663125,139.68575191497803L116.88241249999999,132.50945663452148L117.21397499999999,134.3997039794922L117.37975625,133.125506401062L117.5455375,139.5341444015503L118.04288125,132.4293727874756L118.2086625,131.0541000366211L118.37444375,139.22962856292725L118.540225,133.008695602417L118.70600625,138.26319885253906L118.87178750000001,133.1356611251831L119.15693125,136.70478439331055L119.3227125,133.87270736694336L119.48849375,133.41880798339844L119.82005625000001,135.37458896636963L119.9858375,130.8553695678711L120.15161875000001,141.73947143554688L120.3174,139.64981174468994L120.48318124999999,135.89148330688477L120.6489625,137.80597400665283L120.980525,137.03662776947021L121.47786875,137.5222291946411L122.14099375,139.66059589385986L122.6383375,139.18527507781982L122.80411874999999,135.52973175048828L122.9699,137.87550449371338L123.13568124999999,139.13720798492432L123.3014625,136.0143575668335L123.46724375,137.18494129180908L123.633025,136.68530368804932L123.79880625,145.53334140777588L123.96458750000001,127.2478199005127L124.13036875,136.53511238098145L124.29615,133.8209056854248L124.46193125,138.36145210266113L124.79349375000001,142.25424671173096L124.95927499999999,142.47929763793945L125.45661874999999,136.02505779266357L125.78818125,141.90384578704834L125.9539625,139.49048328399658L126.11974375,142.5320644378662L126.285525,141.85882091522217L126.45130625,138.55426597595215L126.78286875,146.6797342300415L127.44599375,141.22665786743164L127.611775,140.700909614563L127.77755625,143.17267227172852L128.10911875,142.44286441802979L128.2749,143.65675258636475L128.44068124999998,136.2295160293579L128.6064625,136.94687175750732L128.938025,138.85712432861328L129.2695875,138.58016681671143L129.88629375,143.98933029174805L130.54941875,140.5060396194458L131.21254375,142.37245273590088L131.378325,141.21100616455078L131.54410625,140.17821407318115L131.87566875000002,145.80151844024658L132.04145,138.30968189239502L132.20723125,140.62512683868408L132.3730125,144.5005283355713L132.53879375,144.48524379730225L132.87035625,143.01927089691162L133.0361375,138.75553512573242L133.20191875,146.4931516647339L133.3677,146.1487512588501L133.53348125,138.2307939529419L133.6992625,139.5304412841797L134.030825,135.33536529541016L134.19660625,141.13281059265137L134.36238749999998,139.53583335876465L134.69395,132.50207138061523L135.0255125,141.13551712036133L135.19129375,149.02375507354736L135.357075,144.20235919952393L135.52285625,144.76050186157227L136.02020000000002,140.12450313568115L136.18598125,140.88173294067383L136.51754375,139.05633735656738L136.683325,153.22050952911377L136.84910625,143.91159629821777L137.18066875,145.52743530273438L137.51223125,140.8078908920288L137.6780125,143.69511604309082L138.009575,139.904634475708L138.17535625,146.11455249786377L138.3411375,145.64071083068848L138.50691874999998,141.44819450378418L138.6727,139.69099712371826L139.17004375,148.51583003997803L139.335825,137.13199615478516L139.50160625,144.13390922546387L139.6673875,148.9208755493164L139.99895,143.92158317565918L140.61565625,152.2501039505005L140.7814375,147.15187644958496L140.94721875,140.4025936126709L141.113,148.91364765167236L141.27878125,146.95625114440918L141.4445625,143.52338790893555L141.94190625000002,144.13140201568604L142.1076875,146.8852415084839L142.43925,142.17803382873535L142.60503125,148.81058979034424L142.7708125,142.3612174987793L142.93659375,149.032808303833L143.102375,138.4742555618286L143.59971875,153.12068271636963L143.7655,139.3765048980713L143.93128125,142.6746711730957L144.0970625,150.17754364013672L145.09175,145.49226093292236L145.4233125,149.01602363586426L145.58909375,145.57761096954346L146.08643750000002,150.28278350830078L146.41799999999998,143.16472053527832L146.58378125000002,147.19237995147705L146.7495625,142.9630527496338L146.91534375,147.4742259979248L147.081125,146.4193410873413L147.24690625,143.96794033050537L147.57846875,142.75090503692627L147.74425,150.85620021820068L147.91003125,144.0214204788208L148.0758125,138.87874507904053L148.407375,142.566819190979L148.57315625,152.2567024230957L148.73893750000002,143.66577434539795L148.90471875,145.86120891571045L149.23628125,148.45616054534912L149.4020625,142.4590196609497L149.56784375,140.7498369216919L149.733625,150.06044960021973L149.89940625,142.77136135101318L150.0651875,146.9402322769165L150.39675,148.9828634262085L150.89409375000002,148.60781002044678L151.059875,148.40518760681152L151.51080000000002,152.11110591888428L152.17392500000003,152.8823823928833L152.33970625,155.1634397506714L152.67126875,159.20113849639893L152.83704999999998,149.41216278076172L153.1686125,156.0528383255005L153.50017499999998,152.36486911773682L153.8317375,152.0600070953369L153.99751875,152.92633724212646L154.1633,158.24377250671387L154.4948625,158.802020072937L154.66064375000002,155.44517040252686L154.826425,160.51877689361572L154.99220624999998,156.95638847351074L155.1579875,160.1170253753662L155.32376875,156.022216796875L155.48955,153.7736692428589L155.65533125,159.69402027130127L155.8211125,154.23023319244385L155.98689375,163.94915390014648L156.15267500000002,159.83514785766602L156.4842375,148.1894416809082L156.98158125,157.28747653961182L157.14736249999999,155.01251411437988L157.31314375,150.21232986450195L157.64470625,157.81877422332764L157.8104875,158.43665981292725L157.97626875,156.2042465209961L158.14204999999998,158.97839546203613L158.30783125000002,158.5275592803955L159.1367375,158.64232444763184L159.30251875,153.02013206481934L159.79986250000002,158.29356002807617L159.96564375,158.378511428833L160.29720625,158.4572629928589L160.4629875,159.85036945343018L161.12611249999998,160.72864818572998L161.29189375,162.23379230499268L161.457675,153.05692195892334L161.78923749999998,154.2033987045288L162.07438125000002,154.9029941558838L162.2401625,155.55786895751953L162.40594375,157.04614448547363L162.571725,154.35847854614258L162.73750625000002,156.3875560760498L162.9032875,159.69159698486328L163.23485,154.97310161590576L163.40063125,158.35287284851074L163.5664125,160.09760761260986L163.73219375,159.7240753173828L163.897975,159.31148719787598L164.06375624999998,158.70081901550293L164.22953750000002,156.34225845336914L164.39531875,161.0741605758667L164.5611,163.08790111541748L165.05844375,155.69954204559326L165.39000625,168.2215232849121L165.55578749999998,152.25893688201904L165.88735,158.0934658050537L166.2189125,157.6848430633545L166.38469375,162.293231010437L166.550475,155.9983720779419L166.71625625000001,151.20086288452148L166.8820375,156.08782386779785L167.2136,155.94394779205322L167.37938125,155.12968158721924L168.04250625,158.54289627075195L168.2082875,163.58395099639893L168.37406875,164.46467399597168L168.53985,154.33981609344482L169.03719375,160.47906017303467L169.20297499999998,158.2080421447754L169.53453750000003,150.16403198242188L169.70031875,160.09070491790771L170.19766249999998,161.75131702423096L170.36344375000002,149.16603660583496L170.529225,159.54421710968018L170.69500625,158.039870262146L170.8607875,163.3823356628418L171.02656875000002,153.61495971679688L171.19235,160.36884784698486L171.35813125,160.27670001983643L171.5239125,155.89538764953613L171.68969374999998,152.91590976715088L171.855475,164.198899269104L172.02125625,158.89173412322998L172.35281874999998,159.28030967712402L172.80374375,159.97246742248535L172.96952499999998,161.0424690246582L173.3010875,162.44451332092285L173.46686875,152.65440464019775L173.63264999999998,160.6004762649536L173.9642125,161.30649185180664L174.12999375,155.88381671905518L174.46155625,163.28202629089355L174.6273375,157.13858604431152L174.9589,156.4795150756836L175.2904625,162.2103042602539L175.78780625,159.8570728302002L175.9535875,155.50447273254395L176.45093125,158.33143043518066L176.78249375,152.56491088867188L176.94827500000002,163.72105026245117L177.11405625,155.3707513809204L177.44561875,159.58732223510742L177.61139999999997,156.5142698287964L177.77718125,161.6495599746704L178.27452499999998,164.49354362487793L178.44030625000002,156.03555011749268L178.77186875,154.01070022583008L179.10343125,158.1699619293213L179.2692125,160.27932262420654L179.76655624999998,166.54883670806885L180.09811875,155.72351264953613L180.2639,161.04136753082275L180.76124375,159.68941497802734L180.92702500000001,160.4818296432495L181.09280625,157.31457328796387L181.2585875,154.95241451263428L181.42436874999999,158.6705436706543L181.59015000000002,160.08918380737305L181.75593125,159.27331256866455L181.92171249999998,151.36255168914795L182.08749375,162.8602590560913L182.253275,169.06850910186768L182.41905625,164.51135635375977L182.75061875,156.52624988555908L182.91639999999998,157.32326984405518L183.2479625,157.2398500442505L183.6988875,161.23316383361816L183.86466875,161.5287103652954L184.36201250000002,164.0147294998169L184.52779375,161.67750644683838L184.85935625,160.33951663970947L185.0251375,158.11311435699463L185.19091875,163.54387760162354L185.35670000000002,163.91522789001465L185.52248125,157.12341690063477L185.85404375000002,155.7310552597046L186.019825,155.4455795288086L186.3513875,157.1723861694336L186.51716875,164.7205352783203L186.84873125000001,163.97273635864258L187.0145125,168.14204788208008L187.18029375,163.78133869171143L187.34607499999998,162.80287647247314L187.51185625000002,161.47295379638672L187.6776375,159.1751012802124L188.0092,161.59465312957764L188.672325,156.54581451416016L188.83810624999998,158.41553211212158L189.00388750000002,157.11531829833984L189.16966875,163.78513622283936L189.33545,161.9726438522339L189.50123125,161.12537479400635L189.66701250000003,156.81927871704102L189.83279375,159.4329137802124L189.998575,162.21703910827637L190.6617,157.16857814788818L190.82748125,162.33632564544678L190.9932625,162.1096487045288L191.15904375,158.41182899475098L191.6563875,165.75108242034912L191.82216874999997,159.5117702484131L191.98795,162.22178077697754L192.3195125,162.45304203033447L192.48529374999998,161.65125942230225L192.81685625,159.74366092681885L193.14841875,160.46113204956055L193.3142,161.22071170806885L193.47998125,163.128981590271L193.977325,159.68302631378174L194.26246875,162.10819053649902L194.42825,163.02491664886475L194.59403125,153.07019233703613L194.75981249999998,157.78985214233398L194.92559375000002,161.42846393585205L195.091375,160.07079410552979L195.4229375,166.18701171875L195.58871875000003,165.39410400390625L196.0860625,163.66000652313232L196.91496874999999,161.8447027206421L197.24653125,151.46556758880615L197.4123125,161.25437545776367L197.57809375,157.6057767868042L197.74387499999997,160.68981266021729L197.90965625,160.07321739196777L198.0754375,161.5806064605713L198.57278125,155.46993827819824L198.7385625,157.6275758743286L198.90434375,159.7702226638794L199.070125,156.65247058868408L199.23590625,162.79240703582764L199.56746875000002,159.3104066848755L199.89903125,160.87817859649658L200.0648125,160.2360496520996L200.23059375000003,162.53056621551514L200.56215625,165.98577404022217L200.7279375,159.43478107452393L200.89371875,158.3969430923462L201.0595,159.63623905181885L201.22528125,157.03186702728271L201.3910625,165.33266162872314L201.55684374999998,157.26264572143555L201.72262500000002,163.96259212493896L201.88840625,162.0798454284668L202.0541875,159.91871452331543L202.7173125,160.59693050384521L203.04887499999998,164.67615032196045L203.21465625000002,159.90110111236572L203.3804375,153.14882850646973L203.54621875,160.2611951828003L203.712,167.68615531921387L204.20934375000002,164.89170742034912L204.54090624999998,162.2016077041626L205.32339375,160.89392471313477L205.65495625,161.66522216796875L205.8207375,161.33060932159424L206.15230000000003,159.66442680358887L206.815425,160.5055694580078L206.98120625,158.06223583221436L207.1469875,160.0734691619873L207.31276875,161.03125476837158L207.47854999999998,160.58623027801514L208.141675,161.24945545196533L208.4732375,159.33429336547852L208.63901875,155.78017139434814L208.97058124999998,164.71453475952148L209.13636250000002,157.3914155960083L209.63370625,164.1971263885498L209.7994875,168.1199131011963L209.96526875,161.91918468475342L210.29683125,164.4833469390869L210.62839375000001,161.7503204345703L210.794175,159.70193004608154L210.95995625,162.2179307937622L211.29151875,154.93268203735352L211.4573,160.17006492614746L211.7888625,162.37371349334717L211.95464375,164.61954402923584L212.12042499999998,165.29834747314453L212.4519875,164.7235565185547L212.61776874999998,167.2792844772339L212.78355,161.97920036315918L212.94933125,158.48461151123047L213.1151125,158.0280475616455L213.28089375,154.06191444396973L213.77823750000002,162.06003952026367L213.94401875,157.73556423187256L214.27558125,160.94694328308105L214.44136250000003,164.0758571624756L214.60714375,165.14546012878418L214.77292500000001,159.46528720855713L215.10448749999998,158.4573678970337L215.27026875,163.56449127197266L215.43605,159.51932334899902L215.72119375,167.88485431671143L216.2185375,166.10967636108398L216.38431874999998,163.26407718658447L216.55010000000001,165.48584270477295L217.37900625,167.49338340759277L217.71056875,164.1501293182373L218.04213125,164.14837741851807L218.20791250000002,158.6883249282837L218.37369375,161.3371868133545L218.8710375,159.16632080078125L219.03681875,160.53348445892334L219.2026,156.5761423110962L219.36838125,161.56511211395264L219.53416249999998,159.08925819396973L219.69994375000002,164.7527198791504L219.865725,163.6839771270752L220.03150625,155.18530178070068L220.36306875000002,156.25440120697021L220.52885,156.32044887542725L220.8604125,165.23886680603027L221.02619374999998,166.15143871307373L221.191975,162.57004165649414L221.35775625,156.42541599273682L221.85510000000002,167.32978534698486L222.02088125,168.20653247833252L222.35244375,160.35165405273438L222.518225,160.1147804260254L222.68400625,162.24605560302734L222.84978750000002,159.0895938873291L223.01556875,165.56221294403076L223.18134999999998,167.50801753997803L223.34713125,160.0663356781006L223.5129125,168.20367908477783L223.67869375,162.59516620635986L223.844475,159.78355598449707L224.1760375,160.0378541946411L224.34181875000002,160.245512008667L224.67338125,161.60941314697266L224.8391625,164.93453979492188L225.170725,165.28145790100098L225.33650624999999,158.3719024658203L225.66806875,170.52479934692383L225.83385,164.53219032287598L225.99963125,160.30972385406494L226.1654125,163.77591514587402L226.45055625,164.65827465057373L226.6163375,158.93439865112305L226.94789999999998,157.91523361206055L227.2794625,169.41507053375244L227.61102499999998,156.44103622436523L227.77680625000002,159.13040161132812L228.10836875,158.06772232055664L228.27415,160.40039253234863L228.43993124999997,160.44351863861084L228.6057125,167.22888851165771L228.77149375000002,157.40252494812012L228.937275,168.6432590484619L229.10305624999998,164.27773475646973L229.76618125,164.2623872756958L229.9319625,165.0253028869629L230.09774375,165.41571426391602L230.42930625,161.1819076538086L230.5950875,156.05808353424072L230.76086875,164.61060619354248L231.09243125,171.17553043365479L231.42399375,162.53686046600342L231.75555625,165.4016990661621L232.08711875,165.42127418518066L232.41868125000002,164.03500747680664L232.5844625,164.44396591186523L232.75024375,163.18309116363525L232.916025,158.4544095993042L233.2475875,158.2243127822876L233.41336875,165.1541986465454L233.57915,160.23445510864258L233.74493124999998,165.44799327850342L233.91071250000002,159.82292652130127L234.07649375,162.51621532440186L234.5738375,161.69561290740967L234.73961875,166.28270530700684L235.23696249999998,162.6402645111084L235.40274375,167.9233226776123L235.568525,164.12476348876953L235.90008749999998,163.93703746795654L236.06586875,158.9034938812256L236.5632125,166.30680179595947L236.72899375,158.88548183441162L236.894775,167.66842651367188L237.3457,162.49852848052979L237.51148125,160.71211528778076L238.008825,163.97286224365234L238.17460624999998,163.91393756866455L238.34038750000002,163.32519435882568L238.67195,158.67821216583252L239.16929375,168.14755535125732L239.335075,162.0833282470703L239.83241875000002,158.15273666381836L239.9982,156.64447689056396L240.16398125,159.79638576507568L240.82710625,158.37686443328857L241.15866874999998,160.74962902069092L241.32445,170.68028831481934L241.49023125,164.40309524536133L241.6560125,161.48586750030518L241.82179374999998,165.48437404632568L241.987575,159.16338348388672L242.15335625,162.24716758728027L242.6507,160.04819774627686L242.81648125,165.162748336792L242.98226250000002,156.31224536895752L243.14804375,165.63430309295654L243.47960625,168.6122808456421L243.81116875,158.71951293945312L243.97695,164.97091007232666L244.47429375000002,162.86082553863525L244.640075,161.1079397201538L244.97163749999999,156.81043529510498L245.13741875000002,160.1170358657837L245.3032,160.58961868286133L245.46898125,170.14071369171143L245.6347625,162.30234718322754L245.80054374999997,163.22763347625732L246.2978875,166.35826778411865L246.46366874999998,167.57320499420166L247.12679375,169.27408981323242L247.292575,155.69547176361084L247.45835625,160.736421585083L247.62413750000002,161.42802333831787L247.90928125,162.26798057556152L248.24084375,161.55435943603516L248.406625,163.75474548339844L248.7381875,161.88436698913574L248.90396875000002,162.18161296844482L249.23553124999998,160.33903408050537L249.56709375,165.38536548614502L249.732875,165.67812156677246L249.89865625,159.2257490158081L250.0644375,161.87410736083984L250.39600000000002,158.07168769836426L250.56178125,164.1637144088745L250.89334374999999,159.38888549804688L251.05912500000002,164.87575149536133L251.3906875,160.05142879486084L251.55646875,161.10204410552979L251.88803125,156.71239185333252L252.0538125,162.50831604003906L252.21959375,164.71081066131592L252.38537499999998,166.5320520401001L252.88271875,163.95727348327637L253.21428125,165.24222373962402L253.3800625,165.31889820098877L253.54584375000002,163.36641120910645L253.711625,163.6789207458496L254.20896875,162.44299221038818L254.37475,160.16883754730225L254.54053125,167.56246280670166L254.87209375,168.74840450286865L255.037875,156.44220066070557L255.20365625,163.1073818206787L255.3694375,162.50172805786133L255.53521874999998,163.26946926116943L255.86678125,168.72940635681152L256.6956875,160.67054176330566L257.02725,163.81591510772705L258.02193750000004,158.19168758392334L258.18771875,162.85159397125244L258.63864375,163.86833572387695L258.804425,163.02179050445557L259.1359875,169.09994888305664L259.30176875,161.6458044052124L259.7991125,165.70048713684082L259.96489375,161.2801923751831L260.29645625,164.88952541351318L260.4622375,166.64589405059814L260.62801874999997,161.1947374343872L260.79380000000003,161.7743330001831L260.95958125,161.67247104644775L261.29114375,161.47953128814697L261.62270625,168.42269802093506L261.7884875,160.17798519134521L261.95426875,159.87682628631592L262.12005,163.1749505996704L262.28583125,160.70802402496338L262.4516125,164.44083976745605L262.61739375,165.9705629348755L263.28051875,169.9103651046753L263.4463,161.80542659759521L263.61208125,161.48312950134277L263.7778625,162.15875434875488L263.94364375000004,161.15154838562012L264.4409875,168.1467685699463L264.60676875,163.15362358093262L264.77255,163.97821235656738L265.435675,156.60469722747803L265.60145625,166.38464069366455L265.7672375,169.23804473876953L266.26458125,165.73677349090576L266.4303625,168.72665786743164L266.76192499999996,162.3087568283081L266.92770625,161.4310655593872L267.25926875,155.4555139541626L267.42505,160.84232234954834L267.7566125,163.38280773162842L267.92239375,164.49805450439453L268.25395625,161.90365886688232L268.4197375,165.3619508743286L268.58551875,163.62936401367188L268.7513,160.79576587677002L268.91708124999997,154.91048431396484L269.08286250000003,162.25326251983643L270.1969125,163.88352584838867L270.69425625,160.52755737304688L270.8600375,160.4808750152588L271.1916,167.5670051574707L271.5231625,164.6645269393921L271.68894375,168.08942794799805L272.1862875,165.9577121734619L272.35206875,168.86728191375732L272.51785,164.1327781677246L272.68363124999996,161.59600639343262L273.180975,164.58796787261963L273.34675625,170.20112800598145L273.5125375,164.80430126190186L273.67831875,161.29172134399414L274.00988125,167.73398113250732L274.34144375,165.73441314697266L274.507225,165.01691055297852L274.67300625,160.51704597473145L274.83878749999997,162.69893741607666L275.33613125,165.23015975952148L275.66769375,166.15083026885986L275.833475,166.80486583709717L275.99925625000003,158.38687229156494L276.1650375,165.9908094406128L276.33081875,161.4412202835083L276.4966,161.64796543121338L276.66238125,170.01526927947998L276.99394374999997,159.7986307144165L277.159725,160.95096111297607L277.32550625,165.1963596343994L277.4912875,166.7038221359253L277.65706875,160.21818447113037L277.82285,165.33877754211426L277.98863124999997,164.34826183319092L278.15441250000003,163.2035369873047L278.32019375,159.5056858062744L278.485975,165.64702796936035L278.65175625,162.20927619934082L279.64644375,162.18121433258057L280.09736875,163.45783519744873L280.26315,157.4762201309204L280.42893125,169.34875011444092L280.76049374999997,172.2669849395752L280.92627500000003,163.50885009765625L281.5894,165.2751007080078L281.75518125,163.7120704650879L281.92096250000003,164.2260274887085L282.08674375,172.52987480163574L282.5840875,171.50308322906494L282.74986875,161.90471839904785L282.91564999999997,167.67144775390625L283.08143125,164.6130609512329L283.2472125,167.02394771575928L283.578775,165.64986038208008L283.74455625,159.41901397705078L284.40768125,161.0926866531372L284.5734625,163.51243782043457" style="fill: none;" fill="none"></path></g></g></g></g></g></g><g transform="translate(31, 176)" clip-path="url(#clip_1)"><clipPath id="clip_1"><rect width="298" height="24"></rect></clipPath><g><g><line x1="0" y1="0" x2="0" y2="5" style="visibility: inherit;" fill="rgb(0, 0, 0)" stroke="rgb(204, 204, 204)" stroke-width="1px"></line><line x1="33.15625" y1="0" x2="33.15625" y2="5" style="visibility: inherit;" fill="rgb(0, 0, 0)" stroke="rgb(204, 204, 204)" stroke-width="1px"></line><line x1="66.3125" y1="0" x2="66.3125" y2="5" style="visibility: inherit;" fill="rgb(0, 0, 0)" stroke="rgb(204, 204, 204)" stroke-width="1px"></line><line x1="99.46875" y1="0" x2="99.46875" y2="5" style="visibility: inherit;" fill="rgb(0, 0, 0)" stroke="rgb(204, 204, 204)" stroke-width="1px"></line><line x1="132.625" y1="0" x2="132.625" y2="5" style="visibility: inherit;" fill="rgb(0, 0, 0)" stroke="rgb(204, 204, 204)" stroke-width="1px"></line><line x1="165.78125" y1="0" x2="165.78125" y2="5" style="visibility: inherit;" fill="rgb(0, 0, 0)" stroke="rgb(204, 204, 204)" stroke-width="1px"></line><line x1="198.9375" y1="0" x2="198.9375" y2="5" style="visibility: inherit;" fill="rgb(0, 0, 0)" stroke="rgb(204, 204, 204)" stroke-width="1px"></line><line x1="232.09375" y1="0" x2="232.09375" y2="5" style="visibility: inherit;" fill="rgb(0, 0, 0)" stroke="rgb(204, 204, 204)" stroke-width="1px"></line><line x1="265.25" y1="0" x2="265.25" y2="5" style="visibility: inherit;" fill="rgb(0, 0, 0)" stroke="rgb(204, 204, 204)" stroke-width="1px"></line><line x1="298.40625" y1="0" x2="298.40625" y2="5" style="visibility: inherit;" fill="rgb(0, 0, 0)" stroke="rgb(204, 204, 204)" stroke-width="1px"></line></g><g transform="translate(0, 8)"><text x="0" y="0" dx="0em" dy="0.95em" style="text-anchor: middle; visibility: hidden; font-family: Roboto, sans-serif; font-size: 12px; font-weight: 200;" fill="rgb(33, 33, 33)" stroke="none" stroke-width="1px">-10k</text><text x="33.15625" y="0" dx="0em" dy="0.95em" style="text-anchor: middle; visibility: inherit; font-family: Roboto, sans-serif; font-size: 12px; font-weight: 200;" fill="rgb(33, 33, 33)" stroke="none" stroke-width="1px">0</text><text x="66.3125" y="0" dx="0em" dy="0.95em" style="text-anchor: middle; visibility: inherit; font-family: Roboto, sans-serif; font-size: 12px; font-weight: 200;" fill="rgb(33, 33, 33)" stroke="none" stroke-width="1px">10k</text><text x="99.46875" y="0" dx="0em" dy="0.95em" style="text-anchor: middle; visibility: inherit; font-family: Roboto, sans-serif; font-size: 12px; font-weight: 200;" fill="rgb(33, 33, 33)" stroke="none" stroke-width="1px">20k</text><text x="132.625" y="0" dx="0em" dy="0.95em" style="text-anchor: middle; visibility: inherit; font-family: Roboto, sans-serif; font-size: 12px; font-weight: 200;" fill="rgb(33, 33, 33)" stroke="none" stroke-width="1px">30k</text><text x="165.78125" y="0" dx="0em" dy="0.95em" style="text-anchor: middle; visibility: inherit; font-family: Roboto, sans-serif; font-size: 12px; font-weight: 200;" fill="rgb(33, 33, 33)" stroke="none" stroke-width="1px">40k</text><text x="198.9375" y="0" dx="0em" dy="0.95em" style="text-anchor: middle; visibility: inherit; font-family: Roboto, sans-serif; font-size: 12px; font-weight: 200;" fill="rgb(33, 33, 33)" stroke="none" stroke-width="1px">50k</text><text x="232.09375" y="0" dx="0em" dy="0.95em" style="text-anchor: middle; visibility: inherit; font-family: Roboto, sans-serif; font-size: 12px; font-weight: 200;" fill="rgb(33, 33, 33)" stroke="none" stroke-width="1px">60k</text><text x="265.25" y="0" dx="0em" dy="0.95em" style="text-anchor: middle; visibility: inherit; font-family: Roboto, sans-serif; font-size: 12px; font-weight: 200;" fill="rgb(33, 33, 33)" stroke="none" stroke-width="1px">70k</text><text x="298.40625" y="0" dx="0em" dy="0.95em" style="text-anchor: middle; visibility: hidden; font-family: Roboto, sans-serif; font-size: 12px; font-weight: 200;" fill="rgb(33, 33, 33)" stroke="none" stroke-width="1px">80k</text></g><line x1="0" y1="0" x2="298.40625" y2="0" fill="rgb(0, 0, 0)" stroke="rgb(204, 204, 204)" stroke-width="1px"></line></g></g></g></g></svg>