<svg viewBox="0 0 330 200" xmlns="http://www.w3.org/2000/svg"><g><g><g><g><g><line x1="42.390625" y1="176" x2="37.390625" y2="176" style="visibility: inherit;" fill="rgb(0, 0, 0)" stroke="rgb(204, 204, 204)" stroke-width="1px"></line><line x1="42.390625" y1="154" x2="37.390625" y2="154" style="visibility: inherit;" fill="rgb(0, 0, 0)" stroke="rgb(204, 204, 204)" stroke-width="1px"></line><line x1="42.390625" y1="131.99999999999997" x2="37.390625" y2="131.99999999999997" style="visibility: inherit;" fill="rgb(0, 0, 0)" stroke="rgb(204, 204, 204)" stroke-width="1px"></line><line x1="42.390625" y1="109.99999999999999" x2="37.390625" y2="109.99999999999999" style="visibility: inherit;" fill="rgb(0, 0, 0)" stroke="rgb(204, 204, 204)" stroke-width="1px"></line><line x1="42.390625" y1="87.99999999999999" x2="37.390625" y2="87.99999999999999" style="visibility: inherit;" fill="rgb(0, 0, 0)" stroke="rgb(204, 204, 204)" stroke-width="1px"></line><line x1="42.390625" y1="65.99999999999996" x2="37.390625" y2="65.99999999999996" style="visibility: inherit;" fill="rgb(0, 0, 0)" stroke="rgb(204, 204, 204)" stroke-width="1px"></line><line x1="42.390625" y1="44" x2="37.390625" y2="44" style="visibility: inherit;" fill="rgb(0, 0, 0)" stroke="rgb(204, 204, 204)" stroke-width="1px"></line><line x1="42.390625" y1="21.99999999999998" x2="37.390625" y2="21.99999999999998" style="visibility: inherit;" fill="rgb(0, 0, 0)" stroke="rgb(204, 204, 204)" stroke-width="1px"></line><line x1="42.390625" y1="0" x2="37.390625" y2="0" style="visibility: inherit;" fill="rgb(0, 0, 0)" stroke="rgb(204, 204, 204)" stroke-width="1px"></line></g><g transform="translate(32.390625, 0)"><text x="0" y="176" dx="0em" dy="0.3em" style="text-anchor: end; visibility: hidden; font-family: Roboto, sans-serif; font-size: 12px; font-weight: 200;" fill="rgb(33, 33, 33)" stroke="none" stroke-width="1px">0.6</text><text x="0" y="154" dx="0em" dy="0.3em" style="text-anchor: end; visibility: inherit; font-family: Roboto, sans-serif; font-size: 12px; font-weight: 200;" fill="rgb(33, 33, 33)" stroke="none" stroke-width="1px">0.7</text><text x="0" y="131.99999999999997" dx="0em" dy="0.3em" style="text-anchor: end; visibility: hidden; font-family: Roboto, sans-serif; font-size: 12px; font-weight: 200;" fill="rgb(33, 33, 33)" stroke="none" stroke-width="1px">0.8</text><text x="0" y="109.99999999999999" dx="0em" dy="0.3em" style="text-anchor: end; visibility: inherit; font-family: Roboto, sans-serif; font-size: 12px; font-weight: 200;" fill="rgb(33, 33, 33)" stroke="none" stroke-width="1px">0.9</text><text x="0" y="87.99999999999999" dx="0em" dy="0.3em" style="text-anchor: end; visibility: hidden; font-family: Roboto, sans-serif; font-size: 12px; font-weight: 200;" fill="rgb(33, 33, 33)" stroke="none" stroke-width="1px">1</text><text x="0" y="65.99999999999996" dx="0em" dy="0.3em" style="text-anchor: end; visibility: inherit; font-family: Roboto, sans-serif; font-size: 12px; font-weight: 200;" fill="rgb(33, 33, 33)" stroke="none" stroke-width="1px">1.1</text><text x="0" y="44" dx="0em" dy="0.3em" style="text-anchor: end; visibility: hidden; font-family: Roboto, sans-serif; font-size: 12px; font-weight: 200;" fill="rgb(33, 33, 33)" stroke="none" stroke-width="1px">1.2</text><text x="0" y="21.99999999999998" dx="0em" dy="0.3em" style="text-anchor: end; visibility: inherit; font-family: Roboto, sans-serif; font-size: 12px; font-weight: 200;" fill="rgb(33, 33, 33)" stroke="none" stroke-width="1px">1.3</text><text x="0" y="0" dx="0em" dy="0.3em" style="text-anchor: end; visibility: hidden; font-family: Roboto, sans-serif; font-size: 12px; font-weight: 200;" fill="rgb(33, 33, 33)" stroke="none" stroke-width="1px">1.4</text></g><line x1="42.390625" y1="0" x2="42.390625" y2="176" fill="rgb(0, 0, 0)" stroke="rgb(204, 204, 204)" stroke-width="1px"></line></g></g><g transform="translate(42, 0)" clip-path="url(#clip_0)"><clipPath id="clip_0"><rect width="287" height="176"></rect></clipPath><g><g><g><line x1="0" y1="0" x2="0" y2="176" fill="rgb(0, 0, 0)" stroke="rgb(66, 66, 66)" stroke-width="1px" opacity="0.25"></line><line x1="31.95659722222222" y1="0" x2="31.95659722222222" y2="176" fill="rgb(0, 0, 0)" stroke="rgb(66, 66, 66)" stroke-width="1px" opacity="0.25"></line><line x1="63.91319444444444" y1="0" x2="63.91319444444444" y2="176" fill="rgb(0, 0, 0)" stroke="rgb(66, 66, 66)" stroke-width="1px" opacity="0.25"></line><line x1="95.86979166666666" y1="0" x2="95.86979166666666" y2="176" fill="rgb(0, 0, 0)" stroke="rgb(66, 66, 66)" stroke-width="1px" opacity="0.25"></line><line x1="127.82638888888889" y1="0" x2="127.82638888888889" y2="176" fill="rgb(0, 0, 0)" stroke="rgb(66, 66, 66)" stroke-width="1px" opacity="0.25"></line><line x1="159.78298611111111" y1="0" x2="159.78298611111111" y2="176" fill="rgb(0, 0, 0)" stroke="rgb(66, 66, 66)" stroke-width="1px" opacity="0.25"></line><line x1="191.73958333333331" y1="0" x2="191.73958333333331" y2="176" fill="rgb(0, 0, 0)" stroke="rgb(66, 66, 66)" stroke-width="1px" opacity="0.25"></line><line x1="223.69618055555557" y1="0" x2="223.69618055555557" y2="176" fill="rgb(0, 0, 0)" stroke="rgb(66, 66, 66)" stroke-width="1px" opacity="0.25"></line><line x1="255.65277777777777" y1="0" x2="255.65277777777777" y2="176" fill="rgb(0, 0, 0)" stroke="rgb(66, 66, 66)" stroke-width="1px" opacity="0.25"></line><line x1="287.609375" y1="0" x2="287.609375" y2="176" fill="rgb(0, 0, 0)" stroke="rgb(66, 66, 66)" stroke-width="1px" opacity="0.25"></line></g><g><line x1="0" y1="176" x2="287.609375" y2="176" fill="rgb(0, 0, 0)" stroke="rgb(66, 66, 66)" stroke-width="1px" opacity="0.25"></line><line x1="0" y1="154" x2="287.609375" y2="154" fill="rgb(0, 0, 0)" stroke="rgb(66, 66, 66)" stroke-width="1px" opacity="0.25"></line><line x1="0" y1="131.99999999999997" x2="287.609375" y2="131.99999999999997" fill="rgb(0, 0, 0)" stroke="rgb(66, 66, 66)" stroke-width="1px" opacity="0.25"></line><line x1="0" y1="109.99999999999999" x2="287.609375" y2="109.99999999999999" fill="rgb(0, 0, 0)" stroke="rgb(66, 66, 66)" stroke-width="1px" opacity="0.25"></line><line x1="0" y1="87.99999999999999" x2="287.609375" y2="87.99999999999999" fill="rgb(0, 0, 0)" stroke="rgb(66, 66, 66)" stroke-width="1px" opacity="0.25"></line><line x1="0" y1="65.99999999999996" x2="287.609375" y2="65.99999999999996" fill="rgb(0, 0, 0)" stroke="rgb(66, 66, 66)" stroke-width="1px" opacity="0.25"></line><line x1="0" y1="44" x2="287.609375" y2="44" fill="rgb(0, 0, 0)" stroke="rgb(66, 66, 66)" stroke-width="1px" opacity="0.25"></line><line x1="0" y1="21.99999999999998" x2="287.609375" y2="21.99999999999998" fill="rgb(0, 0, 0)" stroke="rgb(66, 66, 66)" stroke-width="1px" opacity="0.25"></line><line x1="0" y1="0" x2="287.609375" y2="0" fill="rgb(0, 0, 0)" stroke="rgb(66, 66, 66)" stroke-width="1px" opacity="0.25"></line></g></g></g><g><g><line x1="0" y1="308" x2="287.609375" y2="308" fill="rgb(0, 0, 0)" stroke="rgb(153, 153, 153)" stroke-width="1.5px"></line></g></g><g><g><line x1="31.95659722222222" y1="0" x2="31.95659722222222" y2="176" fill="rgb(0, 0, 0)" stroke="rgb(153, 153, 153)" stroke-width="1.5px"></line></g></g><g><g><g><g><g><path stroke="rgb(255, 112, 67)" stroke-width="2px" d="M44.215147916666666,-6.231938946373035L44.53471388888889,2.050856811991709L44.694496875000006,11.167480220356897L44.85427986111111,17.967649692292504L45.01406284722222,15.238285013429769L45.33362881944444,12.965849082701544L45.49341180555555,8.686617947237831L45.81297777777778,11.981334362399117L45.97276076388889,20.583848949655756L46.132543749999996,21.021596143475143L46.45210972222222,21.94378749718133L46.611892708333336,24.374110747515452L47.41080763888888,30.29339669295524L48.049939583333334,33.38512080996267L48.209722569444445,35.594615996414646L48.68907152777778,35.06953071387664L48.84885451388889,24.808839934063244L49.16842048611111,30.349125562305638L49.32820347222222,35.47781659257141L49.48798645833334,39.71783104593591L49.64776944444445,40.26726517114064L49.80755243055556,37.099074274498285L49.967335416666664,34.504501861451914L50.127118402777775,38.68365643150737L50.446684375,39.72060245112852L50.606467361111115,41.25886675021815L50.766250347222226,39.6186281937466L51.40538229166666,42.42431622136272L51.56516527777778,50.06091507308862L52.20429722222222,53.21572651882875L52.36408020833333,53.09394968998375L52.798689930555554,53.940777811121606L52.95847291666667,57.21782037777403L53.11825590277778,55.01429379679383L53.27803888888889,57.68706520019541L53.437821875,57.10003514062503L53.75738784722222,55.97760016304931L54.07695381944445,53.918365517751454L54.23673680555556,56.99160635441309L54.39651979166666,57.91824777108289L54.55630277777777,54.736958451162906L55.195434722222224,62.58767201131051L55.355217708333335,60.663362178954266L55.515000694444446,58.27366599664259L55.67478368055555,56.83163429036834L55.83456666666667,62.10023580035625L56.313915625,64.6197503211561L56.95304756944444,69.4254711033382L57.272613541666665,71.03861891993746L57.432396527777776,69.0160042987398L57.751962500000005,75.24013102925608L57.911745486111116,66.18677766845698L58.23131145833333,68.60074820355217L58.39109444444444,69.03429802796624L58.55087743055555,69.10648160303465L58.87044340277778,74.7059679336836L59.190009375,80.45486280366718L59.50957534722222,81.94527161744196L59.669358333333335,81.15703227893685L59.829141319444446,79.5793637918006L60.14870729166667,75.53411367455543L60.30849027777778,76.89997336220398L60.46827326388889,68.96772201628478L60.62805624999999,73.88426022393102L60.78783923611111,77.17752402223702L61.10740520833333,76.24165712116691L61.267188194444444,83.66266805123405L61.426971180555554,83.46988171452949L61.58675416666667,79.30538083383246L61.74653715277778,81.41965256493567L61.90632013888889,83.65377460933493L62.066103125,82.75589696774938L62.54545208333334,80.18374982005392L62.70523506944445,85.1680556209447L62.86501805555556,85.17826428839933L63.13984479166667,81.54769744175299L63.61919375,86.47370408593193L64.09854270833333,85.9113727964078L64.25832569444444,83.20504892808881L64.41810868055555,89.52825463380029L64.73767465277778,87.38410346845154L64.8974576388889,84.90215626442054L65.057240625,88.56514143397581L65.2170236111111,87.83163189560273L65.53658958333334,86.42136187356768L65.69637256944445,87.63523985744744L65.85615555555556,83.52190853238837L66.17572152777778,90.62273355174503L66.4952875,89.74539973645473L66.81485347222223,87.97527653163112L66.97463645833334,87.80211862436198L67.29420243055556,90.21973209685841L67.45398541666667,94.23273151580547L67.61376840277778,89.98712025561366L67.77355138888889,93.69968458699245L67.933334375,94.81626699380311L68.25290034722222,96.69679487950943L68.41268333333333,96.59124444250668L68.57246631944444,93.39638294174912L69.05181527777778,91.51704271670965L69.37138125,94.42510218642225L69.53116423611111,96.15390326513094L69.85073020833333,99.03532062729144L70.01051319444444,97.22485629773104L70.17029618055555,101.90355515513397L70.33007916666666,106.25087265988334L70.48986215277777,110.68885491383159L70.64964513888889,105.67866967971376L70.96921111111111,106.1499955585912L71.12899409722222,105.86221203394621L71.44856006944444,107.01389942877228L71.60834305555555,101.16612974591692L71.76812604166666,100.11936435572886L71.92790902777779,97.16004062576641L72.08769201388888,98.04633212616176L72.247475,94.52861180621461L72.72682395833334,98.05857743452833L72.88660694444444,96.64911197203901L73.04638993055556,103.5315606509358L73.20617291666667,103.93083147494258L73.6407826388889,100.0428185718552L73.800565625,98.31038791282748L73.96034861111112,100.13047570195066L74.12013159722223,104.98490611437714L74.43969756944445,107.45985169246052L74.59948055555554,105.47800881287012L75.3983954861111,110.91547950876087L75.71796145833333,104.58050451739032L75.87774444444445,104.9163894299471L76.35709340277778,107.23935554288647L76.51687638888887,108.76121271766911L76.676659375,111.17171872328332L76.99622534722222,114.07518327635891L77.15600833333333,111.58089049102288L77.31579131944444,114.49982595110787L77.47557430555555,114.58077707090887L77.63535729166668,115.83494848131483L77.79514027777778,107.05806623768417L77.95492326388889,109.90166427416568L78.11470625,108.58479949070792L78.43427222222223,108.36591007848847L78.59405520833333,109.29330083453814L78.91362118055555,103.61255791618917L79.07340416666666,101.42359172603189L79.7125361111111,106.77619568884788L79.87231909722223,103.36760702359925L80.03210208333333,108.3487466253534L80.19188506944445,110.41238537297816L80.35166805555555,114.29389156619412L80.51145104166666,113.25811451506438L81.1505829861111,109.94288216729058L81.31036597222223,118.20984627425129L81.47014895833334,119.87295471203004L81.62993194444444,119.5627905998926L81.78971493055556,117.97089226688745L81.94949791666666,115.6688518503058L82.26906388888888,117.1005281435697L82.428846875,113.10470508499435L82.58862986111112,112.79533409454517L82.74841284722221,118.51485666858012L82.90819583333334,119.47119885222229L83.06797881944443,115.02202967128822L83.38754479166667,115.08270651889842L83.54732777777778,115.17966331716177L83.82215451388889,116.16298206851361L83.9819375,118.72408604744365L84.14172048611111,121.34781270100646L84.46128645833333,117.44168150945887L84.94063541666667,111.35797489001978L85.26020138888889,114.86163342186587L85.419984375,117.14855954759582L85.57976736111111,118.76784847803869L85.73955034722222,120.35322665350412L85.89933333333335,123.72177094922526L86.53846527777777,127.45921374980249L86.6982482638889,125.24766322150012L87.01781423611112,129.29459612473357L87.33738020833333,123.6617040211231L87.49716319444444,123.07045810069263L87.65694618055555,118.52680292514334L87.81672916666668,120.6428344177447L87.97651215277777,119.51449598832379L88.296078125,121.25845574118765L88.45586111111112,122.38190993534369L88.61564409722223,121.38142333547377L88.93521006944445,119.68111668896736L89.09499305555555,119.03312746806182L89.25477604166667,120.22859153821013L89.41455902777777,126.00781637235845L89.734125,126.04328006389358L89.8939079861111,127.22550131012571L90.21347395833332,129.01610761362056L90.37325694444445,122.06512893127048L90.53303993055555,126.07388876012946L90.69282291666667,126.74938496429913L90.85260590277778,125.70314984607214L91.01238888888888,123.73216851405806L91.172171875,120.7587343207151L91.3319548611111,125.06548362679185L91.49173784722223,122.76995748106778L91.65152083333334,122.26104379787527L92.29065277777778,130.1225747650533L92.45043576388888,121.28820807848386L92.61021875,122.0011254734636L92.92978472222222,126.84556196849587L93.08956770833333,128.28274716568617L93.72869965277778,123.18858874817268L94.16330937500001,120.77292183029398L94.32309236111111,122.96775109164562L94.48287534722222,123.64392542000203L94.96222430555557,124.17930206749192L95.12200729166666,125.15940495189041L95.28179027777779,127.20762789163595L95.44157326388888,125.66051394887927L95.60135625,124.12575258700944L95.7611392361111,124.26752260857165L95.92092222222222,121.26534917076432L96.08070520833334,122.81142717671393L96.24048819444444,124.07018302721976L96.40027118055556,124.5758957317066L96.56005416666666,123.28943764272879L96.71983715277779,128.90450136127205L96.8796201388889,125.7580671802886L97.03940312499999,128.66966708277033L97.35896909722221,129.07323989733675L97.67853506944444,130.17475334086788L97.83831805555556,129.82973527478438L97.99810104166667,129.1827563260034L98.15788402777777,132.23320192182277L98.63723298611112,132.43330036451943L98.79701597222221,131.77143518239575L98.95679895833334,130.9716623789687L99.11658194444445,131.25942975083703L99.59593090277777,129.89767778992478L99.75571388888889,131.35126698660744L100.07527986111111,132.92694986252724L100.23506284722222,131.2098549150749L100.71441180555554,129.04411515851763L100.87419479166667,137.49292321956128L101.03397777777778,134.60998904678803L101.35354375,134.33748915179714L101.51332673611111,134.27464477052774L101.67310972222222,134.23985447782567L102.15245868055555,133.80172919212754L102.31224166666667,129.1596869407831L102.47202465277778,130.53503459565275L102.6318076388889,128.83730827493926L102.791590625,130.55541259481583L102.95137361111112,130.40462931653306L103.11115659722222,133.34359259999061L103.27093958333333,135.05723550079026L103.59050555555555,134.07147089336968L103.75028854166668,134.36414975937996L103.91007152777777,131.83872110257622L104.0698545138889,127.66002034312531L104.82403020833333,135.059514803684L104.98381319444445,138.07500617682712L105.14359618055556,133.4078634320484L105.30337916666666,136.77683494918267L105.46316215277778,126.17111739178132L105.782728125,128.02365069782513L106.10229409722223,128.20567773101197L106.42186006944443,131.98207115124146L106.58164305555556,135.3047590672402L106.74142604166666,141.1404032957213L107.06099201388889,137.68093625614983L107.220775,137.3277301306125L107.38055798611111,133.30460631338337L107.70012395833334,133.9761159151052L108.01968993055556,132.8491463976654L108.17947291666667,133.93379699692446L108.49903888888889,135.46264054480383L108.658821875,138.50652738871088L108.81860486111111,140.1018867281789L109.29795381944444,141.31705645249573L109.45773680555556,141.95497033313683L109.61751979166667,136.76821440050466L109.77730277777778,138.702209005293L109.93708576388889,138.7021715221028L110.09686875,139.3106929050219L110.25665173611111,140.25819699682785L110.57621770833333,135.6588627858042L110.73600069444444,136.40711099881406L110.89578368055557,138.11248673783825L111.05556666666666,137.43280271164826L111.21534965277779,136.85366279764324L111.37513263888889,135.43290423681347L111.85448159722222,137.1405830343366L112.01426458333334,133.6108909582973L112.33383055555556,130.6454237542081L112.49361354166666,134.88201495656537L112.65339652777777,137.05066817193728L112.9729625,135.02192884200514L113.13274548611112,135.21215833135668L113.29252847222222,138.2595321470989L113.77187743055555,135.03255606499275L113.93166041666667,132.71354885582303L114.09144340277777,136.51978971769915L114.2512263888889,132.90964003926817L114.41100937499999,135.5202674181837L114.57079236111112,134.22287526795736L114.84561909722223,135.68505153101367L115.00540208333332,134.06295762682964L115.16518506944445,135.32989322081215L115.48475104166667,134.6832791026533L115.64453402777778,133.83194364643694L115.80431701388889,137.45447700939536L115.9641,137.7776132686255L116.1238829861111,138.22154986043677L116.28366597222222,137.7683268736595L116.60323194444445,136.72998416130508L117.08258090277778,137.78187334361533L117.72171284722222,140.03282172574316L118.20106180555555,140.17358860429354L118.36084479166666,136.93451138172287L118.52062777777778,139.130006813012L118.68041076388889,140.07342559278155L118.84019375,138.82785519468874L118.99997673611111,137.65432401006274L119.15975972222223,137.1901001662305L119.31954270833333,142.45089443506544L119.47932569444446,134.5966130732402L119.63910868055555,136.93600710862307L119.79889166666666,136.09007316013233L119.95867465277777,137.89756959188017L120.27824062500001,140.6374081224682L120.4380236111111,141.29333421292793L120.91737256944444,139.25452397288615L121.23693854166666,140.96839212192143L121.39672152777779,141.6836841989341L121.55650451388888,142.49149008326427L121.7162875,142.81753227551397L121.8760704861111,141.6405808773018L122.19563645833334,143.4841112522112L122.83476840277778,144.42605444358745L122.9945513888889,143.40913427214L123.154334375,144.04870035851104L123.47390034722221,144.17384072902266L123.63368333333334,144.41886446930445L123.79346631944443,138.75898679529115L123.95324930555556,137.2954842593341L124.27281527777778,139.2411775795262L124.59238124999999,138.80261555955656L125.18677395833333,141.54147391108182L125.82590590277778,142.5801894461364L126.46503784722222,142.2314133998901L126.62482083333333,141.60623419029415L126.78460381944444,140.94640099849045L127.10416979166666,145.3083617439612L127.26395277777777,142.58302558366918L127.4237357638889,142.58917034211436L127.58351875,143.2571419032972L127.74330173611112,144.8295418711043L128.06286770833333,144.09096929380513L128.22265069444444,140.76045373051892L128.38243368055555,143.02803594451865L128.54221666666666,146.27823466409276L128.70199965277777,142.26967612712994L128.86178263888888,140.57402891999135L129.1813486111111,137.8640956585744L129.34113159722222,139.47140825421445L129.50091458333333,139.6903362550189L129.82048055555555,134.56947671639026L130.14004652777777,136.12860619584978L130.2998295138889,142.0668695662037L130.4596125,143.86480960211844L130.6193954861111,143.09352555848176L131.09874444444446,142.26742476807243L131.25852743055555,141.26180936447506L131.57809340277777,139.0993437859519L131.73787638888888,148.29392891485116L131.897659375,148.0267358622469L132.21722534722224,147.24884390840037L132.53679131944446,143.86863656049434L132.69657430555554,146.69481646541038L133.01614027777777,144.40058853342103L133.17592326388888,147.5866490490077L133.33570625000002,147.43272740166415L133.4954892361111,144.8091678054394L133.65527222222224,143.1439804691828L134.13462118055557,146.5510951792453L134.29440416666665,143.52086582870808L134.4541871527778,144.6896280711384L134.61397013888887,148.09314877185173L134.9335361111111,146.43080104823676L135.52792881944444,151.56516731641153L135.68771180555555,151.64529164350904L135.84749479166666,146.44749135802314L136.00727777777777,150.18035461324527L136.16706076388888,149.1512584794645L136.32684375,147.377683359926L136.80619270833333,146.3120119324595L136.96597569444444,148.0868580193085L137.28554166666666,145.9377849966742L137.44532465277777,148.02319240990028L137.60510763888888,144.81776657356468L137.764890625,146.7426479736188L137.9246736111111,144.25720262999647L138.40402256944444,150.24765920922346L138.56380555555558,145.43994274309387L138.72358854166666,145.42541765315L138.88337152777777,148.1686852880875L139.84206944444443,147.455807310853L140.16163541666666,149.50510412604427L140.32141840277777,149.40503228992708L140.80076736111113,150.79516351992183L141.12033333333332,148.83085520729003L141.28011631944446,149.4148229579006L141.43989930555554,147.52630199312415L141.59968229166668,148.67635534595993L141.75946527777776,148.74346112246243L141.9192482638889,146.61287431141693L142.23881423611112,144.19065759313676L142.39859722222224,148.43099115927564L142.55838020833332,147.494156066415L142.71816319444446,143.59860946168735L143.03772916666668,142.40025235074899L143.19751215277776,148.589917569507L143.3572951388889,146.01117090532114L143.517078125,145.10650293915825L143.8366440972222,146.22811704212043L143.99642708333334,144.1819378217078L144.15621006944446,143.46889541626075L144.31599305555557,147.403761852265L144.47577604166665,142.84512891082798L144.6355590277778,144.81639102523823L144.955125,146.72705213681044L145.43447395833334,147.83015485081182L145.59425694444445,149.29437606020633L146.0288666666667,150.77026462843335L146.66799861111113,151.22397022420358L146.82778159722224,153.97160690411442L147.14734756944443,157.40917225709268L147.30713055555555,151.7819417240066L147.6266965277778,153.97931956779018L147.9462625,153.01739701945218L148.26582847222224,151.12552142929215L148.42561145833332,152.401151709504L148.58539444444443,156.0230758027715L148.90496041666668,158.2362039945413L149.0647434027778,157.58881922137078L149.22452638888888,160.3473982070168L149.384309375,159.48776173915147L149.5440923611111,160.3677666206698L149.70387534722224,158.27902407762647L149.86365833333335,155.2958824832275L150.02344131944443,158.26141391986812L150.18322430555554,156.37808744188672L150.34300729166668,160.72376952216936L150.5027902777778,161.56142436054893L150.82235624999998,153.75195070855347L151.30170520833335,157.2357945248635L151.46148819444446,155.99448584348863L151.62127118055554,152.57060536641424L151.9408371527778,154.7851898723754L152.1006201388889,154.83591399514157L152.26040312499998,155.79204388811274L152.4201861111111,157.35086643906882L152.57996909722223,157.45843980438977L153.3788840277778,158.55031565265338L153.5386670138889,154.6362454142361L154.01801597222223,156.06023607529337L154.17779895833334,155.09146410153588L154.49736493055556,156.1023315782921L154.65714791666664,158.5137126562343L155.2962798611111,161.39440828069127L155.45606284722223,161.79602387847945L155.61584583333334,159.27748367370634L155.93541180555556,156.1469695400087L156.21023854166668,154.586164035254L156.37002152777777,155.126432536753L156.52980451388888,157.26684157771587L156.6895875,155.06251964999865L156.84937048611113,155.26734176894203L157.00915347222224,159.13605365526783L157.32871944444443,157.85149875505033L157.48850243055557,157.19459733500042L157.64828541666668,159.387414414489L157.8080684027778,159.38052527833207L157.96785138888887,158.87693777518405L158.12763437499999,160.01477865479546L158.28741736111112,159.80499517978524L158.44720034722224,162.3591697458106L158.60698333333332,162.27482315562233L159.08633229166668,160.8711087027911L159.40589826388887,165.843561084254L159.56568124999998,159.41399664353335L159.88524722222223,158.4839341799677L160.20481319444443,158.14498907090783L160.36459618055554,160.4654066429231L160.52437916666668,157.0521542945918L160.6841621527778,152.43222002502776L160.8439451388889,153.876353003481L161.16351111111112,154.00363076800048L161.32329409722223,153.97948349162303L161.96242604166667,155.38206169989323L162.12220902777779,160.50564492932926L162.2819920138889,163.18830297703724L162.44177499999998,158.40435551592816L162.92112395833334,158.307464593584L163.08090694444445,158.4259886705486L163.40047291666667,153.28794994137334L163.56025590277778,155.97955602515725L164.0396048611111,158.05480772321815L164.19938784722223,153.50797895232077L164.35917083333334,155.87817213320275L164.51895381944445,156.27674325337136L164.67873680555556,159.73525342959238L164.83851979166667,156.7023444749002L164.99830277777778,157.61029122931268L165.1580857638889,159.3349742332846L165.31786875,156.5186731004566L165.47765173611108,154.20917100810112L165.63743472222222,158.62004434527816L165.79721770833333,158.1658474651686L166.11678368055556,159.2983581571407L166.55139340277776,160.10644561938207L166.71117638888887,161.18271111781453L167.03074236111112,161.59777564606102L167.19052534722223,157.1350433516564L167.35030833333332,159.58494694757832L167.66987430555557,160.3042210562728L167.82965729166668,156.99247936151636L168.14922326388887,159.71938211764225L168.30900625,158.5065676632245L168.62857222222223,156.7321084179115L168.94813819444443,160.32636364922712L169.4274871527778,160.78136058226698L169.58727013888887,157.80123307451885L170.06661909722223,158.63225714054875L170.38618506944442,155.51819209866028L170.54596805555556,159.08052156336487L170.70575104166667,156.65644444207774L171.0253170138889,160.58060830343024L171.18509999999998,158.992597922732L171.34488298611112,160.4217091709671L171.82423194444442,163.02397887172089L171.98401493055556,161.853153421055L172.30358090277778,156.79752828691642L172.62314687499997,157.0738379598513L172.7829298611111,159.74649784808486L173.26227881944445,163.69669002202227L173.58184479166667,159.10243745986864L173.74162777777778,160.82183234896806L174.2209767361111,159.52185860280122L174.38075972222222,160.6336795270677L174.54054270833333,158.66679609896156L174.70032569444444,156.98584826637156L174.86010868055556,157.10401859193354L175.01989166666667,158.18843149131126L175.17967465277778,158.3939603268241L175.3394576388889,154.59488430614084L175.499240625,158.35708517429117L175.65902361111114,164.12171417830515L175.81880659722222,164.915673770655L176.13837256944444,161.61030123123453L176.29815555555555,159.79594195776536L176.61772152777777,158.37308595712992L177.05233125,160.49549330554015L177.21211423611112,162.98529637623793L177.69146319444445,164.97457244854547L177.85124618055556,164.06509787357672L178.17081215277778,163.27873672554983L178.33059513888887,161.93569086498076L178.490378125,162.0896054178837L178.65016111111112,163.4741218131997L178.80994409722223,160.87266078246938L179.12951006944445,157.8997792163688L179.28929305555556,155.440372977209L179.60885902777778,155.268473072977L179.76864201388886,158.71427283533282L180.08820798611112,161.03000842242162L180.24799097222223,164.8501057309432L180.40777395833334,165.07774961486598L180.56755694444442,166.0038709908434L180.72733993055556,164.76643249211958L180.88712291666667,162.34916375171093L181.2066888888889,162.7242505436596L181.84582083333333,159.5107955387507L182.00560381944442,159.65942656107387L182.16538680555556,158.30271617834356L182.32516979166667,161.40484671750417L182.48495277777778,160.6689337072298L182.6447357638889,161.83750238284617L182.80451875000003,160.16926740565984L182.9643017361111,159.50965837811881L183.12408472222222,162.0361718426672L183.76321666666666,159.5029833370761L183.92299965277778,162.48900876368975L184.0827826388889,162.12640105441747L184.242565625,159.10952622148716L184.72191458333333,164.09870771439864L184.88169756944444,162.2809072725296L185.04148055555558,163.1359686608505L185.36104652777777,164.44839628668976L185.52082951388888,163.49997725565643L185.84039548611113,161.51187657403597L186.15996145833333,160.60076255254535L186.31974444444444,160.2963021436488L186.47952743055558,163.06163777346345L186.95887638888888,162.12877763172943L187.233703125,161.59402349508377L187.39348611111112,161.81526333639962L187.55326909722223,156.75927890866961L187.7130520833333,155.860750469744L187.87283506944445,158.70877940248238L188.03261805555556,159.0989775108742L188.35218402777778,163.4801419882445L188.5119670138889,164.54101106574942L188.99131597222222,164.92983277470356L189.79023090277778,162.88383083242465L190.109796875,155.56811588226728L190.2695798611111,158.43539648782595L190.42936284722222,157.76279047448267L190.58914583333333,159.54841439317957L190.74892881944444,159.51810608143387L190.90871180555555,161.17277551790937L191.3880607638889,157.5361979073338L191.54784375,158.21091790592982L191.7076267361111,157.99797446487133L191.86740972222222,156.19014181469552L192.02719270833333,160.25670927628678L192.34675868055555,159.11429806867125L192.66632465277777,159.8677904386454L192.82610763888889,160.2367702829321L192.98589062500002,161.17937439128636L193.30545659722222,163.70521822836923L193.46523958333333,162.29559225599127L193.62502256944447,159.9423961327085L193.78480555555555,159.2680806926256L193.94458854166666,157.7261675722221L194.10437152777777,161.66083672802563L194.26415451388888,159.12220937705587L194.42393750000002,160.99888810334534L194.5837204861111,161.4905397940751L194.74350347222222,160.42547965342257L195.38263541666666,160.24380479034457L195.70220138888888,161.3063906775515L195.86198437500002,159.786955019629L196.02176736111113,153.72015036391974L196.1815503472222,157.17394488601542L196.34133333333332,164.23840146987828L196.82068229166669,165.90989192562813L197.14024826388888,164.86669845722625L197.89442395833333,162.89153110589092L198.21398993055556,162.6198890424103L198.37377291666667,161.72695957519593L198.6933388888889,161.68104144870034L199.33247083333336,161.45227912031885L199.49225381944444,158.55780956127208L199.65203680555555,160.92695134268976L199.81181979166666,162.24917083613144L199.97160277777778,161.4995614387516L200.61073472222222,161.5994517146304L200.93030069444444,160.88486786715714L201.09008368055555,158.4397176982911L201.40964965277777,161.3113278914661L201.5694326388889,159.1879247408611L202.04878159722222,161.65323936828986L202.20856458333333,166.0319690459312L202.36834756944447,164.6890663953627L202.68791354166666,165.55530327868487L203.0074795138889,164.25388795323389L203.16726250000002,161.0504446875287L203.3270454861111,160.48423371620376L203.64661145833333,156.49917622749447L203.80639444444446,156.61708767619396L204.12596041666666,157.8341801608006L204.28574340277777,160.1592203881979L204.44552638888888,161.8332214419031L204.7650923611111,162.4727391281118L204.9248753472222,165.82983268966615L205.08465833333332,165.87644318145718L205.24444131944446,162.41135747076396L205.40422430555557,159.90665210986927L205.56400729166666,156.76042107167714L206.04335625000002,157.89759432925507L206.20313923611113,159.2020010212286L206.52270520833332,159.10081687326576L206.68248819444446,162.5486527368745L206.84227118055557,163.5293773225141L207.00205416666668,161.91511288948013L207.32162013888887,158.88285307685823L207.481403125,161.84464133143598L207.64118611111113,160.49973981595141L207.91601284722222,164.17056542048516L208.39536180555555,167.49520500546492L208.55514479166666,167.07048935917496L208.7149277777778,167.30876729027915L209.51384270833336,168.79152296266847L209.83340868055555,165.79173869062598L210.1529746527778,165.80136023860652L210.3127576388889,161.93560263455797L210.472540625,162.1139689263158L210.95188958333335,159.7790398106845L211.11167256944444,160.42747980987258L211.27145555555555,157.68073772570628L211.43123854166666,160.11928705681046L211.59102152777777,159.22100269978455L211.7508045138889,162.6304836045814L211.9105875,162.8968137604661L212.0703704861111,157.45835335866616L212.38993645833335,155.80806865582468L212.54971944444446,154.29442600184444L212.86928541666666,158.9774755702839L213.02906840277777,164.6966809789196L213.1888513888889,163.7936476445112L213.34863437500002,159.97338859891377L213.82798333333335,164.68816066178965L213.98776631944446,166.08951411481672L214.30733229166665,160.85972090861782L214.46711527777776,159.95560105026715L214.6268982638889,160.63902358639808L214.78668125000002,157.62368829505783L214.9464642361111,161.03423561726296L215.1062472222222,165.0653982047694L215.26603020833332,163.3346950462137L215.42581319444446,166.8587865025207L215.58559618055557,166.76779894771602L215.74537916666665,164.45949233020798L216.0649451388889,161.41897361544045L216.224728125,160.78860302607578L216.5442940972222,160.82079727554535L216.70407708333332,162.8158056205762L217.02364305555557,163.84996787704543L217.18342604166665,160.64148383139084L217.5029920138889,166.49269335745876L217.662775,165.72566285895766L217.82255798611112,163.68801621894517L217.9823409722222,161.94715440452381L218.25716770833333,163.1916201840656L218.41695069444444,161.96574973647697L218.73651666666666,159.55355977764668L219.05608263888888,164.41088704914418L219.3756486111111,160.52259910494425L219.53543159722224,158.93858969444238L219.85499756944444,158.03368098875407L220.01478055555555,158.2774226626189L220.17456354166666,160.27106165650076L220.3343465277778,163.00355095721832L220.4941295138889,158.73183066283195L220.6539125,164.3357196249636L220.8136954861111,164.00852072227428L221.45282743055554,165.3645523785855L221.61261041666666,164.86145613189373L221.7723934027778,167.5139097547283L222.091959375,164.3214788064808L222.2517423611111,159.76723439845145L222.4115253472222,162.3266575297874L222.73109131944446,166.29212813145887L223.05065729166665,165.09540551046712L223.3702232638889,165.2239643641721L223.6897892361111,165.12454595019884L224.00935520833335,165.33266280800382L224.16913819444446,166.258408109607L224.32892118055554,164.58966124073368L224.48870416666665,161.52622783193408L224.8082701388889,158.66790649896515L224.968053125,159.69940465453655L225.1278361111111,159.39166923620337L225.2876190972222,162.83007199918052L225.44740208333334,160.8128395518948L225.60718506944445,162.04375660665565L226.08653402777776,163.00844352392988L226.2463170138889,165.03665896027468L226.7256659722222,165.7061300502371L226.88544895833334,168.92899543202822L227.04523194444445,168.28324688766543L227.36479791666665,167.21783355053748L227.52458090277776,163.42830268845844L228.00392986111112,165.3298752326124L228.1637128472222,161.26929736246785L228.32349583333334,164.6405926234133L228.75810555555555,162.86305869141856L228.91788854166668,161.86619470429207L229.3972375,164.23945559210648L229.5570204861111,165.80897715775413L229.71680347222224,163.31565010004186L230.03636944444443,162.52593171270453L230.5157184027778,165.63679697317934L230.6755013888889,162.92339917542373L231.15485034722224,161.08515351129668L231.31463333333335,157.2443068093842L231.47441631944443,159.46570582787908L232.1135482638889,159.4816411709828L232.4331142361111,158.6670069918658L232.59289722222223,165.0627780095116L232.75268020833335,165.9012453159914L232.91246319444446,163.84227726466804L233.07224618055554,165.11542800430865L233.23202916666665,162.27108690359836L233.3918121527778,161.1443505598226L233.8711611111111,161.68393833119384L234.03094409722223,163.78655633138843L234.19072708333334,161.1434363890125L234.35051006944445,162.38583867361746L234.67007604166665,165.9832626379168L234.9896420138889,162.48682075718858L235.149425,163.96355489480388L235.62877395833334,163.19902260057862L235.78855694444445,162.17227858872852L236.10812291666664,159.12511464698102L236.26790590277778,160.26066344227183L236.4276888888889,160.09513803270931L236.587471875,166.17622077433748L236.74725486111112,165.17660839538863L236.9070378472222,164.60344466674977L237.38638680555556,166.03744664853008L237.54616979166664,167.9917675916266L238.18530173611111,170.53298198365638L238.3450847222222,163.12023684491797L238.50486770833334,162.6833123988514L238.66465069444445,161.22262753406793L238.93947743055554,161.80425351476447L239.2590434027778,161.44713483819828L239.41882638888887,162.96785804372706L239.73839236111112,163.3154616638522L239.89817534722224,163.29323989656572L240.21774131944443,161.16213282648926L240.53730729166668,164.55600543441892L240.6970902777778,166.7161054350288L240.8568732638889,162.4451264224858L241.01665624999998,163.59575865759913L241.33622222222223,158.86743348893205L241.49600520833334,160.96192070279525L241.81557118055554,160.2519062783361L241.97535416666668,162.79757063544037L242.2949201388889,159.3233007964864L242.45470312499998,159.77378499373043L242.77426909722223,157.81927301802781L242.93405208333334,158.65962449502078L243.09383506944445,160.9837811934419L243.25361805555553,163.49715166970893L243.7329670138889,163.13712433388713L244.0525329861111,166.16266791469383L244.21231597222223,165.87541017798497L244.37209895833334,165.46703163306663L244.53188194444445,165.30258664799183L245.01123090277778,164.2001860219982L245.1710138888889,162.4454605626313L245.330796875,165.20432372374822L245.65036284722223,167.00341803719692L245.81014583333334,161.80599626833254L245.96992881944445,162.94976311286717L246.12971180555556,162.97881430006282L246.28949479166664,163.51958046922837L246.6090607638889,167.15073515516372L247.40797569444445,162.80657030070932L247.72754166666664,163.68662982538407L248.68623958333333,160.13423932406346L248.84602256944444,160.48091962822102L249.28063229166668,161.65480677418603L249.4404152777778,162.73027954180654L249.75998124999998,164.58179336595305L249.91976423611112,163.09950717573028L250.39911319444442,164.1530971544067L250.55889618055556,162.3417916308093L250.8784621527778,163.99026403488207L251.0382451388889,167.32836700476102L251.19802812499998,164.10336070654924L251.35781111111112,161.75532821058115L251.51759409722223,160.63128683113385L251.83716006944442,160.88041213240223L252.15672604166667,164.56403552941083L252.31650902777778,160.58957869679688L252.4762920138889,159.0419559888301L252.63607499999998,161.71726038529022L252.79585798611112,159.95955611749613L252.95564097222223,162.7622915356405L253.11542395833334,164.0091312080054L253.75455590277778,168.10164829191137L253.9143388888889,166.37943370399816L254.074121875,164.41945490394798L254.2339048611111,162.26204710695006L254.39368784722222,161.19371288712537L254.87303680555553,164.94307271060774L255.03281979166667,164.8571020568456L255.19260277777778,163.96398361951384L255.83173472222222,159.75991254109306L255.99151770833333,164.00110886727668L256.15130069444444,167.06692241570295L256.6306496527778,167.43279537523352L256.7904326388889,169.86092444041108L257.1099986111111,166.80317203866684L257.2697815972222,164.47356172005678L257.58934756944444,159.08076655626502L257.74913055555555,159.87085010862472L258.0686965277778,162.11861478242946L258.2284795138889,164.29245507093475L258.5480454861111,163.42043296916606L258.7078284722222,163.34201865448546L258.86761145833333,163.0711674991488L259.02739444444444,161.26690647025345L259.18717743055555,156.53378422867917L259.34696041666666,159.68785743601123L260.4207020833333,161.4584551613748L260.90005104166664,160.7301362491381L261.05983402777775,160.3765542111833L261.37940000000003,163.14138090622657L261.6989659722222,163.88389699466367L261.8587489583333,165.4802946138819L262.3380979166667,166.02306932738065L262.49788090277775,167.1919801386037L262.65766388888886,165.31546913098327L262.817446875,162.66661616868396L263.2967958333333,162.52443125669132L263.4565788194444,167.78704072728138L263.6163618055556,167.72836504992475L263.7761447916667,163.4422693885364L264.09571076388886,165.7760780714153L264.41527673611114,166.99798946751346L264.57505972222225,166.50806902154204L264.7348427083333,163.63382548274944L264.8946256944444,162.75265122760743L265.3739746527778,164.45869932955154L265.69354062499997,166.15789534083393L265.85332361111114,167.83547159094445L266.01310659722225,163.68131940399905L266.17288958333336,165.62554560205518L266.3326725694444,163.27256199181784L266.4924555555555,160.64323823726596L266.6522385416667,168.01484080002558L266.9718045138889,164.4185915222517L267.13158749999997,162.8759475845546L267.29137048611113,164.21317049851717L267.45115347222225,165.8446196376723L267.61093645833336,162.06631033774863L267.7707194444444,164.1325123379031L267.9305024305555,164.71698108133074L268.0902854166667,164.05770262966394L268.2500684027778,161.5341176562896L268.4098513888889,162.94563920339291L268.56963437499996,161.6572538795492L269.5283322916667,162.28376501693847L269.9629420138889,163.12949553665237L270.122725,158.41392283163498L270.2825079861111,163.6469161303164L270.60207395833334,167.67692369170913L270.76185694444445,165.74925705163437L271.4009888888889,165.81621740084145L271.560771875,163.69372061384473L271.7205548611111,164.91934420760128L271.8803378472222,169.26081510839253L272.35968680555555,171.31567456994887L272.51946979166667,167.39922720595857L272.6792527777778,167.7137307548801L272.8390357638889,166.97710987474204L272.99881875,168.31083457795188L273.3183847222222,167.08430500702502L273.47816770833333,163.94087841437124L274.1172996527778,160.9783954758994L274.2770826388889,162.4639448249073" style="fill: none;" fill="none"></path></g></g></g></g><g opacity="0.2"><g><g><g><path stroke="rgb(255, 112, 67)" stroke-width="2px" d="M44.215147916666666,-4.058238983154336L44.53471388888889,14.475050449371318L44.694496875000006,24.842415332794168L44.85427986111111,28.167903900146463L45.01406284722222,11.144237995147686L45.33362881944444,9.55719518661497L45.49341180555555,2.2677712440490527L45.81297777777778,16.923408985137918L45.97276076388889,33.48762083053587L46.132543749999996,21.67821693420408L46.45210972222222,23.327074527740457L46.611892708333336,28.019595623016336L47.41080763888888,39.17232561111448L48.049939583333334,38.02270698547361L48.209722569444445,38.90885877609251L48.68907152777778,34.28190279006956L48.84885451388889,9.417803764343242L49.16842048611111,38.65955400466917L49.32820347222222,43.17085313796995L49.48798645833334,46.077852725982645L49.64776944444445,41.09141635894773L49.80755243055556,32.34678792953489L49.967335416666664,30.612643241882303L50.127118402777775,44.952388286590555L50.446684375,41.27602148056028L50.606467361111115,43.56626319885252L50.766250347222226,37.158270359039285L51.40538229166666,46.632848262786844L51.56516527777778,61.51581335067747L52.20429722222222,57.94794368743894L52.36408020833333,52.91128444671629L52.798689930555554,55.21101999282835L52.95847291666667,62.133384227752664L53.11825590277778,51.709003925323465L53.27803888888889,61.69622230529783L53.437821875,56.21949005126951L53.75738784722222,54.29394769668577L54.07695381944445,50.829513549804666L54.23673680555556,61.601467609405496L54.39651979166666,59.308209896087625L54.55630277777777,49.96502447128294L55.195434722222224,74.36374235153197L55.355217708333335,57.7768974304199L55.515000694444446,54.68912172317503L55.67478368055555,54.66858673095701L55.83456666666667,70.00313806533812L56.313915625,68.39902210235594L56.95304756944444,76.63405227661131L57.272613541666665,73.45834064483641L57.432396527777776,65.98208236694335L57.751962500000005,84.5763211250305L57.911745486111116,52.60674762725828L58.23131145833333,72.22170400619505L58.39109444444444,69.68462276458739L58.55087743055555,69.21475696563719L58.87044340277778,83.10519742965697L59.190009375,89.07820510864258L59.50957534722222,84.18088483810423L59.669358333333335,79.97467327117919L59.829141319444446,77.21286106109618L60.14870729166667,69.46623849868773L60.30849027777778,78.94876289367674L60.46827326388889,57.069344997405985L60.62805624999999,81.25906753540038L60.78783923611111,82.11741971969603L61.10740520833333,74.83785676956175L61.267188194444444,94.79418444633484L61.426971180555554,83.18070220947264L61.58675416666667,73.05862951278685L61.74653715277778,84.59106016159056L61.90632013888889,87.00495767593382L62.066103125,81.40908050537108L62.54545208333334,76.32552909851073L62.70523506944445,92.64451432228088L62.86501805555556,85.19357728958128L63.13984479166667,76.10184717178343L63.61919375,93.86271405220032L64.09854270833333,85.06787586212157L64.25832569444444,79.14556312561034L64.41810868055555,99.01306319236755L64.73767465277778,84.16787672042845L64.8974576388889,81.17923545837401L65.057240625,94.05961918830872L65.2170236111111,86.7313675880432L65.53658958333334,84.30595684051512L65.69637256944445,89.45605683326721L65.85615555555556,77.35191154479979L66.17572152777778,101.27397108078003L66.4952875,88.42939901351929L66.81485347222223,85.32009172439574L66.97463645833334,87.54238176345824L67.29420243055556,93.84615230560303L67.45398541666667,100.25223064422607L67.61376840277778,83.61870336532591L67.77355138888889,99.26853108406067L67.933334375,96.49114060401917L68.25290034722222,99.51758670806885L68.41268333333333,96.43291878700256L68.57246631944444,88.6040906906128L69.05181527777778,88.69803237915039L69.37138125,98.78719139099121L69.53116423611111,98.74710488319397L69.85073020833333,103.35744667053223L70.01051319444444,94.5091598033905L70.17029618055555,108.9216034412384L70.33007916666666,112.77184891700745L70.48986215277777,117.34582829475403L70.64964513888889,98.16339182853699L70.96921111111111,106.85698437690735L71.12899409722222,105.43053674697876L71.44856006944444,108.74143052101135L71.60834305555555,92.39447522163391L71.76812604166666,98.54921627044678L71.92790902777779,92.72105503082275L72.08769201388888,99.37576937675476L72.247475,89.25203132629395L72.72682395833334,103.3535258769989L72.88660694444444,94.53491377830505L73.04638993055556,113.855233669281L73.20617291666667,104.52973771095276L73.6407826388889,94.21079921722412L73.800565625,95.71174192428589L73.96034861111112,102.86060738563538L74.12013159722223,112.26655173301697L74.43969756944445,111.17227005958557L74.59948055555554,102.5052444934845L75.3983954861111,119.07168555259705L75.71796145833333,95.07804203033447L75.87774444444445,105.42021679878235L76.35709340277778,110.72380471229553L76.51687638888887,111.04399847984314L76.676659375,114.78747773170471L76.99622534722222,118.43038010597229L77.15600833333333,107.8394513130188L77.31579131944444,118.87822914123535L77.47557430555555,114.70220375061035L77.63535729166668,117.71620559692383L77.79514027777778,93.89274287223816L77.95492326388889,114.16706132888794L78.11470625,106.60950231552124L78.43427222222223,108.0375759601593L78.59405520833333,110.68438696861267L78.91362118055555,95.09144353866577L79.07340416666666,98.1401424407959L79.7125361111111,114.8051016330719L79.87231909722223,98.25472402572632L80.03210208333333,115.82045602798462L80.19188506944445,113.50784349441528L80.35166805555555,120.11615085601807L80.51145104166666,111.70444893836975L81.1505829861111,104.97003364562988L81.31036597222223,130.61029243469238L81.47014895833334,122.36761736869812L81.62993194444444,119.0975444316864L81.78971493055556,115.58304476737976L81.94949791666666,112.21579122543335L82.26906388888888,119.24804258346558L82.428846875,107.11097049713135L82.58862986111112,112.33127760887146L82.74841284722221,127.09414052963257L82.90819583333334,120.90571212768555L83.06797881944443,108.34827589988708L83.38754479166667,115.17372179031372L83.54732777777778,115.32509851455688L83.82215451388889,117.63796019554138L83.9819375,122.56574201583862L84.14172048611111,125.28340268135071L84.46128645833333,111.58248472213745L84.94063541666667,102.2324149608612L85.26020138888889,120.11712121963501L85.419984375,120.5789487361908L85.57976736111111,121.196781873703L85.73955034722222,122.73129391670227L85.89933333333335,128.774587392807L86.53846527777777,133.06537795066833L86.6982482638889,121.93033742904663L87.01781423611112,135.36499547958374L87.33738020833333,115.2123658657074L87.49716319444444,122.183589220047L87.65694618055555,111.71132016181946L87.81672916666668,123.81688165664673L87.97651215277777,117.8219883441925L88.296078125,123.8743953704834L88.45586111111112,124.06709122657776L88.61564409722223,119.88069343566895L88.93521006944445,117.13065671920776L89.09499305555555,118.06114363670349L89.25477604166667,122.02178764343262L89.41455902777777,134.67665362358093L89.734125,126.09647560119629L89.8939079861111,128.99883317947388L90.21347395833332,131.70201706886292L90.37325694444445,111.63866090774536L90.53303993055555,132.08702850341797L90.69282291666667,127.76262927055359L90.85260590277778,124.13379716873169L91.01238888888888,120.77569651603699L91.172171875,116.29858303070068L91.3319548611111,131.52560758590698L91.49173784722223,119.32666826248169L91.65152083333334,121.49767327308655L92.29065277777778,141.9148712158203L92.45043576388888,108.03665804862976L92.61021875,123.07050156593323L92.92978472222222,134.1122167110443L93.08956770833333,130.43852496147156L93.72869965277778,115.54735112190247L94.16330937500001,117.14942145347595L94.32309236111111,126.2599949836731L94.48287534722222,124.65818691253662L94.96222430555557,124.9823670387268L95.12200729166666,126.62955927848816L95.28179027777779,130.27996230125427L95.44157326388888,123.33984303474426L95.60135625,121.82361054420471L95.7611392361111,124.48017764091492L95.92092222222222,116.76208901405334L96.08070520833334,125.13054418563843L96.24048819444444,125.95831680297852L96.40027118055556,125.33446478843689L96.56005416666666,121.35975050926208L96.71983715277779,137.3270969390869L96.8796201388889,121.03841590881348L97.03940312499999,133.03706693649292L97.35896909722221,129.6785991191864L97.67853506944444,131.82702350616455L97.83831805555556,129.31220817565918L97.99810104166667,128.21228790283203L98.15788402777777,136.80887031555176L98.63723298611112,132.73344802856445L98.79701597222221,130.7786374092102L98.95679895833334,129.77200317382812L99.11658194444445,131.69108080863953L99.59593090277777,127.85504984855652L99.75571388888889,133.53165078163147L100.07527986111111,135.29047417640686L100.23506284722222,128.63421249389648L100.71441180555554,125.79550552368164L100.87419479166667,150.1661353111267L101.03397777777778,130.28558778762817L101.35354375,133.9287393093109L101.51332673611111,134.18037819862366L101.67310972222222,134.18766903877258L102.15245868055555,133.14454126358032L102.31224166666667,122.19662356376648L102.47202465277778,132.59805607795715L102.6318076388889,126.29071879386902L102.791590625,133.13256907463074L102.95137361111112,130.1784543991089L103.11115659722222,137.752037525177L103.27093958333333,137.62769985198975L103.59050555555555,132.59282398223877L103.75028854166668,134.80316805839539L103.91007152777777,128.0505781173706L104.0698545138889,121.39196920394897L104.82403020833333,146.1587564945221L104.98381319444445,142.59824323654175L105.14359618055556,126.40714931488037L105.30337916666666,141.83029222488403L105.46316215277778,110.26254105567932L105.782728125,130.80245065689087L106.10229409722223,128.47871828079224L106.42186006944443,137.6466612815857L106.58164305555556,140.2887909412384L106.74142604166666,149.893869638443L107.06099201388889,132.4917356967926L107.220775,136.79792094230652L107.38055798611111,127.26992058753967L107.70012395833334,134.983380317688L108.01968993055556,131.15869212150574L108.17947291666667,135.560772895813L108.49903888888889,137.75590586662292L108.658821875,143.07235765457153L108.81860486111111,142.49492573738098L109.29795381944444,143.13981103897095L109.45773680555556,142.9118411540985L109.61751979166667,128.9880805015564L109.77730277777778,141.6032009124756L109.93708576388889,138.7021152973175L110.09686875,140.22347497940063L110.25665173611111,141.67945313453674L110.57621770833333,128.7598614692688L110.73600069444444,137.52948331832886L110.89578368055557,140.6705503463745L111.05556666666666,136.41327667236328L111.21534965277779,135.98495292663574L111.37513263888889,133.30176639556885L111.85448159722222,139.70210123062134L112.01426458333334,128.31635284423828L112.33383055555556,126.19722294807434L112.49361354166666,141.23690176010132L112.65339652777777,140.30364799499512L112.9729625,131.97881984710693L113.13274548611112,135.4975025653839L113.29252847222222,142.83059287071228L113.77187743055555,130.1920919418335L113.93166041666667,129.23503804206848L114.09144340277777,142.2291510105133L114.2512263888889,127.4944155216217L114.41100937499999,139.436208486557L114.57079236111112,132.2767870426178L114.84561909722223,137.87831592559814L115.00540208333332,131.6298167705536L115.16518506944445,137.2302966117859L115.48475104166667,133.71335792541504L115.64453402777778,132.55494046211243L115.80431701388889,142.888277053833L115.9641,138.2623176574707L116.1238829861111,138.8874547481537L116.28366597222222,137.08849239349365L116.60323194444445,135.17247009277344L117.08258090277778,139.3597071170807L117.72171284722222,143.40924429893494L118.20106180555555,140.38473892211914L118.36084479166666,132.07589554786682L118.52062777777778,142.42324995994568L118.68041076388889,141.4885537624359L118.84019375,136.95949959754944L118.99997673611111,135.89402723312378L119.15975972222223,136.49376440048218L119.31954270833333,150.34208583831787L119.47932569444446,122.81519103050232L119.63910868055555,140.4450981616974L119.79889166666666,134.82117223739624L119.95867465277777,140.60881423950195L120.27824062500001,144.74716591835022L120.4380236111111,142.27722334861755L120.91737256944444,136.1963086128235L121.23693854166666,143.53919434547424L121.39672152777779,142.75662231445312L121.55650451388888,143.70319890975952L121.7162875,143.30659556388855L121.8760704861111,139.87515377998352L122.19563645833334,146.2494068145752L122.83476840277778,145.83896923065186L122.9945513888889,141.88375401496887L123.154334375,145.00804948806763L123.47390034722221,144.36155128479004L123.63368333333334,144.78640007972717L123.79346631944443,130.26917028427124L123.95324930555556,135.10023045539856L124.27281527777778,142.15971755981445L124.59238124999999,138.14477252960205L125.18677395833333,145.64976143836975L125.82590590277778,144.13826274871826L126.46503784722222,141.70824933052063L126.62482083333333,140.66846537590027L126.78460381944444,139.9566512107849L127.10416979166666,151.85130286216736L127.26395277777777,138.4950213432312L127.4237357638889,142.5983874797821L127.58351875,144.2590992450714L127.74330173611112,147.18814182281494L128.06286770833333,142.98311042785645L128.22265069444444,135.7646803855896L128.38243368055555,146.4294092655182L128.54221666666666,151.15353274345398L128.70199965277777,136.2568383216858L128.86178263888888,138.03055810928345L129.1813486111111,133.79919576644897L129.34113159722222,141.88237714767456L129.50091458333333,140.0187282562256L129.82048055555555,126.88818740844727L130.14004652777777,138.46730041503906L130.2998295138889,150.97426462173462L130.4596125,146.5617196559906L130.6193954861111,141.93659949302673L131.09874444444446,141.0282735824585L131.25852743055555,139.75338625907898L131.57809340277777,135.85564541816711L131.73787638888888,162.08580660820007L131.897659375,147.62594628334045L132.21722534722224,146.08200597763062L132.53679131944446,138.79832553863525L132.69657430555554,150.93408632278442L133.01614027777777,140.959246635437L133.17592326388888,152.3657398223877L133.33570625000002,147.2018449306488L133.4954892361111,140.8738284111023L133.65527222222224,140.64619946479797L134.13462118055557,151.661767244339L134.29440416666665,138.97552180290222L134.4541871527778,146.44277143478394L134.61397013888887,153.19842982292175L134.9335361111111,143.93727946281433L135.52792881944444,159.2667167186737L135.68771180555555,151.76547813415527L135.84749479166666,138.6507909297943L136.00727777777777,155.7796494960785L136.16706076388888,147.60761427879333L136.32684375,144.7173206806183L136.80619270833333,144.71350479125977L136.96597569444444,150.7491271495819L137.28554166666666,142.71417546272278L137.44532465277777,151.15130352973938L137.60510763888888,140.00962781906128L137.764890625,149.62997007369995L137.9246736111111,140.529034614563L138.40402256944444,159.23334407806396L138.56380555555558,138.22836804389954L138.72358854166666,145.40363001823425L138.88337152777777,152.28358674049377L139.84206944444443,146.38649034500122L140.16163541666666,152.57904934883118L140.32141840277777,149.25492453575134L140.80076736111113,152.88036036491394L141.12033333333332,145.88439273834229L141.28011631944446,150.29077458381653L141.43989930555554,144.69352054595947L141.59968229166668,150.40143537521362L141.75946527777776,148.8441197872162L141.9192482638889,143.41699409484863L142.23881423611112,140.55733251571655L142.39859722222224,154.7914915084839L142.55838020833332,146.08890342712402L142.71816319444446,137.75528955459595L143.03772916666668,140.60271668434143L143.19751215277776,157.87441539764404L143.3572951388889,142.14305090904236L143.517078125,143.74950098991394L143.8366440972222,147.91053819656372L143.99642708333334,141.11266899108887L144.15621006944446,142.3993318080902L144.31599305555557,153.30606150627136L144.47577604166665,136.00717949867249L144.6355590277778,147.77328419685364L144.955125,149.5930438041687L145.43447395833334,149.48480892181396L145.59425694444445,151.4907078742981L146.0288666666667,152.98409748077393L146.66799861111113,151.9045286178589L146.82778159722224,158.0930619239807L147.14734756944443,162.56552028656006L147.30713055555555,143.34109592437744L147.6266965277778,157.27538633346558L147.9462625,151.5745131969452L148.26582847222224,148.28770804405212L148.42561145833332,154.31459712982178L148.58539444444443,161.45596194267273L148.90496041666668,161.55589628219604L149.0647434027778,156.617742061615L149.22452638888888,164.48526668548584L149.384309375,158.19830703735352L149.5440923611111,161.6877739429474L149.70387534722224,155.14591026306152L149.86365833333335,150.82117009162903L150.02344131944443,162.7097110748291L150.18322430555554,153.55309772491455L150.34300729166668,167.24229264259338L150.5027902777778,162.8179066181183L150.82235624999998,142.0377402305603L151.30170520833335,162.4615602493286L151.46148819444446,154.1325228214264L151.62127118055554,147.4347846508026L151.9408371527778,158.10706663131714L152.1006201388889,154.91200017929077L152.26040312499998,157.22623872756958L152.4201861111111,159.68910026550293L152.57996909722223,157.61979985237122L153.3788840277778,160.18812942504883L153.5386670138889,148.7651400566101L154.01801597222223,158.19622206687927L154.17779895833334,153.63830614089966L154.49736493055556,157.6186327934265L154.65714791666664,162.13078427314758L155.2962798611111,165.7154517173767L155.45606284722223,162.39844727516174L155.61584583333334,155.49967336654663L155.93541180555556,151.45119833946228L156.21023854166668,152.24495577812195L156.37002152777777,155.93683528900146L156.52980451388888,160.47745513916016L156.6895875,151.75603675842285L156.84937048611113,155.57457494735718L157.00915347222224,164.93912148475647L157.32871944444443,155.92466640472412L157.48850243055557,156.20924520492554L157.64828541666668,162.67664003372192L157.8080684027778,159.37019157409668L157.96785138888887,158.12155652046204L158.12763437499999,161.72153997421265L158.28741736111112,159.4903199672699L158.44720034722224,166.19043159484863L158.60698333333332,162.14830327033997L159.08633229166668,158.7655370235443L159.40589826388887,173.30223965644836L159.56568124999998,149.7696499824524L159.88524722222223,157.08884048461914L160.20481319444443,157.63657140731812L160.36459618055554,163.94603300094604L160.52437916666668,151.93227577209473L160.6841621527778,145.50231862068176L160.8439451388889,156.0425524711609L161.16351111111112,154.19454741477966L161.32329409722223,153.94326257705688L161.96242604166667,157.48592901229858L162.12220902777779,168.19101977348328L162.2819920138889,167.21229004859924L162.44177499999998,151.22843432426453L162.92112395833334,158.16212821006775L163.08090694444445,158.60377478599548L163.40047291666667,145.58089184761047L163.56025590277778,160.01696515083313L164.0396048611111,161.16768527030945L164.19938784722223,146.68773579597473L164.35917083333334,159.43346190452576L164.51895381944445,156.87459993362427L164.67873680555556,164.92301869392395L164.83851979166667,152.15298104286194L164.99830277777778,158.9722113609314L165.1580857638889,161.92199873924255L165.31786875,152.2942214012146L165.47765173611108,150.74491786956787L165.63743472222222,165.2363543510437L165.79721770833333,157.48455214500427L166.11678368055556,160.99712419509888L166.55139340277776,161.31857681274414L166.71117638888887,162.79710936546326L167.03074236111112,162.2203724384308L167.19052534722223,150.44094491004944L167.35030833333332,163.25980234146118L167.66987430555557,161.38313221931458L167.82965729166668,152.0248668193817L168.14922326388887,163.80973625183105L168.30900625,156.6873459815979L168.62857222222223,154.07041954994202L168.94813819444443,165.71774649620056L169.4274871527778,161.46385598182678L169.58727013888887,153.33104181289673L170.06661909722223,159.8787932395935L170.38618506944442,150.84709453582764L170.54596805555556,164.42401576042175L170.70575104166667,153.0203287601471L171.0253170138889,166.46685409545898L171.18509999999998,156.61058235168457L171.34488298611112,162.5653760433197L171.82423194444442,166.92738342285156L171.98401493055556,160.09691524505615L172.30358090277778,149.21409058570862L172.62314687499997,157.48830246925354L172.7829298611111,163.75548768043518L173.26227881944445,169.62197828292847L173.58184479166667,152.21105861663818L173.74162777777778,163.4009246826172L174.2209767361111,157.57189798355103L174.38075972222222,162.3014109134674L174.54054270833333,155.71647095680237L174.70032569444444,154.46442651748657L174.86010868055556,157.2812740802765L175.01989166666667,159.8150508403778L175.17967465277778,158.70225358009338L175.3394576388889,148.89627027511597L175.499240625,164.00038647651672L175.65902361111114,172.76865768432617L175.81880659722222,166.1066131591797L176.13837256944444,156.65224242210388L176.29815555555555,157.07440304756165L176.61772152777777,156.23880195617676L177.05233125,163.67910432815552L177.21211423611112,166.72000098228455L177.69146319444445,167.95848655700684L177.85124618055556,162.70088601112366L178.17081215277778,162.09919500350952L178.33059513888887,159.9211220741272L178.490378125,162.32047724723816L178.65016111111112,165.5508964061737L178.80994409722223,156.9704692363739L179.12951006944445,153.44045686721802L179.28929305555556,151.75126361846924L179.60885902777778,155.01062321662903L179.76864201388886,163.88297247886658L180.08820798611112,164.5036118030548L180.24799097222223,170.5802516937256L180.40777395833334,165.41921544075012L180.56755694444442,167.39305305480957L180.72733993055556,162.9102747440338L180.88712291666667,158.72326064109802L181.2066888888889,163.28688073158264L181.84582083333333,154.69061303138733L182.00560381944442,159.88237309455872L182.16538680555556,156.26765060424805L182.32516979166667,166.05804252624512L182.48495277777778,159.56506419181824L182.6447357638889,163.59035539627075L182.80451875000003,157.66691493988037L182.9643017361111,158.52024483680725L183.12408472222222,165.82594203948975L183.76321666666666,155.70320057868958L183.92299965277778,166.96804690361023L184.0827826388889,161.58248949050903L184.242565625,154.58421397209167L184.72191458333333,171.58247995376587L184.88169756944444,159.55420660972595L185.04148055555558,164.4185607433319L185.36104652777777,166.4170377254486L185.52082951388888,162.07734870910645L185.84039548611113,158.52972555160522L186.15996145833333,159.23409152030945L186.31974444444444,159.83961153030396L186.47952743055558,167.20964121818542L186.95887638888888,160.72948741912842L187.233703125,160.79189229011536L187.39348611111112,162.1471230983734L187.55326909722223,149.17530226707458L187.7130520833333,154.5129578113556L187.87283506944445,162.98082280158997L188.03261805555556,159.6842746734619L188.35218402777778,170.05188870429993L188.5119670138889,166.13231468200684L188.99131597222222,165.51306533813477L189.79023090277778,159.81482791900635L190.109796875,144.59454345703125L190.2695798611111,162.73631739616394L190.42936284722222,156.75388145446777L190.58914583333333,162.22685027122498L190.74892881944444,159.4726436138153L190.90871180555555,163.65477967262268L191.3880607638889,152.08133149147034L191.54784375,159.22299790382385L191.7076267361111,157.6785593032837L191.86740972222222,153.47839283943176L192.02719270833333,166.3565604686737L192.34675868055555,157.40068125724792L192.66632465277777,160.99802899360657L192.82610763888889,160.79024004936218L192.98589062500002,162.59328055381775L193.30545659722222,167.49398398399353L193.46523958333333,160.18115329742432L193.62502256944447,156.41260194778442L193.78480555555555,158.25660753250122L193.94458854166666,155.41329789161682L194.10437152777777,167.56284046173096L194.26415451388888,155.3142683506012L194.42393750000002,163.81390619277954L194.5837204861111,162.22801733016968L194.74350347222222,158.82788944244385L195.38263541666666,159.97129249572754L195.70220138888888,162.90026950836182L195.86198437500002,157.50780153274536L196.02176736111113,144.61994338035583L196.1815503472222,162.35463666915894L196.34133333333332,174.8350863456726L196.82068229166669,168.41712760925293L197.14024826388888,163.3019082546234L197.89442395833333,159.92878007888794L198.21398993055556,162.21242594718933L198.37377291666667,160.3875653743744L198.6933388888889,161.6121642589569L199.33247083333336,161.10913562774658L199.49225381944444,154.21610522270203L199.65203680555555,164.48066401481628L199.81181979166666,164.23250007629395L199.97160277777778,160.37514734268188L200.61073472222222,161.7492871284485L200.93030069444444,159.81299209594727L201.09008368055555,154.77199244499207L201.40964965277777,165.61874318122864L201.5694326388889,156.0028200149536L202.04878159722222,165.35121130943298L202.20856458333333,172.6000635623932L202.36834756944447,162.6747124195099L202.68791354166666,166.8546586036682L203.0074795138889,162.30176496505737L203.16726250000002,156.24527978897095L203.3270454861111,159.6349172592163L203.64661145833333,150.52158999443054L203.80639444444446,156.79395484924316L204.12596041666666,159.65981888771057L204.28574340277777,163.64678072929382L204.44552638888888,164.34422302246094L204.7650923611111,163.43201565742493L204.9248753472222,170.86547303199768L205.08465833333332,165.94635891914368L205.24444131944446,157.21372890472412L205.40422430555557,156.14959406852722L205.56400729166666,152.04107451438904L206.04335625000002,159.60335421562195L206.20313923611113,161.15861105918884L206.52270520833332,158.9490406513214L206.68248819444446,167.7204065322876L206.84227118055557,165.0004642009735L207.00205416666668,159.4937162399292L207.32162013888887,154.33446335792542L207.481403125,166.2873237133026L207.64118611111113,158.4823875427246L207.91601284722222,169.67680382728577L208.39536180555555,172.48216438293457L208.55514479166666,166.43341588974L208.7149277777778,167.66618418693542L209.51384270833336,171.01565647125244L209.83340868055555,161.29206228256226L210.1529746527778,165.8157925605774L210.3127576388889,156.1369662284851L210.472540625,162.38151836395264L210.95188958333335,156.27664613723755L211.11167256944444,161.40013980865479L211.27145555555555,153.5606245994568L211.43123854166666,163.7771110534668L211.59102152777777,157.8735761642456L211.7508045138889,167.74470496177673L211.9105875,163.2963089942932L212.0703704861111,149.3006627559662L212.38993645833335,153.3326416015625L212.54971944444446,152.02396202087402L212.86928541666666,166.00204992294312L213.02906840277777,173.27548909187317L213.1888513888889,162.43909764289856L213.34863437500002,154.24300003051758L213.82798333333335,171.76031875610352L213.98776631944446,168.1915442943573L214.30733229166665,153.01503109931946L214.46711527777776,158.5994212627411L214.6268982638889,161.66415739059448L214.78668125000002,153.10068535804749L214.9464642361111,166.15005660057068L215.1062472222222,171.11214208602905L215.26603020833332,160.73864030838013L215.42581319444446,172.1449236869812L215.58559618055557,166.63131761550903L215.74537916666665,160.99703240394592L216.0649451388889,156.85819554328918L216.224728125,159.8430471420288L216.5442940972222,160.86908864974976L216.70407708333332,165.80831813812256L217.02364305555557,165.40121126174927L217.18342604166665,155.82875776290894L217.5029920138889,175.26950764656067L217.662775,164.57511711120605L217.82255798611112,160.6315462589264L217.9823409722222,159.33586168289185L218.25716770833333,165.0583188533783L218.41695069444444,160.126944065094L218.73651666666666,155.93527483940125L219.05608263888888,171.69687795639038L219.3756486111111,154.6901671886444L219.53543159722224,156.56257557868958L219.85499756944444,156.67631793022156L220.01478055555555,158.64303517341614L220.17456354166666,163.2615201473236L220.3343465277778,167.10228490829468L220.4941295138889,152.32425022125244L220.6539125,172.741553068161L220.8136954861111,163.51772236824036L221.45282743055554,167.39859986305237L221.61261041666666,164.10681176185608L221.7723934027778,171.4925901889801L222.091959375,159.5328323841095L222.2517423611111,152.93586778640747L222.4115253472222,166.16579222679138L222.73109131944446,172.24033403396606L223.05065729166665,163.3003215789795L223.3702232638889,165.41680264472961L223.6897892361111,164.9754183292389L224.00935520833335,165.6448380947113L224.16913819444446,167.64702606201172L224.32892118055554,162.0865409374237L224.48870416666665,156.93107771873474L224.8082701388889,154.38042449951172L224.968053125,161.24665188789368L225.1278361111111,158.9300661087036L225.2876190972222,167.98767614364624L225.44740208333334,157.7869908809662L225.60718506944445,163.890132188797L226.08653402777776,164.4554738998413L226.2463170138889,168.07898211479187L226.7256659722222,166.71033668518066L226.88544895833334,173.76329350471497L227.04523194444445,167.31462407112122L227.36479791666665,165.61971354484558L227.52458090277776,157.74400639533997L228.00392986111112,168.18223404884338L228.1637128472222,155.17843055725098L228.32349583333334,169.69753551483154L228.75810555555555,160.1967577934265L228.91788854166668,160.3708987236023L229.3972375,167.79934692382812L229.5570204861111,168.1632595062256L229.71680347222224,159.5756595134735L230.03636944444443,161.3413541316986L230.5157184027778,170.3030948638916L230.6755013888889,158.85330247879028L231.15485034722224,158.3277850151062L231.31463333333335,151.4830367565155L231.47441631944443,162.79780435562134L232.1135482638889,159.50554418563843L232.4331142361111,157.4450557231903L232.59289722222223,174.65643453598022L232.75268020833335,167.15894627571106L232.91246319444446,160.7538251876831L233.07224618055554,167.02515411376953L233.23202916666665,158.00457525253296L233.3918121527778,159.45424604415894L233.8711611111111,162.49331998825073L234.03094409722223,166.9404833316803L234.19072708333334,157.1787564754486L234.35051006944445,164.2494421005249L234.67007604166665,171.37939858436584L234.9896420138889,157.2421579360962L235.149425,166.1786561012268L235.62877395833334,162.05222415924072L235.78855694444445,160.63216257095337L236.10812291666664,154.55436873435974L236.26790590277778,161.96398663520813L236.4276888888889,159.84684991836548L236.587471875,175.29784488677979L236.74725486111112,163.67718982696533L236.9070378472222,163.7436990737915L237.38638680555556,168.18844962120056L237.54616979166664,170.92324900627136L238.18530173611111,174.34480357170105L238.3450847222222,152.0011191368103L238.50486770833334,162.0279257297516L238.66465069444445,159.0316002368927L238.93947743055554,162.67669248580933L239.2590434027778,160.911456823349L239.41882638888887,165.24894285202026L239.73839236111112,163.83686709403992L239.89817534722224,163.259907245636L240.21774131944443,157.9654722213745L240.53730729166668,169.64681434631348L240.6970902777778,169.9562554359436L240.8568732638889,156.03865790367126L241.01665624999998,165.32170701026917L241.33622222222223,151.7749457359314L241.49600520833334,164.1036515235901L241.81557118055554,159.18688464164734L241.97535416666668,166.6160671710968L242.2949201388889,154.11189603805542L242.45470312499998,160.44951128959656L242.77426909722223,154.88750505447388L242.93405208333334,159.92015171051025L243.09383506944445,164.4700162410736L243.25361805555553,167.2672073841095L243.7329670138889,162.59708333015442L244.0525329861111,170.70098328590393L244.21231597222223,165.44452357292175L244.37209895833334,164.8544638156891L244.53188194444445,165.05591917037964L245.01123090277778,162.5465850830078L245.1710138888889,159.81337237358093L245.330796875,169.34261846542358L245.65036284722223,169.70205950737L245.81014583333334,154.009863615036L245.96992881944445,164.6654133796692L246.12971180555556,163.02239108085632L246.28949479166664,164.33072972297668L246.6090607638889,172.59746718406677L247.40797569444445,156.2903230190277L247.72754166666664,165.00671911239624L248.68623958333333,154.80565357208252L248.84602256944444,161.0009400844574L249.28063229166668,163.41563749313354L249.4404152777778,164.3434886932373L249.75998124999998,167.35906410217285L249.91976423611112,160.87607789039612L250.39911319444442,165.73348212242126L250.55889618055556,159.6248333454132L250.8784621527778,166.4629726409912L251.0382451388889,172.33552145957947L251.19802812499998,159.26585125923157L251.35781111111112,158.23327946662903L251.51759409722223,158.9452247619629L251.83716006944442,161.2541000843048L252.15672604166667,170.0894706249237L252.31650902777778,154.62789344787598L252.4762920138889,156.72052192687988L252.63607499999998,165.73021697998047L252.79585798611112,157.32299971580505L252.95564097222223,166.96639466285706L253.11542395833334,165.87939071655273L253.75455590277778,174.24042391777039L253.9143388888889,163.7961118221283L254.074121875,161.47948670387268L254.2339048611111,159.02593541145325L254.39368784722222,159.5912115573883L254.87303680555553,170.5671124458313L255.03281979166667,164.7281460762024L255.19260277777778,162.62430596351624L255.83173472222222,153.4538059234619L255.99151770833333,170.36290335655212L256.15130069444444,171.66564273834229L256.6306496527778,167.98160481452942L256.7904326388889,173.5031180381775L257.1099986111111,162.21654343605042L257.2697815972222,160.97914624214172L257.58934756944444,150.9915738105774L257.74913055555555,161.0559754371643L258.0686965277778,165.4902617931366L258.2284795138889,167.55321550369263L258.5480454861111,162.11239981651306L258.7078284722222,163.2243971824646L258.86761145833333,162.6648907661438L259.02739444444444,158.5605149269104L259.18717743055555,149.43410086631775L259.34696041666666,164.41896724700928L260.4207020833333,164.11435174942017L260.90005104166664,159.63765788078308L261.05983402777775,159.8461811542511L261.37940000000003,167.2886209487915L261.6989659722222,164.99767112731934L261.8587489583333,167.87489104270935L262.3380979166667,166.83723139762878L262.49788090277775,168.94534635543823L262.65766388888886,162.5007026195526L262.817446875,158.69333672523499L263.2967958333333,162.3111538887024L263.4565788194444,175.6809549331665L263.6163618055556,167.64035153388977L263.7761447916667,157.01312589645386L264.09571076388886,169.27679109573364L264.41527673611114,168.83085656166077L264.57505972222225,165.77318835258484L264.7348427083333,159.32246017456055L264.8946256944444,161.4308898448944L265.3739746527778,167.01777148246765L265.69354062499997,168.70668935775757L265.85332361111114,170.35183596611023L266.01310659722225,157.45009112358093L266.17288958333336,168.5418848991394L266.3326725694444,159.7430865764618L266.4924555555555,156.69925260543823L266.6522385416667,179.07224464416504L266.9718045138889,159.02421760559082L267.13158749999997,160.56198167800903L267.29137048611113,166.21900486946106L267.45115347222225,168.29179334640503L267.61093645833336,156.39884638786316L267.7707194444444,167.23181533813477L267.9305024305555,165.59368419647217L268.0902854166667,163.0687849521637L268.2500684027778,157.74874019622803L268.4098513888889,165.06292152404785L268.56963437499996,159.72467589378357L269.5283322916667,163.22353172302246L269.9629420138889,164.39809131622314L270.122725,151.3405637741089L270.2825079861111,171.49640607833862L270.60207395833334,173.72193503379822L270.76185694444445,162.85775709152222L271.4009888888889,165.9166579246521L271.560771875,160.5099754333496L271.7205548611111,166.75777959823608L271.8803378472222,175.77302145957947L272.35968680555555,174.39796376228333L272.51946979166667,161.52455615997314L272.6792527777778,168.18548607826233L272.8390357638889,165.8721785545349L272.99881875,170.31142163276672L273.3183847222222,165.24451065063477L273.47816770833333,159.22573852539062L274.1172996527778,156.53467106819153L274.2770826388889,164.6922688484192" style="fill: none;" fill="none"></path></g></g></g></g></g></g><g transform="translate(42, 176)" clip-path="url(#clip_1)"><clipPath id="clip_1"><rect width="287" height="24"></rect></clipPath><g><g><line x1="0" y1="0" x2="0" y2="5" style="visibility: inherit;" fill="rgb(0, 0, 0)" stroke="rgb(204, 204, 204)" stroke-width="1px"></line><line x1="31.95659722222222" y1="0" x2="31.95659722222222" y2="5" style="visibility: inherit;" fill="rgb(0, 0, 0)" stroke="rgb(204, 204, 204)" stroke-width="1px"></line><line x1="63.91319444444444" y1="0" x2="63.91319444444444" y2="5" style="visibility: inherit;" fill="rgb(0, 0, 0)" stroke="rgb(204, 204, 204)" stroke-width="1px"></line><line x1="95.86979166666666" y1="0" x2="95.86979166666666" y2="5" style="visibility: inherit;" fill="rgb(0, 0, 0)" stroke="rgb(204, 204, 204)" stroke-width="1px"></line><line x1="127.82638888888889" y1="0" x2="127.82638888888889" y2="5" style="visibility: inherit;" fill="rgb(0, 0, 0)" stroke="rgb(204, 204, 204)" stroke-width="1px"></line><line x1="159.78298611111111" y1="0" x2="159.78298611111111" y2="5" style="visibility: inherit;" fill="rgb(0, 0, 0)" stroke="rgb(204, 204, 204)" stroke-width="1px"></line><line x1="191.73958333333331" y1="0" x2="191.73958333333331" y2="5" style="visibility: inherit;" fill="rgb(0, 0, 0)" stroke="rgb(204, 204, 204)" stroke-width="1px"></line><line x1="223.69618055555557" y1="0" x2="223.69618055555557" y2="5" style="visibility: inherit;" fill="rgb(0, 0, 0)" stroke="rgb(204, 204, 204)" stroke-width="1px"></line><line x1="255.65277777777777" y1="0" x2="255.65277777777777" y2="5" style="visibility: inherit;" fill="rgb(0, 0, 0)" stroke="rgb(204, 204, 204)" stroke-width="1px"></line><line x1="287.609375" y1="0" x2="287.609375" y2="5" style="visibility: inherit;" fill="rgb(0, 0, 0)" stroke="rgb(204, 204, 204)" stroke-width="1px"></line></g><g transform="translate(0, 8)"><text x="0" y="0" dx="0em" dy="0.95em" style="text-anchor: middle; visibility: hidden; font-family: Roboto, sans-serif; font-size: 12px; font-weight: 200;" fill="rgb(33, 33, 33)" stroke="none" stroke-width="1px">-10k</text><text x="31.95659722222222" y="0" dx="0em" dy="0.95em" style="text-anchor: middle; visibility: inherit; font-family: Roboto, sans-serif; font-size: 12px; font-weight: 200;" fill="rgb(33, 33, 33)" stroke="none" stroke-width="1px">0</text><text x="63.91319444444444" y="0" dx="0em" dy="0.95em" style="text-anchor: middle; visibility: inherit; font-family: Roboto, sans-serif; font-size: 12px; font-weight: 200;" fill="rgb(33, 33, 33)" stroke="none" stroke-width="1px">10k</text><text x="95.86979166666666" y="0" dx="0em" dy="0.95em" style="text-anchor: middle; visibility: inherit; font-family: Roboto, sans-serif; font-size: 12px; font-weight: 200;" fill="rgb(33, 33, 33)" stroke="none" stroke-width="1px">20k</text><text x="127.82638888888889" y="0" dx="0em" dy="0.95em" style="text-anchor: middle; visibility: inherit; font-family: Roboto, sans-serif; font-size: 12px; font-weight: 200;" fill="rgb(33, 33, 33)" stroke="none" stroke-width="1px">30k</text><text x="159.78298611111111" y="0" dx="0em" dy="0.95em" style="text-anchor: middle; visibility: inherit; font-family: Roboto, sans-serif; font-size: 12px; font-weight: 200;" fill="rgb(33, 33, 33)" stroke="none" stroke-width="1px">40k</text><text x="191.73958333333331" y="0" dx="0em" dy="0.95em" style="text-anchor: middle; visibility: inherit; font-family: Roboto, sans-serif; font-size: 12px; font-weight: 200;" fill="rgb(33, 33, 33)" stroke="none" stroke-width="1px">50k</text><text x="223.69618055555557" y="0" dx="0em" dy="0.95em" style="text-anchor: middle; visibility: inherit; font-family: Roboto, sans-serif; font-size: 12px; font-weight: 200;" fill="rgb(33, 33, 33)" stroke="none" stroke-width="1px">60k</text><text x="255.65277777777777" y="0" dx="0em" dy="0.95em" style="text-anchor: middle; visibility: inherit; font-family: Roboto, sans-serif; font-size: 12px; font-weight: 200;" fill="rgb(33, 33, 33)" stroke="none" stroke-width="1px">70k</text><text x="287.609375" y="0" dx="0em" dy="0.95em" style="text-anchor: middle; visibility: hidden; font-family: Roboto, sans-serif; font-size: 12px; font-weight: 200;" fill="rgb(33, 33, 33)" stroke="none" stroke-width="1px">80k</text></g><line x1="0" y1="0" x2="287.609375" y2="0" fill="rgb(0, 0, 0)" stroke="rgb(204, 204, 204)" stroke-width="1px"></line></g></g></g></g></svg>