<svg viewBox="0 0 330 200" xmlns="http://www.w3.org/2000/svg"><g><g><g><g><g><line x1="53.1875" y1="176" x2="48.1875" y2="176" style="visibility: inherit;" fill="rgb(0, 0, 0)" stroke="rgb(204, 204, 204)" stroke-width="1px"></line><line x1="53.1875" y1="156.44444444444443" x2="48.1875" y2="156.44444444444443" style="visibility: inherit;" fill="rgb(0, 0, 0)" stroke="rgb(204, 204, 204)" stroke-width="1px"></line><line x1="53.1875" y1="136.88888888888886" x2="48.1875" y2="136.88888888888886" style="visibility: inherit;" fill="rgb(0, 0, 0)" stroke="rgb(204, 204, 204)" stroke-width="1px"></line><line x1="53.1875" y1="117.33333333333333" x2="48.1875" y2="117.33333333333333" style="visibility: inherit;" fill="rgb(0, 0, 0)" stroke="rgb(204, 204, 204)" stroke-width="1px"></line><line x1="53.1875" y1="97.77777777777779" x2="48.1875" y2="97.77777777777779" style="visibility: inherit;" fill="rgb(0, 0, 0)" stroke="rgb(204, 204, 204)" stroke-width="1px"></line><line x1="53.1875" y1="78.22222222222221" x2="48.1875" y2="78.22222222222221" style="visibility: inherit;" fill="rgb(0, 0, 0)" stroke="rgb(204, 204, 204)" stroke-width="1px"></line><line x1="53.1875" y1="58.666666666666636" x2="48.1875" y2="58.666666666666636" style="visibility: inherit;" fill="rgb(0, 0, 0)" stroke="rgb(204, 204, 204)" stroke-width="1px"></line><line x1="53.1875" y1="39.11111111111111" x2="48.1875" y2="39.11111111111111" style="visibility: inherit;" fill="rgb(0, 0, 0)" stroke="rgb(204, 204, 204)" stroke-width="1px"></line><line x1="53.1875" y1="19.555555555555525" x2="48.1875" y2="19.555555555555525" style="visibility: inherit;" fill="rgb(0, 0, 0)" stroke="rgb(204, 204, 204)" stroke-width="1px"></line><line x1="53.1875" y1="0" x2="48.1875" y2="0" style="visibility: inherit;" fill="rgb(0, 0, 0)" stroke="rgb(204, 204, 204)" stroke-width="1px"></line></g><g transform="translate(43.1875, 0)"><text x="0" y="176" dx="0em" dy="0.3em" style="text-anchor: end; visibility: hidden; font-family: Roboto, sans-serif; font-size: 12px; font-weight: 200;" fill="rgb(33, 33, 33)" stroke="none" stroke-width="1px">0.15</text><text x="0" y="156.44444444444443" dx="0em" dy="0.3em" style="text-anchor: end; visibility: inherit; font-family: Roboto, sans-serif; font-size: 12px; font-weight: 200;" fill="rgb(33, 33, 33)" stroke="none" stroke-width="1px">0.2</text><text x="0" y="136.88888888888886" dx="0em" dy="0.3em" style="text-anchor: end; visibility: hidden; font-family: Roboto, sans-serif; font-size: 12px; font-weight: 200;" fill="rgb(33, 33, 33)" stroke="none" stroke-width="1px">0.25</text><text x="0" y="117.33333333333333" dx="0em" dy="0.3em" style="text-anchor: end; visibility: inherit; font-family: Roboto, sans-serif; font-size: 12px; font-weight: 200;" fill="rgb(33, 33, 33)" stroke="none" stroke-width="1px">0.3</text><text x="0" y="97.77777777777779" dx="0em" dy="0.3em" style="text-anchor: end; visibility: hidden; font-family: Roboto, sans-serif; font-size: 12px; font-weight: 200;" fill="rgb(33, 33, 33)" stroke="none" stroke-width="1px">0.35</text><text x="0" y="78.22222222222221" dx="0em" dy="0.3em" style="text-anchor: end; visibility: inherit; font-family: Roboto, sans-serif; font-size: 12px; font-weight: 200;" fill="rgb(33, 33, 33)" stroke="none" stroke-width="1px">0.4</text><text x="0" y="58.666666666666636" dx="0em" dy="0.3em" style="text-anchor: end; visibility: hidden; font-family: Roboto, sans-serif; font-size: 12px; font-weight: 200;" fill="rgb(33, 33, 33)" stroke="none" stroke-width="1px">0.45</text><text x="0" y="39.11111111111111" dx="0em" dy="0.3em" style="text-anchor: end; visibility: inherit; font-family: Roboto, sans-serif; font-size: 12px; font-weight: 200;" fill="rgb(33, 33, 33)" stroke="none" stroke-width="1px">0.5</text><text x="0" y="19.555555555555525" dx="0em" dy="0.3em" style="text-anchor: end; visibility: hidden; font-family: Roboto, sans-serif; font-size: 12px; font-weight: 200;" fill="rgb(33, 33, 33)" stroke="none" stroke-width="1px">0.55</text><text x="0" y="0" dx="0em" dy="0.3em" style="text-anchor: end; visibility: hidden; font-family: Roboto, sans-serif; font-size: 12px; font-weight: 200;" fill="rgb(33, 33, 33)" stroke="none" stroke-width="1px">0.6</text></g><line x1="53.1875" y1="0" x2="53.1875" y2="176" fill="rgb(0, 0, 0)" stroke="rgb(204, 204, 204)" stroke-width="1px"></line></g></g><g transform="translate(53, 0)" clip-path="url(#clip_0)"><clipPath id="clip_0"><rect width="276" height="176"></rect></clipPath><g><g><g><line x1="0" y1="0" x2="0" y2="176" fill="rgb(0, 0, 0)" stroke="rgb(66, 66, 66)" stroke-width="1px" opacity="0.25"></line><line x1="30.756944444444443" y1="0" x2="30.756944444444443" y2="176" fill="rgb(0, 0, 0)" stroke="rgb(66, 66, 66)" stroke-width="1px" opacity="0.25"></line><line x1="61.513888888888886" y1="0" x2="61.513888888888886" y2="176" fill="rgb(0, 0, 0)" stroke="rgb(66, 66, 66)" stroke-width="1px" opacity="0.25"></line><line x1="92.27083333333333" y1="0" x2="92.27083333333333" y2="176" fill="rgb(0, 0, 0)" stroke="rgb(66, 66, 66)" stroke-width="1px" opacity="0.25"></line><line x1="123.02777777777777" y1="0" x2="123.02777777777777" y2="176" fill="rgb(0, 0, 0)" stroke="rgb(66, 66, 66)" stroke-width="1px" opacity="0.25"></line><line x1="153.78472222222223" y1="0" x2="153.78472222222223" y2="176" fill="rgb(0, 0, 0)" stroke="rgb(66, 66, 66)" stroke-width="1px" opacity="0.25"></line><line x1="184.54166666666666" y1="0" x2="184.54166666666666" y2="176" fill="rgb(0, 0, 0)" stroke="rgb(66, 66, 66)" stroke-width="1px" opacity="0.25"></line><line x1="215.29861111111111" y1="0" x2="215.29861111111111" y2="176" fill="rgb(0, 0, 0)" stroke="rgb(66, 66, 66)" stroke-width="1px" opacity="0.25"></line><line x1="246.05555555555554" y1="0" x2="246.05555555555554" y2="176" fill="rgb(0, 0, 0)" stroke="rgb(66, 66, 66)" stroke-width="1px" opacity="0.25"></line><line x1="276.8125" y1="0" x2="276.8125" y2="176" fill="rgb(0, 0, 0)" stroke="rgb(66, 66, 66)" stroke-width="1px" opacity="0.25"></line></g><g><line x1="0" y1="176" x2="276.8125" y2="176" fill="rgb(0, 0, 0)" stroke="rgb(66, 66, 66)" stroke-width="1px" opacity="0.25"></line><line x1="0" y1="156.44444444444443" x2="276.8125" y2="156.44444444444443" fill="rgb(0, 0, 0)" stroke="rgb(66, 66, 66)" stroke-width="1px" opacity="0.25"></line><line x1="0" y1="136.88888888888886" x2="276.8125" y2="136.88888888888886" fill="rgb(0, 0, 0)" stroke="rgb(66, 66, 66)" stroke-width="1px" opacity="0.25"></line><line x1="0" y1="117.33333333333333" x2="276.8125" y2="117.33333333333333" fill="rgb(0, 0, 0)" stroke="rgb(66, 66, 66)" stroke-width="1px" opacity="0.25"></line><line x1="0" y1="97.77777777777779" x2="276.8125" y2="97.77777777777779" fill="rgb(0, 0, 0)" stroke="rgb(66, 66, 66)" stroke-width="1px" opacity="0.25"></line><line x1="0" y1="78.22222222222221" x2="276.8125" y2="78.22222222222221" fill="rgb(0, 0, 0)" stroke="rgb(66, 66, 66)" stroke-width="1px" opacity="0.25"></line><line x1="0" y1="58.666666666666636" x2="276.8125" y2="58.666666666666636" fill="rgb(0, 0, 0)" stroke="rgb(66, 66, 66)" stroke-width="1px" opacity="0.25"></line><line x1="0" y1="39.11111111111111" x2="276.8125" y2="39.11111111111111" fill="rgb(0, 0, 0)" stroke="rgb(66, 66, 66)" stroke-width="1px" opacity="0.25"></line><line x1="0" y1="19.555555555555525" x2="276.8125" y2="19.555555555555525" fill="rgb(0, 0, 0)" stroke="rgb(66, 66, 66)" stroke-width="1px" opacity="0.25"></line><line x1="0" y1="0" x2="276.8125" y2="0" fill="rgb(0, 0, 0)" stroke="rgb(66, 66, 66)" stroke-width="1px" opacity="0.25"></line></g></g></g><g><g><line x1="0" y1="234.66666666666669" x2="276.8125" y2="234.66666666666669" fill="rgb(0, 0, 0)" stroke="rgb(153, 153, 153)" stroke-width="1.5px"></line></g></g><g><g><line x1="30.756944444444443" y1="0" x2="30.756944444444443" y2="176" fill="rgb(0, 0, 0)" stroke="rgb(153, 153, 153)" stroke-width="1.5px"></line></g></g><g><g><g><g><g><path stroke="rgb(255, 112, 67)" stroke-width="2px" d="M32.60236111111111,-1.6290822153457754L33.06371527777778,1.8603615183948126L33.2175,5.492963584519261L33.37128472222222,5.003921018658163L33.67885416666667,5.422884541065441L33.83263888888889,5.960286885108173L33.986423611111114,1.9920799060504226L34.29399305555556,1.7816568388564544L34.44777777777778,-0.4577888987312946L35.370486111111106,-0.4938822035360282L35.52427083333333,2.173162110142604L35.985625,5.702439823038937L36.139409722222226,1.9869096115062153L36.446979166666665,2.843536334569734L36.600763888888885,4.341523185884137L36.75454861111111,3.1371952030318457L36.90833333333333,5.617176664985632L37.06211805555556,4.78135115047643L38.13861111111111,10.563452472106404L38.29239583333334,13.339681121634829L38.44618055555556,16.935953293977725L38.599965277777784,14.750328332526164L38.753750000000004,15.449327982338586L38.907534722222216,14.945869348369806L39.06131944444444,15.631767742768728L39.21510416666666,15.347069402702834L39.36888888888889,13.351104237679401L39.676458333333336,11.244803222389335L40.137812499999995,12.255317165321706L40.29159722222222,13.842680048823297L40.44538194444444,17.787617583178456L40.59916666666667,21.746680457053817L41.01746111111111,20.445175564187537L41.17124583333333,22.746450533675684L41.32503055555556,19.510014450775365L41.47881527777778,21.18922112045525L41.78638472222222,22.165684161591905L41.94016944444445,21.02546403152622L42.24773888888889,22.96455176151568L42.555308333333336,22.155460894951908L42.86287777777778,22.831356201418878L43.0166625,19.878663642169457L43.170447222222215,22.89811968053617L43.32423194444444,21.267546972435593L43.63180138888889,24.671279187154155L43.78558611111111,25.42967791268356L44.093155555555555,24.317663247175673L44.24694027777778,25.03063904531078L44.400724999999994,29.098394243973004L44.70829444444444,27.27262721071742L44.86207916666667,30.18227783738979L45.63100277777777,30.609688493340983L46.24614166666667,32.927040343454735L46.39992638888889,32.93169061639183L46.86128055555555,32.944980522450145L47.01506527777777,28.700922504008233L47.32263472222222,31.692159947717442L47.476419444444446,36.93236580641259L47.630204166666665,37.30191843268653L47.78398888888889,35.191802711630125L47.93777361111111,34.01838464618378L48.09155833333333,34.99183082297502L48.24534305555555,34.132379784475084L48.5529125,36.14304879828374L48.706697222222225,36.65529695068251L48.860481944444444,34.11262787065904L49.47562083333333,39.121950399967034L49.62940555555556,40.988359177697234L50.24454444444445,39.63458265207187L50.39832916666666,44.098922130848166L50.81662361111111,46.098884392875235L50.97040833333334,50.24172690986794L51.12419305555556,47.259295314757594L51.27797777777778,48.37294982882849L51.4317625,46.424795118380004L51.739331944444444,48.65337552141316L52.04690138888889,51.75133800612588L52.20068611111111,52.54198118909222L52.35447083333333,51.568493665440975L52.50825555555555,49.700145593660174L53.12339444444444,50.89044614118961L53.27717916666667,47.78428684297115L53.43096388888889,48.080521599190895L53.58474861111111,52.421503521444876L53.73853333333333,53.32823492401057L54.1998875,56.295728050217974L54.81502638888889,53.09384909887534L55.122595833333335,53.30610897579113L55.276380555555555,54.72156228353239L55.58395,56.5715081980274L55.73773472222223,53.14025328036158L56.04530416666666,55.04120398712426L56.19908888888889,60.69451889089109L56.35287361111111,56.323804043546126L56.660443055555554,59.99827853344107L56.9680125,61.133257688098475L57.27558194444444,61.284259964964136L57.42936666666667,60.604715490968495L57.583151388888886,58.209054694022306L57.89072083333333,60.96114397770893L58.04450555555556,61.90731560822364L58.19829027777778,62.19085415782156L58.352075,57.10580031953561L58.50585972222222,59.41773518982251L58.813429166666666,59.16978970737222L58.96721388888889,62.62466265634606L59.12099861111111,63.23791710064355L59.27478333333334,65.2071923651496L59.42856805555556,63.34256408309801L59.58235277777777,65.60524963489028L59.7361375,70.02383890175662L60.197491666666664,64.98415968803205L60.35127638888889,66.83331892615476L60.50506111111111,68.72427597279898L60.76957083333333,68.37704842601879L61.230925,72.93318909792899L61.692279166666665,69.85044987300978L61.846063888888885,71.55485254506235L61.99984861111111,72.1896470956138L62.30741805555556,70.69847852090453L62.46120277777778,72.61597389571868L62.614987500000005,73.25001154961654L62.76877222222222,69.53001901812169L63.076341666666664,73.5531004374301L63.23012638888889,72.86089985732025L63.38391111111111,68.71991939708529L63.69148055555556,70.40308073777918L63.99905,71.30104245647499L64.30661944444444,72.77723386893165L64.46040416666666,70.28946823748312L64.76797361111112,72.85484269582646L64.92175833333333,74.93462692758158L65.07554305555556,74.99482368598144L65.22932777777777,74.27358954782477L65.3831125,73.60583107651387L65.69068194444445,74.38186047926877L65.84446666666666,73.2156960130387L65.99825138888889,77.46550684800333L66.45960555555556,76.3553286517165L66.767175,76.9478200615811L66.92095972222222,77.65322861057065L67.22852916666668,80.29043671875124L67.38231388888889,78.5825890067553L67.53609861111111,76.23074465771529L67.68988333333333,78.16806274786269L67.84366805555555,78.19866344081828L67.99745277777778,77.59081586912423L68.30502222222222,81.02059856417202L68.45880694444445,74.76824852245502L68.76637638888889,76.5633739893682L68.92016111111111,79.273485565089L69.07394583333333,80.74049446947873L69.22773055555557,81.30612249752383L69.38151527777778,80.3956010396113L69.53529999999999,82.77166670490286L69.99665416666667,82.65418434233189L70.15043888888889,81.20851775329409L70.30422361111111,84.45406081338052L70.45800833333334,84.3573218097514L70.87630277777778,80.81926657353527L71.0300875,79.95208978014006L71.18387222222223,79.26125613994816L71.33765694444445,79.04159797650362L71.64522638888889,79.8277192703857L71.79901111111111,82.38197303697642L72.56793472222222,85.27275461618541L72.87550416666666,86.04369969896472L73.0292888888889,85.48056501387752L73.49064305555555,85.84930939949406L73.64442777777776,86.06030805858751L73.7982125,89.62638411493765L74.10578194444444,92.00512268155481L74.25956666666666,90.5479113062799L74.4133513888889,89.97613278365944L74.56713611111111,90.14924549661167L74.72092083333334,89.82266565191665L74.87470555555555,84.62445308648961L75.02849027777778,88.0886121968102L75.182275,89.50700863346157L75.48984444444444,89.10412456280804L75.64362916666667,85.34490119032154L75.95119861111111,86.51450246142599L76.10498333333332,87.03743191169715L76.72012222222222,90.90583723946622L76.87390694444446,88.6950713710506L77.02769166666667,88.42930495506309L77.1814763888889,92.66920915305089L77.33526111111111,91.82120339574762L77.48904583333332,90.29649392533376L78.10418472222221,89.35649124113233L78.25796944444446,91.53402736051056L78.41175416666667,96.3778525328428L78.56553888888888,95.74376694640922L78.71932361111111,94.5445361789946L78.87310833333333,94.29436697106863L79.18067777777777,96.36334308642265L79.3344625,96.43063190640544L79.48824722222223,93.22033720251841L79.64203194444444,96.21372324978795L79.79581666666667,96.99493986553574L79.94960138888888,96.13101382234336L80.25717083333333,95.15537390484265L80.41095555555556,94.77800793936827L80.67546527777777,99.24532284698142L80.82925,96.22207180741844L80.98303472222223,98.9288104062284L81.29060416666667,97.94209637353846L81.75195833333333,93.53033444019837L82.05952777777777,96.72187065720172L82.2133125,98.5991201326294L82.36709722222223,99.24176832388105L82.52088194444444,99.26106449706843L82.67466666666667,101.53825999544159L83.28980555555555,102.38609890091077L83.44359027777779,101.175977645668L83.75115972222223,102.68496992887216L84.05872916666667,100.64299159070548L84.21251388888889,101.10960120849228L84.3662986111111,97.0568846874977L84.52008333333333,99.51324848149818L84.67386805555556,100.73778646411594L84.9814375,102.19160639113774L85.13522222222223,101.25873061935062L85.28900694444445,102.431411348634L85.59657638888889,101.6316077514276L85.7503611111111,101.03603260672134L85.90414583333333,100.6739924752741L86.05793055555556,103.81794478122565L86.3655,103.73366093544004L86.51928472222221,103.2263331884613L86.82685416666666,102.73330018434415L86.98063888888889,100.80516209709737L87.1344236111111,99.6559116062673L87.28820833333334,101.62909968796285L87.44199305555556,101.65419439800992L87.59577777777777,100.13012514575041L87.7495625,98.86401682600274L87.90334722222222,101.84497827526202L88.05713194444445,104.13400400752919L88.21091666666666,101.2816461653682L88.82605555555556,103.77123803152344L88.97984027777777,101.23102200050043L89.13362500000001,97.6482715051505L89.44119444444445,98.00498708996638L89.59497916666666,101.15750826214497L90.21011805555555,104.07713316502355L90.62841250000001,103.34084217521855L90.78219722222222,103.34409906530364L90.93598194444444,102.60519660484516L91.39733611111112,105.36901819755336L91.55112083333333,107.43773824668413L91.70490555555556,103.38793472996576L91.85869027777778,104.53511247168714L92.012475,102.2125340900001L92.16625972222222,102.3771171133425L92.32004444444443,101.35314048691825L92.47382916666668,105.4823814234986L92.62761388888889,106.17608411058245L92.78139861111111,101.81452201108145L92.93518333333333,100.89361017591429L93.08896805555557,106.2586469642454L93.24275277777778,106.29448473141724L93.3965375,109.53082012148381L93.70410694444443,108.62261737128438L94.01167638888889,108.12915471571225L94.16546111111111,108.06592709117322L94.31924583333333,106.9258765807673L94.47303055555555,108.22730464854718L94.93438472222222,108.1324354251689L95.08816944444445,108.95131455371244L95.24195416666667,109.26392261623353L95.39573888888889,110.15262965887857L95.85709305555555,110.02144212773817L96.01087777777778,107.50833265335187L96.31844722222223,110.35744972967932L96.47223194444445,108.89948528309297L96.93358611111111,108.27439253839962L97.08737083333334,112.00242357506885L97.24115555555555,111.1688648472169L97.548725,110.13151300012701L97.70250972222223,112.18086668950764L97.85629444444444,113.67937860881095L98.31764861111111,111.21689908368933L98.47143333333334,108.26274756721122L98.62521805555555,110.61330777087686L98.77900277777778,111.1619983004927L98.9327875,108.9723468210074L99.08657222222223,109.41693639935356L99.24035694444444,110.56954296008198L99.39414166666666,111.12773872228396L99.70171111111111,111.60581074774757L99.85549583333334,114.42806198304523L100.00928055555555,113.77360600560947L100.16306527777779,113.11296519502693L100.88892916666667,113.72059758489809L101.0427138888889,111.73557993562311L101.19649861111111,111.20661726204659L101.35028333333332,112.24255479936664L101.50406805555556,111.0734683315514L101.8116375,111.36797202405019L102.11920694444446,111.51688628924565L102.42677638888888,113.5252399244534L102.58056111111111,115.02718220676081L102.73434583333332,116.7287384554584L103.04191527777778,116.05311526565785L103.1957,113.53307833365686L103.34948472222221,112.34307935425227L103.65705416666667,115.07762521061449L103.96462361111111,116.60261311397176L104.11840833333333,117.30110228882032L104.42597777777777,116.00201460747732L104.5797625,116.40822628157622L104.73354722222223,118.22681671987348L105.19490138888888,120.19328675501436L105.34868611111112,120.84002244770261L105.50247083333333,117.86268198668796L105.65625555555556,119.33356632498804L105.81004027777777,120.64373763095745L105.96382499999999,119.65788767948592L106.11760972222223,120.47746474473583L106.42517916666667,109.44379026516289L106.57896388888888,111.45141777821121L106.73274861111112,114.55149150215895L106.88653333333333,115.75294732710373L107.04031805555556,117.26652805338028L107.19410277777777,115.04019569487537L107.65545694444444,114.8373706924786L107.80924166666667,115.9604453172341L108.11681111111112,114.74771206203098L108.27059583333333,118.78599465529587L108.42438055555554,115.23426116424415L108.73195,117.85637794352803L108.88573472222222,117.24112779150744L109.03951944444444,117.88621457434563L109.5008736111111,116.81010983795045L109.65465833333333,115.9358538056023L109.80844305555556,118.44690063649725L109.96222777777778,118.20377372336971L110.1160125,118.72170321921062L110.26979722222222,117.76022504635387L110.53430694444445,118.78495447225674L110.68809166666666,120.55210154552309L110.84187638888889,119.3703824279649L111.14944583333335,118.8191454859673L111.30323055555556,113.55213504413027L111.45701527777778,117.38307868137184L111.6108,120.87204149050713L111.76458472222221,120.28262778397985L111.91836944444445,120.09375371303113L112.22593888888889,120.8685946384361L112.68729305555556,120.65441483970226L113.30243194444445,119.55654576118896L113.76378611111112,121.56528570934468L113.91757083333333,122.38845002396835L114.07135555555556,121.87194890028596L114.22514027777777,121.72644938642266L114.37892500000001,119.3338174942668L114.53270972222222,118.92842999240968L114.68649444444445,118.88549452905582L114.84027916666666,121.69302250343067L114.9940638888889,118.95102604003581L115.14784861111112,120.39353568153017L115.30163333333333,117.67181756573777L115.45541805555555,116.60361874785735L115.76298750000001,119.1721564307348L115.91677222222222,122.08133205288534L116.37812638888889,122.25603028709688L116.68569583333333,123.81583749531042L116.83948055555555,120.91167885827025L116.99326527777778,123.76008875959648L117.14705000000001,125.17157051175289L117.30083472222222,123.66073124069972L117.60840416666667,126.72495792980396L118.22354305555557,123.56857257689276L118.37732777777778,122.85957107706015L118.5311125,123.26495063031268L118.83868194444443,125.66650016673468L118.99246666666667,125.40461599834266L119.14625138888889,125.95143447191684L119.30003611111111,123.24276416622301L119.60760555555557,122.68277296099683L119.91517499999999,121.93662622641364L120.48725416666667,125.8712424832169L121.10239305555555,124.17667327177692L121.71753194444445,125.08565068819092L121.87131666666666,124.87469202492086L122.02510138888888,123.88686753903562L122.33267083333334,123.96558754070112L122.48645555555555,122.56451250434688L122.64024027777778,123.75491021731624L122.794025,126.86146757068379L122.94780972222223,127.20581139296907L123.25537916666666,127.7632965078192L123.4091638888889,127.22526924922818L123.56294861111111,129.80284818148135L123.71673333333334,130.33598391295783L123.87051805555555,127.44898668973434L124.02430277777779,126.75435591832736L124.33187222222222,123.52147850054067L124.48565694444444,122.8053916440527L124.63944166666666,123.47380183349108L124.94701111111111,121.85857105777693L125.25458055555555,123.82547664955874L125.40836527777779,127.85559601442057L125.56215,128.25926969429145L125.71593472222222,130.06836928117448L126.1772888888889,127.17577413896294L126.33107361111111,126.71562336128031L126.63864305555556,126.484273359623L126.79242777777777,128.34779964877617L126.9462125,127.61837573246231L127.25378194444446,128.51658979426796L127.5613513888889,128.51144321914433L127.71513611111111,125.70423870709422L128.02270555555555,125.1375790654566L128.17649027777776,125.46420035607628L128.330275,127.29501377782762L128.4840597222222,126.38071708492029L128.63784444444445,125.36837869319936L129.09919861111112,128.39397041592503L129.25298333333333,124.88193710998797L129.40676805555555,126.22987832705506L129.5605527777778,128.8367565623409L129.8681222222222,128.76345988222874L130.44020138888888,130.8768478850393L130.59398611111112,131.06463810588795L130.74777083333333,130.26792359025805L130.90155555555557,130.47405193450965L131.0553402777778,130.39795875537808L131.209125,129.72972687608384L131.67047916666667,129.550158869384L131.82426388888888,130.8214230736378L132.13183333333333,130.34122098421088L132.28561805555555,130.48862456508164L132.4394027777778,131.24463958279898L132.5931875,133.09811787646976L132.7469722222222,128.97048842878985L133.20832638888888,131.47103105369317L133.36211111111112,129.79969779481357L133.51589583333333,128.89888334702704L133.66968055555554,131.7555788383757L134.59238888888888,129.27070629486028L134.89995833333333,129.7894437015038L135.05374305555554,128.97155821919333L135.51509722222224,131.33238349583348L135.82266666666666,129.45087790226896L135.9764513888889,129.15390661400136L136.13023611111112,128.30776399200107L136.28402083333333,128.91198807320626L136.43780555555554,128.21867832094742L136.59159027777778,129.34435956011401L136.89915972222224,129.86532604626262L137.05294444444445,130.4442273321304L137.20672916666666,129.34422618470575L137.3605138888889,128.2265449000053L137.66808333333333,129.05421485300775L137.82186805555554,131.33413184759564L137.97565277777778,130.5886359146555L138.1294375,130.55252075845584L138.43700694444442,130.83843536767114L138.5907916666667,130.95466466502003L138.7445763888889,128.71229558110295L138.89836111111111,130.7456371176776L139.05214583333333,130.658657244158L139.20593055555557,131.95293538449934L139.5135,132.29381424990535L139.9748541666667,133.11048307237698L140.1286388888889,133.68219306201343L140.54693333333336,134.08019350580074L141.16207222222224,134.75128289560826L141.31585694444445,137.3246836506679L141.62342638888887,140.12946947011807L141.7772111111111,139.8632377123443L142.08478055555557,140.39070026358277L142.39235,140.64608626532743L142.69991944444445,139.54796258920675L142.85370416666666,139.52203588143203L143.00748888888887,139.5599343618399L143.31505833333335,141.52326547414603L143.46884305555557,141.50507447308624L143.62262777777778,143.36812842069529L143.7764125,142.60032223436974L143.9301972222222,143.40692757829277L144.08398194444445,143.95837913710423L144.23776666666666,143.02768412220937L144.3915513888889,143.56454829036934L144.5453361111111,143.02308863066148L144.69912083333335,145.5285018278245L144.85290555555557,144.7501841858874L145.160475,141.56369507235058L145.62182916666666,141.01635081721406L145.7756138888889,141.20732949599793L145.9293986111111,140.06233927L146.23696805555556,142.28637537393035L146.39075277777778,143.19354797555178L146.5445375,143.38768839463825L146.6983222222222,143.41485256925364L146.85210694444444,145.9631508739632L147.62103055555556,145.57384512269877L147.77481527777778,143.5859538190891L148.23616944444447,145.42441118068143L148.38995416666668,145.62337945750014L148.6975236111111,144.78493635234295L148.85130833333332,145.15197602072925L149.4664472222222,144.85712265467384L149.62023194444447,145.8702599124522L149.77401666666668,142.96579896640577L150.0815861111111,142.971613897937L150.34609583333335,142.48730776882945L150.49988055555556,142.87503914805984L150.65366527777778,142.73965548075213L150.80745,143.2986741088316L150.96123472222223,143.14921119612035L151.11501944444444,143.22325389730545L151.42258888888887,142.08652611462838L151.57637361111114,144.34207909040788L151.73015833333335,146.59860318408957L151.88394305555556,146.78284541604185L152.03772777777777,147.3407184750076L152.1915125,146.6254307815242L152.34529722222223,143.78314043879027L152.49908194444444,144.41584716915796L152.65286666666665,146.6376444658421L153.11422083333335,143.3544799052811L153.42179027777777,147.7517074218606L153.575575,144.99892280923615L153.88314444444444,145.3953568576744L154.1907138888889,143.94764031801446L154.3444986111111,145.6484330101175L154.49828333333335,144.45287553754292L154.65206805555556,144.15768710943166L154.80585277777777,143.96215521067307L155.11342222222223,143.76834227835428L155.26720694444444,143.4359402628459L155.88234583333335,145.3744647856915L156.03613055555556,145.74612645577903L156.18991527777777,147.04623523185228L156.34369999999998,144.33080713846033L156.80505416666668,146.5536875301465L156.9588388888889,146.02218690027647L157.26640833333335,144.43466168681033L157.42019305555556,144.74090573943536L157.8815472222222,146.44055945860802L158.03533194444447,144.73456357365657L158.18911666666668,145.36088491679052L158.3429013888889,145.6435997451725L158.4966861111111,147.51174845489157L158.65047083333334,145.54536842752208L158.80425555555556,147.63294878207208L158.95804027777777,147.04807239865133L159.11182499999998,146.1623893783184L159.26560972222222,143.04830871854378L159.41939444444446,145.9554573651866L159.57317916666668,145.30311743160382L159.8807486111111,145.36872734338885L160.29904305555556,146.7000464832767L160.45282777777777,146.47294041132832L160.76039722222222,148.08737358619314L160.91418194444444,144.81885596018756L161.06796666666665,145.38162093898688L161.37553611111113,146.81787607528722L161.52932083333334,146.3108138409731L161.83689027777777,147.85123249098524L161.990675,147.06464578697666L162.29824444444444,144.82455487907347L162.6058138888889,146.9307590131917L163.06716805555556,146.6139532343853L163.22095277777777,145.79187340038865L163.68230694444443,146.35858427582892L163.9898763888889,144.4828714449461L164.14366111111113,145.3188953828368L164.29744583333334,144.56514712892627L164.60501527777777,142.8931167248248L164.75879999999998,142.64612237288046L164.91258472222222,143.8889084955463L165.3739388888889,146.64467470582116L165.52772361111113,144.9843211164886L165.83529305555555,144.01294094666724L166.14286249999998,143.58406088690225L166.29664722222225,145.26263682409285L166.75800138888889,148.7294868914799L167.06557083333334,146.92362925341823L167.21935555555555,147.02880485612806L167.68070972222225,147.02660853454003L167.83449444444446,146.7035985927428L167.98827916666667,145.6493988915669L168.14206388888888,144.96597257163447L168.2958486111111,145.57153139522134L168.44963333333334,146.0529817965919L168.60341805555555,145.26979664461908L168.75720277777776,144.64069230256734L168.91098749999998,146.43764147101794L169.06477222222225,149.29001098768617L169.21855694444446,150.40646051106873L169.52612638888888,146.90928230063267L169.6799111111111,145.75017778898962L169.98748055555555,145.71496097738955L170.405775,147.66578693155364L170.55955972222222,146.64742892230566L171.0209138888889,147.88024019877457L171.17469861111113,148.8774527265781L171.48226805555555,147.4717468366847L171.63605277777776,146.04616574388365L171.7898375,147.0875568359922L171.94362222222222,147.31115167226045L172.09740694444443,145.81040498413697L172.4049763888889,145.24046806440256L172.55876111111112,144.48670573996804L172.86633055555555,145.0380432736249L173.02011527777776,148.36204630787068L173.32768472222222,150.26362192093933L173.48146944444446,152.08426008697114L173.63525416666667,150.89651811035597L173.78903888888888,149.199223690039L173.94282361111112,148.95426355701386L174.09660833333334,147.53853675664485L174.40417777777776,147.65896774693937L175.01931666666667,146.72706493025453L175.17310138888888,147.0883478075722L175.32688611111112,146.31398055920423L175.48067083333333,147.85012060650507L175.63445555555555,148.69877501079432L175.78824027777776,147.4939173603991L175.942025,145.90116299592424L176.09580972222224,146.97182076813561L176.24959444444445,147.43201552945774L176.86473333333333,145.76365657651797L177.01851805555555,146.51114669113647L177.17230277777776,148.47503984505838L177.32608749999997,147.30389754561196L177.78744166666667,149.2458767184208L177.94122638888888,148.1585617806998L178.09501111111112,149.62897406894885L178.40258055555555,148.99978074094344L178.55636527777776,149.2277623162973L178.86393472222224,148.11823604714058L179.17150416666667,148.78879199551253L179.32528888888888,148.10682668893892L179.47907361111112,146.82678666345558L179.94042777777778,146.24358515454037L180.2049375,147.616538148863L180.3587222222222,148.93906868535188L180.51250694444443,148.00572908013473L180.66629166666667,148.62214404530306L180.8200763888889,149.62098446930966L180.97386111111112,148.2076228691536L181.28143055555554,149.23642551965568L181.4352152777778,150.16261493669845L181.89656944444445,149.78864214656227L182.66549305555554,150.10432614521002L182.9730625,147.91128813605997L183.12684722222224,146.94940036034149L183.28063194444445,145.91117654738164L183.43441666666666,146.69747365744644L183.5882013888889,145.946971421166L183.74198611111112,145.67334502819602L184.20334027777776,145.35863869518096L184.357125,144.57049035110109L184.51090972222224,146.83056490666488L184.66469444444445,146.05363967777714L184.81847916666666,148.22326953732494L185.12604861111112,148.72086603622418L185.43361805555554,148.04188021065593L185.58740277777775,147.19053890994934L185.74118750000002,148.77839110177473L186.04875694444445,151.03047116924353L186.20254166666666,150.05026821756445L186.3563263888889,148.33704684057284L186.51011111111112,149.62661042008534L186.66389583333333,147.52194818903578L186.81768055555554,149.98232356803032L186.97146527777775,147.8819155539855L187.12525000000002,150.10575519278353L187.27903472222224,150.2668946083866L187.43281944444445,150.2671177034136L188.04795833333333,149.51751541032397L188.35552777777778,150.03454391585854L188.50931250000002,149.48561913956777L188.66309722222223,147.60982754012358L188.81688194444445,146.86690780031924L188.97066666666666,148.3755510386985L189.43202083333333,147.1203683802449L189.73959027777778,147.87820527090412L190.4654541666667,148.01273053898018L190.7730236111111,148.7917065369569L190.92680833333333,149.6621969178474L191.23437777777778,147.63461101264693L191.8495166666667,148.17793423725396L192.0033013888889,148.06672953310215L192.1570861111111,146.6726495243996L192.31087083333333,146.34651836793293L192.46465555555554,146.01550396373935L193.07979444444445,145.81345446428963L193.3873638888889,146.0830254526216L193.5411486111111,144.94567437530563L193.84871805555554,146.99410822659667L194.00250277777778,146.65845749645064L194.46385694444444,146.72814410846607L194.61764166666666,149.50895512454417L194.7714263888889,149.08570843747876L195.07899583333332,150.4978648479148L195.3865652777778,151.23096700309563L195.54035000000002,151.4125029313496L195.69413472222223,151.65982806292757L196.00170416666666,148.3511969781374L196.1554888888889,148.04668344940143L196.46305833333332,149.882231413635L196.61684305555553,151.71571207137976L196.77062777777778,151.88356368861508L197.07819722222223,151.4179366496518L197.23198194444444,152.70232266721348L197.38576666666665,150.92670849087173L197.5395513888889,149.07074948688415L197.6933361111111,148.98565228307285L197.84712083333332,146.36317350315807L198.30847500000002,146.5754933149482L198.46225972222223,146.15331321105552L198.76982916666665,147.65803826537842L198.9236138888889,148.44001436378161L199.0773986111111,149.77260101193215L199.23118333333335,149.32014731777127L199.53875277777777,148.22944576337056L199.69253750000001,149.04447821852037L199.84632222222223,148.89616986161352L200.11083194444444,150.81018786192797L200.5721861111111,151.59213807387334L200.72597083333332,150.81148219362143L200.87975555555556,152.0296237589897L201.64867916666668,151.50491529238113L201.9562486111111,152.409974237142L202.26381805555556,150.21016873112796L202.41760277777777,149.94293354797583L202.57138750000001,149.42661061130232L203.03274166666668,148.82609474406001L203.1865263888889,147.11357507289L203.3403111111111,146.09506404838623L203.49409583333332,146.3762816693882L203.64788055555553,147.0706474314696L203.8016652777778,148.68135614246196L203.95545,150.23072454363148L204.10923472222223,149.55247929710174L204.41680416666668,149.53925849806086L204.5705888888889,149.03920421620032L204.87815833333332,150.69187194412177L205.03194305555553,150.9937952364465L205.1857277777778,151.385599126053L205.3395125,149.01729087211618L205.80086666666668,150.84232083267727L205.9546513888889,153.07171893766244L206.26222083333332,153.17293155316278L206.41600555555556,151.19465765761925L206.5697902777778,150.9203736283172L206.723575,151.13284513341122L206.87735972222222,152.107277719763L207.03114444444444,151.99946248248443L207.18492916666665,149.68021710808875L207.3387138888889,150.61856363141683L207.4924986111111,149.8804310780878L207.64628333333332,148.10394440226446L207.9538527777778,147.4975629880655L208.1076375,148.149882600782L208.41520694444444,149.1734036137461L208.56899166666665,150.62270498122237L208.8765611111111,151.66697922720456L209.03034583333334,149.7350918043756L209.3379152777778,151.55885827476402L209.4917,151.66752711627984L209.64548472222222,150.27235507252942L209.79926944444443,152.33155353966566L210.06377916666668,151.66482190617515L210.2175638888889,148.97309294737533L210.52513333333332,148.04345282619158L210.83270277777777,150.52934216283734L211.14027222222222,148.48585684392637L211.29405694444446,149.20100808252496L211.6016263888889,147.207980320842L211.7554111111111,147.6381387428389L211.9091958333333,147.00757188163539L212.06298055555555,151.53703371091754L212.2167652777778,150.33105921919918L212.37055,151.90258437897234L212.52433472222222,153.15476164456817L213.1394736111111,152.53777254629765L213.2932583333333,151.97710108033664L213.44704305555558,152.72430470880312L213.7546125,151.8110825947046L213.90839722222222,149.42117655131605L214.06218194444443,149.8491001941631L214.3697513888889,153.1079204622959L214.6773208333333,152.2510837084485L214.9848902777778,152.8121165692667L215.29245972222222,152.5791625654614L215.60002916666667,152.0358797515978L215.75381388888889,151.87046706842017L215.9075986111111,151.84991157684038L216.0613833333333,151.3335440276065L216.3689527777778,148.6655569093889L216.5227375,151.3252495458205L216.67652222222222,151.62797896977474L216.83030694444443,151.6803000822636L216.98409166666667,150.67064703103406L217.13787638888888,150.99085600731672L217.59923055555555,150.07888826530584L217.7530152777778,151.66275433912057L218.21436944444443,150.22407022974727L218.36815416666667,152.26744206664068L218.52193888888888,151.31955227272638L218.82950833333334,150.96280409041532L218.98329305555555,149.47628852148281L219.44464722222222,150.14765886185887L219.59843194444443,148.6735402328868L219.75221666666667,151.39663037888138L220.1705111111111,152.41295555107286L220.32429583333334,150.51648734533285L220.78565,150.81809917735487L220.93943472222222,150.32839523741063L221.09321944444446,151.02971252527246L221.40078888888888,149.1828499625376L221.86214305555558,151.87054312435959L222.0159277777778,151.04950338858603L222.47728194444446,148.83453016832414L222.63106666666667,149.47412669406629L222.78485138888888,149.24640516818675L223.3999902777778,147.92424784198735L223.70755972222221,150.0969884414527L223.86134444444446,152.63006310576517L224.01512916666667,153.01401249317917L224.16891388888888,152.50277255226328L224.3226986111111,153.049542941148L224.4764833333333,152.21252775307858L224.63026805555558,153.62063765065355L225.0916222222222,151.12829664271962L225.24540694444445,151.604027495316L225.39919166666667,148.88575176330286L225.55297638888888,150.78398422889373L225.86054583333333,153.24256694080574L226.1681152777778,152.45662597143604L226.3219,151.48261468537353L226.78325416666667,150.41809880491718L226.93703888888888,148.91823090567163L227.24460833333333,147.70886383128547L227.39839305555557,146.382685835528L227.55217777777779,147.76528159103847L227.7059625,150.18675756580203L227.8597472222222,151.41101032968302L228.01353194444442,151.2161716105431L228.47488611111112,152.09044265307986L228.62867083333333,153.27936108643613L229.2438097222222,153.76396276527856L229.39759444444442,151.21094876512416L229.5513791666667,149.3682556773959L229.7051638888889,150.0325993804908L229.9696736111111,149.91633124999856L230.27724305555554,149.9400143482115L230.43102777777779,149.18257940292648L230.73859722222224,149.13923789681502L230.89238194444445,150.77610170483163L231.19995138888888,150.94599825061437L231.50752083333333,151.5238514511146L231.66130555555557,150.4771328735035L231.81509027777778,150.76257697548556L231.968875,149.96014153576877L232.27644444444445,149.71225058274328L232.43022916666666,151.4605774648532L232.7377986111111,150.2106778642065L232.89158333333336,150.7951565065963L233.19915277777778,149.14868267450626L233.3529375,148.93270893670788L233.66050694444445,146.5361664573345L233.81429166666666,148.98053467088235L233.96807638888887,150.25121325010699L234.1218611111111,151.58556028988082L234.58321527777778,153.4646883349121L234.8907847222222,151.99115473339626L235.04456944444445,152.07778983168274L235.19835416666666,152.9282082211125L235.35213888888887,152.94691792210162L235.81349305555557,153.2376807316952L235.96727777777778,151.93756104352286L236.1210625,153.8810976714425L236.42863194444445,155.3075778228362L236.58241666666666,152.9815334643316L236.7362013888889,153.1062317681877L236.8899861111111,150.75413462806486L237.04377083333333,150.06256793843286L237.35134027777778,153.0680471937916L238.1202638888889,152.4052986921837L238.42783333333333,151.9042793485703L239.3505416666667,150.8267101245366L239.5043263888889,150.48849827829457L239.92262083333333,151.2108819412199L240.07640555555557,150.42312963368536L240.383975,153.59581206908385L240.53775972222223,151.9090574980014L240.99911388888887,152.4103477186766L241.1528986111111,150.98441312101988L241.46046805555557,150.47144142289133L241.61425277777778,151.11178932951063L241.7680375,150.91614141285123L241.92182222222223,151.9210967858482L242.07560694444444,152.10814826858467L242.38317638888887,150.96052897410382L242.69074583333335,153.33112865019578L242.84453055555556,152.77195349796523L242.99831527777778,151.59419376795503L243.1521,151.05994910684237L243.30588472222223,150.98292686156634L243.45966944444444,151.2263516098326L243.61345416666666,152.44999612960942L244.22859305555556,154.35813515606426L244.38237777777778,151.11849030587814L244.5361625,150.8025481002885L244.68994722222223,152.02978359378855L244.84373194444444,152.31237936580004L245.3050861111111,153.9218165643178L245.45887083333335,152.94833220577547L245.61265555555556,153.0466222669196L246.22779444444444,150.8274622754892L246.38157916666665,150.98609744687718L246.5353638888889,153.4873910086808L246.99671805555556,153.92309370860204L247.15050277777777,154.7967244366955L247.4580722222222,152.6179139310874L247.61185694444444,152.28429689177418L247.9194263888889,150.51988186804246L248.0732111111111,149.5933142034942L248.38078055555556,150.73794953928132L248.53456527777777,149.79742920673664L248.8421347222222,149.3503579129716L248.99591944444447,152.20171119418052L249.14970416666668,152.94080977891338L249.3034888888889,152.19804515791603L249.4572736111111,150.0430730986423L249.61105833333335,149.59783914930583L250.64449166666665,150.227408009915L251.10584583333335,150.17835485030122L251.25963055555556,151.1308726547825L251.5672,154.3204675032563L251.87476944444444,153.84194298601685L252.02855416666665,155.31858216666436L252.48990833333335,154.97362008789466L252.64369305555556,156.2338069862085L252.79747777777777,154.70839785783565L252.95126249999998,153.25290287417948L253.41261666666665,154.155878339837L253.5664013888889,154.61294067645537L253.72018611111113,154.73490850309543L253.87397083333335,153.2832114389341L254.18154027777777,153.72333220122394L254.48910972222222,153.99819347017555L254.64289444444444,154.03644426847956L254.79667916666665,152.51202320103457L254.9504638888889,151.41155496133797L255.41181805555556,151.82617581025818L255.71938749999998,151.5712893891497L255.87317222222222,151.98914115159693L256.02695694444446,147.58955970655603L256.1807416666667,149.58576177574295L256.3345263888889,149.48528686043545L256.4883111111111,150.28260985870648L256.6420958333333,153.08125554636808L256.9496652777778,151.71281815902475L257.10345,151.00837886335103L257.2572347222222,151.98026009931488L257.41101944444443,153.6685753032955L257.56480416666665,152.2208038852515L257.71858888888886,152.09130284371057L257.8723736111111,151.19960177119486L258.02615833333334,152.58601764942753L258.17994305555555,150.14420185416932L258.33372777777777,152.88495386532279L258.4875125,152.97804949814875L259.41022083333337,151.91282626735713L259.82851527777774,152.29761302386913L259.9823,152.4357964113267L260.1360847222222,153.2250845328583L260.44365416666665,156.1861265491149L260.5974388888889,153.0527141883394L261.21257777777777,153.06294675369918L261.36636250000004,152.2367835636263L261.52014722222225,151.79587360327722L261.67393194444446,155.54926009505823L262.1352861111111,156.35996224599978L262.2890708333333,154.14898715221955L262.4428555555555,153.0623086189142L262.59664027777774,152.73093061880402L262.750425,152.6358330667848L263.05799444444443,154.09703633909433L263.21177916666664,152.7355088416239L263.82691805555555,151.7231605278883L263.98070277777776,152.14184491665432" style="fill: none;" fill="none"></path></g></g></g></g><g opacity="0.2"><g><g><g><path stroke="rgb(255, 112, 67)" stroke-width="2px" d="M31.372083333333332,-4.924747467041016L31.525868055555556,4.454128689236109L32.29479166666667,3.210967593722856L32.44857638888889,0.5577312045626996L32.60236111111111,-3.651257408989796L33.06371527777778,6.9480039808485135L33.2175,10.850346035427515L33.37128472222222,4.2777498033311545L33.67885416666667,6.047529856363919L33.83263888888889,6.763465881347656L33.986423611111114,-3.9472736782498004L34.29399305555556,1.4664344787597656L34.44777777777778,-3.814325120713967L34.90913194444445,0.6168738471137001L35.062916666666666,-3.9581370883518012L35.216701388888886,-3.2966579861111285L35.370486111111106,2.183302985297294L35.52427083333333,6.173484802246094L35.985625,10.99616283840603L36.139409722222226,-3.5862634446885764L36.446979166666665,4.128459506564653L36.600763888888885,6.5884857177734375L36.75454861111111,1.3307117886013433L36.90833333333333,9.337138281928153L37.06211805555556,3.527615017361109L38.13861111111111,19.23659557766384L38.29239583333334,17.504021538628468L38.44618055555556,22.33035956488714L38.599965277777784,11.471891615125857L38.753750000000004,16.497827317979592L38.907534722222216,14.190681457519531L39.06131944444444,16.660615285237625L39.21510416666666,14.920021904839405L39.36888888888889,10.357156541612405L39.676458333333336,8.085351732042092L40.137812499999995,13.771088070339625L40.29159722222222,16.223724365234375L40.44538194444444,23.705023871527764L40.59916666666667,27.685274759928372L41.01746111111111,18.49291822645398L41.17124583333333,26.19836298624673L41.32503055555556,14.65536032782659L41.47881527777778,23.70803112453884L41.78638472222222,23.63037872314453L41.94016944444445,19.31513383653428L42.24773888888889,25.873183356391046L42.555308333333336,20.94182459513345L42.86287777777778,23.84519916110569L43.0166625,15.449624803331155L43.170447222222215,27.427303738064232L43.32423194444444,18.82168791029187L43.63180138888889,29.776877509223077L43.78558611111111,26.567276000976562L44.093155555555555,22.649641248914918L44.24694027777778,26.100102742513016L44.400724999999994,35.200027041965065L44.70829444444444,24.533976660834405L44.86207916666667,34.546753777397996L45.63100277777777,31.2508044772678L46.24614166666667,36.40306811862522L46.39992638888889,32.93866602579752L46.86128055555555,32.96491538153753L47.01506527777777,22.334835476345482L47.32263472222222,36.17901611328125L47.476419444444446,44.7926745944553L47.630204166666665,37.856247372097435L47.78398888888889,32.02662913004556L47.93777361111111,32.25825754801431L48.09155833333333,36.45200008816189L48.24534305555555,32.84320322672525L48.5529125,39.15905231899685L48.706697222222225,37.423669179280594L48.860481944444444,30.298624250623902L49.47562083333333,46.63593419392903L49.62940555555556,43.78797234429253L50.24454444444445,37.60391786363389L50.39832916666666,50.795431349012574L50.81662361111111,49.098827785915795L50.97040833333334,56.45599068535698L51.12419305555556,42.78564792209202L51.27797777777778,50.04343159993489L51.4317625,43.50256305270725L51.739331944444444,51.99624612596299L52.04690138888889,56.39828173319499L52.20068611111111,53.72794596354166L52.35447083333333,50.10826237996419L52.50825555555555,46.89762348598904L53.12339444444444,52.67589696248372L53.27717916666667,43.12504789564343L53.43096388888889,48.52487373352051L53.58474861111111,58.93297640482585L53.73853333333333,54.688332027859154L54.1998875,60.746967739529076L54.81502638888889,48.29103067186143L55.122595833333335,53.62449879116482L55.276380555555555,56.84474224514431L55.58395,59.34642706976997L55.73773472222223,47.99337090386284L56.04530416666666,57.892630047268334L56.19908888888889,69.17449124654134L56.35287361111111,49.76773177252876L56.660443055555554,65.50999026828342L56.9680125,62.83572642008464L57.27558194444444,61.510763380262574L57.42936666666667,59.58539877997505L57.583151388888886,54.61556349860298L57.89072083333333,65.08927790323894L58.04450555555556,63.32657305399577L58.19829027777778,62.61616198221843L58.352075,49.478219562106666L58.50585972222222,62.88563749525281L58.813429166666666,58.797871483696824L58.96721388888889,67.80697207980685L59.12099861111111,64.15779876708984L59.27478333333334,68.16110526190865L59.42856805555556,60.54562166002061L59.58235277777777,68.99927796257866L59.7361375,76.6517228020562L60.197491666666664,57.42464086744519L60.35127638888889,69.60705778333875L60.50506111111111,71.5607115427653L60.76957083333333,67.85620710584851L61.230925,79.76740010579427L61.692279166666665,65.22634103563095L61.846063888888885,74.11145655314128L61.99984861111111,73.14183892144096L62.30741805555556,68.4617256588406L62.46120277777778,75.49221695793999L62.614987500000005,74.20106803046333L62.76877222222222,63.95003022087944L63.076341666666664,79.58772256639267L63.23012638888889,71.82259898715549L63.38391111111111,62.508448706732864L63.69148055555556,72.92782274881999L63.99905,72.64798503451877L64.30661944444444,74.99152098761665L64.46040416666666,66.55781979031033L64.76797361111112,76.70290438334148L64.92175833333333,78.05430327521431L65.07554305555556,75.08511882358127L65.22932777777777,73.19173834058972L65.3831125,72.60419336954753L65.69068194444445,75.54590458340115L65.84446666666666,71.46644931369357L65.99825138888889,83.84022310045029L66.45960555555556,74.69006135728623L66.767175,77.83655717637802L66.92095972222222,78.71134143405489L67.22852916666668,84.24624888102213L67.38231388888889,76.0208174387614L67.53609861111111,72.70297813415527L67.68988333333333,81.07403988308377L67.84366805555555,78.24456448025174L67.99745277777778,76.6790445115831L68.30502222222222,86.1652726067437L68.45880694444445,65.38972345987956L68.76637638888889,79.25606218973795L68.92016111111111,83.33865292867024L69.07394583333333,82.94100782606336L69.22773055555557,82.15456453959146L69.38151527777778,79.02981885274251L69.53529999999999,86.33576520284016L69.99665416666667,82.47796079847546L70.15043888888889,79.0400178697374L70.30422361111111,89.32237540351018L70.45800833333334,84.21221330430771L70.87630277777778,75.51218371921115L71.0300875,78.6513245900472L71.18387222222223,78.22500567966036L71.33765694444445,78.7121107313368L71.64522638888889,81.00690121120877L71.79901111111111,86.2133536868625L72.56793472222222,89.6089269849989L72.87550416666666,87.20011732313367L73.0292888888889,84.63586298624674L73.49064305555555,86.40242597791882L73.64442777777776,86.37680604722763L73.7982125,94.97549819946289L74.10578194444444,95.57323053148056L74.25956666666666,88.36209424336751L74.4133513888889,89.11846499972872L74.56713611111111,90.40891456604004L74.72092083333334,89.33279588487412L74.87470555555555,76.82713423834907L75.02849027777778,93.28485086229111L75.182275,91.63460328843857L75.48984444444444,88.49979845682779L75.64362916666667,79.70606613159178L75.95119861111111,88.26890436808267L76.10498333333332,87.82182608710393L76.72012222222222,96.70844523111978L76.87390694444446,85.37892256842717L77.02769166666667,88.03065533108179L77.1814763888889,99.02906545003255L77.33526111111111,90.54919475979273L77.48904583333332,88.00942971971298L78.10418472222221,87.94648721483017L78.25796944444446,94.80033153957788L78.41175416666667,103.64359029134114L78.56553888888888,94.79263856675888L78.71932361111111,92.74569002787271L78.87310833333333,93.91911315917969L79.18067777777777,99.46680725945366L79.3344625,96.53156513637964L79.48824722222223,88.40489514668782L79.64203194444444,100.70380232069226L79.79581666666667,98.16676478915743L79.94960138888888,94.83512475755478L80.25717083333333,93.69191402859155L80.41095555555556,94.21195899115669L80.67546527777777,105.94629520840112L80.82925,91.68719524807398L80.98303472222223,102.98891830444336L81.29060416666667,96.46202532450357L81.75195833333333,86.91269154018826L82.05952777777777,101.5091749827067L82.2133125,101.41499434577095L82.36709722222223,100.20574061075845L82.52088194444444,99.29000875684949L82.67466666666667,104.9540532430013L83.28980555555555,103.65785725911458L83.44359027777779,99.3607957628038L83.75115972222223,104.94845835367838L84.05872916666667,97.5800240834554L84.21251388888889,101.80951563517252L84.3662986111111,90.97780990600586L84.52008333333333,103.1977941724989L84.67386805555556,102.57459343804253L84.9814375,104.37233628167046L85.13522222222223,99.85941696166992L85.28900694444445,104.19043244255913L85.59657638888889,100.43190235561792L85.7503611111111,100.14266988966199L85.90414583333333,100.13093227810327L86.05793055555556,108.53387324015299L86.3655,103.6072351667616L86.51928472222221,102.46534156799316L86.82685416666666,101.99375067816841L86.98063888888889,97.9129549662272L87.1344236111111,97.93203587002222L87.28820833333334,104.58888181050618L87.44199305555556,101.69183646308052L87.59577777777777,97.84402126736109L87.7495625,96.9648543463813L87.90334722222222,106.31642044915093L88.05713194444445,107.56754260592989L88.21091666666666,97.00310940212671L88.82605555555556,107.5056258307563L88.97984027777777,97.42069795396591L89.13362500000001,92.27414576212564L89.44119444444445,98.54006046719019L89.59497916666666,105.88629002041284L90.21011805555555,108.45657051934135L90.62841250000001,102.23640569051106L90.78219722222222,103.3489844004313L90.93598194444444,101.49684291415743L91.39733611111112,109.51475058661568L91.55112083333333,110.54081832038032L91.70490555555556,97.31322945488823L91.85869027777778,106.2558790842692L92.012475,98.7286665174696L92.16625972222222,102.62399164835611L92.32004444444443,99.81717554728189L92.47382916666668,111.67624282836914L92.62761388888889,107.21663814120821L92.78139861111111,95.27217886182996L92.93518333333333,99.51224242316353L93.08896805555557,114.30620214674207L93.24275277777778,106.348241382175L93.3965375,114.38532320658365L93.70410694444443,107.26031324598523L94.01167638888889,107.38896073235405L94.16546111111111,107.9710856543647L94.31924583333333,105.2158008151584L94.47303055555555,110.179446750217L94.93438472222222,107.99013159010144L95.08816944444445,110.17963324652779L95.24195416666667,109.73283471001518L95.39573888888889,111.48569022284615L95.85709305555555,109.82466083102754L96.01087777777778,103.73866844177246L96.31844722222223,114.63112534417046L96.47223194444445,106.71253861321343L96.93358611111111,107.33675342135957L97.08737083333334,117.59447013007271L97.24115555555555,109.91852675543892L97.548725,108.57548522949219L97.70250972222223,115.25489722357857L97.85629444444444,115.92714648776582L98.31764861111111,107.52317979600693L98.47143333333334,103.83152029249402L98.62521805555555,114.13914807637532L98.77900277777778,111.98503409491646L98.9327875,105.6878696017795L99.08657222222223,110.0838207668728L99.24035694444444,112.29845280117456L99.39414166666666,111.965032365587L99.70171111111111,112.32291878594292L99.85549583333334,118.66143883599175L100.00928055555555,112.79192203945581L100.16306527777779,112.12200397915308L100.88892916666667,114.63204616970484L101.0427138888889,108.7580534617106L101.19649861111111,110.41317325168184L101.35028333333332,113.79646110534668L101.50406805555556,109.31983862982857L101.8116375,111.80972756279839L102.11920694444446,111.74025768703882L102.42677638888888,116.53777037726509L102.58056111111111,117.28009563022188L102.73434583333332,119.28107282850476L103.04191527777778,115.03968048095703L103.1957,109.75302293565537L103.34948472222221,110.55808088514539L103.65705416666667,119.17944399515787L103.96462361111111,118.89009496900769L104.11840833333333,118.34883605109322L104.42597777777777,114.05338308546277L104.5797625,117.01754379272461L104.73354722222223,120.95470237731934L105.19490138888888,123.14299180772568L105.34868611111112,121.81012598673502L105.50247083333333,113.39667129516602L105.65625555555556,121.53989283243814L105.81004027777777,122.60899458991157L105.96382499999999,118.17911275227864L106.11760972222223,121.70683034261067L106.42517916666667,92.89327854580347L106.57896388888888,114.46285904778374L106.73274861111112,119.20160208808052L106.88653333333333,117.55513106452095L107.04031805555556,119.53689914279512L107.19410277777777,111.70069715711804L107.65545694444444,114.53313318888345L107.80924166666667,117.64505725436739L108.11681111111112,112.92861217922632L108.27059583333333,124.84341854519312L108.42438055555554,109.90666092766655L108.73195,121.78955311245386L108.88573472222222,116.31825256347656L109.03951944444444,118.85384474860298L109.5008736111111,115.19595273335774L109.65465833333333,114.62446975708008L109.80844305555556,122.2134708828396L109.96222777777778,117.83908335367838L110.1160125,119.498597462972L110.26979722222222,116.31800778706868L110.53430694444445,120.32204861111109L110.68809166666666,123.20282215542261L110.84187638888889,117.5978037516276L111.14944583333335,117.9922900729709L111.30323055555556,105.65161938137476L111.45701527777778,123.12949413723413L111.6108,126.10548570421005L111.76458472222221,119.39850722418892L111.91836944444445,119.81044260660806L112.22593888888889,122.0308560265435L112.68729305555556,120.33314514160156L113.30243194444445,117.90974214341904L113.76378611111112,124.57839563157822L113.91757083333333,123.62319649590385L114.07135555555556,121.09719721476236L114.22514027777777,121.50820011562769L114.37892500000001,115.74486965603296L114.53270972222222,118.32034873962402L114.68649444444445,118.82109133402506L114.84027916666666,125.90431446499292L114.9940638888889,114.83803134494356L115.14784861111112,122.55730014377168L115.30163333333333,113.58924039204915L115.45541805555555,115.00132052103677L115.76298750000001,123.02496295505098L115.91677222222222,126.44509548611109L116.37812638888889,122.51807763841416L116.68569583333333,126.15554830763074L116.83948055555555,116.55544090270996L116.99326527777778,128.03270361158582L117.14705000000001,127.2887931399875L117.30083472222222,121.39447233412L117.60840416666667,131.32129796346027L118.22354305555557,118.83399454752603L118.37732777777778,121.79606882731119L118.5311125,123.8730199601915L118.83868194444443,129.26882447136774L118.99246666666667,125.01178974575464L119.14625138888889,126.7716621822781L119.30003611111111,119.17975870768228L119.60760555555557,121.84278615315755L119.91517499999999,120.81740612453882L120.48725416666667,131.77316686842175L121.10239305555555,121.63481945461695L121.71753194444445,126.44911681281197L121.87131666666666,124.55825403001572L122.02510138888888,122.40513081020777L122.33267083333334,124.08366754319931L122.48645555555555,120.46289994981552L122.64024027777778,125.54050678677027L122.794025,131.52130360073514L122.94780972222223,127.72232712639702L123.25537916666666,128.5995241800944L123.4091638888889,126.41822836134168L123.56294861111111,133.66921657986111L123.71673333333334,131.13568751017252L123.87051805555555,123.11849085489908L124.02430277777779,125.71240976121689L124.33187222222222,118.67216237386067L124.48565694444444,121.73126135932075L124.63944166666666,124.47641711764864L124.94701111111111,119.43572489420572L125.25458055555555,126.77583503723145L125.40836527777779,133.90077506171332L125.56215,128.86478021409775L125.71593472222222,132.78201866149902L126.1772888888889,122.8368814256456L126.33107361111111,126.0253971947564L126.63864305555556,126.13724835713704L126.79242777777777,131.14308908250595L126.9462125,126.52423985799153L127.25378194444446,129.86391088697644L127.5613513888889,128.50372335645886L127.71513611111111,121.49343193901909L128.02270555555555,124.2875896030002L128.17649027777776,125.95413229200574L128.330275,130.04123391045465L128.4840597222222,125.00927204555933L128.63784444444445,123.84987110561792L129.09919861111112,132.93235800001355L129.25298333333333,119.61388715108235L129.40676805555555,128.2517901526557L129.5605527777778,132.74707391526962L129.8681222222222,128.65351486206055L130.44020138888888,134.04692988925507L130.59398611111112,131.34632343716092L130.74777083333333,129.07285181681314L130.90155555555557,130.78324445088703L131.0553402777778,130.28381898668076L131.209125,128.72737905714246L131.67047916666667,129.2808068593343L131.82426388888888,132.72831938001843L132.13183333333333,129.6209178500705L132.28561805555555,130.7097299363878L132.4394027777778,132.378662109375L132.5931875,135.8783353169759L132.7469722222222,122.77904425726997L133.20832638888888,135.22184499104816L133.36211111111112,127.29269790649414L133.51589583333333,127.54766167534721L133.66968055555554,136.04062207539874L134.59238888888888,125.54339747958711L134.89995833333333,130.56754981146918L135.05374305555554,127.74472999572754L135.51509722222224,134.87362141079373L135.82266666666666,126.6286195119222L135.9764513888889,128.70844968159992L136.13023611111112,127.03855005900064L136.28402083333333,129.8183241950141L136.43780555555554,127.17871369255913L136.59159027777778,131.03288141886392L136.89915972222224,130.64677577548554L137.05294444444445,131.31257926093207L137.20672916666666,127.6942244635688L137.3605138888889,126.55002297295464L137.66808333333333,130.29571978251138L137.82186805555554,134.75400733947754L137.97565277777778,129.4703920152452L138.1294375,130.49834802415634L138.43700694444442,131.26730728149414L138.5907916666667,131.12900861104328L138.7445763888889,125.3487419552273L138.89836111111111,133.7956494225396L139.05214583333333,130.52818743387857L139.20593055555557,133.89435259501138L139.5135,132.8051325480143L139.9748541666667,134.33548630608453L140.1286388888889,134.53975804646808L140.54693333333336,134.67719417148163L141.16207222222224,135.75791698031952L141.31585694444445,141.18478478325738L141.62342638888887,144.33664819929334L141.7772111111111,139.4638900756836L142.08478055555557,141.18189409044052L142.39235,141.02916526794434L142.69991944444445,137.90077707502576L142.85370416666666,139.48314581976996L143.00748888888887,139.61678208245172L143.31505833333335,144.46826214260525L143.46884305555557,141.47778797149658L143.62262777777778,146.16270934210883L143.7764125,141.44861295488144L143.9301972222222,144.61683559417725L144.08398194444445,144.78555647532144L144.23776666666666,141.63164159986707L144.3915513888889,144.36984454260931L144.5453361111111,142.2108991410997L144.69912083333335,149.28662162356906L144.85290555555557,143.58270772298175L145.160475,136.78396140204535L145.62182916666666,140.19533443450928L145.7756138888889,141.4937975141737L145.9293986111111,138.34485393100312L146.23696805555556,145.62242952982584L146.39075277777778,144.55430687798395L146.5445375,143.67889902326795L146.6983222222222,143.45559883117676L146.85210694444444,149.78559833102756L147.62103055555556,144.98988649580212L147.77481527777778,140.6041168636746L148.23616944444447,148.18209722306992L148.38995416666668,145.92183187272812L148.6975236111111,143.5272716946072L148.85130833333332,145.70253552330865L149.4664472222222,144.41484260559082L149.62023194444447,147.38996579911972L149.77401666666668,138.60910754733612L150.0815861111111,142.98033629523383L150.34609583333335,141.76084857516815L150.49988055555556,143.45663621690537L150.65366527777778,142.5365799797906L150.80745,144.13720205095078L150.96123472222223,142.9250168270535L151.11501944444444,143.3343179490831L151.42258888888887,140.3814344406128L151.57637361111114,147.72540855407715L151.73015833333335,149.9833893246121L151.88394305555556,147.05920876397028L152.03772777777777,148.1775280634562L152.1915125,145.5524992412991L152.34529722222223,139.5197049246894L152.49908194444444,145.36490726470947L152.65286666666665,149.97034041086832L153.11422083333335,138.42973306443955L153.42179027777777,154.34754869672986L153.575575,140.86974589029947L153.88314444444444,145.99000793033176L154.1907138888889,141.77606550852457L154.3444986111111,148.19962204827203L154.49828333333335,142.6595393286811L154.65206805555556,143.7149044672648L154.80585277777777,143.66885736253525L155.11342222222223,143.47762287987604L155.26720694444444,142.93733723958331L155.88234583333335,148.28225156995984L156.03613055555556,146.30361896091037L156.18991527777777,148.9963983959622L156.34369999999998,140.25766499837238L156.80505416666668,149.88800811767578L156.9588388888889,145.22493595547147L157.26640833333335,142.05337386661103L157.42019305555556,145.20027181837293L157.8815472222222,148.99004003736707L158.03533194444447,142.17556974622937L158.18911666666668,146.30036693149142L158.3429013888889,146.06767198774548L158.4966861111111,150.31397151947021L158.65047083333334,142.59579838646783L158.80425555555556,150.76431931389703L158.95804027777777,146.17075782352023L159.11182499999998,144.833864847819L159.26560972222222,138.37718772888184L159.41939444444446,150.31618033515082L159.57317916666668,144.32460753122965L159.8807486111111,145.46714221106635L160.29904305555556,148.69702519310846L160.45282777777777,146.13228130340576L160.76039722222222,150.5090233484904L160.91418194444444,139.9160795211792L161.06796666666665,146.22576840718585L161.37553611111113,148.97225877973767L161.52932083333334,145.55022048950195L161.83689027777777,150.16186046600342L161.990675,145.8847657309638L162.29824444444444,141.4644185172187L162.6058138888889,150.09006521436902L163.06716805555556,146.13874456617566L163.22095277777777,144.5587536493937L163.68230694444443,147.20865058898926L163.9898763888889,141.66930219862195L164.14366111111113,146.57293128967285L164.29744583333334,143.43452474806043L164.60501527777777,140.38507111867267L164.75879999999998,142.27563084496393L164.91258472222222,145.75308767954508L165.3739388888889,150.77832402123346L165.52772361111113,142.49379073248969L165.83529305555555,142.5558706919352L166.14286249999998,142.94074079725476L166.29664722222225,147.78050072987872L166.75800138888889,153.9297619925605L167.06557083333334,144.21484279632568L167.21935555555555,147.18656826019287L167.68070972222225,147.02331405215793L167.83449444444446,146.21908368004694L167.98827916666667,144.06809933980304L168.14206388888888,143.94083309173584L168.2958486111111,146.47986963060166L168.44963333333334,146.77515739864774L168.60341805555555,144.09501891665985L168.75720277777776,143.69703578948975L168.91098749999998,149.13306522369385L169.06477222222225,153.56856526268854L169.21855694444446,152.08113479614258L169.52612638888888,141.66351498497858L169.6799111111111,144.01152102152506L169.98748055555555,145.6621357599894L170.405775,150.59202586279974L170.55955972222222,145.1198919084337L171.0209138888889,149.7294571134779L171.17469861111113,150.37327151828342L171.48226805555555,145.3631880018446L171.63605277777776,143.90779410468207L171.7898375,148.649643474155L171.94362222222222,147.64654392666287L172.09740694444443,143.55928495195175L172.4049763888889,144.38556268480087L172.55876111111112,143.35606225331622L172.86633055555555,145.86504957411023L173.02011527777776,153.34805085923935L173.32768472222222,153.11598534054227L173.48146944444446,154.81521733601886L173.63525416666667,149.1149051454332L173.78903888888888,146.65328205956354L173.94282361111112,148.58682335747613L174.09660833333334,145.4149465560913L174.40417777777776,147.83961423238117L175.01931666666667,145.32921070522733L175.17310138888888,147.6302721235487L175.32688611111112,145.15242968665228L175.48067083333333,150.15433067745633L175.63445555555555,149.97175661722818L175.78824027777776,145.6866308848063L175.942025,143.51203144921197L176.09580972222224,148.57780742645264L176.24959444444445,148.12230767144098L176.86473333333333,143.26111814710828L177.01851805555555,147.63238186306424L177.17230277777776,151.42087957594129L177.32608749999997,145.54718409644232L177.78744166666667,152.158845477634L177.94122638888888,146.52758937411838L178.09501111111112,151.83459250132242L178.40258055555555,148.05599074893527L178.55636527777776,149.56973467932806L178.86393472222224,146.4539466434055L179.17150416666667,149.79462591807047L179.32528888888888,147.0838787290785L179.47907361111112,144.90672662523056L179.94042777777778,145.36878289116754L180.2049375,149.67596764034695L180.3587222222222,150.92286449008517L180.51250694444443,146.60571967230902L180.66629166666667,149.54676649305554L180.8200763888889,151.11924510531955L180.97386111111112,146.08758046891953L181.28143055555554,150.77962949540878L181.4352152777778,151.55189906226263L181.89656944444445,149.22768296135797L182.66549305555554,150.5778521431817L182.9730625,144.62173112233478L183.12684722222224,145.50656869676376L183.28063194444445,144.3538408279419L183.43441666666666,147.87691932254367L183.5882013888889,144.8212180667453L183.74198611111112,145.26290543874103L184.20334027777776,144.88657919565836L184.357125,143.38826783498126L184.51090972222224,150.22067674001056L184.66469444444445,144.8882518344455L184.81847916666666,151.47771432664658L185.12604861111112,149.46726078457303L185.43361805555554,147.0234014723036L185.58740277777775,145.91352695888943L185.74118750000002,151.1601693895128L186.04875694444445,154.40859127044678L186.20254166666666,148.57996379004584L186.3563263888889,145.76721477508545L186.51011111111112,151.5609557893541L186.66389583333333,144.3649548424615L186.81768055555554,153.67288663652207L186.97146527777775,144.73130353291828L187.12525000000002,153.44151465098062L187.27903472222224,150.50860373179117L187.43281944444445,150.26745234595404L188.04795833333333,148.39311197068955L188.35552777777778,150.81008667416043L188.50931250000002,148.66223197513156L188.66309722222223,144.7961401409573L188.81688194444445,145.7525281906128L188.97066666666666,150.63851589626736L189.43202083333333,145.23759439256455L189.73959027777778,149.01496060689288L190.4654541666667,148.2145184410943L190.7730236111111,149.96017053392197L190.92680833333333,150.9679324891832L191.23437777777778,144.5932321548462L191.8495166666667,148.9929190741645L192.0033013888889,147.89992247687445L192.1570861111111,144.58152951134576L192.31087083333333,145.85732163323297L192.46465555555554,145.518982357449L193.07979444444445,145.51038021511502L193.3873638888889,146.48738193511963L193.5411486111111,143.2396477593316L193.84871805555554,150.06675900353326L194.00250277777778,146.15498140123154L194.46385694444444,146.83267402648926L194.61764166666666,153.6801716486613L194.7714263888889,148.45083840688068L195.07899583333332,152.6160994635688L195.3865652777778,152.33062023586697L195.54035000000002,151.68480682373047L195.69413472222223,152.0308157602946L196.00170416666666,143.38825035095215L196.1554888888889,147.58991315629746L196.46305833333332,152.63555335998535L196.61684305555553,154.46593305799695L196.77062777777778,152.13534111446805L197.07819722222223,150.71949609120685L197.23198194444444,154.62890169355603L197.38576666666665,148.26328722635904L197.5395513888889,146.28681098090277L197.6933361111111,148.85800647735596L197.84712083333332,142.42945533328583L198.30847500000002,146.89397303263345L198.46225972222223,145.52004305521646L198.76982916666665,149.9151258468628L198.9236138888889,149.61297851138644L199.0773986111111,151.771480984158L199.23118333333335,148.64146677652994L199.53875277777777,146.59339343176947L199.69253750000001,150.26702690124512L199.84632222222223,148.67370732625324L200.11083194444444,153.68121486239963L200.5721861111111,152.76506339179144L200.72597083333332,149.64049837324353L200.87975555555556,153.85683610704208L201.64867916666668,150.71785259246826L201.9562486111111,153.7675626542833L202.26381805555556,146.91046047210693L202.41760277777777,149.54208077324762L202.57138750000001,148.65212620629205L203.03274166666668,147.9253209431966L203.1865263888889,144.54479556613495L203.3403111111111,144.56729751163056L203.49409583333332,146.7981081008911L203.64788055555553,148.11219607459174L203.8016652777778,151.09741920895047L203.95545,152.55477714538574L204.10923472222223,148.53511142730713L204.41680416666668,149.5194272994995L204.5705888888889,148.28912279340955L204.87815833333332,153.17087353600397L205.03194305555553,151.44668017493353L205.1857277777778,151.97330496046277L205.3395125,145.46482849121094L205.80086666666668,153.57986577351886L205.9546513888889,156.41581609514023L206.26222083333332,153.3247504764133L206.41600555555556,148.22724681430392L206.5697902777778,150.50894758436414L206.723575,151.45155239105225L206.87735972222222,153.56892659929062L207.03114444444444,151.83773962656656L207.18492916666665,146.2013490464952L207.3387138888889,152.02608341640897L207.4924986111111,148.77323224809433L207.64628333333332,145.43921438852945L207.9538527777778,146.58799086676703L208.1076375,149.12836201985675L208.41520694444444,150.70868513319226L208.56899166666665,152.7966570324368L208.8765611111111,153.23339059617783L209.03034583333334,146.8372606701321L209.3379152777778,154.29450798034668L209.4917,151.8305303785536L209.64548472222222,148.17959700690375L209.79926944444443,155.42035124037L210.06377916666668,150.6647244559394L210.2175638888889,144.9354995091756L210.52513333333332,146.64899264441596L210.83270277777777,154.25817616780597L211.14027222222222,145.42062886555988L211.29405694444446,150.2737349404229L211.6016263888889,144.21843867831757L211.7554111111111,148.28337637583414L211.9091958333333,146.06172158983017L212.06298055555555,158.33122645484076L212.2167652777778,148.52209748162164L212.37055,154.259872118632L212.52433472222222,155.03302754296197L213.1394736111111,151.61228889889188L213.2932583333333,151.1360938813951L213.44704305555558,153.8451101515028L213.7546125,150.44124942355685L213.90839722222222,145.83631748623318L214.06218194444443,150.4909856584337L214.3697513888889,157.99615086449518L214.6773208333333,150.9658285776774L214.9848902777778,153.65366586049396L215.29245972222222,152.22973155975342L215.60002916666667,151.2209555308024L215.75381388888889,151.6223480436537L215.9075986111111,151.81907833947076L216.0613833333333,150.55899270375568L216.3689527777778,144.66357623206244L216.5227375,155.31478850046793L216.67652222222222,152.08207310570612L216.83030694444443,151.7587817509969L216.98409166666667,149.15616745418973L217.13787638888888,151.47116947174072L217.59923055555555,148.7109366522895L217.7530152777778,154.03855344984265L218.21436944444443,148.06604406568738L218.36815416666667,155.33249982198078L218.52193888888888,149.89771758185492L218.82950833333334,150.4276818169488L218.98329305555555,147.24651516808404L219.44464722222222,151.15471437242294L219.59843194444443,146.4623622894287L219.75221666666667,155.48126559787326L220.1705111111111,153.93744330936008L220.32429583333334,147.6717850367228L220.78565,151.2705169253879L220.93943472222222,149.5938393274943L221.09321944444446,152.08168845706516L221.40078888888888,146.41255611843533L221.86214305555558,155.90208286709256L222.0159277777778,149.81794378492566L222.47728194444446,145.5120703379313L222.63106666666667,150.43352148267957L222.78485138888888,148.9048228793674L223.3999902777778,145.94101185268826L223.70755972222221,153.35609934065076L223.86134444444446,156.4296751022339L224.01512916666667,153.5899365743001L224.16891388888888,151.73591264088947L224.3226986111111,153.8696985244751L224.4764833333333,150.9570049709744L224.63026805555558,155.73280249701605L225.0916222222222,147.38978513081867L225.24540694444445,152.3176237742106L225.39919166666667,144.8083381652832L225.55297638888888,153.63133292728L225.86054583333333,156.93044100867377L226.1681152777778,151.27771451738144L226.3219,150.02159775627985L226.78325416666667,148.82132498423258L226.93703888888888,146.66842905680338L227.24460833333333,145.8948132197062L227.39839305555557,144.3934188418918L227.55217777777779,149.8391752243042L227.7059625,153.81897152794733L227.8597472222222,153.24738947550455L228.01353194444442,150.92391353183322L228.47488611111112,153.40184921688504L228.62867083333333,155.06273873647052L229.2438097222222,154.4908652835422L229.39759444444442,147.38142776489258L229.5513791666667,146.6042160458035L229.7051638888889,151.02911493513318L229.9696736111111,149.74192905426025L230.27724305555554,149.97553899553085L230.43102777777779,148.0464269849989L230.73859722222224,149.07422563764783L230.89238194444445,153.23139741685654L231.19995138888888,151.20084306928845L231.50752083333333,152.39063125186496L231.66130555555557,148.90705500708685L231.81509027777778,151.19074312845865L231.968875,148.75648837619357L232.27644444444445,149.34041415320502L232.43022916666666,154.08306778801813L232.7377986111111,148.33582846323648L232.89158333333336,151.67187447018094L233.19915277777778,146.67897192637125L233.3529375,148.60874833001031L233.66050694444445,142.94135273827447L233.81429166666666,152.64708699120416L233.96807638888887,152.15723111894394L234.1218611111111,153.58708084954156L234.58321527777778,156.28338040245904L234.8907847222222,149.7808543311225L235.04456944444445,152.2077424791124L235.19835416666666,154.20383580525714L235.35213888888887,152.97498247358533L235.81349305555557,153.6738249460856L235.96727777777778,149.98738151126437L236.1210625,156.79640261332193L236.42863194444445,157.44729804992676L236.58241666666666,149.4924669265747L236.7362013888889,153.2932792239719L236.8899861111111,147.22598891788058L237.04377083333333,149.02521790398492L237.35134027777778,157.57626607682968L238.1202638888889,151.41117593977185L238.42783333333333,151.1527503331502L239.3505416666667,149.21035628848605L239.5043263888889,149.98118050893146L239.92262083333333,152.2944574356079L240.07640555555557,149.2415011723836L240.383975,158.35483572218152L240.53775972222223,149.37892564137775L240.99911388888887,153.1622830496894L241.1528986111111,148.84551122453476L241.46046805555557,149.70198387569852L241.61425277777778,152.07231118943955L241.7680375,150.62266953786212L241.92182222222223,153.4285298453437L242.07560694444444,152.38872549268933L242.38317638888887,149.23910003238254L242.69074583333335,156.88702816433377L242.84453055555556,151.93319076961942L242.99831527777778,149.82755417293973L243.1521,150.25858211517334L243.30588472222223,150.86739349365234L243.45966944444444,151.591488732232L243.61345416666666,154.28546290927463L244.22859305555556,157.22034369574652L244.38237777777778,146.25902303059894L244.5361625,150.32863479190402L244.68994722222223,153.87063683403863L244.84373194444444,152.73627302381726L245.3050861111111,156.33597236209445L245.45887083333335,151.48810566796197L245.61265555555556,153.1940573586358L246.22779444444444,147.49872228834363L246.38157916666665,151.22405020395914L246.5353638888889,157.23933135138617L246.99671805555556,154.5766477584839L247.15050277777777,156.10717052883572L247.4580722222222,149.34969817267523L247.61185694444444,151.78387133280435L247.9194263888889,147.87325933244492L248.0732111111111,148.20346270667181L248.38078055555556,152.45490254296197L248.53456527777777,148.38664870791965L248.8421347222222,148.67975097232394L248.99591944444447,156.47874111599393L249.14970416666668,154.04945765601263L249.3034888888889,151.08389822642008L249.4572736111111,146.81061500973172L249.61105833333335,148.9299882253011L250.64449166666665,151.1717613008287L251.10584583333335,150.10477511088052L251.25963055555556,152.55964936150446L251.5672,159.10485977596707L251.87476944444444,153.1241562101576L252.02855416666665,157.53354093763562L252.48990833333335,154.4561769697401L252.64369305555556,158.1240873336792L252.79747777777777,152.42028416527643L252.95126249999998,151.0696603986952L253.41261666666665,155.5103415383233L253.5664013888889,155.2985341813829L253.72018611111113,154.91786024305554L253.87397083333335,151.10566584269205L254.18154027777777,154.38351334465875L254.48910972222222,154.41048537360297L254.64289444444444,154.0938204659356L254.79667916666665,150.22539159986707L254.9504638888889,149.76085260179306L255.41181805555556,152.4481070836385L255.71938749999998,151.18895975748697L255.87317222222222,152.61591879526773L256.02695694444446,140.9901875389947L256.1807416666667,152.58006487952338L256.3345263888889,149.3345744874742L256.4883111111111,151.478594356113L256.6420958333333,157.2792240778605L256.9496652777778,149.6601620780097L257.10345,149.95171991984049L257.2572347222222,153.43808195326062L257.41101944444443,156.20104810926648L257.56480416666665,150.0491467581855L257.71858888888886,151.8970512813992L257.8723736111111,149.86205016242133L258.02615833333334,154.66564146677652L258.17994305555555,146.481478161282L258.33372777777777,156.99608188205295L258.4875125,153.1176929473877L259.41022083333337,150.3149914211697L259.82851527777774,152.87479315863715L259.9823,152.643071492513L260.1360847222222,154.4090167151557L260.44365416666665,160.62768957349988L260.5974388888889,148.3525956471761L261.21257777777777,153.07829560173883L261.36636250000004,150.99753877851697L261.52014722222225,151.13450866275363L261.67393194444446,161.17933983272977L262.1352861111111,157.5760154724121L262.2890708333333,150.8325245115492L262.4428555555555,151.43229081895615L262.59664027777774,152.23386361863876L262.750425,152.49318673875595L263.05799444444443,156.2888412475586L263.21177916666664,150.69321759541828L263.82691805555555,150.20463805728488L263.98070277777776,152.76987149980332" style="fill: none;" fill="none"></path></g></g></g></g></g></g><g transform="translate(53, 176)" clip-path="url(#clip_1)"><clipPath id="clip_1"><rect width="276" height="24"></rect></clipPath><g><g><line x1="0" y1="0" x2="0" y2="5" style="visibility: inherit;" fill="rgb(0, 0, 0)" stroke="rgb(204, 204, 204)" stroke-width="1px"></line><line x1="30.756944444444443" y1="0" x2="30.756944444444443" y2="5" style="visibility: inherit;" fill="rgb(0, 0, 0)" stroke="rgb(204, 204, 204)" stroke-width="1px"></line><line x1="61.513888888888886" y1="0" x2="61.513888888888886" y2="5" style="visibility: inherit;" fill="rgb(0, 0, 0)" stroke="rgb(204, 204, 204)" stroke-width="1px"></line><line x1="92.27083333333333" y1="0" x2="92.27083333333333" y2="5" style="visibility: inherit;" fill="rgb(0, 0, 0)" stroke="rgb(204, 204, 204)" stroke-width="1px"></line><line x1="123.02777777777777" y1="0" x2="123.02777777777777" y2="5" style="visibility: inherit;" fill="rgb(0, 0, 0)" stroke="rgb(204, 204, 204)" stroke-width="1px"></line><line x1="153.78472222222223" y1="0" x2="153.78472222222223" y2="5" style="visibility: inherit;" fill="rgb(0, 0, 0)" stroke="rgb(204, 204, 204)" stroke-width="1px"></line><line x1="184.54166666666666" y1="0" x2="184.54166666666666" y2="5" style="visibility: inherit;" fill="rgb(0, 0, 0)" stroke="rgb(204, 204, 204)" stroke-width="1px"></line><line x1="215.29861111111111" y1="0" x2="215.29861111111111" y2="5" style="visibility: inherit;" fill="rgb(0, 0, 0)" stroke="rgb(204, 204, 204)" stroke-width="1px"></line><line x1="246.05555555555554" y1="0" x2="246.05555555555554" y2="5" style="visibility: inherit;" fill="rgb(0, 0, 0)" stroke="rgb(204, 204, 204)" stroke-width="1px"></line><line x1="276.8125" y1="0" x2="276.8125" y2="5" style="visibility: inherit;" fill="rgb(0, 0, 0)" stroke="rgb(204, 204, 204)" stroke-width="1px"></line></g><g transform="translate(0, 8)"><text x="0" y="0" dx="0em" dy="0.95em" style="text-anchor: middle; visibility: hidden; font-family: Roboto, sans-serif; font-size: 12px; font-weight: 200;" fill="rgb(33, 33, 33)" stroke="none" stroke-width="1px">-10k</text><text x="30.756944444444443" y="0" dx="0em" dy="0.95em" style="text-anchor: middle; visibility: inherit; font-family: Roboto, sans-serif; font-size: 12px; font-weight: 200;" fill="rgb(33, 33, 33)" stroke="none" stroke-width="1px">0</text><text x="61.513888888888886" y="0" dx="0em" dy="0.95em" style="text-anchor: middle; visibility: inherit; font-family: Roboto, sans-serif; font-size: 12px; font-weight: 200;" fill="rgb(33, 33, 33)" stroke="none" stroke-width="1px">10k</text><text x="92.27083333333333" y="0" dx="0em" dy="0.95em" style="text-anchor: middle; visibility: inherit; font-family: Roboto, sans-serif; font-size: 12px; font-weight: 200;" fill="rgb(33, 33, 33)" stroke="none" stroke-width="1px">20k</text><text x="123.02777777777777" y="0" dx="0em" dy="0.95em" style="text-anchor: middle; visibility: inherit; font-family: Roboto, sans-serif; font-size: 12px; font-weight: 200;" fill="rgb(33, 33, 33)" stroke="none" stroke-width="1px">30k</text><text x="153.78472222222223" y="0" dx="0em" dy="0.95em" style="text-anchor: middle; visibility: inherit; font-family: Roboto, sans-serif; font-size: 12px; font-weight: 200;" fill="rgb(33, 33, 33)" stroke="none" stroke-width="1px">40k</text><text x="184.54166666666666" y="0" dx="0em" dy="0.95em" style="text-anchor: middle; visibility: inherit; font-family: Roboto, sans-serif; font-size: 12px; font-weight: 200;" fill="rgb(33, 33, 33)" stroke="none" stroke-width="1px">50k</text><text x="215.29861111111111" y="0" dx="0em" dy="0.95em" style="text-anchor: middle; visibility: inherit; font-family: Roboto, sans-serif; font-size: 12px; font-weight: 200;" fill="rgb(33, 33, 33)" stroke="none" stroke-width="1px">60k</text><text x="246.05555555555554" y="0" dx="0em" dy="0.95em" style="text-anchor: middle; visibility: inherit; font-family: Roboto, sans-serif; font-size: 12px; font-weight: 200;" fill="rgb(33, 33, 33)" stroke="none" stroke-width="1px">70k</text><text x="276.8125" y="0" dx="0em" dy="0.95em" style="text-anchor: middle; visibility: hidden; font-family: Roboto, sans-serif; font-size: 12px; font-weight: 200;" fill="rgb(33, 33, 33)" stroke="none" stroke-width="1px">80k</text></g><line x1="0" y1="0" x2="276.8125" y2="0" fill="rgb(0, 0, 0)" stroke="rgb(204, 204, 204)" stroke-width="1px"></line></g></g></g></g></svg>