<svg viewBox="0 0 330 200" xmlns="http://www.w3.org/2000/svg"><g><g><g><g><g><line x1="31.59375" y1="176" x2="26.59375" y2="176" style="visibility: inherit;" fill="rgb(0, 0, 0)" stroke="rgb(204, 204, 204)" stroke-width="1px"></line><line x1="31.59375" y1="154" x2="26.59375" y2="154" style="visibility: inherit;" fill="rgb(0, 0, 0)" stroke="rgb(204, 204, 204)" stroke-width="1px"></line><line x1="31.59375" y1="132" x2="26.59375" y2="132" style="visibility: inherit;" fill="rgb(0, 0, 0)" stroke="rgb(204, 204, 204)" stroke-width="1px"></line><line x1="31.59375" y1="110" x2="26.59375" y2="110" style="visibility: inherit;" fill="rgb(0, 0, 0)" stroke="rgb(204, 204, 204)" stroke-width="1px"></line><line x1="31.59375" y1="88" x2="26.59375" y2="88" style="visibility: inherit;" fill="rgb(0, 0, 0)" stroke="rgb(204, 204, 204)" stroke-width="1px"></line><line x1="31.59375" y1="66" x2="26.59375" y2="66" style="visibility: inherit;" fill="rgb(0, 0, 0)" stroke="rgb(204, 204, 204)" stroke-width="1px"></line><line x1="31.59375" y1="44" x2="26.59375" y2="44" style="visibility: inherit;" fill="rgb(0, 0, 0)" stroke="rgb(204, 204, 204)" stroke-width="1px"></line><line x1="31.59375" y1="22" x2="26.59375" y2="22" style="visibility: inherit;" fill="rgb(0, 0, 0)" stroke="rgb(204, 204, 204)" stroke-width="1px"></line><line x1="31.59375" y1="0" x2="26.59375" y2="0" style="visibility: inherit;" fill="rgb(0, 0, 0)" stroke="rgb(204, 204, 204)" stroke-width="1px"></line></g><g transform="translate(21.59375, 0)"><text x="0" y="176" dx="0em" dy="0.3em" style="text-anchor: end; visibility: hidden; font-family: Roboto, sans-serif; font-size: 12px; font-weight: 200;" fill="rgb(33, 33, 33)" stroke="none" stroke-width="1px">8</text><text x="0" y="154" dx="0em" dy="0.3em" style="text-anchor: end; visibility: inherit; font-family: Roboto, sans-serif; font-size: 12px; font-weight: 200;" fill="rgb(33, 33, 33)" stroke="none" stroke-width="1px">9</text><text x="0" y="132" dx="0em" dy="0.3em" style="text-anchor: end; visibility: hidden; font-family: Roboto, sans-serif; font-size: 12px; font-weight: 200;" fill="rgb(33, 33, 33)" stroke="none" stroke-width="1px">10</text><text x="0" y="110" dx="0em" dy="0.3em" style="text-anchor: end; visibility: inherit; font-family: Roboto, sans-serif; font-size: 12px; font-weight: 200;" fill="rgb(33, 33, 33)" stroke="none" stroke-width="1px">11</text><text x="0" y="88" dx="0em" dy="0.3em" style="text-anchor: end; visibility: hidden; font-family: Roboto, sans-serif; font-size: 12px; font-weight: 200;" fill="rgb(33, 33, 33)" stroke="none" stroke-width="1px">12</text><text x="0" y="66" dx="0em" dy="0.3em" style="text-anchor: end; visibility: inherit; font-family: Roboto, sans-serif; font-size: 12px; font-weight: 200;" fill="rgb(33, 33, 33)" stroke="none" stroke-width="1px">13</text><text x="0" y="44" dx="0em" dy="0.3em" style="text-anchor: end; visibility: hidden; font-family: Roboto, sans-serif; font-size: 12px; font-weight: 200;" fill="rgb(33, 33, 33)" stroke="none" stroke-width="1px">14</text><text x="0" y="22" dx="0em" dy="0.3em" style="text-anchor: end; visibility: inherit; font-family: Roboto, sans-serif; font-size: 12px; font-weight: 200;" fill="rgb(33, 33, 33)" stroke="none" stroke-width="1px">15</text><text x="0" y="0" dx="0em" dy="0.3em" style="text-anchor: end; visibility: hidden; font-family: Roboto, sans-serif; font-size: 12px; font-weight: 200;" fill="rgb(33, 33, 33)" stroke="none" stroke-width="1px">16</text></g><line x1="31.59375" y1="0" x2="31.59375" y2="176" fill="rgb(0, 0, 0)" stroke="rgb(204, 204, 204)" stroke-width="1px"></line></g></g><g transform="translate(31, 0)" clip-path="url(#clip_0)"><clipPath id="clip_0"><rect width="298" height="176"></rect></clipPath><g><g><g><line x1="0" y1="0" x2="0" y2="176" fill="rgb(0, 0, 0)" stroke="rgb(66, 66, 66)" stroke-width="1px" opacity="0.25"></line><line x1="33.15625" y1="0" x2="33.15625" y2="176" fill="rgb(0, 0, 0)" stroke="rgb(66, 66, 66)" stroke-width="1px" opacity="0.25"></line><line x1="66.3125" y1="0" x2="66.3125" y2="176" fill="rgb(0, 0, 0)" stroke="rgb(66, 66, 66)" stroke-width="1px" opacity="0.25"></line><line x1="99.46875" y1="0" x2="99.46875" y2="176" fill="rgb(0, 0, 0)" stroke="rgb(66, 66, 66)" stroke-width="1px" opacity="0.25"></line><line x1="132.625" y1="0" x2="132.625" y2="176" fill="rgb(0, 0, 0)" stroke="rgb(66, 66, 66)" stroke-width="1px" opacity="0.25"></line><line x1="165.78125" y1="0" x2="165.78125" y2="176" fill="rgb(0, 0, 0)" stroke="rgb(66, 66, 66)" stroke-width="1px" opacity="0.25"></line><line x1="198.9375" y1="0" x2="198.9375" y2="176" fill="rgb(0, 0, 0)" stroke="rgb(66, 66, 66)" stroke-width="1px" opacity="0.25"></line><line x1="232.09375" y1="0" x2="232.09375" y2="176" fill="rgb(0, 0, 0)" stroke="rgb(66, 66, 66)" stroke-width="1px" opacity="0.25"></line><line x1="265.25" y1="0" x2="265.25" y2="176" fill="rgb(0, 0, 0)" stroke="rgb(66, 66, 66)" stroke-width="1px" opacity="0.25"></line><line x1="298.40625" y1="0" x2="298.40625" y2="176" fill="rgb(0, 0, 0)" stroke="rgb(66, 66, 66)" stroke-width="1px" opacity="0.25"></line></g><g><line x1="0" y1="176" x2="298.40625" y2="176" fill="rgb(0, 0, 0)" stroke="rgb(66, 66, 66)" stroke-width="1px" opacity="0.25"></line><line x1="0" y1="154" x2="298.40625" y2="154" fill="rgb(0, 0, 0)" stroke="rgb(66, 66, 66)" stroke-width="1px" opacity="0.25"></line><line x1="0" y1="132" x2="298.40625" y2="132" fill="rgb(0, 0, 0)" stroke="rgb(66, 66, 66)" stroke-width="1px" opacity="0.25"></line><line x1="0" y1="110" x2="298.40625" y2="110" fill="rgb(0, 0, 0)" stroke="rgb(66, 66, 66)" stroke-width="1px" opacity="0.25"></line><line x1="0" y1="88" x2="298.40625" y2="88" fill="rgb(0, 0, 0)" stroke="rgb(66, 66, 66)" stroke-width="1px" opacity="0.25"></line><line x1="0" y1="66" x2="298.40625" y2="66" fill="rgb(0, 0, 0)" stroke="rgb(66, 66, 66)" stroke-width="1px" opacity="0.25"></line><line x1="0" y1="44" x2="298.40625" y2="44" fill="rgb(0, 0, 0)" stroke="rgb(66, 66, 66)" stroke-width="1px" opacity="0.25"></line><line x1="0" y1="22" x2="298.40625" y2="22" fill="rgb(0, 0, 0)" stroke="rgb(66, 66, 66)" stroke-width="1px" opacity="0.25"></line><line x1="0" y1="0" x2="298.40625" y2="0" fill="rgb(0, 0, 0)" stroke="rgb(66, 66, 66)" stroke-width="1px" opacity="0.25"></line></g></g></g><g><g><line x1="0" y1="352" x2="298.40625" y2="352" fill="rgb(0, 0, 0)" stroke="rgb(153, 153, 153)" stroke-width="1.5px"></line></g></g><g><g><line x1="33.15625" y1="0" x2="33.15625" y2="176" fill="rgb(0, 0, 0)" stroke="rgb(153, 153, 153)" stroke-width="1.5px"></line></g></g><g><g><g><g><g><path stroke="rgb(255, 112, 67)" stroke-width="2px" d="M43.434687499999995,-3.959237103123904L43.60046875,4.695544633239841L43.76625,6.924879119378456L44.217175,7.191953686355209L44.38295625,5.3744777837980955L44.5487375,4.8387339113969645L44.71451875,6.473825979332332L45.04608125,5.610481195455758L45.2118625,8.196538503747139L45.543425,8.403897223346707L45.8749875,12.639456711750643L46.20655,20.48077790894964L46.37233125,17.596995645502325L46.5381125,19.113225158301905L46.70389375,18.35359335913994L47.035456249999996,15.186628824318571L47.2012375,10.1491606747149L47.5328,21.482027227587082L47.698581250000004,18.478812894168772L47.8643625,20.12514326628664L48.195924999999995,16.434685263970874L48.36170625,12.795408936702696L49.19061249999999,13.64823153755875L49.356393749999995,14.34311296428329L49.8537375,25.430709850103263L50.01951875,28.0337654181186L50.516862499999995,32.45552994178912L50.68264375,25.59697748045433L51.01420625,26.061097865225747L51.1799875,30.720569851947964L51.345768750000005,35.06759276566096L51.51155,38.26280831442587L51.67733125,38.4317557284016L51.8431125,40.534041230009734L52.00889375,40.84033135421676L52.34045625,38.89952733425861L52.506237500000005,37.329938568523914L52.67201875,34.047227667481536L52.8378,34.285313681787734L53.33514375,40.32022156478556L53.500925,41.088821781644775L54.16405,41.798646767717365L54.32983125,39.3273653982769L54.78075625,41.610966968458314L54.946537500000005,46.52110670085037L55.11231875000001,42.36709975049073L55.278099999999995,41.663395684034704L55.44388125,46.86089828078212L55.77544375,48.97345272579347L56.107006250000005,47.1650607101831L56.2727875,45.98653490023092L56.438568749999995,42.45810136006044L56.60435,46.722571997676894L56.77013125,44.13165950109639L56.9359125,45.82979602414419L57.267475000000005,46.76155711888103L57.43325625,52.66714316415086L57.5990375,48.85731638555107L57.764818749999996,49.75538790872321L57.9306,55.29251192003857L58.42794375,53.709970652999736L59.09106875,49.73740130659475L59.42263125,51.83889082668144L59.5884125,51.20511443375301L59.919975,46.283790248386566L60.08575625,50.83605021104367L60.41731875,53.55509463468282L60.583099999999995,55.860853716844815L60.74888125,59.32486107654245L61.08044375,58.30437099162859L61.412006250000005,59.7347038938053L61.743568749999994,56.04493839463278L61.909349999999996,53.92702864957266L62.07513125,50.86976470561274L62.40669375,52.65225890881686L62.572475000000004,56.705188200514726L62.738256250000006,61.42568631508424L62.904037499999994,59.13933284007595L63.069818749999996,64.14090256049087L63.40138125,63.44026281925353L63.5671625,63.54801694448182L63.732943750000004,62.70774922308558L63.898725000000006,63.67262469254277L64.06450625000001,63.46768919540849L64.2302875,66.57886486001857L64.39606875,66.60709522216347L64.8934125,66.7351227644016L65.05919375,65.93705525654136L65.224975,67.59054736290918L65.51011875,69.10461223122209L66.0074625,69.25403168199497L66.50480625,76.25469485758566L66.6705875,70.49904036425843L66.83636875,70.26399865092813L67.16793125,71.30084608997097L67.3337125,70.65458754900209L67.49949375,65.19734237315124L67.665275,65.44294155670326L67.9968375,67.79863465448095L68.16261875,70.46264255416318L68.3284,75.11793816311311L68.6599625,77.60388057364914L68.991525,73.5380424555176L69.3230875,77.81217178678713L69.48886875,73.63221731767777L69.82043125,72.12941965452268L69.98621250000001,76.57003231639524L70.15199375,76.38673832294259L70.317775,79.37709990904872L70.48355624999999,75.72964358190384L70.81511875,72.38990101730639L70.9809,71.5695675940264L71.14668125,70.24541029518537L71.644025,74.97799797764833L71.9755875,77.17899467892298L72.14136875,74.67361995188506L72.47293125,71.77757819061347L72.6387125,72.71656217315714L72.80449374999999,73.44927629315207L72.970275,80.52408542921155L73.13605625,78.39187969380622L73.3018375,80.83271845349076L73.6334,77.55590548615695L73.79918125,77.55962437689924L74.13074375,74.21151849210634L74.296525,73.3876105581544L74.46230625,75.09723537175789L74.6280875,75.9127235472735L74.79386875,78.43533630731918L74.95965,71.94881927706729L75.45699375000001,79.19414050422867L75.622775,83.35122169877741L75.78855625000001,85.3571792472938L75.9543375,84.01526656326888L76.4052625,86.9708077345922L76.57104375,85.44631444422214L76.73682500000001,86.06706311111334L76.90260625,84.38728452804496L77.23416875000001,80.22866664578204L77.39994999999999,78.6340856686216L78.22885624999999,76.37686940044051L78.56041875,80.28161251550846L78.7262,82.6711365461703L79.22354375,85.55538197042682L79.38932499999999,80.78962490369162L79.55510625,87.50458167439272L79.88666875,88.14863370922548L80.05245,83.54177727143372L80.21823125,82.63567579889542L80.3840125,83.87692168417121L80.54979375,83.75749380029764L80.715575,76.79290265224887L80.88135625,84.72374040116375L81.0471375,84.73668869870608L81.37870000000001,85.54271130882324L81.54448125,90.64334223939554L81.87604375,89.7578215972994L82.04182499999999,88.19577953674874L82.70495,88.24164069568208L82.87073125,90.96260145232137L83.0365125,86.0124325449768L83.20229375000001,87.32938716980834L83.368075,86.23871201379907L83.53385625,90.58924313845523L84.19698125,90.15758412159856L84.3627625,91.84779220269547L84.52854375,89.63299172786725L84.69432499999999,86.15760417978674L84.86010625,86.1535362017197L85.0258875,85.17810499739903L85.35745,83.7167117838398L85.52323125000001,85.4253525402746L85.6890125,85.053213385737L85.85479375,87.79166847944023L86.02057500000001,84.40425066041807L86.18635624999999,86.70086796216884L86.51791874999999,87.38236693818999L86.6837,85.17732284235737L86.96884375,84.75627926449643L87.134625,83.1533685413639L87.30040625000001,86.42191232965236L87.63196875000001,90.10309780672695L88.1293125,92.57271836421197L88.460875,94.17800907028499L88.62665625,93.40589220364558L88.7924375,94.69200410270491L88.95821875,95.19939664497258L89.12400000000001,95.80552818473743L89.78712499999999,94.54139643965104L89.95290625,97.02430533205235L90.28446875,91.37987860938765L90.61603124999999,92.7170491749099L90.7818125,95.09598573053188L90.94759375,92.35813159945197L91.113375,93.5745614242708L91.27915625,91.01036948395702L91.44493750000001,94.40916511078436L91.61071875,95.6283771792636L91.77650000000001,91.14234842059525L91.94228125000001,95.97110164879271L92.27384375,91.23318436574044L92.43962499999999,90.67998019952239L92.60540625,98.08699812947904L92.7711875,98.80796669995306L93.10275,90.88813619062611L93.26853125,94.99643609669985L93.60009375,96.30105837432853L93.76587500000001,92.18572154193112L93.93165625,88.2823618802368L94.09743750000001,88.35575211959718L94.26321875,95.63280323098684L94.42899999999999,95.4482236561214L94.59478125,96.35838655573338L94.76056249999999,96.75275089706307L94.92634375,91.67156707266165L95.092125,87.7225943268489L95.75525,90.90666145450777L95.92103125,90.64701200942343L96.08681250000001,99.08401561629857L96.41837500000001,96.44678006680063L96.58415624999999,100.10227061576397L97.24728125,101.81355963508335L97.69820625000001,101.00305811381365L97.8639875,99.28355407605187L98.02976874999999,97.40831298762328L98.5271125,100.52342025717358L98.69289375,105.68637499976316L98.858675,101.80965672593211L99.02445625,95.72303768790303L99.1902375,95.76827543256604L99.35601875,94.96572676466656L99.5218,95.02787813643664L99.68758125000001,96.88382969558272L99.8533625,99.6511771813633L100.01914375000001,93.76162381980429L100.18492499999999,94.14200923450952L100.35070625,95.13424499993423L100.5164875,96.7424404630953L100.68226874999999,96.68909907399976L101.01383125,93.76046338116743L101.34539375,98.14553050062426L101.51117500000001,97.61231677449564L101.67695625,100.32841606567393L101.8427375,101.69542915600593L102.34008125,97.82041987763677L102.50586249999999,99.3132381021192L102.67164375,99.27313344354691L102.837425,103.58174734518087L103.33476875,100.79076135876869L103.50055,103.03051379157955L103.83211250000001,101.74667512675438L103.99789375,107.432577677371L104.49523749999999,102.85104212033865L104.66101875,101.48735943358015L104.82679999999999,100.5852768356852L105.1583625,105.99492220492678L105.32414375,103.15583927876659L105.489925,104.59374084142988L105.98726875,107.2635610942134L106.15305000000001,106.28989630008276L106.31883125,108.08381632008873L106.48461250000001,103.87710177325442L106.65039374999999,100.6758536542847L106.816175,100.36365504535402L106.98195625,101.27415387315969L107.14773749999999,98.80470991422786L107.4793,102.80607423955232L107.64508125,101.4980518923642L107.8108625,98.76878505387555L107.97664375000001,102.97055219077261L108.75913125,98.27382759131905L108.9249125,97.68545133994766L109.09069375,100.74722432569712L109.256475,100.34474343941244L109.42225625,105.97963430217285L109.75381875000001,109.25379315454592L110.08538125000001,112.85998844765916L110.41694374999999,111.72020602025565L110.582725,106.7212753760694L110.74850624999999,103.58953631328814L111.08006875,107.12170198206468L111.24585,105.73769709255909L111.41163125,105.1218525695003L111.74319375,108.64868832392673L112.07475625000001,104.92090549923888L112.2405375,104.71227688108631L112.57209999999999,109.06717936107366L112.73788125,111.1136634821227L112.9036625,110.76769760099236L113.40100625,105.45944210795868L113.5667875,108.35345075671856L113.73256875,108.21822279778112L113.89835000000001,107.72994033150071L114.06413125,108.89577669890043L114.2299125,106.79227253789495L114.39569375,102.75500982400648L114.72725625000001,99.98123160241167L114.89303749999999,93.36828226589033L115.05881875,99.89528576578421L115.2246,104.15451612499788L115.39038125,105.79727891938352L115.5561625,107.59797489557539L116.05350625,110.08678557821437L116.21928750000001,109.73489147632316L116.55085000000001,109.33388685112592L116.71663125,104.14290642097828L116.88241249999999,108.71885161015534L117.21397499999999,110.84230339773382L117.37975625,104.47647197394303L117.5455375,106.94388870804744L118.04288125,106.81136572604913L118.2086625,108.56785962727986L118.37444375,110.61881559936593L118.540225,111.59689742236371L118.70600625,108.38805330937525L118.87178750000001,108.20297282424819L119.15693125,110.74513574533017L119.3227125,112.94720809514733L119.48849375,113.94694958243018L119.82005625000001,116.85245395966318L119.9858375,113.65019613068071L120.15161875000001,112.59811099505879L120.3174,115.52398424229898L120.48318124999999,112.48348234225438L120.6489625,112.73954008894634L120.980525,114.0043281488268L121.47786875,112.93076842860273L122.14099375,118.39139257571634L122.47255625000001,113.15188113869155L122.6383375,116.04871611607625L122.80411874999999,110.34472191818088L122.9699,109.30794704251008L123.13568124999999,110.30505707438297L123.3014625,106.39282962426844L123.46724375,109.14512007680716L123.633025,109.35844274310577L123.79880625,113.93851916759195L123.96458750000001,115.67601891022315L124.13036875,115.05811226166122L124.29615,118.92115809796354L124.46193125,115.11034103797734L124.79349375000001,111.4691770348958L124.95927499999999,111.70601946556636L125.45661874999999,116.8687548067812L125.78818125,115.61690107742808L125.9539625,117.507393454074L126.11974375,116.6195811835284L126.285525,118.5026691202733L126.45130625,114.15731283691007L126.78286875,115.37838809887452L127.44599375,114.90048943281104L127.611775,118.43071800661048L127.77755625,123.13081544752097L128.10911875,117.19396015474307L128.2749,114.64735296052162L128.44068124999998,113.14040304828563L128.6064625,111.21003528600265L128.938025,112.49138219455081L129.2695875,113.88774389802931L129.88629375,115.25222183930586L130.54941875,118.7987276653511L131.21254375,122.79932174325364L131.378325,119.1091767861866L131.54410625,119.94630746331353L131.87566875000002,120.74668157271469L132.04145,120.56582510573818L132.20723125,119.33472745480036L132.3730125,120.65705824412045L132.53879375,112.10023012469492L132.87035625,107.82827772325443L133.0361375,111.10322502628665L133.20191875,107.93592869863335L133.3677,109.75949804559603L133.53348125,113.74637647017991L133.6992625,117.44054896560405L134.030825,114.65835174874718L134.19660625,113.70579748723661L134.36238749999998,114.32671488150211L134.69395,116.60192492499502L135.0255125,117.88263246354194L135.19129375,113.63695633969743L135.357075,118.51352680064466L135.52285625,115.45123665533794L136.02020000000002,116.59428249002895L136.18598125,118.14358884216188L136.51754375,118.64434956384206L136.683325,120.30642861647907L136.84910625,115.9141863019675L137.18066875,114.44044903703988L137.51223125,118.99166123740949L137.6780125,117.53414392872497L138.009575,119.48256292583851L138.17535625,114.2135528006691L138.3411375,113.17492886057723L138.50691874999998,117.27133457464713L138.6727,116.71504607559882L139.17004375,117.76241616464638L139.335825,119.30137288604368L139.50160625,116.67245657464377L139.6673875,119.91709012520619L139.99895,118.99747697551433L140.61565625,115.84429535889261L140.7814375,115.47140723242538L140.94721875,121.50191858872277L141.113,121.28058154263796L141.27878125,123.1671846799773L141.4445625,122.72177382068168L141.94190625000002,116.79153978679376L142.1076875,122.94823930176376L142.43925,125.30775202222036L142.60503125,123.14690707270721L142.7708125,123.6938769706751L142.93659375,125.01513218216095L143.102375,126.72194475729461L143.59971875,125.18359257459161L143.7655,121.80602499055576L143.93128125,122.55282352094481L144.0970625,122.87628487184422L145.09175,126.6298274721788L145.4233125,124.81778906143228L145.58909375,125.21112479183981L146.08643750000002,122.02214759238908L146.41799999999998,118.78868070631236L146.58378125000002,121.30369624727378L146.7495625,120.90038638850098L146.91534375,119.8750684114697L147.081125,119.82924713208688L147.24690625,122.41892050215252L147.57846875,123.91576575343996L147.74425,119.88906669083352L147.91003125,121.90389747299619L148.0758125,120.37155753897346L148.407375,120.36220988349149L148.57315625,123.46241107413786L148.73893750000002,126.37738942402373L148.90471875,123.16264657555685L149.23628125,124.93998143898646L149.4020625,124.93043478624344L149.56784375,121.55229773698045L149.733625,122.48383072959064L149.89940625,117.53366162745164L150.0651875,118.75655485610967L150.39675,117.25835796249392L150.89409375000002,117.12983090908814L151.059875,118.37442335624391L151.51080000000002,128.2268276282483L152.17392500000003,130.74603004862868L152.33970625,134.86757576233148L152.67126875,133.2240549788833L152.83704999999998,131.23082046901945L153.1686125,134.06781585929252L153.50017499999998,134.14426693867125L153.8317375,137.9181382271676L153.99751875,138.62302267629076L154.1633,139.51218946026668L154.4948625,135.73416990784946L154.66064375000002,135.84081093518822L154.826425,135.9304257395797L154.99220624999998,135.49790922182402L155.1579875,132.44398707972528L155.32376875,131.90499316946602L155.48955,135.50523116168938L155.65533125,140.3338927863691L155.8211125,139.59828336469255L155.98689375,136.36915220875696L156.15267500000002,140.8335305098245L156.4842375,139.44152303001582L156.98158125,140.31112887538254L157.14736249999999,138.67525688455567L157.31314375,134.98515825060645L157.64470625,140.256750467942L157.8104875,137.01737044067733L157.97626875,135.09468129760953L158.14204999999998,135.6202227800306L158.30783125000002,136.39157870586013L159.1367375,138.01017610535203L159.30251875,133.3567419547151L159.79986250000002,137.17032111277047L159.96564375,138.19087369793573L160.29720625,142.42855086060712L160.4629875,141.8559479602119L161.12611249999998,142.48338765430097L161.29189375,141.1526744993189L161.457675,141.78143853137843L161.78923749999998,138.90794316643448L162.07438125000002,140.4169674379466L162.2401625,139.72978556530705L162.40594375,138.5475637219967L162.571725,143.1219433845652L162.73750625000002,143.47279219040706L162.9032875,144.0965148223009L163.23485,146.15352885798012L163.40063125,145.032873540374L163.5664125,141.06387085274002L163.73219375,140.32832342717134L163.897975,143.5913879772012L164.06375624999998,145.8102954328051L164.22953750000002,144.05471287369676L164.39531875,141.10639110922781L164.5611,141.2449671728609L165.05844375,140.82206346411692L165.39000625,143.4687454332065L165.55578749999998,139.45448563272663L165.88735,139.0374222145969L166.2189125,140.05055772939292L166.38469375,137.77006623553612L166.550475,138.70422495250332L166.71625625000001,136.00990450885553L166.8820375,138.4391641408602L167.2136,142.94256647768017L167.37938125,141.71540103162764L168.04250625,141.59380665901568L168.2082875,144.57024655034104L168.37406875,143.35540629202103L168.53985,144.16918936237084L168.70563124999998,143.39413599291078L169.03719375,140.45437252592225L169.20297499999998,141.17843864006508L169.53453750000003,140.90015095259375L169.70031875,139.67529107204456L170.19766249999998,141.93103371305097L170.36344375000002,146.1865987434556L170.529225,142.18398912278232L170.69500625,140.76847223953854L170.8607875,138.88802120993407L171.02656875000002,139.58384956067727L171.19235,144.058737928545L171.35813125,142.7999369709942L171.5239125,135.76701433713754L171.68969374999998,134.57137956175515L171.855475,135.39042524071522L172.02125625,140.44582206947794L172.35281874999998,139.113225358386L172.80374375,140.56907352069567L172.96952499999998,146.08717699205607L173.3010875,146.1392370424016L173.46686875,143.2112270093765L173.63264999999998,140.88353247027433L173.9642125,138.95939041722318L174.12999375,135.7538355442792L174.46155625,139.2032748373097L174.6273375,142.6234579748956L174.9589,141.13817390603114L175.2904625,141.83045225621632L175.78780625,142.77383974362237L175.9535875,144.00721384983555L176.45093125,145.96828094662007L176.78249375,148.57030877793298L176.94827500000002,152.38629384830276L177.11405625,148.68053576943086L177.44561875,146.12063225267417L177.61139999999997,145.65067601298145L177.77718125,142.94228549060134L178.27452499999998,139.19895054851122L178.44030625000002,140.32857290479035L178.77186875,139.58878879292303L179.10343125,138.18861186828312L179.2692125,138.43968537048158L179.76655624999998,140.10611926672254L180.09811875,143.33084609006283L180.2639,146.99378963645958L180.42968125,140.79604947767652L180.76124375,139.77470152498483L180.92702500000001,145.13741918159243L181.09280625,142.9752112135453L181.2585875,141.3326929512717L181.42436874999999,141.7365412773548L181.59015000000002,141.3845891035711L181.75593125,142.96974653465242L181.92171249999998,142.99341255702194L182.08749375,143.3762370483733L182.253275,141.254013713399L182.41905625,143.14616738331284L182.75061875,146.09589897735097L182.91639999999998,147.67205125774848L183.2479625,145.50531129053778L183.6988875,143.58946301943988L183.86466875,143.71386000160533L184.36201250000002,143.10102336790652L184.52779375,144.42246323339043L184.85935625,138.52222259945808L185.0251375,141.97635006968463L185.19091875,142.8951995376604L185.35670000000002,145.55647625946148L185.52248125,145.56494273199525L185.85404375000002,143.77658084305455L186.019825,141.13205720944603L186.3513875,139.80223237254262L186.51716875,140.95689789520526L186.84873125000001,141.07924509088292L187.0145125,137.69521322274264L187.18029375,138.43196481719048L187.34607499999998,139.03829571160338L187.51185625000002,144.80494459004797L187.6776375,144.7335992308354L187.84341874999998,148.9160132677493L188.0092,149.0024186295949L188.672325,147.87333457009092L188.83810624999998,144.72280597887095L189.00388750000002,146.42166347623856L189.16966875,141.98923389506933L189.33545,143.39408278699275L189.50123125,143.58515954158042L189.66701250000003,143.4064599522432L189.83279375,144.52196129849438L189.998575,143.92900472099114L190.6617,144.03224108943064L190.82748125,147.04016069369746L190.9932625,147.50550434468525L191.15904375,147.55710204528773L191.6563875,144.94721975378394L191.82216874999997,145.8872413066161L191.98795,146.13978115481925L192.3195125,143.16209745265715L192.48529374999998,142.50797395621345L192.81685625,140.09376981684332L193.14841875,139.13498198287945L193.3142,139.77208263455188L193.47998125,141.74907111393426L193.977325,140.16899985830196L194.26246875,141.88142768597726L194.42825,141.83535380396918L194.59403125,143.3370780660729L194.75981249999998,150.4565635510695L194.92559375000002,147.04427580764366L195.091375,144.8259681029944L195.4229375,144.66364955686498L195.58871875000003,142.96970081199981L196.0860625,146.26911449354756L196.25184374999998,144.78748722029846L196.91496874999999,145.51992656679818L197.24653125,144.1982924574129L197.4123125,137.71923716268014L197.57809375,142.80664987207098L197.74387499999997,143.34775029921914L197.90965625,142.19245602669946L198.0754375,141.14960447539468L198.57278125,144.2337751364087L198.7385625,147.2259874329194L198.90434375,143.67596034915596L199.070125,144.08061359352678L199.23590625,141.77765816466098L199.56746875000002,144.37923909435324L199.89903125,146.9112142634967L200.0648125,146.48290790990467L200.23059375000003,146.38983477279825L200.56215625,147.4808956451731L200.7279375,144.37728555604917L200.89371875,141.03104433777992L201.0595,143.40192433216015L201.22528125,143.63702099333904L201.3910625,144.343873362605L201.55684374999998,143.05404359153758L201.72262500000002,142.86565369398502L201.88840625,140.41572400350037L202.0541875,140.14909260522518L202.7173125,142.65999084145542L203.04887499999998,143.28671105760765L203.21465625000002,142.68349208866616L203.3804375,140.13644031545556L203.54621875,142.998104881412L203.712,145.29268083045852L204.20934375000002,146.73135343235714L204.54090624999998,144.49155864144555L205.32339375,147.40363574639076L205.65495625,150.7601624048657L205.8207375,149.36583407622018L206.15230000000003,149.6145085328903L206.815425,151.32081006968534L206.98120625,153.79033836725065L207.1469875,149.4836443960828L207.31276875,151.08646273017897L207.47854999999998,144.51869434953318L208.141675,147.51577441001285L208.4732375,145.52780418458195L208.63901875,143.7224404148019L208.97058124999998,148.5019556124065L209.13636250000002,147.2348289155396L209.63370625,150.36664884468507L209.7994875,145.8292643617427L209.96526875,144.14179308359834L210.29683125,142.8792523333133L210.62839375000001,143.19804471663838L210.794175,144.283817064358L210.95995625,142.69512315487458L211.29151875,149.71260154185052L211.4573,150.59560368023728L211.7888625,152.3216146800662L211.95464375,148.80218969427017L212.12042499999998,146.17422992373986L212.4519875,147.58127287856033L212.61776874999998,149.9136608828979L212.78355,147.99257442890865L212.94933125,150.95082343542137L213.1151125,146.3387870605204L213.28089375,142.4959197888025L213.77823750000002,141.27623458202171L213.94401875,146.2265874594181L214.27558125,148.001168540104L214.44136250000003,148.98469618021477L214.60714375,142.75145918762104L214.77292500000001,143.30521129748476L215.10448749999998,144.24380869377407L215.27026875,140.54671627705545L215.43605,147.29798597350864L215.72119375,142.268133319945L216.2185375,136.48143968434982L216.38431874999998,143.363121470522L216.55010000000001,138.52820308250853L217.37900625,144.62665390516918L217.71056875,145.692854067955L218.04213125,145.31410569028475L218.20791250000002,145.19442960069426L218.37369375,144.9173390653482L218.8710375,146.36335281054681L219.03681875,149.92293646049802L219.2026,146.61720639534178L219.36838125,150.37545918266403L219.53416249999998,148.2244522979285L219.69994375000002,147.06088292660866L219.865725,144.5934778455648L220.03150625,142.45521848224126L220.36306875000002,144.3456141520889L220.52885,142.3057449560971L220.8604125,142.4378735483653L221.02619374999998,145.74891263609925L221.191975,141.82798756579038L221.35775625,147.5656424845426L221.85510000000002,145.21868312866502L222.02088125,142.22492707080252L222.35244375,146.4766508835948L222.518225,143.4689052640436L222.68400625,142.62939308518395L222.84978750000002,146.03071431180373L223.01556875,145.0071805707248L223.18134999999998,145.005062889554L223.34713125,147.33222016781443L223.5129125,151.17892499619646L223.67869375,149.82805812271786L223.844475,149.88648025937295L224.1760375,147.17196155039915L224.34181875000002,149.7478935745266L224.67338125,147.63956484954997L224.8391625,148.10706425763038L225.170725,150.62151928577939L225.33650624999999,152.846058391536L225.66806875,150.3411296027927L225.83385,149.445500362994L225.99963125,148.98080882375345L226.1654125,150.2624980505997L226.45055625,147.12977284769383L226.6163375,150.48950540173155L226.94789999999998,147.3167424866444L227.11368125,149.66899675541438L227.2794625,145.69788395412755L227.61102499999998,147.42083837418554L227.77680625000002,149.0607557405758L228.10836875,148.03106632886696L228.27415,148.3946941796444L228.43993124999997,144.85271921774756L228.6057125,143.93985723865637L228.77149375000002,142.52141861565477L228.937275,143.03676169185377L229.10305624999998,141.3550793234619L229.76618125,146.12338618660644L229.9319625,148.61245563164164L230.09774375,149.45397240242247L230.42930625,145.84374345732263L230.5950875,146.5470038258584L230.76086875,148.0242540838451L231.09243125,150.80075087560004L231.42399375,151.93136071212763L231.75555625,148.40976628689572L232.08711875,147.72162652628785L232.41868125000002,143.23840194116335L232.5844625,146.70702203017652L232.75024375,151.19266490877973L232.916025,144.2971182628948L233.2475875,144.09468712594978L233.41336875,143.53018874041362L233.57915,141.40439254112317L233.74493124999998,142.41713503639266L233.91071250000002,146.370636246445L234.07649375,144.7883447300447L234.5738375,148.650152223769L234.73961875,145.477206812777L235.23696249999998,145.55627953200215L235.40274375,149.5361274909298L235.568525,147.37301621623757L235.90008749999998,149.55958777539684L236.06586875,151.0202932230994L236.5632125,149.77098025514871L236.72899375,150.47831843873374L236.894775,146.893082371834L237.3457,149.77724880664533L237.51148125,152.68814722710243L238.008825,148.94529418953294L238.17460624999998,146.68173187260646L238.34038750000002,151.3469488220502L238.67195,149.9201611755543L239.16929375,147.97758346070367L239.335075,149.38596566480112L239.83241875000002,150.72750225044317L239.9982,149.60658496842996L240.16398125,149.57830568686853L240.82710625,150.31575858912308L241.15866874999998,147.84871723843477L241.32445,152.56603805180112L241.49023125,152.5999202248795L241.6560125,153.03434407218353L241.82179374999998,153.3506899088863L241.987575,151.9594907885935L242.15335625,147.6397455290643L242.6507,146.9655802581124L242.81648125,145.62010743221117L242.98226250000002,147.7204905152349L243.14804375,141.04568465948276L243.47960625,139.86403265237908L243.81116875,145.12621225500163L243.97695,148.17955578317674L244.47429375000002,152.6798625287439L244.640075,145.40139362198266L244.97163749999999,145.97974684823845L245.13741875000002,144.30767232769307L245.3032,145.61679257508266L245.46898125,145.3617076251277L245.6347625,148.2942660911899L245.80054374999997,144.59379903459677L246.2978875,148.59212079038696L246.46366874999998,145.53692759508178L247.12679375,144.21559298893382L247.292575,144.99611986196382L247.45835625,144.57136576483452L247.62413750000002,140.9687357491839L247.90928125,143.31702178398302L248.24084375,143.95296712922772L248.406625,149.33848025922606L248.7381875,148.7260236413755L248.90396875000002,149.65380571314557L249.23553124999998,146.99442347305336L249.56709375,146.5371387029726L249.732875,150.4104942813539L249.89865625,151.2140936574354L250.0644375,150.39261329895345L250.39600000000002,151.05748112634473L250.56178125,152.41576308986936L250.89334374999999,148.65667526114817L251.05912500000002,151.01470675581L251.3906875,150.52629536696256L251.55646875,149.03409310762868L251.88803125,150.5438803946065L252.0538125,149.36250377387327L252.21959375,148.42227597648218L252.38537499999998,146.96323954829163L252.88271875,145.1804888949906L253.0485,150.11912021077367L253.21428125,151.50290370605404L253.3800625,151.74769940747035L253.54584375000002,149.81698741181617L253.711625,147.62768786945298L254.20896875,151.0405363666913L254.37475,148.3774857299269L254.54053125,149.6462416515792L254.7063125,150.38487786448266L254.87209375,147.01662236688296L255.037875,144.35393246553997L255.20365625,146.97829194392355L255.3694375,152.60540625766274L255.53521874999998,154.6679976303301L255.86678125,150.0557851504637L256.6956875,149.91068437763175L257.02725,148.99133097570012L258.02193750000004,151.78307373190447L258.18771875,151.90964984217004L258.63864375,150.86660365652273L258.804425,149.17990100616947L259.1359875,150.1144477142974L259.30176875,149.63596980655694L259.7991125,151.54948730995955L259.96489375,146.62138855296791L260.29645625,147.6783476581479L260.4622375,144.02446007193953L260.62801874999997,151.5584733454098L260.79380000000003,153.35488076017558L260.95958125,149.84740568999206L261.29114375,150.16778484465928L261.62270625,152.3975535361901L261.7884875,150.13295503431172L261.95426875,147.7053986309386L262.12005,149.1986107300768L262.28583125,143.14106966680586L262.4516125,147.6017064668316L262.61739375,143.0315767060267L263.28051875,144.49270700994416L263.4463,144.00484204043914L263.61208125,148.54690470546467L263.7778625,148.76627530008545L263.94364375000004,150.19595673888918L264.4409875,149.79357273107763L264.60676875,150.15587004855868L264.77255,148.9602227737641L265.435675,149.4581786471686L265.60145625,152.74020870197302L265.7672375,153.62003464501194L265.93301875,152.9436134994095L266.26458125,153.00898197293674L266.4303625,156.31551491618393L266.76192499999996,154.18881075024746L266.92770625,151.52874970698443L267.25926875,153.35347037472778L267.42505,154.47259018992455L267.7566125,154.61281894549774L267.92239375,155.79549593272833L268.25395625,153.9238048228206L268.4197375,151.47191442445407L268.58551875,150.42692612049274L268.7513,146.45705670378976L268.91708124999997,149.52906953252779L269.08286250000003,148.85154740188972L269.36800625,148.73820352658305L270.1969125,148.63167638841077L270.69425625,148.86248209037066L270.8600375,151.2576389429431L271.1916,147.02129708036549L271.5231625,149.07593132439118L271.68894375,148.42831712593355L272.1862875,148.7827387191636L272.35206875,148.49445325957436L272.51785,146.9319548536938L272.68363124999996,151.2740311580659L273.180975,146.56144704566958L273.34675625,145.97633661119082L273.5125375,145.76206539444888L273.67831875,144.44262207968688L274.00988125,145.260530218027L274.34144375,151.83736213716384L274.507225,151.27442808552095L274.67300625,152.02188875438875L274.83878749999997,152.57056962348287L275.33613125,156.9898408585624L275.66769375,146.83402216040113L275.833475,146.81963555576218L275.99925625000003,149.65534181929715L276.1650375,154.41425230227165L276.33081875,150.15229512525949L276.4966,151.23801480098575L276.66238125,151.9433421752692L276.99394374999997,146.99753454100136L277.159725,152.00806280834107L277.32550625,153.75807254828587L277.4912875,148.21388588736997L277.65706875,150.06556984418955L277.82285,151.26069658180668L277.98863124999997,150.95786905992387L278.15441250000003,149.84652853434298L278.32019375,148.819575598389L278.485975,144.5461589637697L278.65175625,147.2755148973048L279.1491,149.98599604165435L279.31488125,153.4197584831469L279.64644375,153.22613716386275L279.812225,153.36599769748756" style="fill: none;" fill="none"></path></g></g></g></g><g opacity="0.2"><g><g><g><path stroke="rgb(255, 112, 67)" stroke-width="2px" d="M41.4453125,-21.544422149658203L41.61109375,4.041286468505859L41.776875000000004,-20.952007293701172L43.26890625,-7.196804046630859L43.434687499999995,0.9635448455810547L43.60046875,17.677717208862305L43.76625,10.268880844116211L44.217175,7.592565536499023L44.38295625,2.648263931274414L44.5487375,4.035118103027344L44.71451875,8.926464080810547L45.04608125,4.315464019775391L45.2118625,12.075624465942383L45.543425,8.714935302734375L45.8749875,18.992795944213867L46.20655,32.242759704589844L46.37233125,13.271322250366211L46.5381125,21.387569427490234L46.70389375,17.21414566040039L47.035456249999996,10.436182022094727L47.2012375,2.592958450317383L47.5328,38.481327056884766L47.698581250000004,13.973991394042969L47.8643625,22.59463882446289L48.195924999999995,10.898998260498047L48.36170625,7.336494445800781L49.19061249999999,14.927465438842773L49.356393749999995,15.385435104370117L49.8537375,42.06210517883301L50.01951875,31.9383487701416L50.516862499999995,39.08817672729492L50.68264375,15.309148788452148L51.01420625,26.757278442382812L51.1799875,37.70977783203125L51.345768750000005,41.58812713623047L51.51155,43.05563163757324L51.67733125,38.685176849365234L51.8431125,43.687469482421875L52.00889375,41.299766540527344L52.34045625,35.98832130432129L52.506237500000005,34.975555419921875L52.67201875,29.12316131591797L52.8378,34.64244270324707L53.33514375,49.37258338928223L53.500925,42.241722106933594L54.16405,42.86338424682617L54.32983125,35.62044334411621L54.78075625,45.03636932373047L54.946537500000005,53.88631629943848L55.11231875000001,36.13608932495117L55.278099999999995,40.607839584350586L55.44388125,54.65715217590332L55.77544375,52.14228439331055L56.107006250000005,44.45247268676758L56.2727875,44.218746185302734L56.438568749999995,37.16545104980469L56.60435,53.11927795410156L56.77013125,40.245290756225586L56.9359125,48.37700080871582L57.267475000000005,48.15919876098633L57.43325625,61.525522232055664L57.5990375,43.14257621765137L57.764818749999996,51.102495193481445L57.9306,63.59819793701172L58.42794375,51.336158752441406L59.09106875,43.778547286987305L59.42263125,54.99112510681152L59.5884125,50.25444984436035L59.919975,38.901803970336914L60.08575625,57.6644401550293L60.41731875,57.6336612701416L60.583099999999995,59.31949234008789L60.74888125,64.52087211608887L61.08044375,56.77363586425781L61.412006250000005,61.88020324707031L61.743568749999994,50.51029014587402L61.909349999999996,50.75016403198242L62.07513125,46.28386878967285L62.40669375,55.32600021362305L62.572475000000004,62.78458213806152L62.738256250000006,68.50643348693848L62.904037499999994,55.70980262756348L63.069818749999996,71.64325714111328L63.40138125,62.38930320739746L63.5671625,63.70964813232422L63.732943750000004,61.44734764099121L63.898725000000006,65.11993789672852L64.06450625000001,63.16028594970703L64.2302875,71.2456283569336L64.39606875,66.64944076538086L64.8934125,66.92716407775879L65.05919375,64.73995399475098L65.224975,70.07078552246094L65.51011875,71.3757095336914L66.0074625,69.4781608581543L66.50480625,86.75568962097168L66.6705875,61.86555862426758L66.83636875,69.91143608093262L67.16793125,72.85611724853516L67.3337125,69.68519973754883L67.49949375,57.011474609375L67.665275,65.81134033203125L67.9968375,71.33217430114746L68.16261875,74.45865440368652L68.3284,82.10088157653809L68.6599625,81.33279418945312L68.991525,67.43928527832031L69.3230875,84.2233657836914L69.48886875,67.36228561401367L69.82043125,69.87522315979004L69.98621250000001,83.2309513092041L70.15199375,76.11179733276367L70.317775,83.86264228820801L70.48355624999999,70.25845909118652L70.81511875,67.38028717041016L70.9809,70.33906745910645L71.14668125,68.25917434692383L71.644025,82.07687950134277L71.9755875,80.48048973083496L72.14136875,70.91555786132812L72.47293125,67.43351554870605L72.6387125,74.12503814697266L72.80449374999999,74.54834747314453L72.970275,91.13629913330078L73.13605625,75.19357109069824L73.3018375,84.49397659301758L73.6334,72.64068603515625L73.79918125,77.5652027130127L74.13074375,69.18935966491699L74.296525,72.15174865722656L74.46230625,77.66167259216309L74.6280875,77.13595581054688L74.79386875,82.2192554473877L74.95965,62.21904373168945L75.45699375000001,90.0621223449707L75.622775,89.58684349060059L75.78855625000001,88.36611557006836L75.9543375,82.00239753723145L76.4052625,91.40411949157715L76.57104375,83.15957450866699L76.73682500000001,86.9981861114502L76.90260625,81.86761665344238L77.23416875000001,73.9907398223877L77.39994999999999,76.24221420288086L78.22885624999999,72.99104499816895L78.56041875,86.13872718811035L78.7262,86.25542259216309L79.22354375,89.88175010681152L79.38932499999999,73.64098930358887L79.55510625,97.57701683044434L79.88666875,89.11471176147461L80.05245,76.6314926147461L80.21823125,81.27652359008789L80.3840125,85.73879051208496L80.54979375,83.5783519744873L80.715575,66.34601593017578L80.88135625,96.61999702453613L81.0471375,84.75611114501953L81.37870000000001,86.75174522399902L81.54448125,98.2942886352539L81.87604375,88.42954063415527L82.04182499999999,85.85271644592285L82.70495,88.31043243408203L82.87073125,95.04404258728027L83.0365125,78.58717918395996L83.20229375000001,89.30481910705566L83.368075,84.60269927978516L83.53385625,97.11503982543945L84.19698125,89.51009559631348L84.3627625,94.38310432434082L84.52854375,86.310791015625L84.69432499999999,80.94452285766602L84.86010625,86.14743423461914L85.0258875,83.71495819091797L85.35745,81.52462196350098L85.52323125000001,87.98831367492676L85.6890125,84.49500465393066L85.85479375,91.89935111999512L86.02057500000001,79.32312393188477L86.18635624999999,90.14579391479492L86.51791874999999,88.40461540222168L86.6837,81.8697566986084L86.96884375,84.12471389770508L87.134625,80.74900245666504L87.30040625000001,91.32472801208496L87.63196875000001,95.62487602233887L88.1293125,96.27714920043945L88.460875,96.58594512939453L88.62665625,92.24771690368652L88.7924375,96.62117195129395L88.95821875,95.96048545837402L89.12400000000001,96.71472549438477L89.78712499999999,92.64519882202148L89.95290625,100.7486686706543L90.28446875,82.91323852539062L90.61603124999999,94.72280502319336L90.7818125,98.66439056396484L90.94759375,88.25135040283203L91.113375,95.39920616149902L91.27915625,87.16408157348633L91.44493750000001,99.50735855102539L91.61071875,97.45719528198242L91.77650000000001,84.41330528259277L91.94228125000001,103.21423149108887L92.27384375,84.12630844116211L92.43962499999999,89.85017395019531L92.60540625,109.19752502441406L92.7711875,99.88941955566406L93.10275,79.00839042663574L93.26853125,101.15888595581055L93.60009375,98.25799179077148L93.76587500000001,86.01271629333496L93.93165625,82.42732238769531L94.09743750000001,88.4658374786377L94.26321875,106.54837989807129L94.42899999999999,95.17135429382324L94.59478125,97.72363090515137L94.76056249999999,97.34429740905762L94.92634375,84.04979133605957L95.092125,81.79913520812988L95.75525,95.6827621459961L95.92103125,90.25753784179688L96.08681250000001,111.73952102661133L96.41837500000001,92.49092674255371L96.58415624999999,105.58550643920898L97.24728125,104.3804931640625L97.69820625000001,99.78730583190918L97.8639875,96.70429801940918L98.02976874999999,94.59545135498047L98.5271125,105.19608116149902L98.69289375,113.43080711364746L98.858675,95.99457931518555L99.02445625,86.59310913085938L99.1902375,95.83613204956055L99.35601875,93.76190376281738L99.5218,95.1211051940918L99.68758125000001,99.66775703430176L99.8533625,103.80219841003418L100.01914375000001,84.92729377746582L100.18492499999999,94.71258735656738L100.35070625,96.62259864807129L100.5164875,99.15473365783691L100.68226874999999,96.60908699035645L101.01383125,89.36750984191895L101.34539375,104.72313117980957L101.51117500000001,96.81249618530273L101.67695625,104.4025650024414L101.8427375,103.7459487915039L102.34008125,92.00790596008301L102.50586249999999,101.55246543884277L102.67164375,99.21297645568848L102.837425,110.04466819763184L103.33476875,96.60428237915039L103.50055,106.3901424407959L103.83211250000001,99.8209171295166L103.99789375,115.9614315032959L104.49523749999999,95.97873878479004L104.66101875,99.44183540344238L104.82679999999999,99.23215293884277L105.1583625,114.10939025878906L105.32414375,98.89721488952637L105.489925,106.7505931854248L105.98726875,111.26829147338867L106.15305000000001,104.82939910888672L106.31883125,110.77469635009766L106.48461250000001,97.56702995300293L106.65039374999999,95.87398147583008L106.816175,99.89535713195801L106.98195625,102.63990211486816L107.14773749999999,95.10054397583008L107.4793,108.80812072753906L107.64508125,99.53601837158203L107.8108625,94.67488479614258L107.97664375000001,109.27320289611816L108.75913125,91.22874069213867L108.9249125,96.80288696289062L109.09069375,105.33988380432129L109.256475,99.74102210998535L109.42225625,114.43197059631348L109.75381875000001,114.16503143310547L110.08538125000001,118.2692813873291L110.41694374999999,110.01053237915039L110.582725,99.22287940979004L110.74850624999999,98.89192771911621L111.08006875,112.41995048522949L111.24585,103.66168975830078L111.41163125,104.19808578491211L111.74319375,113.9389419555664L112.07475625000001,99.32923126220703L112.2405375,104.39933395385742L112.57209999999999,115.59953308105469L112.73788125,114.18338966369629L112.9036625,110.24874877929688L113.40100625,97.4970588684082L113.5667875,112.6944637298584L113.73256875,108.015380859375L113.89835000000001,106.99751663208008L114.06413125,110.64453125L114.2299125,103.63701629638672L114.39569375,96.69911575317383L114.72725625000001,95.82056427001953L114.89303749999999,83.4488582611084L115.05881875,109.685791015625L115.2246,110.54336166381836L115.39038125,108.26142311096191L115.5561625,110.29901885986328L116.05350625,113.82000160217285L116.21928750000001,109.20705032348633L116.55085000000001,108.73237991333008L116.71663125,96.35643577575684L116.88241249999999,115.5827693939209L117.21397499999999,114.02748107910156L117.37975625,94.92772483825684L117.5455375,110.6450138092041L118.04288125,106.61258125305176L118.2086625,111.20260047912598L118.37444375,113.69524955749512L118.540225,113.06402015686035L118.70600625,103.57478713989258L118.87178750000001,107.92535209655762L119.15693125,114.55838012695312L119.3227125,116.25031661987305L119.48849375,115.44656181335449L119.82005625000001,121.2107105255127L119.9858375,108.84680938720703L120.15161875000001,111.01998329162598L120.3174,119.91279411315918L120.48318124999999,107.9227294921875L120.6489625,113.12362670898438L120.980525,115.90151023864746L121.47786875,111.3204288482666L122.14099375,126.58232879638672L122.47255625000001,105.2926139831543L122.6383375,120.39396858215332L122.80411874999999,101.78873062133789L122.9699,107.7527847290039L123.13568124999999,111.80072212219238L123.3014625,100.52448844909668L123.46724375,113.27355575561523L123.633025,109.67842674255371L123.79880625,120.80863380432129L123.96458750000001,118.28226852416992L124.13036875,114.13125228881836L124.29615,124.71572685241699L124.46193125,109.39411544799805L124.79349375000001,106.00743103027344L124.95927499999999,112.06128311157227L125.45661874999999,124.61285781860352L125.78818125,113.73912048339844L125.9539625,120.34313201904297L126.11974375,115.28786277770996L126.285525,121.32730102539062L126.45130625,107.63927841186523L126.78286875,117.21000099182129L127.44599375,114.18364143371582L127.611775,123.72606086730957L127.77755625,130.18096160888672L128.10911875,108.28867721557617L128.2749,110.82744216918945L128.44068124999998,110.87997817993164L128.6064625,108.31448364257812L128.938025,114.41340255737305L129.2695875,115.98228645324707L129.88629375,117.2989387512207L130.54941875,124.11848640441895L131.21254375,128.80021286010742L131.378325,113.57395935058594L131.54410625,121.2020034790039L131.87566875000002,121.9472427368164L132.04145,120.29454040527344L132.20723125,117.48808097839355L132.3730125,122.64055442810059L132.53879375,99.26498794555664L132.87035625,101.42034912109375L133.0361375,116.01564598083496L133.20191875,103.18498420715332L133.3677,112.49485206604004L133.53348125,119.72669410705566L133.6992625,122.98180770874023L134.030825,110.48505592346191L134.19660625,112.2769660949707L134.36238749999998,115.25809097290039L134.69395,120.01473999023438L135.0255125,119.8036937713623L135.19129375,107.26844215393066L135.357075,125.82838249206543L135.52285625,110.85780143737793L136.02020000000002,118.30885124206543L136.18598125,120.46754837036133L136.51754375,119.3954906463623L136.683325,122.79954719543457L136.84910625,109.3258228302002L137.18066875,112.22984313964844L137.51223125,125.81847953796387L137.6780125,115.34786796569824L138.009575,122.40519142150879L138.17535625,106.31003761291504L138.3411375,111.61699295043945L138.50691874999998,123.41594314575195L138.6727,115.88061332702637L139.17004375,119.33347129821777L139.335825,121.60980796813965L139.50160625,112.72908210754395L139.6673875,124.7840404510498L139.99895,117.61805725097656L140.61565625,111.11452293395996L140.7814375,114.91207504272461L140.94721875,130.54768562316895L141.113,120.94857597351074L141.27878125,125.99708938598633L141.4445625,122.05365753173828L141.94190625000002,107.89618873596191L142.1076875,132.18328857421875L142.43925,128.84702110290527L142.60503125,119.9056396484375L142.7708125,124.51433181762695L142.93659375,126.99701499938965L143.102375,129.28216361999512L143.59971875,122.87606430053711L143.7655,116.73967361450195L143.93128125,123.67302131652832L144.0970625,123.36147689819336L145.09175,132.26014137268066L145.4233125,122.0997314453125L145.58909375,125.80112838745117L146.08643750000002,117.23868179321289L146.41799999999998,113.93848037719727L146.58378125000002,125.07621955871582L146.7495625,120.2954216003418L146.91534375,118.33709144592285L147.081125,119.7605152130127L147.24690625,126.30343055725098L147.57846875,126.1610336303711L147.74425,113.84901809692383L147.91003125,124.92614364624023L148.0758125,118.07304763793945L148.407375,120.34818840026855L148.57315625,128.11271286010742L148.73893750000002,130.74985694885254L148.90471875,118.34053230285645L149.23628125,127.60598373413086L149.4020625,124.9161148071289L149.56784375,116.48509216308594L149.733625,123.88113021850586L149.89940625,110.10840797424316L150.0651875,120.59089469909668L150.39675,115.01106262207031L150.89409375000002,116.93704032897949L151.059875,120.24131202697754L151.51080000000002,143.00543403625488L152.17392500000003,134.52483367919922L152.33970625,141.04989433288574L152.67126875,130.75877380371094L152.83704999999998,128.24096870422363L153.1686125,138.32330894470215L153.50017499999998,134.25894355773926L153.8317375,143.5789451599121L153.99751875,139.6803493499756L154.1633,140.84593963623047L154.4948625,130.06714057922363L154.66064375000002,136.0007724761963L154.826425,136.064847946167L154.99220624999998,134.84913444519043L155.1579875,127.86310386657715L155.32376875,131.09650230407715L155.48955,140.9055881500244L155.65533125,147.57688522338867L155.8211125,138.49486923217773L155.98689375,131.52545547485352L156.15267500000002,147.53009796142578L156.4842375,137.35351181030273L156.98158125,141.61553764343262L157.14736249999999,136.22144889831543L157.31314375,129.45001029968262L157.64470625,148.1641387939453L157.8104875,132.15830039978027L157.97626875,132.2106475830078L158.14204999999998,136.4085350036621L158.30783125000002,137.5486125946045L159.1367375,140.43807220458984L159.30251875,126.37659072875977L159.79986250000002,142.89068984985352L159.96564375,139.7217025756836L160.29720625,148.78506660461426L160.4629875,140.99704360961914L161.12611249999998,143.42454719543457L161.29189375,139.1566047668457L161.457675,142.72458457946777L161.78923749999998,134.59770011901855L162.07438125000002,142.68050384521484L162.2401625,138.69901275634766L162.40594375,136.77423095703125L162.571725,149.98351287841797L162.73750625000002,143.99906539916992L162.9032875,145.0320987701416L163.23485,149.23904991149902L163.40063125,143.35189056396484L163.5664125,135.11036682128906L163.73219375,139.22500228881836L163.897975,148.4859848022461L164.06375624999998,149.13865661621094L164.22953750000002,141.42133903503418L164.39531875,136.6839084625244L164.5611,141.45283126831055L165.05844375,140.18770790100098L165.39000625,147.43876838684082L165.55578749999998,133.43309593200684L165.88735,138.41182708740234L166.2189125,141.5702610015869L166.38469375,134.34932899475098L166.550475,140.1054630279541L166.71625625000001,131.9684238433838L166.8820375,142.0830535888672L167.2136,149.69766998291016L167.37938125,139.87465286254883L168.04250625,141.41141510009766L168.2082875,149.0349063873291L168.37406875,141.53314590454102L168.53985,145.3898639678955L168.70563124999998,142.2315559387207L169.03719375,136.04472732543945L169.20297499999998,142.2645378112793L169.53453750000003,140.48271942138672L169.70031875,137.8380012512207L170.19766249999998,145.31464767456055L170.36344375000002,152.5699462890625L170.529225,136.18007469177246L170.69500625,138.64519691467285L170.8607875,136.06734466552734L171.02656875000002,140.627592086792L171.19235,150.77107048034668L171.35813125,140.91173553466797L171.5239125,125.21763038635254L171.68969374999998,132.77792739868164L171.855475,136.61899375915527L172.02125625,148.02891731262207L172.35281874999998,137.11433029174805L172.80374375,142.75284576416016L172.96952499999998,154.36433219909668L173.3010875,146.21732711791992L173.46686875,138.81921195983887L173.63264999999998,137.3919906616211L173.9642125,136.07317733764648L174.12999375,130.94550323486328L174.46155625,144.37743377685547L174.6273375,147.7537326812744L174.9589,138.91024780273438L175.2904625,142.86886978149414L175.78780625,144.18892097473145L175.9535875,145.85727500915527L176.45093125,148.90988159179688L176.78249375,152.47335052490234L176.94827500000002,158.11027145385742L177.11405625,143.12189865112305L177.44561875,142.28077697753906L177.61139999999997,144.94574165344238L177.77718125,138.87969970703125L178.27452499999998,133.58394813537598L178.44030625000002,142.02300643920898L178.77186875,138.47911262512207L179.10343125,136.08834648132324L179.2692125,138.8162956237793L179.76655624999998,142.60577011108398L180.09811875,148.16793632507324L180.2639,152.4882049560547L180.42968125,131.49943923950195L180.76124375,138.24267959594727L180.92702500000001,153.1814956665039L181.09280625,139.7318992614746L181.2585875,138.86891555786133L181.42436874999999,142.3423137664795L181.59015000000002,140.8566608428955L181.75593125,145.3474826812744L181.92171249999998,143.02891159057617L182.08749375,143.9504737854004L182.253275,138.0706787109375L182.41905625,145.9843978881836L182.75061875,150.5204963684082L182.91639999999998,150.03627967834473L183.2479625,142.25520133972168L183.6988875,140.71569061279297L183.86466875,143.90045547485352L184.36201250000002,142.1817684173584L184.52779375,146.4046230316162L184.85935625,129.67186164855957L185.0251375,147.1575412750244L185.19091875,144.27347373962402L185.35670000000002,149.5483913421631L185.52248125,145.5776424407959L185.85404375000002,141.09403800964355L186.019825,137.1652717590332L186.3513875,137.8074951171875L186.51716875,142.68889617919922L186.84873125000001,141.2627658843994L187.0145125,132.61916542053223L187.18029375,139.5370922088623L187.34607499999998,139.94779205322266L187.51185625000002,153.45491790771484L187.6776375,144.6265811920166L187.84341874999998,155.18963432312012L188.0092,149.13202667236328L188.672325,146.17970848083496L188.83810624999998,139.99701309204102L189.00388750000002,148.96994972229004L189.16966875,135.34058952331543L189.33545,145.50135612487793L189.50123125,143.8717746734619L189.66701250000003,143.1384105682373L189.83279375,146.1952133178711L189.998575,143.03956985473633L190.6617,144.18709564208984L190.82748125,151.55204010009766L190.9932625,148.203519821167L191.15904375,147.6344985961914L191.6563875,141.03239631652832L191.82216874999997,147.29727363586426L191.98795,146.51859092712402L192.3195125,138.69557189941406L192.48529374999998,141.52678871154785L192.81685625,136.4724636077881L193.14841875,137.6968002319336L193.3142,140.72773361206055L193.47998125,144.7145538330078L193.977325,137.79889297485352L194.26246875,144.45006942749023L194.42825,141.76624298095703L194.59403125,145.58966445922852L194.75981249999998,161.13579177856445L194.92559375000002,141.92584419250488L195.091375,141.4985065460205L195.4229375,144.4201717376709L195.58871875000003,140.42877769470215L196.0860625,151.21823501586914L196.25184374999998,142.5650463104248L196.91496874999999,146.61858558654785L197.24653125,142.21584129333496L197.4123125,128.00065422058105L197.57809375,150.43776893615723L197.74387499999997,144.1594009399414L197.90965625,140.45951461791992L198.0754375,139.5853271484375L198.57278125,148.8600311279297L198.7385625,151.71430587768555L198.90434375,138.35091972351074L199.070125,144.687593460083L199.23590625,138.3232250213623L199.56746875000002,148.2816104888916L199.89903125,150.7091770172119L200.0648125,145.8404483795166L200.23059375000003,146.25022506713867L200.56215625,149.11748695373535L200.7279375,139.72187042236328L200.89371875,136.01168251037598L201.0595,146.95824432373047L201.22528125,143.98966598510742L201.3910625,145.4041519165039L201.55684374999998,141.11929893493652L201.72262500000002,142.58306884765625L201.88840625,136.74082946777344L202.0541875,139.7491455078125L202.7173125,146.42633819580078L203.04887499999998,144.22679138183594L203.21465625000002,141.7786636352539L203.3804375,136.31586265563965L203.54621875,147.29060173034668L203.712,148.73454475402832L204.20934375000002,148.88936233520508L204.54090624999998,141.13186645507812L205.32339375,151.7717514038086L205.65495625,155.79495239257812L205.8207375,147.27434158325195L206.15230000000003,149.9875202178955L206.815425,153.88026237487793L206.98120625,157.49463081359863L207.1469875,143.02360343933105L207.31276875,153.49069023132324L207.47854999999998,134.66704177856445L208.141675,152.01139450073242L208.4732375,142.54584884643555L208.63901875,141.01439476013184L208.97058124999998,155.67122840881348L209.13636250000002,145.33413887023926L209.63370625,155.06437873840332L209.7994875,139.0231876373291L209.96526875,141.61058616638184L210.29683125,140.98544120788574L210.62839375000001,143.67623329162598L210.794175,145.9124755859375L210.95995625,140.3120822906494L211.29151875,160.23881912231445L211.4573,151.92010688781738L211.7888625,154.91063117980957L211.95464375,143.52305221557617L212.12042499999998,142.23229026794434L212.4519875,149.69183731079102L212.61776874999998,153.4122428894043L212.78355,145.1109447479248L212.94933125,155.38819694519043L213.1151125,139.42073249816895L213.28089375,136.7316188812256L213.77823750000002,139.4467067718506L213.94401875,153.6521167755127L214.27558125,150.6630401611328L214.44136250000003,150.45998764038086L214.60714375,133.40160369873047L214.77292500000001,144.13583946228027L215.10448749999998,145.651704788208L215.27026875,135.00107765197754L215.43605,157.42489051818848L215.72119375,134.7233543395996L216.2185375,127.80139923095703L216.38431874999998,153.68564414978027L216.55010000000001,131.27582550048828L217.37900625,153.77433013916016L217.71056875,147.2921543121338L218.04213125,144.7459831237793L218.20791250000002,145.0149154663086L218.37369375,144.5017032623291L218.8710375,148.53237342834473L219.03681875,155.2623119354248L219.2026,141.65861129760742L219.36838125,156.01283836364746L219.53416249999998,144.9979419708252L219.69994375000002,145.3155288696289L219.865725,140.89237022399902L220.03150625,139.24782943725586L220.36306875000002,147.18120765686035L220.52885,139.24594116210938L220.8604125,142.63606643676758L221.02619374999998,150.7154712677002L221.191975,135.94659996032715L221.35775625,156.1721248626709L221.85510000000002,141.69824409484863L222.02088125,137.7342929840088L222.35244375,152.8542366027832L222.518225,138.9572868347168L222.68400625,141.37012481689453L222.84978750000002,151.1326961517334L223.01556875,143.47187995910645L223.18134999999998,145.00188636779785L223.34713125,150.82295608520508L223.5129125,156.94898223876953L223.67869375,147.8017578125L223.844475,149.97411346435547L224.1760375,143.10018348693848L224.34181875000002,153.61179161071777L224.67338125,144.47707176208496L224.8391625,148.80831336975098L225.170725,154.39320182800293L225.33650624999999,156.1828670501709L225.66806875,146.58373641967773L225.83385,148.1020565032959L225.99963125,148.28377151489258L226.1654125,152.18503189086914L226.45055625,142.43068504333496L226.6163375,155.5291042327881L226.94789999999998,142.55759811401367L227.11368125,153.19737815856934L227.2794625,139.74121475219727L227.61102499999998,150.00527000427246L227.77680625000002,151.52063179016113L228.10836875,146.4865322113037L228.27415,148.94013595581055L228.43993124999997,139.53975677490234L228.6057125,142.57056427001953L228.77149375000002,140.39376068115234L228.937275,143.80977630615234L229.10305624999998,138.83255577087402L229.76618125,153.27584648132324L229.9319625,152.34605979919434L230.09774375,150.71624755859375L230.42930625,140.42840003967285L230.5950875,147.6018943786621L230.76086875,150.2401294708252L231.09243125,154.96549606323242L231.42399375,153.62727546691895L231.75555625,143.12737464904785L232.08711875,146.68941688537598L232.41868125000002,136.51356506347656L232.5844625,151.9099521636963L232.75024375,157.92112922668457L232.916025,133.95379829406738L233.2475875,143.79104042053223L233.41336875,142.68344116210938L233.57915,138.2156982421875L233.74493124999998,143.93624877929688L233.91071250000002,152.30088806152344L234.07649375,142.41490745544434L234.5738375,154.44286346435547L234.73961875,140.71778869628906L235.23696249999998,145.67488861083984L235.40274375,155.5058994293213L235.568525,144.12834930419922L235.90008749999998,152.83944511413574L236.06586875,153.21135139465332L236.5632125,147.89701080322266L236.72899375,151.53932571411133L236.894775,141.51522827148438L237.3457,154.1034984588623L237.51148125,157.0544948577881L238.008825,143.3310146331787L238.17460624999998,143.2863883972168L238.34038750000002,158.34477424621582L238.67195,147.77997970581055L239.16929375,145.06371688842773L239.335075,151.49853897094727L239.83241875000002,152.73980712890625L239.9982,147.92520904541016L240.16398125,149.53588676452637L240.82710625,151.42193794250488L241.15866874999998,144.14815521240234L241.32445,159.6420192718506L241.49023125,152.65074348449707L241.6560125,153.68597984313965L241.82179374999998,153.82520866394043L241.987575,149.8726921081543L242.15335625,141.1601276397705L242.6507,145.95433235168457L242.81648125,143.60189819335938L242.98226250000002,150.8710651397705L243.14804375,131.0334758758545L243.47960625,138.09155464172363L243.81116875,153.01948165893555L243.97695,152.75957107543945L244.47429375000002,159.43032264709473L244.640075,134.48369026184082L244.97163749999999,146.84727668762207L245.13741875000002,141.799560546875L245.3032,147.580472946167L245.46898125,144.9790802001953L245.6347625,152.6931037902832L245.80054374999997,139.04309844970703L246.2978875,154.58960342407227L246.46366874999998,140.95413780212402L247.12679375,142.2335910797119L247.292575,146.1669101715088L247.45835625,143.93423461914062L247.62413750000002,135.564790725708L247.90928125,146.83945083618164L248.24084375,144.90688514709473L248.406625,157.41674995422363L248.7381875,147.8073387145996L248.90396875000002,151.04547882080078L249.23553124999998,143.00535011291504L249.56709375,145.85121154785156L249.732875,156.22052764892578L249.89865625,152.41949272155762L250.0644375,149.16039276123047L250.39600000000002,152.05478286743164L250.56178125,154.45318603515625L250.89334374999999,143.0180435180664L251.05912500000002,154.55175399780273L251.3906875,149.7936782836914L251.55646875,146.79578971862793L251.88803125,152.80856132507324L252.0538125,147.59043884277344L252.21959375,147.0119342803955L252.38537499999998,144.77468490600586L252.88271875,142.50636291503906L253.0485,157.52706718444824L253.21428125,153.5785789489746L253.3800625,152.11489295959473L253.54584375000002,146.92091941833496L253.711625,144.3437385559082L254.20896875,156.15980911254883L254.37475,144.38290977478027L254.54053125,151.54937553405762L254.7063125,151.4928321838379L254.87209375,141.9642391204834L255.037875,140.3598976135254L255.20365625,150.91483116149902L255.3694375,161.04607772827148L255.53521874999998,157.76188468933105L255.86678125,143.13746643066406L256.6956875,149.6930332183838L257.02725,147.61230087280273L258.02193750000004,155.97068786621094L258.18771875,152.09951400756836L258.63864375,149.30203437805176L258.804425,146.64984703063965L259.1359875,151.51626777648926L259.30176875,148.9182529449463L259.7991125,154.41976356506348L259.96489375,139.22924041748047L260.29645625,149.26378631591797L260.4622375,138.54362869262695L260.62801874999997,162.85949325561523L260.79380000000003,156.04949188232422L260.95958125,144.5861930847168L261.29114375,150.64835357666016L261.62270625,155.74220657348633L261.7884875,146.73605728149414L261.95426875,144.0640640258789L262.12005,151.43842887878418L262.28583125,134.0547580718994L262.4516125,154.29266166687012L262.61739375,136.17638206481934L263.28051875,146.6844024658203L263.4463,143.27304458618164L263.61208125,155.35999870300293L263.7778625,149.0953311920166L263.94364375000004,152.34047889709473L264.4409875,149.18999671936035L264.60676875,150.69931602478027L264.77255,147.16675186157227L265.435675,150.2051124572754L265.60145625,157.6632537841797L265.7672375,154.9397735595703L265.93301875,151.92898178100586L266.26458125,153.10703468322754L266.4303625,161.2753143310547L266.76192499999996,150.99875450134277L266.92770625,147.53865814208984L267.25926875,156.09055137634277L267.42505,156.15126991271973L267.7566125,154.82316207885742L267.92239375,157.56951141357422L268.25395625,151.11626815795898L268.4197375,147.7940788269043L268.58551875,148.85944366455078L268.7513,140.50225257873535L268.91708124999997,154.13708877563477L269.08286250000003,147.83526420593262L269.36800625,148.56818771362305L270.1969125,148.47188568115234L270.69425625,149.20869064331055L270.8600375,154.85037422180176L271.1916,140.66678428649902L271.5231625,152.1578826904297L271.68894375,147.45689582824707L272.1862875,149.3143711090088L272.35206875,148.06202507019043L272.51785,144.58820724487305L272.68363124999996,157.78714561462402L273.180975,139.4925708770752L273.34675625,145.09867095947266L273.5125375,145.44065856933594L273.67831875,142.46345710754395L274.00988125,146.4873924255371L274.34144375,161.70261001586914L274.507225,150.43002700805664L274.67300625,153.14307975769043L274.83878749999997,153.39359092712402L275.33613125,163.61874771118164L275.66769375,131.60029411315918L275.833475,146.7980556488037L275.99925625000003,153.9089012145996L276.1650375,161.5526180267334L276.33081875,143.7593593597412L276.4966,152.8665943145752L276.66238125,153.00133323669434L276.99394374999997,139.5788230895996L277.159725,159.5238552093506L277.32550625,156.38308715820312L277.4912875,139.8976058959961L277.65706875,152.84309577941895L277.82285,153.05338668823242L277.98863124999997,150.5036277770996L278.15441250000003,148.17951774597168L278.32019375,147.279146194458L278.485975,138.13603401184082L278.65175625,151.36954879760742L279.1491,154.0517177581787L279.31488125,158.57040214538574L279.64644375,152.93570518493652L279.812225,153.5757884979248" style="fill: none;" fill="none"></path></g></g></g></g></g><g><g opacity="0.0576611"><span fill="rgb(0, 0, 0)" stroke="none" stroke-width="1px">Alt + Scroll to Zoom</span></g></g></g><g transform="translate(31, 176)" clip-path="url(#clip_1)"><clipPath id="clip_1"><rect width="298" height="24"></rect></clipPath><g><g><line x1="0" y1="0" x2="0" y2="5" style="visibility: inherit;" fill="rgb(0, 0, 0)" stroke="rgb(204, 204, 204)" stroke-width="1px"></line><line x1="33.15625" y1="0" x2="33.15625" y2="5" style="visibility: inherit;" fill="rgb(0, 0, 0)" stroke="rgb(204, 204, 204)" stroke-width="1px"></line><line x1="66.3125" y1="0" x2="66.3125" y2="5" style="visibility: inherit;" fill="rgb(0, 0, 0)" stroke="rgb(204, 204, 204)" stroke-width="1px"></line><line x1="99.46875" y1="0" x2="99.46875" y2="5" style="visibility: inherit;" fill="rgb(0, 0, 0)" stroke="rgb(204, 204, 204)" stroke-width="1px"></line><line x1="132.625" y1="0" x2="132.625" y2="5" style="visibility: inherit;" fill="rgb(0, 0, 0)" stroke="rgb(204, 204, 204)" stroke-width="1px"></line><line x1="165.78125" y1="0" x2="165.78125" y2="5" style="visibility: inherit;" fill="rgb(0, 0, 0)" stroke="rgb(204, 204, 204)" stroke-width="1px"></line><line x1="198.9375" y1="0" x2="198.9375" y2="5" style="visibility: inherit;" fill="rgb(0, 0, 0)" stroke="rgb(204, 204, 204)" stroke-width="1px"></line><line x1="232.09375" y1="0" x2="232.09375" y2="5" style="visibility: inherit;" fill="rgb(0, 0, 0)" stroke="rgb(204, 204, 204)" stroke-width="1px"></line><line x1="265.25" y1="0" x2="265.25" y2="5" style="visibility: inherit;" fill="rgb(0, 0, 0)" stroke="rgb(204, 204, 204)" stroke-width="1px"></line><line x1="298.40625" y1="0" x2="298.40625" y2="5" style="visibility: inherit;" fill="rgb(0, 0, 0)" stroke="rgb(204, 204, 204)" stroke-width="1px"></line></g><g transform="translate(0, 8)"><text x="0" y="0" dx="0em" dy="0.95em" style="text-anchor: middle; visibility: hidden; font-family: Roboto, sans-serif; font-size: 12px; font-weight: 200;" fill="rgb(33, 33, 33)" stroke="none" stroke-width="1px">-10k</text><text x="33.15625" y="0" dx="0em" dy="0.95em" style="text-anchor: middle; visibility: inherit; font-family: Roboto, sans-serif; font-size: 12px; font-weight: 200;" fill="rgb(33, 33, 33)" stroke="none" stroke-width="1px">0</text><text x="66.3125" y="0" dx="0em" dy="0.95em" style="text-anchor: middle; visibility: inherit; font-family: Roboto, sans-serif; font-size: 12px; font-weight: 200;" fill="rgb(33, 33, 33)" stroke="none" stroke-width="1px">10k</text><text x="99.46875" y="0" dx="0em" dy="0.95em" style="text-anchor: middle; visibility: inherit; font-family: Roboto, sans-serif; font-size: 12px; font-weight: 200;" fill="rgb(33, 33, 33)" stroke="none" stroke-width="1px">20k</text><text x="132.625" y="0" dx="0em" dy="0.95em" style="text-anchor: middle; visibility: inherit; font-family: Roboto, sans-serif; font-size: 12px; font-weight: 200;" fill="rgb(33, 33, 33)" stroke="none" stroke-width="1px">30k</text><text x="165.78125" y="0" dx="0em" dy="0.95em" style="text-anchor: middle; visibility: inherit; font-family: Roboto, sans-serif; font-size: 12px; font-weight: 200;" fill="rgb(33, 33, 33)" stroke="none" stroke-width="1px">40k</text><text x="198.9375" y="0" dx="0em" dy="0.95em" style="text-anchor: middle; visibility: inherit; font-family: Roboto, sans-serif; font-size: 12px; font-weight: 200;" fill="rgb(33, 33, 33)" stroke="none" stroke-width="1px">50k</text><text x="232.09375" y="0" dx="0em" dy="0.95em" style="text-anchor: middle; visibility: inherit; font-family: Roboto, sans-serif; font-size: 12px; font-weight: 200;" fill="rgb(33, 33, 33)" stroke="none" stroke-width="1px">60k</text><text x="265.25" y="0" dx="0em" dy="0.95em" style="text-anchor: middle; visibility: inherit; font-family: Roboto, sans-serif; font-size: 12px; font-weight: 200;" fill="rgb(33, 33, 33)" stroke="none" stroke-width="1px">70k</text><text x="298.40625" y="0" dx="0em" dy="0.95em" style="text-anchor: middle; visibility: hidden; font-family: Roboto, sans-serif; font-size: 12px; font-weight: 200;" fill="rgb(33, 33, 33)" stroke="none" stroke-width="1px">80k</text></g><line x1="0" y1="0" x2="298.40625" y2="0" fill="rgb(0, 0, 0)" stroke="rgb(204, 204, 204)" stroke-width="1px"></line></g></g></g></g></svg>