<svg viewBox="0 0 330 200" xmlns="http://www.w3.org/2000/svg"><g><g><g><g><g><line x1="63.984375" y1="176" x2="58.984375" y2="176" style="visibility: inherit;" fill="rgb(0, 0, 0)" stroke="rgb(204, 204, 204)" stroke-width="1px"></line><line x1="63.984375" y1="160" x2="58.984375" y2="160" style="visibility: inherit;" fill="rgb(0, 0, 0)" stroke="rgb(204, 204, 204)" stroke-width="1px"></line><line x1="63.984375" y1="144" x2="58.984375" y2="144" style="visibility: inherit;" fill="rgb(0, 0, 0)" stroke="rgb(204, 204, 204)" stroke-width="1px"></line><line x1="63.984375" y1="128" x2="58.984375" y2="128" style="visibility: inherit;" fill="rgb(0, 0, 0)" stroke="rgb(204, 204, 204)" stroke-width="1px"></line><line x1="63.984375" y1="112.00000000000001" x2="58.984375" y2="112.00000000000001" style="visibility: inherit;" fill="rgb(0, 0, 0)" stroke="rgb(204, 204, 204)" stroke-width="1px"></line><line x1="63.984375" y1="96" x2="58.984375" y2="96" style="visibility: inherit;" fill="rgb(0, 0, 0)" stroke="rgb(204, 204, 204)" stroke-width="1px"></line><line x1="63.984375" y1="79.99999999999999" x2="58.984375" y2="79.99999999999999" style="visibility: inherit;" fill="rgb(0, 0, 0)" stroke="rgb(204, 204, 204)" stroke-width="1px"></line><line x1="63.984375" y1="64.00000000000003" x2="58.984375" y2="64.00000000000003" style="visibility: inherit;" fill="rgb(0, 0, 0)" stroke="rgb(204, 204, 204)" stroke-width="1px"></line><line x1="63.984375" y1="48" x2="58.984375" y2="48" style="visibility: inherit;" fill="rgb(0, 0, 0)" stroke="rgb(204, 204, 204)" stroke-width="1px"></line><line x1="63.984375" y1="31.999999999999993" x2="58.984375" y2="31.999999999999993" style="visibility: inherit;" fill="rgb(0, 0, 0)" stroke="rgb(204, 204, 204)" stroke-width="1px"></line><line x1="63.984375" y1="16.000000000000007" x2="58.984375" y2="16.000000000000007" style="visibility: inherit;" fill="rgb(0, 0, 0)" stroke="rgb(204, 204, 204)" stroke-width="1px"></line><line x1="63.984375" y1="0" x2="58.984375" y2="0" style="visibility: inherit;" fill="rgb(0, 0, 0)" stroke="rgb(204, 204, 204)" stroke-width="1px"></line></g><g transform="translate(53.984375, 0)"><text x="0" y="176" dx="0em" dy="0.3em" style="text-anchor: end; visibility: hidden; font-family: Roboto, sans-serif; font-size: 12px; font-weight: 200;" fill="rgb(33, 33, 33)" stroke="none" stroke-width="1px">0.04</text><text x="0" y="160" dx="0em" dy="0.3em" style="text-anchor: end; visibility: inherit; font-family: Roboto, sans-serif; font-size: 12px; font-weight: 200;" fill="rgb(33, 33, 33)" stroke="none" stroke-width="1px">0.045</text><text x="0" y="144" dx="0em" dy="0.3em" style="text-anchor: end; visibility: hidden; font-family: Roboto, sans-serif; font-size: 12px; font-weight: 200;" fill="rgb(33, 33, 33)" stroke="none" stroke-width="1px">0.05</text><text x="0" y="128" dx="0em" dy="0.3em" style="text-anchor: end; visibility: inherit; font-family: Roboto, sans-serif; font-size: 12px; font-weight: 200;" fill="rgb(33, 33, 33)" stroke="none" stroke-width="1px">0.055</text><text x="0" y="112.00000000000001" dx="0em" dy="0.3em" style="text-anchor: end; visibility: hidden; font-family: Roboto, sans-serif; font-size: 12px; font-weight: 200;" fill="rgb(33, 33, 33)" stroke="none" stroke-width="1px">0.06</text><text x="0" y="96" dx="0em" dy="0.3em" style="text-anchor: end; visibility: inherit; font-family: Roboto, sans-serif; font-size: 12px; font-weight: 200;" fill="rgb(33, 33, 33)" stroke="none" stroke-width="1px">0.065</text><text x="0" y="79.99999999999999" dx="0em" dy="0.3em" style="text-anchor: end; visibility: hidden; font-family: Roboto, sans-serif; font-size: 12px; font-weight: 200;" fill="rgb(33, 33, 33)" stroke="none" stroke-width="1px">0.07</text><text x="0" y="64.00000000000003" dx="0em" dy="0.3em" style="text-anchor: end; visibility: inherit; font-family: Roboto, sans-serif; font-size: 12px; font-weight: 200;" fill="rgb(33, 33, 33)" stroke="none" stroke-width="1px">0.075</text><text x="0" y="48" dx="0em" dy="0.3em" style="text-anchor: end; visibility: hidden; font-family: Roboto, sans-serif; font-size: 12px; font-weight: 200;" fill="rgb(33, 33, 33)" stroke="none" stroke-width="1px">0.08</text><text x="0" y="31.999999999999993" dx="0em" dy="0.3em" style="text-anchor: end; visibility: inherit; font-family: Roboto, sans-serif; font-size: 12px; font-weight: 200;" fill="rgb(33, 33, 33)" stroke="none" stroke-width="1px">0.085</text><text x="0" y="16.000000000000007" dx="0em" dy="0.3em" style="text-anchor: end; visibility: hidden; font-family: Roboto, sans-serif; font-size: 12px; font-weight: 200;" fill="rgb(33, 33, 33)" stroke="none" stroke-width="1px">0.09</text><text x="0" y="0" dx="0em" dy="0.3em" style="text-anchor: end; visibility: hidden; font-family: Roboto, sans-serif; font-size: 12px; font-weight: 200;" fill="rgb(33, 33, 33)" stroke="none" stroke-width="1px">0.095</text></g><line x1="63.984375" y1="0" x2="63.984375" y2="176" fill="rgb(0, 0, 0)" stroke="rgb(204, 204, 204)" stroke-width="1px"></line></g></g><g transform="translate(63, 0)" clip-path="url(#clip_0)"><clipPath id="clip_0"><rect width="266" height="176"></rect></clipPath><g><g><g><line x1="0" y1="0" x2="0" y2="176" fill="rgb(0, 0, 0)" stroke="rgb(66, 66, 66)" stroke-width="1px" opacity="0.25"></line><line x1="29.557291666666664" y1="0" x2="29.557291666666664" y2="176" fill="rgb(0, 0, 0)" stroke="rgb(66, 66, 66)" stroke-width="1px" opacity="0.25"></line><line x1="59.11458333333333" y1="0" x2="59.11458333333333" y2="176" fill="rgb(0, 0, 0)" stroke="rgb(66, 66, 66)" stroke-width="1px" opacity="0.25"></line><line x1="88.671875" y1="0" x2="88.671875" y2="176" fill="rgb(0, 0, 0)" stroke="rgb(66, 66, 66)" stroke-width="1px" opacity="0.25"></line><line x1="118.22916666666666" y1="0" x2="118.22916666666666" y2="176" fill="rgb(0, 0, 0)" stroke="rgb(66, 66, 66)" stroke-width="1px" opacity="0.25"></line><line x1="147.78645833333334" y1="0" x2="147.78645833333334" y2="176" fill="rgb(0, 0, 0)" stroke="rgb(66, 66, 66)" stroke-width="1px" opacity="0.25"></line><line x1="177.34375" y1="0" x2="177.34375" y2="176" fill="rgb(0, 0, 0)" stroke="rgb(66, 66, 66)" stroke-width="1px" opacity="0.25"></line><line x1="206.90104166666666" y1="0" x2="206.90104166666666" y2="176" fill="rgb(0, 0, 0)" stroke="rgb(66, 66, 66)" stroke-width="1px" opacity="0.25"></line><line x1="236.45833333333331" y1="0" x2="236.45833333333331" y2="176" fill="rgb(0, 0, 0)" stroke="rgb(66, 66, 66)" stroke-width="1px" opacity="0.25"></line><line x1="266.015625" y1="0" x2="266.015625" y2="176" fill="rgb(0, 0, 0)" stroke="rgb(66, 66, 66)" stroke-width="1px" opacity="0.25"></line></g><g><line x1="0" y1="176" x2="266.015625" y2="176" fill="rgb(0, 0, 0)" stroke="rgb(66, 66, 66)" stroke-width="1px" opacity="0.25"></line><line x1="0" y1="160" x2="266.015625" y2="160" fill="rgb(0, 0, 0)" stroke="rgb(66, 66, 66)" stroke-width="1px" opacity="0.25"></line><line x1="0" y1="144" x2="266.015625" y2="144" fill="rgb(0, 0, 0)" stroke="rgb(66, 66, 66)" stroke-width="1px" opacity="0.25"></line><line x1="0" y1="128" x2="266.015625" y2="128" fill="rgb(0, 0, 0)" stroke="rgb(66, 66, 66)" stroke-width="1px" opacity="0.25"></line><line x1="0" y1="112.00000000000001" x2="266.015625" y2="112.00000000000001" fill="rgb(0, 0, 0)" stroke="rgb(66, 66, 66)" stroke-width="1px" opacity="0.25"></line><line x1="0" y1="96" x2="266.015625" y2="96" fill="rgb(0, 0, 0)" stroke="rgb(66, 66, 66)" stroke-width="1px" opacity="0.25"></line><line x1="0" y1="79.99999999999999" x2="266.015625" y2="79.99999999999999" fill="rgb(0, 0, 0)" stroke="rgb(66, 66, 66)" stroke-width="1px" opacity="0.25"></line><line x1="0" y1="64.00000000000003" x2="266.015625" y2="64.00000000000003" fill="rgb(0, 0, 0)" stroke="rgb(66, 66, 66)" stroke-width="1px" opacity="0.25"></line><line x1="0" y1="48" x2="266.015625" y2="48" fill="rgb(0, 0, 0)" stroke="rgb(66, 66, 66)" stroke-width="1px" opacity="0.25"></line><line x1="0" y1="31.999999999999993" x2="266.015625" y2="31.999999999999993" fill="rgb(0, 0, 0)" stroke="rgb(66, 66, 66)" stroke-width="1px" opacity="0.25"></line><line x1="0" y1="16.000000000000007" x2="266.015625" y2="16.000000000000007" fill="rgb(0, 0, 0)" stroke="rgb(66, 66, 66)" stroke-width="1px" opacity="0.25"></line><line x1="0" y1="0" x2="266.015625" y2="0" fill="rgb(0, 0, 0)" stroke="rgb(66, 66, 66)" stroke-width="1px" opacity="0.25"></line></g></g></g><g><g><line x1="0" y1="304" x2="266.015625" y2="304" fill="rgb(0, 0, 0)" stroke="rgb(153, 153, 153)" stroke-width="1.5px"></line></g></g><g><g><line x1="29.557291666666664" y1="0" x2="29.557291666666664" y2="176" fill="rgb(0, 0, 0)" stroke="rgb(153, 153, 153)" stroke-width="1.5px"></line></g></g><g><g><g><g><g><path stroke="rgb(255, 112, 67)" stroke-width="2px" d="M39.015625,-2.598038548570699L39.41760416666666,11.24368389656154L39.565390625,10.874982691956443L39.713177083333335,-1.3024147906223398L39.86096354166667,4.5984106690866575L40.156536458333335,7.298690261483687L40.30432291666667,9.955292190436888L40.599895833333335,16.016034964056434L40.89546875,15.530957724643198L41.19104166666667,15.74607402443608L41.338828125000006,15.8214424035536L41.48661458333333,33.65892646208155L41.63440104166666,24.39898212845342L41.929973958333335,21.7548216348574L42.07776041666666,13.400947485303716L42.373333333333335,16.52519106503596L42.52111979166667,19.82137951634168L42.66890625,21.261973675381416L42.96447916666666,21.3162792064495L43.112265625,20.08700835333745L43.85119791666666,7.641768000283291L43.998984375,10.47241813049231L44.44234375,28.483006847533858L44.590130208333335,36.51453021325669L45.03348958333333,36.24753725026851L45.18127604166666,20.632963344423725L45.476848958333335,30.237483695130866L45.62463541666667,27.698365613807017L45.772421875,30.59478421508595L45.920208333333335,29.380488845701976L46.06799479166667,35.176522143480724L46.21578125,38.19825718867631L46.363567708333335,34.64986518661887L46.659140625,38.74633962893909L46.806927083333335,33.34289616933121L46.95471354166667,28.78502656573448L47.102500000000006,33.69532052012919L47.545859375,46.40416550238511L47.693645833333335,50.51346602201211L48.28479166666667,44.95867394304125L48.432578125,48.33753918943319L48.83455729166667,41.295682617053444L48.982343750000005,47.55524503470961L49.130130208333334,45.30545689631404L49.27791666666666,38.24320837240753L49.425703125,40.052965047248215L49.72127604166667,54.62387879031184L50.016848958333334,52.44329890809824L50.16463541666667,49.16004405738335L50.312421875,40.030123724469036L50.460208333333334,45.08362561102421L50.60799479166666,43.75944736978833L50.75578125,43.45961129296675L51.05135416666667,51.02045519130738L51.199140625000005,53.11749123917408L51.346927083333334,54.54228162399763L51.49471354166666,58.13930330057046L51.6425,59.92289396154345L52.085859375,46.0531012298313L52.67700520833333,48.193080525496434L52.972578125,44.978891528188484L53.120364583333334,59.12355737479885L53.4159375,30.197379664137088L53.563723958333334,44.25051703188067L53.859296875,53.93554657777098L54.007083333333334,58.17967740344971L54.15486979166666,62.8813930967329L54.450442708333334,58.51662958972916L54.746015625000005,58.87224353142538L55.04158854166666,55.55674989693138L55.189375,58.984447811083655L55.337161458333334,58.19470158459942L55.632734375,60.350153012527215L55.780520833333334,62.46598704067062L55.92830729166667,64.85262155179495L56.07609375,64.94854268815703L56.223880208333334,62.4429716669714L56.519453125,66.68375251312231L56.667239583333334,70.66938503753644L56.81502604166667,66.55435013873281L56.962812500000005,66.41805472435296L57.110598958333334,70.50878380812256L57.25838541666666,64.52514905379445L57.406171875,67.69769212392704L57.84953125,71.49473832123122L57.997317708333334,66.49490512652777L58.14510416666667,65.97471102025261L58.399296875,69.83578753439278L58.842656250000005,77.61502270679287L59.286015625,80.39755022991068L59.43380208333333,78.8897004870675L59.58158854166667,78.94717173267018L59.87716145833333,83.02894337468514L60.02494791666667,69.84654044802886L60.172734375000005,75.62538642702044L60.32052083333333,74.5355708302113L60.61609375,75.18297961360528L60.76388020833333,90.03830663565587L60.91166666666667,82.67659764411323L61.20723958333333,87.42396281315253L61.5028125,79.01518167348719L61.79838541666667,82.07693622882375L61.946171875,82.62418259605892L62.24174479166667,89.93714574232773L62.389531250000005,93.46150505098744L62.53731770833333,90.32346369953775L62.68510416666666,86.57896171886819L62.832890625,90.07780496406016L63.12846354166667,86.74029946403178L63.276250000000005,74.42081389472767L63.42403645833333,66.08367844608951L63.86739583333333,71.17937767617421L64.16296875,67.17313182421042L64.31075520833333,70.16535942594712L64.606328125,80.9664046814472L64.75411458333333,77.801312306549L64.90190104166666,78.50017062367547L65.0496875,86.84037070001098L65.19747395833333,83.50520966365895L65.34526041666666,82.99896892258501L65.64083333333333,89.33184404581178L65.78861979166668,86.13395521288746L66.08419270833333,88.99213841703913L66.23197916666666,85.48115150420297L66.379765625,84.51992221050517L66.52755208333335,90.6187331877533L66.67533854166666,90.3416432024469L66.82312499999999,79.02917758711756L67.266484375,87.05949873977055L67.41427083333333,95.5520984366724L67.56205729166668,92.07411184520655L67.70984375,79.9731673634716L68.11182291666667,88.05150791625191L68.259609375,93.61104047667985L68.40739583333334,93.44859678967L68.55518229166667,87.66934880866529L68.85075520833334,88.35833230766008L68.99854166666667,84.1459728190443L69.73747395833333,81.7110444610799L70.033046875,84.94814462098388L70.18083333333334,91.36699964185304L70.62419270833334,96.47066346156446L70.77197916666665,93.8792562922707L70.919765625,97.52911818271106L71.21533854166667,99.63114469197528L71.363125,90.45762816040002L71.51091145833334,95.77899965624978L71.65869791666667,94.49729710209951L71.80648437500001,94.56985500686517L71.95427083333334,78.2458970739433L72.10205729166665,86.73183771336012L72.24984375,86.7217118046518L72.54541666666667,81.4737081588409L72.693203125,84.78966389066588L72.98877604166667,89.43142467717298L73.1365625,89.58921331155283L73.72770833333333,94.77270218126765L73.87549479166667,93.85115640397545L74.02328125,98.63081808707523L74.17106770833334,96.10706026447659L74.31885416666667,98.92665452416443L74.466640625,99.93677236232581L75.05778645833333,100.29947491641894L75.20557291666667,97.85450451467072L75.353359375,97.54449134405635L75.50114583333333,95.71939385733711L75.64893229166667,96.65873249054978L75.79671875,99.54086098480838L76.09229166666667,99.9167979324378L76.24007812500001,97.15223825958476L76.38786458333334,96.93556292645398L76.53565104166665,94.55550622816244L76.6834375,94.64989881441213L76.83122395833333,89.36775110200176L77.126796875,95.64470671436268L77.27458333333334,97.3311786581342L77.52877604166667,98.81915511663344L77.67656249999999,88.27697585806601L77.82434895833333,92.1429562973103L78.119921875,102.94307911438469L78.56328125,101.822134852664L78.85885416666667,102.497014737282L79.006640625,103.29533809194194L79.15442708333333,99.80779558282632L79.30221354166666,99.60685447371922L79.45,101.67613107870179L80.04114583333333,101.19971474951598L80.18893229166667,100.43537793723401L80.48450520833335,93.95057460169589L80.78007812499999,93.49124167263865L80.92786458333333,94.17883390128824L81.07565104166666,99.55141597950585L81.2234375,107.58295243957119L81.37122395833333,104.64800144421147L81.51901041666667,106.1020529340928L81.666796875,103.28443656392244L81.81458333333335,105.68202058093158L81.96236979166667,111.17742523918395L82.25794270833333,100.76956702095177L82.40572916666666,104.23923616899195L82.553515625,105.83072031315054L82.70130208333333,107.47463095650605L82.996875,107.19756868163068L83.14466145833333,105.50303484606337L83.44023437499999,105.11408496861215L83.58802083333333,99.97690740206573L83.73580729166666,92.50535296785074L83.88359375,90.60586681000731L84.03138020833333,100.0036993386289L84.17916666666666,98.88593580495959L84.326953125,103.71059228284149L84.47473958333333,104.55272141279572L84.62252604166667,79.13570999611493L84.7703125,90.0180104703252L85.36145833333333,101.63062744918729L85.50924479166666,104.82006424417058L85.65703125,105.07378464788175L85.95260416666667,95.94560707718118L86.100390625,99.2311650580763L86.69153645833333,103.69327304760212L87.09351562500001,103.52270897626634L87.24130208333334,101.1165318036065L87.38908854166667,102.13637606763753L87.83244791666667,109.51151199617335L87.980234375,118.33619835065812L88.12802083333334,113.52301608375912L88.27580729166667,106.43092886717443L88.42359375,110.00691623754096L88.57138020833334,102.0887746051955L88.71916666666667,100.92279906487511L88.86695312500001,102.66904503951099L89.01473958333332,107.72957281380671L89.16252604166667,108.38758308952913L89.3103125,103.15336474934736L89.45809895833334,105.47618594860744L89.60588541666667,108.1986617034418L89.753671875,112.50375608120815L90.04924479166667,105.85913154789482L90.34481770833334,105.79889148061676L90.49260416666667,110.75511327734712L90.640390625,107.88506869883014L90.78817708333332,106.9927338386218L91.23153645833334,102.54756863264083L91.37932291666667,102.39850349037552L91.52710937500001,107.5634856391472L91.67489583333334,116.18014365247025L92.11825520833332,119.0111091483303L92.26604166666667,113.6884186475675L92.56161458333334,112.54165645892624L92.70940104166667,114.55047090324881L93.15276041666667,111.07288965864852L93.30054687500001,109.29227963259147L93.44833333333332,106.67163700562911L93.74390625,109.09348742188331L93.89169270833334,111.77769584668468L94.03947916666667,110.5955477906036L94.48283854166667,109.81902014927671L94.63062500000001,109.80516426394348L94.77841145833332,109.75918059724546L94.92619791666667,103.28962052570566L95.073984375,108.90847385350932L95.22177083333334,107.90772316708605L95.36955729166667,105.9332664838698L95.51734375,102.05357561297812L95.81291666666667,104.45719686619994L95.96070312500001,109.79668368978832L96.10848958333334,112.88889602472506L96.25627604166667,116.6694248417027L96.953828125,108.89996232384487L97.10161458333334,109.4104993211868L97.24940104166667,110.21473488018768L97.39718749999999,105.18345556739483L97.54497395833333,113.11418043424794L97.840546875,114.41005279332462L98.13611979166667,113.41686526364127L98.43169270833333,114.22916254655146L98.57947916666667,105.97123776230589L98.727265625,110.15321213217598L99.02283854166666,110.01272710688127L99.170625,116.25056248025425L99.31841145833333,107.0462050266047L99.613984375,109.5364575282919L99.90955729166667,106.87936009741948L100.05734375,109.48381970987994L100.35291666666666,115.94521526495383L100.500703125,113.6912523508058L100.64848958333333,121.31753709316169L101.09184895833333,116.84062601566264L101.23963541666667,116.55596958065004L101.387421875,115.9106655267714L101.53520833333334,112.48150998043052L101.68299479166667,113.64338272623438L101.83078124999999,112.2311838258041L101.97856770833333,112.84979542426663L102.274140625,119.19914136131047L102.42192708333333,117.02064219593669L102.56971354166667,115.17624735522068L102.7175,116.46939835362312L102.86528645833334,118.30280886538432L103.01307291666667,121.16154982118371L103.45643229166666,124.66758972089626L103.60421875,126.42335618544303L103.89979166666667,120.23222435121944L104.047578125,117.49194767835863L104.19536458333333,113.30561019637065L104.4909375,115.91266413723159L104.63872395833334,114.63652060147956L104.78651041666666,114.17416490147613L105.22986979166666,115.03084667342964L105.37765625,116.34281411062516L105.52544270833333,112.3284303563287L105.67322916666667,109.08348494872153L105.821015625,110.3250324136299L105.96880208333334,110.07921725548997L106.22299479166666,115.06766012929495L106.37078125,119.86525885833869L106.51856770833334,120.39261513098222L106.81414062500001,127.26244037833297L106.96192708333334,118.13034630707791L107.10971354166668,107.8913013511413L107.25750000000001,112.21891319593865L107.40528645833332,115.46445090675998L107.55307291666666,119.91815838280111L107.84864583333334,116.2118609491753L108.29200520833334,118.27962168119953L108.88315104166666,123.33329215087059L109.17872395833334,119.05936211608389L109.32651041666666,121.45678082861032L109.474296875,114.81216511581853L109.62208333333334,117.4833632555873L109.76986979166666,119.6927906660599L109.91765625000001,114.99533576895969L110.06544270833334,107.59966003376351L110.21322916666668,115.44241835759941L110.361015625,120.26916614822665L110.50880208333334,122.40959958822799L110.65658854166666,122.2246337687449L110.804375,121.39959063264587L110.95216145833334,120.49951065857924L111.24773437500001,120.46682217883895L111.39552083333334,117.56164810161488L111.83888020833332,122.15699694812713L112.134453125,121.41915677941095L112.28223958333334,115.9687708315626L112.43002604166666,115.65020418747515L112.57781250000001,114.96586199155004L112.72559895833334,120.34182817668051L113.02117187500001,124.62501839953859L113.61231770833334,117.54447801207422L113.76010416666666,122.98940920409513L113.90789062500001,127.31331562743756L114.20346354166666,127.98418898431164L114.35125000000001,129.68463036446397L114.49903645833334,126.69426077025308L114.64682291666666,116.8096335495542L114.94239583333334,112.96659334689559L115.23796875,124.25466227644792L115.787734375,126.21168198653524L116.37888020833333,122.57733916323463L116.97002604166667,128.6139108603065L117.1178125,128.36200019507794L117.26559895833333,123.2741730021786L117.561171875,129.06807435794778L117.70895833333333,127.42061870839659L117.85674479166667,122.61564560858287L118.00453125,119.56168701724933L118.15231770833334,116.43447009609177L118.447890625,122.29035487107059L118.59567708333334,126.7463734527327L118.74346354166666,117.6231620538174L118.89125,125.32094141411415L119.03903645833333,131.46354244093678L119.18682291666667,129.04339874947416L119.48239583333333,130.81633389690128L119.63018229166667,118.1501221460021L119.77796875,124.04394253503779L120.07354166666666,128.53631711251438L120.36911458333333,120.26878352312386L120.51690104166667,118.68711716740214L120.6646875,125.57212270980409L120.81247395833333,122.24812515786488L121.25583333333334,125.8101145280075L121.40361979166667,130.63768538550565L121.69919270833333,118.40940146873017L121.84697916666666,116.63796952503694L121.994765625,114.2426318355666L122.29033854166667,112.27259230782188L122.58591145833334,114.21917824846267L122.73369791666667,110.93715670646284L123.02927083333333,114.77829515302811L123.17705729166666,121.64671036818407L123.32484375,117.91188162099591L123.47263020833333,126.28134547192617L123.62041666666667,127.91468569349507L124.06377604166667,128.74082878059897L124.2115625,124.58352333800052L124.35934895833334,126.28733839092287L124.50713541666666,125.3814410060503L124.80270833333333,125.76368668614971L125.35247395833333,126.73797294461217L125.50026041666668,124.97315848447973L125.64804687499999,130.7434171472674L125.79583333333333,127.94739935604844L125.94361979166666,128.69931214933465L126.09140624999999,126.43698936632197L126.534765625,128.3617707606013L126.68255208333333,127.0296858618173L126.978125,126.0237689298101L127.12591145833332,126.45559436569856L127.27369791666666,133.48762263351824L127.42148437499999,132.99875930246205L127.56927083333333,133.50756723461444L128.01263020833332,130.17394074665245L128.16041666666666,128.7506376794978L128.308203125,129.83537082028414L128.45598958333332,129.39661872477546L129.34270833333332,133.71066563183794L129.63828125,133.19902759107785L129.78606770833332,122.88531182594797L130.22942708333335,121.67914852135003L130.525,112.73431063075435L130.67278645833335,121.78998193967087L130.82057291666666,122.07768713133181L130.968359375,122.6854384583035L131.11614583333332,123.09765376101724L131.26393229166666,131.2036884632754L131.55950520833335,135.65063943904923L131.70729166666666,132.19103769327572L131.855078125,125.85863716522081L132.00286458333335,130.25184573602212L132.2984375,129.3223640791865L132.44622395833332,132.07309526635956L132.59401041666666,130.14457069893928L132.741796875,130.6627088729158L133.03736979166666,129.79061600825878L133.18515625,135.72065027512127L133.33294270833335,134.70532088254103L133.48072916666666,133.56077816947825L133.62851562499998,127.56292106428461L133.77630208333335,128.06883059572408L134.071875,131.71642576832312L134.515234375,128.89151222216333L134.66302083333335,127.69102515403776L135.065,134.85898326411453L135.65614583333334,138.3037400637544L135.80393229166668,139.91687405076485L136.09950520833334,142.82813765982903L136.24729166666665,140.0155553482778L136.54286458333334,141.58203332798524L136.8384375,139.30312147841954L137.13401041666668,137.68977407876315L137.281796875,138.44517433800496L137.42958333333334,136.67320144270775L137.72515625000003,137.0904206520016L137.87294270833334,138.06128173385233L138.02072916666665,147.34179929086073L138.168515625,144.58572990410627L138.3163020833333,144.67613448329627L138.46408854166668,145.24301055447972L138.611875,143.90953313932846L138.75966145833334,146.7738591887118L138.90744791666665,142.5852959667183L139.05523437500003,143.32726782050946L139.20302083333334,148.96889353684915L139.49859375,144.72214270169934L139.941953125,144.45789900145172L140.08973958333334,149.01498140526556L140.23752604166665,147.54348896522967L140.53309895833334,148.55873917686728L140.68088541666665,150.50042027919164L140.828671875,151.1983192604105L140.9764583333333,139.26648034103636L141.12424479166668,136.65110581784202L141.86317708333334,134.57781654398892L142.01096354166668,128.45811627984796L142.45432291666668,133.06271099257916L142.602109375,139.0175301981476L142.89768229166665,142.98581032469912L143.04546875,144.90344050237562L143.6366145833333,145.9698234719576L143.78440104166668,142.30970265403636L143.9321875,140.47787176332025L144.22776041666665,138.4071889088222L144.48195312500002,144.5457081893485L144.62973958333333,144.2614296972395L144.77752604166665,145.19578489659074L144.9253125,142.1591957151761L145.07309895833333,140.89442165731612L145.22088541666668,149.02549939178957L145.51645833333333,152.75792963995656L145.66424479166668,154.46858014878106L145.81203125000002,151.089176310399L145.95981770833333,148.34542949992348L146.10760416666668,145.58860859869677L146.255390625,142.95697127341484L146.40317708333333,143.976942125316L146.55096354166668,145.62616943320964L146.69875,143.79222902656394L147.14210937500002,143.07188492417814L147.43768229166668,145.76936100364017L147.58546875,143.19413060212307L147.88104166666668,141.93252927222355L148.17661458333333,144.23276223038735L148.32440104166665,142.35869344052733L148.47218750000002,143.43336315141357L148.61997395833333,141.68642608634374L148.76776041666668,144.3210584182247L149.06333333333336,145.12292908780006L149.21111979166668,143.48178758115904L149.80226562500002,143.24807828600012L149.95005208333333,147.77190662583592L150.09783854166668,143.72511525846053L150.245625,144.74666640696842L150.39341145833333,142.62965668164443L150.688984375,143.4465623195335L150.83677083333333,147.5093365845302L151.13234375000002,142.4070803366434L151.28013020833333,141.06738052620477L151.72348958333333,141.28429256590596L151.87127604166668,142.51166593261L152.0190625,147.4675122930255L152.16684895833333,151.02464018068588L152.31463541666665,148.86136003614592L152.46242187500002,142.57694842982963L152.61020833333333,149.66015946011944L152.75799479166668,150.40568105662587L152.90578125,148.7003651159091L153.05356770833333,143.32554057223103L153.20135416666668,144.7637174784094L153.34914062500002,146.77174805754126L153.64471354166665,148.96878346892416L154.04669270833332,148.66559625322952L154.19447916666667,149.36972842607102L154.49005208333335,148.25068379636525L154.63783854166667,144.7717208933587L154.78562499999998,146.40150814484093L155.08119791666667,143.3652365519436L155.228984375,140.19092499696202L155.52455729166667,139.66494104554053L155.67234375,140.5677649813282L155.96791666666667,148.2663511656158L156.26348958333332,152.85749822988706L156.70684895833332,151.46977809747813L156.85463541666667,155.0190315465972L157.29799479166667,147.11276837711603L157.59356770833332,144.46917298153085L157.74135416666667,142.45892631241705L157.889140625,144.77991892831938L158.18471354166667,147.3742824193085L158.33249999999998,145.51147741056948L158.48028645833335,147.29711281047744L158.92364583333332,147.2354479002147L159.07143229166667,153.177362261247L159.36700520833332,146.37012013079604L159.66257812499998,142.6220451848619L159.81036458333335,142.02224616151528L160.25372395833332,144.18989932502194L160.549296875,143.06988937833836L160.69708333333332,144.71019076811632L160.84486979166667,144.33645381633852L161.14044270833335,146.52067321601163L161.28822916666667,147.01922270096927L161.436015625,150.87845199368945L161.58380208333332,143.42050629295443L161.73158854166667,142.87212570570432L161.879375,144.94689068831516L162.02716145833332,146.83552275680012L162.17494791666667,145.67725149740284L162.32273437499998,148.58423557251396L162.47052083333335,144.51535667401376L162.61830729166667,146.46828878773346L162.91388020833332,148.7933407119101L163.06166666666667,152.3400757009498L163.35723958333332,151.79688923923442L163.75921875,154.24092441420717L163.90700520833335,141.3074021674452L164.35036458333335,145.78684036357745L164.49815104166666,145.04994941010204L164.79372395833332,142.04317002447922L164.94151041666666,143.113567381814L165.089296875,145.36400110108548L165.23708333333335,148.84670094599068L165.38486979166666,145.67634923428142L165.68044270833335,147.41502356034422L165.8282291666667,146.0814476460332L166.12380208333332,148.4916702538797L166.27158854166666,148.89869935691766L166.56716145833335,148.06851687062033L166.71494791666666,152.55262135284096L166.862734375,146.1599369932231L167.01052083333332,142.28686605030398L167.1583072916667,144.63779193242848L167.30609375,144.02424048233306L167.45388020833332,145.85290793686076L167.60166666666666,140.18206298416234L168.1928125,143.5976931814276L168.34059895833332,141.797860560651L168.4883854166667,147.71463552584373L168.636171875,146.30182704609706L168.78395833333335,147.21606479455275L168.93174479166666,150.61526872139717L169.07953125,152.1333458031508L169.22731770833335,150.92792675526695L169.37510416666666,147.47611773986674L169.96625,147.0077773867789L170.11403645833335,149.40554419390816L170.26182291666666,147.99681887169157L170.40960937499997,148.3368148871629L170.85296875,147.80563927104288L171.00075520833332,146.7257778192175L171.1485416666667,145.68723594812232L171.44411458333335,145.3697396020155L171.59190104166666,140.96721042991047L171.88747395833335,141.4380138266108L172.183046875,139.84090392279757L172.33083333333332,145.2634344130047L172.4786197916667,145.09382457907725L172.92197916666666,143.21830551252205L173.176171875,144.77837882295512L173.32395833333334,145.7696548572496L173.47174479166665,148.41773850150796L173.61953125,149.147418728041L173.76731770833334,150.28887638483485L173.91510416666668,146.01639929434083L174.21067708333334,145.78095125568169L174.35846354166668,145.8579880202547L174.80182291666665,144.42346380977247L174.949609375,147.8541025091911L175.54075520833334,148.70352710304886L175.836328125,147.34421384941476L175.98411458333334,150.28702299959028L176.13190104166665,154.83082376221753L176.2796875,148.7469416755434L176.42747395833334,150.6290058790443L176.57526041666668,146.00429332845198L177.01861979166665,147.56513626928796L177.16640625000002,150.21777419779104L177.31419270833334,145.56979492028597L177.46197916666665,145.8871722860339L177.609765625,148.30336488742844L177.90533854166668,154.14514645015726L178.20091145833334,155.5313560967179L178.34869791666665,153.7405776503403L178.49648437500002,146.21122796074863L178.79205729166665,153.17306265077778L178.93984375,151.79196358228796L179.08763020833334,144.94516144099876L179.23541666666668,144.86175266446497L179.383203125,148.09537973130838L179.53098958333334,149.66918767765225L179.67877604166665,144.17897938057814L179.82656250000002,145.9558173082175L179.97434895833334,146.24938664805305L180.12213541666668,149.35204478485235L180.71328125,150.28691618670732L181.00885416666665,146.9258200229985L181.15664062500002,142.27298716913356L181.30442708333334,144.85791251784977L181.45221354166668,136.60665978030215L181.6,139.027672320818L182.043359375,144.54977504623838L182.33893229166665,146.05932383664194L183.03648437500001,149.8393559749588L183.33205729166667,148.5380965409079L183.47984375,148.94973895176642L183.77541666666667,147.9894871546292L184.36656250000001,147.8955614944377L184.51434895833333,148.86723840117918L184.66213541666667,147.2491689913301L184.809921875,150.6662591691511L184.95770833333333,149.32290136788467L185.54885416666667,151.60313889964928L185.84442708333333,154.33241308679885L185.99221354166667,151.61764643758957L186.28778645833333,151.8739478479053L186.43557291666667,151.28472103418264L186.87893229166667,149.21397989834162L187.02671875,152.8262190928746L187.17450520833336,150.79979410831265L187.470078125,147.88974146285136L187.76565104166667,147.00084374093106L187.91343750000001,149.5415884360259L188.06122395833333,151.43515966561947L188.356796875,150.64179991619298L188.50458333333336,148.0778142865688L188.80015625,151.41293708420937L188.94794270833333,150.6838748451301L189.09572916666664,151.51321740127975L189.39130208333333,148.23924605356083L189.53908854166667,151.9527158755447L189.686875,146.27572937121306L189.83466145833336,146.65228187626786L189.98244791666667,142.9607767795693L190.130234375,140.07821110100576L190.57359375000001,149.46606328017134L190.72138020833333,149.80073705867898L191.016953125,143.18006152842025L191.16473958333336,143.02960140069473L191.31252604166667,146.70455073452086L191.46031250000001,148.2943670221334L191.75588541666664,148.52145206142455L191.90367187500001,147.51443831449149L192.05145833333333,153.5100664158189L192.30565104166666,152.37000888940835L192.74901041666666,150.08763529275146L192.89679687499998,147.55418010600977L193.04458333333335,147.5525233986889L193.783515625,145.30368563192573L194.07908854166666,147.369280890569L194.37466145833335,148.64065766092833L194.52244791666666,151.51393637512146L194.670234375,146.20542336376917L195.11359375,147.01364079041727L195.26138020833335,151.35025677039295L195.40916666666666,150.52124472233098L195.55695312499998,151.73214952810073L195.70473958333332,147.40073762335462L195.85252604166666,148.10297690628815L196.0003125,148.25486933469088L196.14809895833332,143.5726407246549L196.443671875,147.32819728116743L196.59145833333335,147.16293208635182L196.88703125,148.22260170481402L197.03481770833332,151.19006088555932L197.18260416666666,148.7165195177858L197.330390625,153.7573580760279L197.77375,150.94887914767975L197.92153645833335,154.09379457539984L198.217109375,151.5166134304206L198.36489583333332,151.1141321817875L198.5126822916667,150.25660797118186L198.66046875,147.0957235107365L198.80825520833332,148.28447706756248L198.95604166666666,150.20199098144323L199.10382812499998,157.25666841241332L199.25161458333335,156.54050121529465L199.39940104166666,154.2785255063985L199.5471875,152.2275038689026L199.8427604166667,150.41595540819458L199.990546875,151.6544800900095L200.28611979166666,151.4405779542132L200.43390624999998,152.36578930029893L200.72947916666666,151.22065308457388L200.877265625,153.07662498215305L201.1728385416667,150.02866427457016L201.320625,141.17337761137298L201.46841145833332,145.84961029179937L201.61619791666666,148.4526941078189L201.870390625,149.44557753189105L202.01817708333334,150.14812864651498L202.31375,147.86058529490361L202.46153645833334,150.34796548053103L202.60932291666666,152.04173808195875L202.9048958333333,151.79412568151167L203.05268229166668,155.8795193465901L203.34825520833334,158.07553322508053L203.49604166666666,156.81728629704781L203.643828125,157.0184204842834L203.79161458333334,150.97844597495725L203.93940104166668,154.24156339643676L204.0871875,151.87508826064038L204.2349739583333,147.82115948562006L204.82611979166666,146.90338008620847L204.97390625,148.65011864315574L205.12169270833334,150.99220722562734L205.417265625,152.1677679160038L205.5650520833333,153.98510288827418L205.71283854166666,156.62447123308658L206.00841145833334,154.55728867399503L206.303984375,154.88556358067876L206.59955729166668,151.18614428549222L206.8951302083333,153.28258901422743L207.190703125,142.01398662081675L207.33848958333334,145.781108303972L207.48627604166666,151.65454335457557L207.6340625,147.04094912675902L207.92963541666668,149.66103817264968L208.077421875,154.8624851777597L208.22520833333334,152.8017451807525L208.37299479166666,153.4998199966351L208.52078125,147.6706723706007L208.66856770833334,151.56648194408893L209.1119270833333,144.37214548359205L209.25971354166668,147.05286187511618L209.70307291666666,147.90443193067273L209.85085937500003,154.06075398414828L209.99864583333334,154.23200807743964L210.29421875,155.220962391935L210.4420052083333,153.6718913237108L210.88536458333334,148.94792162894328L211.03315104166666,150.83039867591333L211.18093750000003,145.51754786796255L211.58291666666665,147.66569763557243L211.73070312500002,148.99220517954905L212.1740625,153.56886093426755L212.32184895833333,156.14648318653707L212.46963541666668,157.969412281307L212.76520833333333,151.62698962342287L213.20856770833333,147.62185093195168L213.35635416666668,145.3717227723058L213.79971354166668,151.27530703221893L213.9475,149.5391754226395L214.09528645833333,147.2347076843088L214.68643229166668,150.1316500729266L214.98200520833333,147.80297151958604L215.12979166666668,150.4838188156823L215.27757812500002,152.97057540806173L215.42536458333333,153.11076740975403L215.57315104166665,149.95181296202676L215.7209375,150.9720849390813L215.86872395833333,149.87647968506744L216.31208333333333,148.31197198615033L216.45986979166668,144.5524751686189L216.60765625000002,148.8384202208003L216.75544270833333,149.3604791573215L217.051015625,152.11278426715901L217.34658854166668,149.2482047323535L217.494375,153.06756774450247L217.93773437500002,154.609568928867L218.08552083333333,153.04145012807214L218.38109375,151.69059902734378L218.52888020833333,151.15891412679446L218.67666666666668,150.11125786175782L218.824453125,153.28898810786282L218.97223958333333,149.77841758395599L219.12002604166665,150.947665212544L219.56338541666668,153.45569229006304L219.711171875,151.12402458119115L220.30231770833333,152.7638308711512L220.45010416666665,153.4911428754129L220.59789062500002,153.66200330642448L220.74567708333333,139.6099804567551L220.99986979166664,146.16421367688508L221.29544270833333,146.44856311061105L221.44322916666667,149.5404774736054L221.73880208333335,150.22856714669985L221.88658854166667,153.81518708672598L222.18216145833333,152.13285424117134L222.477734375,154.80371709945135L222.62552083333333,153.67270858456092L222.77330729166667,149.72860340696215L222.92109374999998,153.20474493754887L223.21666666666667,151.17430951746096L223.364453125,156.37910677523487L223.66002604166667,154.90969520527764L223.8078125,151.6450307233253L224.10338541666667,154.7732119001817L224.25117187499998,150.90046106802652L224.54674479166667,149.07518169300096L224.69453125,145.32544730315408L224.84231770833333,138.54362234002235L224.99010416666667,144.15034008339575L225.43346354166667,148.13815479466635L225.58124999999998,147.2788475810845L225.72903645833333,146.4887624060726L225.87682291666667,151.52074043009372L226.024609375,150.80285906823693L226.17239583333333,151.99005303402075L226.61575520833335,156.767334661599L226.76354166666667,157.6349453221059L226.91132812499998,157.52338777126647L227.05911458333333,155.80679217661486L227.20690104166667,154.30900511553924L227.3546875,155.9151775444212L227.50247395833333,158.70735600022448L227.65026041666667,155.088387789893L227.79804687499998,149.69622935209742L228.09361979166667,145.62471450182238L228.83255208333333,146.19015691764616L229.12812499999998,150.68450983814876L230.01484375,152.54716677935411L230.16263020833333,147.59270226640396L230.564609375,147.24722940732772L230.71239583333335,151.7696886957272L231.00796874999997,153.44292493466045L231.15575520833335,154.96197955491246L231.59911458333332,153.226045803321L231.7469010416667,150.61805164581097L232.04247395833335,144.05608279565308L232.19026041666666,148.9180157128533L232.33804687499997,145.28985113761186L232.48583333333335,148.03051201618527L232.63361979166666,144.85270681450854L232.92919270833332,144.9611375240689L233.224765625,146.84731335092818L233.37255208333335,148.29849020629666L233.52033854166666,145.44000549310172L233.66812499999997,150.14093505855635L233.81591145833335,144.4306423873677L233.96369791666666,150.68465210264768L234.111484375,151.74545999327808L234.70263020833335,155.62761790728277L234.85041666666666,150.2334381531221L234.998203125,152.73186033907785L235.14598958333335,154.8966784593061L235.29377604166666,155.17252474526137L235.73713541666666,156.81495455205186L235.884921875,158.00995375692693L236.03270833333335,151.95566536176113L236.62385416666666,154.6887491773838L236.771640625,154.2928767342135L236.91942708333332,155.3747950636604L237.06721354166666,158.06863333244675L237.36278645833335,157.2241895285818L237.51057291666666,159.24414029643376L237.80614583333332,164.40932921722793L237.9539322916667,156.361887622805L238.24950520833332,155.92307110365127L238.39729166666666,152.5872475846761L238.69286458333335,157.27392390633548L238.84065104166666,155.05308992424563L239.13622395833332,153.71049489235256L239.2840104166667,154.4344264367543L239.431796875,154.2167343914105L239.57958333333332,152.06396244881114L239.72736979166666,153.2317585880611L239.87515625,150.73459939569554L240.12934895833334,144.94538457638217L240.86828125,151.64458517698165L241.311640625,153.89143002312014L241.45942708333334,153.84585158992186L241.75500000000002,151.4009019909404L242.05057291666668,152.8966454731287L242.198359375,146.97989306848416L242.64171875,149.1874309659074L242.78950520833334,148.6049865412754L242.93729166666665,149.34840681123984L243.085078125,154.04550515394362L243.5284375,154.00984608400432L243.6762239583333,153.1151329235349L243.82401041666668,153.117927334077L243.971796875,152.74342237792422L244.26736979166665,154.6389138393522L244.56294270833334,144.6886099155498L244.71072916666668,148.38421239708376L244.858515625,150.28489202412672L245.0063020833333,147.74720207543797L245.44966145833334,156.04338044936435L245.745234375,148.91666681179387L245.89302083333334,148.53136281138052L246.04080729166668,154.6828937290036L246.18859375,154.3685661171629L246.33638020833334,155.39225173084463L246.48416666666665,156.5509586816342L246.631953125,154.4306787780113L246.92752604166665,157.3372589666359L247.0753125,153.19655971042587L247.22309895833334,154.93248279280826L247.37088541666668,149.51950687996964L247.518671875,152.6551212956454L247.66645833333334,152.60297248899613L247.81424479166665,156.7781355746965L247.96203125,154.90151002218607L248.10981770833334,149.96006971723008L248.25760416666665,151.64278472737175L248.405390625,152.35159624383272L248.84875,146.29691889742267L248.99653645833334,152.8089660814956L249.29210937500002,152.21933865616057L249.43989583333334,157.59853243869145" style="fill: none;" fill="none"></path></g></g></g></g><g opacity="0.2"><g><g><g><path stroke="rgb(255, 112, 67)" stroke-width="2px" d="M37.685546875,-23.643871307373026L37.833333333333336,13.8153829574585L38.12890625,-6.309720039367679L38.72005208333333,-5.913492202758768L38.867838541666664,6.591133117675778L39.015625,-3.0347547531128L39.41760416666666,32.00626754760742L39.565390625,10.321930885314941L39.713177083333335,-19.568511009216298L39.86096354166667,13.4496488571167L40.156536458333335,11.349109649658214L40.30432291666667,13.94019508361816L40.599895833333335,25.107149124145515L40.89546875,14.803341865539561L41.19104166666667,16.068748474121104L41.338828125000006,15.934494972229002L41.48661458333333,60.41515254974367L41.63440104166666,10.509065628051761L41.929973958333335,17.788580894470222L42.07776041666666,0.8701362609863299L42.373333333333335,21.21155643463134L42.52111979166667,24.76566219329834L42.66890625,23.422864913940444L42.96447916666666,21.397737503051765L43.112265625,18.24310207366943L43.85119791666666,-11.026092529296882L43.998984375,14.718393325805662L44.44234375,55.49888992309572L44.590130208333335,48.56181526184083L45.03348958333333,35.84704780578614L45.18127604166666,-2.7888975143432724L45.476848958333335,44.6442642211914L45.62463541666667,23.889688491821303L45.772421875,34.939412117004395L45.920208333333335,27.55904579162597L46.06799479166667,43.87057209014893L46.21578125,42.730859756469734L46.363567708333335,29.32727718353271L46.659140625,44.89105129241943L46.806927083333335,25.237730979919434L46.95471354166667,21.948222160339363L47.102500000000006,41.06076145172119L47.545859375,65.46743297576904L47.693645833333335,56.67741680145265L48.28479166666667,36.62648582458497L48.432578125,53.405837059021L48.83455729166667,30.732897758483894L48.982343750000005,56.944588661193855L49.130130208333334,41.93077468872072L49.27791666666666,27.64983558654786L49.425703125,42.76760005950928L49.72127604166667,76.48024940490724L50.016848958333334,49.17242908477784L50.16463541666667,44.235161781311035L50.312421875,26.335243225097663L50.460208333333334,52.663878440856934L50.60799479166666,41.77318000793457L50.75578125,43.00985717773437L51.05135416666667,62.361721038818374L51.199140625000005,56.263045310974135L51.346927083333334,56.67946720123291L51.49471354166666,63.53483581542969L51.6425,62.598279953002944L52.085859375,25.248412132263184L52.67700520833333,51.40304946899414L52.972578125,40.15760803222656L53.120364583333334,80.34055614471436L53.4159375,-13.191886901855451L53.563723958333334,65.3302230834961L53.859296875,68.46309089660645L54.007083333333334,64.54587364196777L54.15486979166666,69.93396663665773L54.450442708333334,51.96948432922363L54.746015625000005,59.40566444396973L55.04158854166666,50.58350944519043L55.189375,64.12599468231201L55.337161458333334,57.010082244873054L55.632734375,63.58333015441896L55.780520833333334,65.63973808288574L55.92830729166667,68.43257331848145L56.07609375,65.0924243927002L56.223880208333334,58.68461513519288L56.519453125,73.04492378234863L56.667239583333334,76.64783382415773L56.81502604166667,60.381797790527344L56.962812500000005,66.2136116027832L57.110598958333334,76.64487743377687L57.25838541666666,55.54969692230226L57.406171875,72.45650672912599L57.84953125,77.19030761718751L57.997317708333334,58.99515533447265L58.14510416666667,65.19441986083984L58.399296875,75.62740230560303L58.842656250000005,89.28387546539308L59.286015625,84.5713415145874L59.43380208333333,76.62792587280273L59.58158854166667,79.03337860107422L59.87716145833333,89.15160083770752L60.02494791666667,50.072936058044434L60.172734375000005,84.29365539550781L60.32052083333333,72.90084743499757L60.61609375,76.15409278869629L60.76388020833333,112.32129716873169L60.91166666666667,71.63403415679932L61.20723958333333,94.54501056671143L61.5028125,66.40200996398926L61.79838541666667,86.66956806182861L61.946171875,83.44505214691162L62.24174479166667,100.90659046173097L62.389531250000005,98.74804401397705L62.53731770833333,85.61640167236328L62.68510416666666,80.96220874786378L62.832890625,95.32606983184814L63.12846354166667,81.73404121398927L63.276250000000005,55.9415855407715L63.42403645833333,53.577975273132324L63.86739583333333,78.82292652130127L64.16296875,61.163763046264656L64.31075520833333,74.65370082855225L64.606328125,97.16797256469727L64.75411458333333,73.05367374420167L64.90190104166666,79.54845809936523L65.0496875,99.35067081451416L65.19747395833333,78.50246810913087L65.34526041666666,82.23960781097414L65.64083333333333,98.83115673065186L65.78861979166668,81.33712196350098L66.08419270833333,93.27941322326662L66.23197916666666,80.21467113494873L66.379765625,83.0780782699585L66.52755208333335,99.7669496536255L66.67533854166666,89.92600822448732L66.82312499999999,62.060479164123535L67.266484375,99.10498046875L67.41427083333333,108.29099798202515L67.56205729166668,86.85713195800781L67.70984375,61.82175064086914L68.11182291666667,100.16901874542236L68.259609375,101.95033931732178L68.40739583333334,93.20493125915529L68.55518229166667,79.0004768371582L68.85075520833334,89.39180755615234L68.99854166666667,77.8274335861206L69.73747395833333,78.05865192413331L70.033046875,89.80379486083986L70.18083333333334,100.99528217315674L70.62419270833334,104.12615919113158L70.77197916666665,89.99214553833008L70.919765625,103.00391101837158L71.21533854166667,102.78418445587158L71.363125,76.69735336303711L71.51091145833334,103.76105690002441L71.65869791666667,92.57474327087402L71.80648437500001,94.67869186401369L71.95427083333334,53.759960174560554L72.10205729166665,99.46074867248537L72.24984375,86.70652294158936L72.54541666666667,73.60170269012451L72.693203125,89.7635974884033L72.98877604166667,96.39406585693358L73.1365625,89.82589626312256L73.72770833333333,102.54793548583984L73.87549479166667,92.46883773803711L74.02328125,105.80031061172485L74.17106770833334,92.3214235305786L74.31885416666667,103.15604591369629L74.466640625,101.45194911956787L75.05778645833333,100.84352874755861L75.20557291666667,94.18704891204834L75.353359375,97.07947158813477L75.50114583333333,92.98174762725831L75.64893229166667,98.06774044036865L75.79671875,103.86405372619629L76.09229166666667,100.48070335388184L76.24007812500001,93.00539875030516L76.38786458333334,96.61054992675781L76.53565104166665,90.98542118072511L76.6834375,94.79148769378662L76.83122395833333,81.44452953338623L77.126796875,105.06014013290407L77.27458333333334,99.86088657379149L77.52877604166667,101.05111980438232L77.67656249999999,72.46370697021484L77.82434895833333,97.94192695617674L78.119921875,119.14326333999635L78.56328125,100.140718460083L78.85885416666667,103.50933456420898L79.006640625,104.49282312393188L79.15442708333333,94.57648181915283L79.30221354166666,99.3054428100586L79.45,104.78004598617555L80.04114583333333,100.4850902557373L80.18893229166667,99.28887271881104L80.48450520833335,84.22336959838867L80.78007812499999,92.80224227905273L80.92786458333333,95.21022224426268L81.07565104166666,107.61028909683226L81.2234375,119.63025712966919L81.37122395833333,100.24557495117189L81.51901041666667,108.2831301689148L81.666796875,99.05801200866699L81.81458333333335,109.2783966064453L81.96236979166667,119.42053222656249L82.25794270833333,85.15777969360353L82.40572916666666,109.44373989105225L82.553515625,108.21794652938841L82.70130208333333,109.9404969215393L82.996875,106.78197526931763L83.14466145833333,102.9612340927124L83.44023437499999,104.5306601524353L83.58802083333333,92.27114105224611L83.73580729166666,81.29802131652832L83.88359375,87.75663757324219L84.03138020833333,114.10044813156127L84.17916666666666,97.20929050445557L84.326953125,110.9475769996643L84.47473958333333,105.81591510772705L84.62252604166667,41.01019287109375L84.7703125,106.34146118164062L85.36145833333333,119.04955291748047L85.50924479166666,109.60421943664551L85.65703125,105.45436525344849L85.95260416666667,82.25334072113037L86.100390625,104.15950202941895L86.69153645833333,110.38643503189087L87.09351562500001,103.26686286926268L87.24130208333334,97.5072660446167L87.38908854166667,103.66614246368408L87.83244791666667,120.57421588897704L87.980234375,131.57322788238525L88.12802083333334,106.30324268341064L88.27580729166667,95.79279804229736L88.42359375,115.37089729309082L88.57138020833334,90.21156215667725L88.71916666666667,99.17383575439455L88.86695312500001,105.28841400146484L89.01473958333332,115.32036447525024L89.16252604166667,109.37459850311281L89.3103125,95.3020372390747L89.45809895833334,108.96041774749756L89.60588541666667,112.28237533569336L89.753671875,118.96139764785768L90.04924479166667,95.8921947479248L90.34481770833334,105.7085313796997L90.49260416666667,118.18944597244263L90.640390625,103.58000183105467L90.78817708333332,105.65423154830933L91.23153645833334,95.87982082366943L91.37932291666667,102.17490577697754L91.52710937500001,115.31095886230469L91.67489583333334,129.10513067245483L92.11825520833332,123.25755739212036L92.26604166666667,105.70438289642335L92.56161458333334,110.82151317596436L92.70940104166667,117.56369256973267L93.15276041666667,105.85651779174805L93.30054687500001,106.62136459350586L93.44833333333332,102.74067306518555L93.74390625,112.72626304626465L93.89169270833334,115.80400848388672L94.03947916666667,108.82232570648192L94.48283854166667,108.65422868728638L94.63062500000001,109.78438043594362L94.77841145833332,109.69020509719849L94.92619791666667,93.585280418396L95.073984375,117.33675384521484L95.22177083333334,106.40659713745119L95.36955729166667,102.97158145904541L95.51734375,96.23403930664064L95.81291666666667,108.06262874603273L95.96070312500001,117.8059139251709L96.10848958333334,117.52721452713014L96.25627604166667,122.3402180671692L96.953828125,97.2457685470581L97.10161458333334,110.1763048171997L97.24940104166667,111.42108821868896L97.39718749999999,97.63653659820557L97.54497395833333,125.01026773452759L97.840546875,116.35386133193971L98.13611979166667,111.92708396911621L98.43169270833333,115.44760847091675L98.57947916666667,93.5843505859375L98.727265625,116.42617368698119L99.02283854166666,109.8019995689392L99.170625,125.60731554031372L99.31841145833333,93.23966884613039L99.613984375,113.27183628082274L99.90955729166667,102.89371395111084L100.05734375,113.39050912857054L100.35291666666666,125.6373085975647L100.500703125,110.31030797958374L100.64848958333333,132.75696420669556L101.09184895833333,110.12525939941406L101.23963541666667,116.12898492813112L101.387421875,114.94270944595337L101.53520833333334,107.33777666091919L101.68299479166667,115.38619184494019L101.83078124999999,110.11288547515869L101.97856770833333,113.77771282196045L102.274140625,128.72316026687622L102.42192708333333,113.75289344787599L102.56971354166667,112.40965509414671L102.7175,118.40912485122679L102.86528645833334,121.05292463302614L103.01307291666667,125.44966125488281L103.45643229166666,129.9266495704651L103.60421875,129.05700588226318L103.89979166666667,110.94552659988405L104.047578125,113.3815326690674L104.19536458333333,107.02610397338866L104.4909375,119.82324504852295L104.63872395833334,112.72230529785156L104.78651041666666,113.48063135147095L105.22986979166666,116.31586933135986L105.37765625,118.31076526641846L105.52544270833333,106.30685472488402L105.67322916666667,104.2160668373108L105.821015625,112.18735361099243L105.96880208333334,109.71049451828003L106.22299479166666,122.55032444000244L106.37078125,127.0616569519043L106.51856770833334,121.18364953994752L106.81414062500001,137.56717824935913L106.96192708333334,104.43220520019531L107.10971354166668,92.53273391723633L107.25750000000001,118.71033096313475L107.40528645833332,120.33275747299196L107.55307291666666,126.5987195968628L107.84864583333334,110.65241479873657L108.29200520833334,121.38126277923585L108.88315104166666,130.9137978553772L109.17872395833334,112.64846706390381L109.32651041666666,125.05290889739992L109.474296875,104.84524154663086L109.62208333333334,121.49016046524046L109.76986979166666,123.0069317817688L109.91765625000001,107.94915342330933L110.06544270833334,96.50614643096924L110.21322916666668,127.20655584335327L110.361015625,127.50928783416748L110.50880208333334,125.62024974822998L110.65658854166666,121.94718503952026L110.804375,120.16202592849733L110.95216145833334,119.14939069747925L111.24773437500001,120.41778945922852L111.39552083333334,113.20388698577881L111.83888020833332,129.0500202178955L112.134453125,120.31239652633667L112.28223958333334,107.79319190979004L112.43002604166666,115.172354221344L112.57781250000001,113.93934869766235L112.72559895833334,128.40577745437622L113.02117187500001,131.04980373382568L113.61231770833334,106.92366743087769L113.76010416666666,131.15680599212646L113.90789062500001,133.79917526245117L114.20346354166666,128.9904990196228L114.35125000000001,132.23529243469238L114.49903645833334,122.20870637893678L114.64682291666666,101.98269271850586L114.94239583333334,107.20203304290773L115.23796875,141.18676567077637L115.787734375,129.14721155166626L116.37888020833333,117.1258249282837L116.97002604166667,137.6687684059143L117.1178125,127.98413419723511L117.26559895833333,115.64243221282959L117.561171875,137.75892639160156L117.70895833333333,124.94943523406982L117.85674479166667,115.4081859588623L118.00453125,114.98074913024902L118.15231770833334,111.74364471435545L118.447890625,131.07418203353882L118.59567708333334,133.43040132522583L118.74346354166666,103.93834495544434L118.89125,136.86761045455933L119.03903645833333,140.67744398117065L119.18682291666667,125.41318321228026L119.48239583333333,133.475736618042L119.63018229166667,99.15080451965332L119.77796875,132.8846731185913L120.07354166666666,135.27487897872925L120.36911458333333,107.86748313903809L120.51690104166667,116.31461763381958L120.6646875,135.89963102340698L120.81247395833333,117.26212882995604L121.25583333333334,131.15309858322144L121.40361979166667,137.87904167175293L121.69919270833333,100.06697559356691L121.84697916666666,113.98082160949707L121.994765625,110.64962530136107L122.29033854166667,109.31753301620483L122.58591145833334,117.13905715942383L122.73369791666667,106.01412439346315L123.02927083333333,120.54000282287598L123.17705729166666,131.94933319091797L123.32484375,112.30963850021362L123.47263020833333,138.83554124832153L123.62041666666667,130.3646960258484L124.06377604166667,129.98004341125488L124.2115625,118.3475651741028L124.35934895833334,128.8430609703064L124.50713541666666,124.02259492874146L124.80270833333333,126.33705520629883L125.35247395833333,128.1994023323059L125.50026041666668,122.32593679428102L125.64804687499999,139.39880514144897L125.79583333333333,123.75337266921997L125.94361979166666,129.82718133926392L126.09140624999999,123.04350519180298L126.534765625,131.24894285202026L126.68255208333333,125.03155851364136L126.978125,124.51489353179933L127.12591145833332,127.10333251953125L127.27369791666666,144.0356650352478L127.42148437499999,132.26546430587769L127.56927083333333,134.27077913284302L128.01263020833332,125.17350101470947L128.16041666666666,126.61568307876587L128.308203125,131.46247053146362L128.45598958333332,128.73849058151245L129.34270833333332,140.18173599243164L129.63828125,132.43157052993774L129.78606770833332,107.41473817825317L130.22942708333335,119.86990356445312L130.525,99.31705379486084L130.67278645833335,135.37348890304565L130.82057291666666,122.50924491882326L130.968359375,123.59706544876099L131.11614583333332,123.71597671508789L131.26393229166666,143.3627405166626L131.55950520833335,142.32106590270996L131.70729166666666,127.00163507461549L131.855078125,116.36003637313844L132.00286458333335,136.84165859222412L132.2984375,127.9281415939331L132.44622395833332,136.19919204711914L132.59401041666666,127.25178384780884L132.741796875,131.43991613388062L133.03736979166666,128.4824767112732L133.18515625,144.61570167541504L133.33294270833335,133.18232679367065L133.48072916666666,131.84396409988403L133.62851562499998,118.56613540649414L133.77630208333335,128.8276948928833L134.071875,137.18781852722168L134.515234375,124.6541419029236L134.66302083333335,125.89029455184937L135.065,145.61092042922974L135.65614583333334,143.4708752632141L135.80393229166668,142.33657503128052L136.09950520833334,147.1950330734253L136.24729166666665,135.79668188095093L136.54286458333334,143.9317502975464L136.8384375,135.88475370407104L137.13401041666668,135.26975297927856L137.281796875,139.57827472686768L137.42958333333334,134.01524209976196L137.72515625000003,137.71624946594238L137.87294270833334,139.51757335662842L138.02072916666665,161.2625756263733L138.168515625,140.4516258239746L138.3163020833333,144.8117413520813L138.46408854166668,146.09332466125488L138.611875,141.90931701660156L138.75966145833334,151.07034826278687L138.90744791666665,136.30245113372803L139.05523437500003,144.4402256011963L139.20302083333334,157.43133211135864L139.49859375,138.3520164489746L139.941953125,144.06153345108032L140.08973958333334,155.85060501098633L140.23752604166665,145.33625030517578L140.53309895833334,150.08161449432373L140.68088541666665,153.41294193267822L140.828671875,152.24516773223877L140.9764583333333,121.3687219619751L141.12424479166668,132.72804403305054L141.86317708333334,131.46788263320923L142.01096354166668,119.27856588363647L142.45432291666668,139.96960306167603L142.602109375,147.94975900650024L142.89768229166665,148.93823051452637L143.04546875,147.77988576889038L143.6366145833333,147.56939792633057L143.78440104166668,136.81952142715454L143.9321875,137.7301254272461L144.22776041666665,135.3011646270752L144.48195312500002,153.75348711013794L144.62973958333333,143.83501195907593L144.77752604166665,146.59731769561768L144.9253125,137.6043119430542L145.07309895833333,138.99726057052612L145.22088541666668,161.22211599349976L145.51645833333333,158.35657501220703L145.66424479166668,157.03455591201782L145.81203125000002,146.02007055282593L145.95981770833333,144.2298092842102L146.10760416666668,141.4533772468567L146.255390625,139.00951528549194L146.40317708333333,145.50689840316772L146.55096354166668,148.10001039505005L146.69875,141.04131841659546L147.14210937500002,141.99136877059937L147.43768229166668,149.81557512283325L147.58546875,139.3312849998474L147.88104166666668,140.04012727737427L148.17661458333333,147.68311166763306L148.32440104166665,139.5475902557373L148.47218750000002,145.04536771774292L148.61997395833333,139.066020488739L148.76776041666668,148.27300691604614L149.06333333333336,146.3257350921631L149.21111979166668,141.0200753211975L149.80226562500002,142.89751434326172L149.95005208333333,154.5576491355896L150.09783854166668,137.65492820739746L150.245625,146.27899312973022L150.39341145833333,139.45414209365845L150.688984375,144.6719207763672L150.83677083333333,153.60349798202515L151.13234375000002,134.75369596481323L151.28013020833333,139.05783081054688L151.72348958333333,141.60966062545776L151.87127604166668,144.35272598266602L152.0190625,154.90128183364868L152.16684895833333,156.3603320121765L152.31463541666665,145.61643981933594L152.46242187500002,133.15033102035522L152.61020833333333,160.2849760055542L152.75799479166668,151.5239634513855L152.90578125,146.14239120483398L153.05356770833333,135.26330375671387L153.20135416666668,146.920982837677L153.34914062500002,149.783793926239L153.64471354166665,152.26433658599854L154.04669270833332,148.2108154296875L154.19447916666667,150.42592668533325L154.49005208333335,146.57211685180664L154.63783854166667,139.55327653884888L154.78562499999998,148.8461890220642L155.08119791666667,138.81082916259766L155.228984375,135.42945766448975L155.52455729166667,138.8759651184082L155.67234375,141.92200088500977L155.96791666666667,159.81423044204712L156.26348958333332,159.74421882629395L156.70684895833332,149.38819789886475L156.85463541666667,160.34291172027588L157.29799479166667,135.2533736228943L157.59356770833332,140.50377988815308L157.74135416666667,139.44355630874634L157.889140625,148.26140785217285L158.18471354166667,151.26582765579224L158.33249999999998,142.71726989746094L158.48028645833335,149.97556591033936L158.92364583333332,147.14295053482056L159.07143229166667,162.0902338027954L159.36700520833332,136.15925693511963L159.66257812499998,136.9999327659607L159.81036458333335,141.12254762649536L160.25372395833332,147.44137907028198L160.549296875,141.389874458313L160.69708333333332,147.1706428527832L160.84486979166667,143.77584838867188L161.14044270833335,149.79700231552124L161.28822916666667,147.76704692840576L161.436015625,156.66729593276978L161.58380208333332,132.2335877418518L161.73158854166667,142.0495548248291L161.879375,148.05903816223145L162.02716145833332,149.6684708595276L162.17494791666667,143.93984460830688L162.32273437499998,152.94471168518066L162.47052083333335,138.41203832626343L162.61830729166667,149.397686958313L162.91388020833332,152.28091859817505L163.06166666666667,157.66017818450928L163.35723958333332,150.98210954666138L163.75921875,157.90697717666626L163.90700520833335,121.90711879730225L164.35036458333335,152.50599765777588L164.49815104166666,143.94461297988892L164.79372395833332,137.53300094604492L164.94151041666666,144.71916341781616L165.089296875,148.73965167999268L165.23708333333335,154.0707507133484L165.38486979166666,140.92082166671753L165.68044270833335,150.02303504943848L165.8282291666667,144.08108377456665L166.12380208333332,152.1070041656494L166.27158854166666,149.5092430114746L166.56716145833335,146.82324314117432L166.71494791666666,159.27877807617188L166.862734375,136.5709104537964L167.01052083333332,136.4772596359253L167.1583072916667,148.16418075561523L167.30609375,143.10391330718994L167.45388020833332,148.59590911865234L167.60166666666666,131.67579555511475L168.1928125,148.72113847732544L168.34059895833332,139.09811162948608L168.4883854166667,156.5897979736328L168.636171875,144.18261432647705L168.78395833333335,148.58742141723633L168.93174479166666,155.71407461166382L169.07953125,154.41046142578125L169.22731770833335,149.11979818344116L169.37510416666666,142.29840421676636L169.96625,146.30526685714722L170.11403645833335,153.00219440460205L170.26182291666666,145.8837308883667L170.40960937499997,148.84680891036987L170.85296875,147.0088758468628L171.00075520833332,145.1059856414795L171.1485416666667,144.1294231414795L171.44411458333335,144.89349508285522L171.59190104166666,134.36341667175293L171.88747395833335,142.14421892166138L172.183046875,137.44523906707764L172.33083333333332,153.39723014831543L172.4786197916667,144.83940982818604L172.92197916666666,140.4050269126892L173.176171875,147.11848878860474L173.32395833333334,147.2565689086914L173.47174479166665,152.3898639678955L173.61953125,150.24193906784058L173.76731770833334,152.00106287002563L173.91510416666668,139.60768365859985L174.21067708333334,145.42777919769287L174.35846354166668,145.97354316711426L174.80182291666665,142.27167749404907L174.949609375,153.0000605583191L175.54075520833334,149.97766399383545L175.836328125,145.30524396896362L175.98411458333334,154.70123672485352L176.13190104166665,161.64652490615845L176.2796875,139.62111854553223L176.42747395833334,153.45210218429565L176.57526041666668,139.06722450256348L177.01861979166665,149.906400680542L177.16640625000002,154.19673109054565L177.31419270833334,138.59782600402832L177.46197916666665,146.36323833465576L177.609765625,151.92765378952026L177.90533854166668,162.9078187942505L178.20091145833334,157.61067056655884L178.34869791666665,151.05440998077393L178.49648437500002,134.91720342636108L178.79205729166665,163.61581468582153L178.93984375,149.72031497955322L179.08763020833334,134.67495822906494L179.23541666666668,144.7366394996643L179.383203125,152.9458203315735L179.53098958333334,152.02989959716797L179.67877604166665,135.94366693496704L179.82656250000002,148.6210741996765L179.97434895833334,146.6897406578064L180.12213541666668,154.00603199005127L180.71328125,151.68922328948975L181.00885416666665,141.8841757774353L181.15664062500002,135.29373788833618L181.30442708333334,148.73530054092407L181.45221354166668,124.22978067398071L181.6,142.6591911315918L182.043359375,152.8329291343689L182.33893229166665,148.32364702224731L183.03648437500001,155.50940418243408L183.33205729166667,146.58620738983154L183.47984375,149.5672025680542L183.77541666666667,146.54910945892334L184.36656250000001,147.7546730041504L184.51434895833333,150.3247537612915L184.66213541666667,144.8220648765564L184.809921875,155.79189443588257L184.95770833333333,147.3078646659851L185.54885416666667,155.02349519729614L185.84442708333333,158.4263243675232L185.99221354166667,147.54549646377563L186.28778645833333,152.2583999633789L186.43557291666667,150.40088081359863L186.87893229166667,146.10786819458008L187.02671875,158.24457788467407L187.17450520833336,147.76015663146973L187.470078125,143.52466249465942L187.76565104166667,145.66749715805054L187.91343750000001,153.3527054786682L188.06122395833333,154.27551651000977L188.356796875,149.45176029205322L188.50458333333336,144.23183584213257L188.80015625,156.41562128067017L188.94794270833333,149.59028148651123L189.09572916666664,152.75723123550415L189.39130208333333,143.32828903198242L189.53908854166667,157.5229206085205L189.686875,137.76024961471558L189.83466145833336,147.2171106338501L189.98244791666667,137.42351913452148L190.130234375,135.7543625831604L190.57359375000001,163.54784154891968L190.72138020833333,150.30274772644043L191.016953125,133.24904823303223L191.16473958333336,142.80391120910645L191.31252604166667,152.21697473526L191.46031250000001,150.67909145355225L191.75588541666664,148.86207962036133L191.90367187500001,146.0039176940918L192.05145833333333,162.50350856781006L192.30565104166666,150.65992259979248L192.74901041666666,146.6640748977661L192.89679687499998,143.75399732589722L193.04458333333335,147.55003833770752L193.783515625,141.930428981781L194.07908854166666,150.46767377853394L194.37466145833335,150.54772281646729L194.52244791666666,155.82385444641113L194.670234375,138.24265384674072L195.11359375,148.2259669303894L195.26138020833335,157.85518074035645L195.40916666666666,149.27772665023804L195.55695312499998,153.54850673675537L195.70473958333332,140.90361976623535L195.85252604166666,149.15633583068848L196.0003125,148.48270797729492L196.14809895833332,136.54929780960083L196.443671875,152.96153211593628L196.59145833333335,146.91503429412842L196.88703125,149.81210613250732L197.03481770833332,155.64124965667725L197.18260416666666,145.0062074661255L197.330390625,161.3186159133911L197.77375,146.73616075515747L197.92153645833335,158.81116771697998L198.217109375,147.65084171295166L198.36489583333332,150.5104103088379L198.5126822916667,148.97032165527344L198.66046875,142.35439682006836L198.80825520833332,150.0676074028015L198.95604166666666,153.0782618522644L199.10382812499998,167.8386845588684L199.25161458333335,155.4662504196167L199.39940104166666,150.8855619430542L199.5471875,149.1509714126587L199.8427604166667,147.69863271713257L199.990546875,153.51226711273193L200.28611979166666,151.1197247505188L200.43390624999998,153.7536063194275L200.72947916666666,149.50294876098633L200.877265625,155.86058282852173L201.1728385416667,145.4567232131958L201.320625,127.89044761657716L201.46841145833332,152.86395931243896L201.61619791666666,152.35731983184814L201.870390625,150.93490266799927L202.01817708333334,151.20195531845093L202.31375,144.42927026748657L202.46153645833334,154.07903575897217L202.60932291666666,154.58239698410034L202.9048958333333,151.42270708084106L203.05268229166668,162.00760984420776L203.34825520833334,161.36955404281616L203.49604166666666,154.92991590499878L203.643828125,157.32012176513672L203.79161458333334,141.91848421096802L203.93940104166668,159.136239528656L204.0871875,148.3253755569458L204.2349739583333,141.7402663230896L204.82611979166666,145.52671098709106L204.97390625,151.27022647857666L205.12169270833334,154.50534009933472L205.417265625,153.9311089515686L205.5650520833333,156.7111053466797L205.71283854166666,160.58352375030518L206.00841145833334,151.45651483535767L206.303984375,155.37797594070435L206.59955729166668,145.6370153427124L206.8951302083333,156.42725610733032L207.190703125,125.11108303070068L207.33848958333334,151.43179082870483L207.48627604166666,160.46469593048096L207.6340625,140.12055778503418L207.92963541666668,153.5911717414856L208.077421875,162.6646556854248L208.22520833333334,149.7106351852417L208.37299479166666,154.54693222045898L208.52078125,138.92695093154907L208.66856770833334,157.4101963043213L209.1119270833333,133.58064079284668L209.25971354166668,151.07393646240234L209.70307291666666,149.18178701400757L209.85085937500003,163.29523706436157L209.99864583333334,154.4888892173767L210.29421875,156.70439386367798L210.4420052083333,151.3482847213745L210.88536458333334,141.861967086792L211.03315104166666,153.6541142463684L211.18093750000003,137.54827165603638L211.58291666666665,150.8879222869873L211.73070312500002,150.98196649551392L212.1740625,160.43384456634521L212.32184895833333,160.0129165649414L212.46963541666668,160.7038059234619L212.76520833333333,142.11335563659668L213.20856770833333,141.61414289474487L213.35635416666668,141.9965305328369L213.79971354166668,160.13068342208862L213.9475,146.93497800827026L214.09528645833333,143.77800607681274L214.68643229166668,154.47706365585327L214.98200520833333,144.3099536895752L215.12979166666668,154.50508975982666L215.27757812500002,156.70071029663086L215.42536458333333,153.32105541229248L215.57315104166665,145.2133812904358L215.7209375,152.5024929046631L215.86872395833333,148.23307180404663L216.31208333333333,145.96521043777466L216.45986979166668,138.91322994232178L216.60765625000002,155.26733779907227L216.75544270833333,150.14356756210327L217.051015625,156.24124193191528L217.34658854166668,144.95133543014526L217.494375,158.79661226272583L217.93773437500002,156.92257070541382L218.08552083333333,150.68927192687988L218.38109375,149.66432237625122L218.52888020833333,150.36138677597046L218.67666666666668,148.53977346420288L218.824453125,158.05558347702026L218.97223958333333,144.5125617980957L219.12002604166665,152.70153665542603L219.56338541666668,157.21773290634155L219.711171875,147.6265230178833L220.30231770833333,155.2235403060913L220.45010416666665,154.58211088180542L220.59789062500002,153.9182939529419L220.74567708333333,118.53194618225099L220.99986979166664,155.99556350708008L221.29544270833333,146.87508726119995L221.44322916666667,154.17834901809692L221.73880208333335,151.26070165634155L221.88658854166667,159.19511699676514L222.18216145833333,149.60935497283936L222.477734375,158.81001138687134L222.62552083333333,151.97619581222534L222.77330729166667,143.81244564056396L222.92109374999998,158.41895723342896L223.21666666666667,148.1286563873291L223.364453125,164.18630266189575L223.66002604166667,152.7055778503418L223.8078125,146.74803400039673L224.10338541666667,159.4654836654663L224.25117187499998,145.0913348197937L224.54674479166667,146.33726263046265L224.69453125,139.7008457183838L224.84231770833333,128.3708848953247L224.99010416666667,152.5604166984558L225.43346354166667,154.11987686157227L225.58124999999998,145.98988676071167L225.72903645833333,145.3036346435547L225.87682291666667,159.0687074661255L226.024609375,149.72603702545166L226.17239583333333,153.77084398269653L226.61575520833335,163.9332571029663L226.76354166666667,158.9363613128662L226.91132812499998,157.35605144500732L227.05911458333333,153.23189878463745L227.20690104166667,152.06232452392578L227.3546875,158.32443618774414L227.50247395833333,162.89562368392944L227.65026041666667,149.65993547439575L227.79804687499998,141.60799169540405L228.09361979166667,139.5174422264099L228.83255208333333,147.03832054138184L229.12812499999998,157.4260392189026L230.01484375,155.3411521911621L230.16263020833333,140.16100549697876L230.564609375,146.72902011871338L230.71239583333335,158.55337762832642L231.00796874999997,155.9527792930603L231.15575520833335,157.24056148529053L231.59911458333332,150.62214517593384L231.7469010416667,146.7060604095459L232.04247395833335,134.21312952041626L232.19026041666666,156.21091508865356L232.33804687499997,139.84760427474976L232.48583333333335,152.1415033340454L232.63361979166666,140.0859990119934L232.92919270833332,145.12378358840942L233.224765625,149.67657709121704L233.37255208333335,150.47525548934937L233.52033854166666,141.15227842330933L233.66812499999997,157.19232940673828L233.81591145833335,135.86520338058472L233.96369791666666,160.06566667556763L234.111484375,153.33667182922363L234.70263020833335,161.4508547782898L234.85041666666666,142.1421685218811L234.998203125,156.47949361801147L235.14598958333335,158.14390563964844L235.29377604166666,155.58629417419434L235.73713541666666,159.27859926223755L235.884921875,159.8024525642395L236.03270833333335,142.87423276901245L236.62385416666666,158.78837490081787L236.771640625,153.699068069458L236.91942708333332,156.9976725578308L237.06721354166666,162.10939073562622L237.36278645833335,155.95752382278442L237.51057291666666,162.27406644821167L237.80614583333332,172.1571125984192L237.9539322916667,144.29072523117065L238.24950520833332,155.26484632492065L238.39729166666666,147.58351230621338L238.69286458333335,164.30393838882446L238.84065104166666,151.72183895111084L239.13622395833332,151.69660234451294L239.2840104166667,155.52032375335693L239.431796875,153.89019632339478L239.57958333333332,148.8348045349121L239.72736979166666,154.98345279693604L239.87515625,146.98886060714722L240.12934895833334,136.2615623474121L240.86828125,161.69338607788086L241.311640625,157.26169729232788L241.45942708333334,153.7774839401245L241.75500000000002,147.73347759246826L242.05057291666668,155.14026069641113L242.198359375,138.10476446151733L242.64171875,152.49873781204224L242.78950520833334,147.7313199043274L242.93729166666665,150.46353721618652L243.085078125,161.09115266799927L243.5284375,153.95635747909546L243.6762239583333,151.7730631828308L243.82401041666668,153.12211894989014L243.971796875,152.18166494369507L244.26736979166665,157.48215103149414L244.56294270833334,129.7631540298462L244.71072916666668,153.92761611938477L244.858515625,153.13591146469116L245.0063020833333,143.94066715240479L245.44966145833334,168.4876480102539L245.745234375,138.22659635543823L245.89302083333334,147.9534068107605L246.04080729166668,163.91019010543823L246.18859375,153.89707469940186L246.33638020833334,156.9277801513672L246.48416666666665,158.2890191078186L246.631953125,151.2502589225769L246.92752604166665,161.69712924957275L247.0753125,146.98551082611084L247.22309895833334,157.53636741638184L247.37088541666668,141.40004301071167L247.518671875,157.35854291915894L247.66645833333334,152.52474927902222L247.81424479166665,163.04088020324707L247.96203125,152.0865716934204L248.10981770833334,142.54790925979614L248.25760416666665,154.16685724258423L248.405390625,153.41481351852417L248.84875,137.21490287780762L248.99653645833334,162.57703685760498L249.29210937500002,151.33489751815796L249.43989583333334,165.6673231124878" style="fill: none;" fill="none"></path></g></g></g></g></g><g><g opacity="0.85825"><span fill="rgb(0, 0, 0)" stroke="none" stroke-width="1px">Alt + Scroll to Zoom</span></g></g></g><g transform="translate(63, 176)" clip-path="url(#clip_1)"><clipPath id="clip_1"><rect width="266" height="24"></rect></clipPath><g><g><line x1="0" y1="0" x2="0" y2="5" style="visibility: inherit;" fill="rgb(0, 0, 0)" stroke="rgb(204, 204, 204)" stroke-width="1px"></line><line x1="29.557291666666664" y1="0" x2="29.557291666666664" y2="5" style="visibility: inherit;" fill="rgb(0, 0, 0)" stroke="rgb(204, 204, 204)" stroke-width="1px"></line><line x1="59.11458333333333" y1="0" x2="59.11458333333333" y2="5" style="visibility: inherit;" fill="rgb(0, 0, 0)" stroke="rgb(204, 204, 204)" stroke-width="1px"></line><line x1="88.671875" y1="0" x2="88.671875" y2="5" style="visibility: inherit;" fill="rgb(0, 0, 0)" stroke="rgb(204, 204, 204)" stroke-width="1px"></line><line x1="118.22916666666666" y1="0" x2="118.22916666666666" y2="5" style="visibility: inherit;" fill="rgb(0, 0, 0)" stroke="rgb(204, 204, 204)" stroke-width="1px"></line><line x1="147.78645833333334" y1="0" x2="147.78645833333334" y2="5" style="visibility: inherit;" fill="rgb(0, 0, 0)" stroke="rgb(204, 204, 204)" stroke-width="1px"></line><line x1="177.34375" y1="0" x2="177.34375" y2="5" style="visibility: inherit;" fill="rgb(0, 0, 0)" stroke="rgb(204, 204, 204)" stroke-width="1px"></line><line x1="206.90104166666666" y1="0" x2="206.90104166666666" y2="5" style="visibility: inherit;" fill="rgb(0, 0, 0)" stroke="rgb(204, 204, 204)" stroke-width="1px"></line><line x1="236.45833333333331" y1="0" x2="236.45833333333331" y2="5" style="visibility: inherit;" fill="rgb(0, 0, 0)" stroke="rgb(204, 204, 204)" stroke-width="1px"></line><line x1="266.015625" y1="0" x2="266.015625" y2="5" style="visibility: inherit;" fill="rgb(0, 0, 0)" stroke="rgb(204, 204, 204)" stroke-width="1px"></line></g><g transform="translate(0, 8)"><text x="0" y="0" dx="0em" dy="0.95em" style="text-anchor: middle; visibility: hidden; font-family: Roboto, sans-serif; font-size: 12px; font-weight: 200;" fill="rgb(33, 33, 33)" stroke="none" stroke-width="1px">-10k</text><text x="29.557291666666664" y="0" dx="0em" dy="0.95em" style="text-anchor: middle; visibility: inherit; font-family: Roboto, sans-serif; font-size: 12px; font-weight: 200;" fill="rgb(33, 33, 33)" stroke="none" stroke-width="1px">0</text><text x="59.11458333333333" y="0" dx="0em" dy="0.95em" style="text-anchor: middle; visibility: inherit; font-family: Roboto, sans-serif; font-size: 12px; font-weight: 200;" fill="rgb(33, 33, 33)" stroke="none" stroke-width="1px">10k</text><text x="88.671875" y="0" dx="0em" dy="0.95em" style="text-anchor: middle; visibility: inherit; font-family: Roboto, sans-serif; font-size: 12px; font-weight: 200;" fill="rgb(33, 33, 33)" stroke="none" stroke-width="1px">20k</text><text x="118.22916666666666" y="0" dx="0em" dy="0.95em" style="text-anchor: middle; visibility: inherit; font-family: Roboto, sans-serif; font-size: 12px; font-weight: 200;" fill="rgb(33, 33, 33)" stroke="none" stroke-width="1px">30k</text><text x="147.78645833333334" y="0" dx="0em" dy="0.95em" style="text-anchor: middle; visibility: inherit; font-family: Roboto, sans-serif; font-size: 12px; font-weight: 200;" fill="rgb(33, 33, 33)" stroke="none" stroke-width="1px">40k</text><text x="177.34375" y="0" dx="0em" dy="0.95em" style="text-anchor: middle; visibility: inherit; font-family: Roboto, sans-serif; font-size: 12px; font-weight: 200;" fill="rgb(33, 33, 33)" stroke="none" stroke-width="1px">50k</text><text x="206.90104166666666" y="0" dx="0em" dy="0.95em" style="text-anchor: middle; visibility: inherit; font-family: Roboto, sans-serif; font-size: 12px; font-weight: 200;" fill="rgb(33, 33, 33)" stroke="none" stroke-width="1px">60k</text><text x="236.45833333333331" y="0" dx="0em" dy="0.95em" style="text-anchor: middle; visibility: inherit; font-family: Roboto, sans-serif; font-size: 12px; font-weight: 200;" fill="rgb(33, 33, 33)" stroke="none" stroke-width="1px">70k</text><text x="266.015625" y="0" dx="0em" dy="0.95em" style="text-anchor: middle; visibility: hidden; font-family: Roboto, sans-serif; font-size: 12px; font-weight: 200;" fill="rgb(33, 33, 33)" stroke="none" stroke-width="1px">80k</text></g><line x1="0" y1="0" x2="266.015625" y2="0" fill="rgb(0, 0, 0)" stroke="rgb(204, 204, 204)" stroke-width="1px"></line></g></g></g></g></svg>