<svg viewBox="0 0 330 200" xmlns="http://www.w3.org/2000/svg"><g><g><g><g><g><line x1="53.1875" y1="161.33333333333334" x2="48.1875" y2="161.33333333333334" style="visibility: inherit;" fill="rgb(0, 0, 0)" stroke="rgb(204, 204, 204)" stroke-width="1px"></line><line x1="53.1875" y1="146.66666666666669" x2="48.1875" y2="146.66666666666669" style="visibility: inherit;" fill="rgb(0, 0, 0)" stroke="rgb(204, 204, 204)" stroke-width="1px"></line><line x1="53.1875" y1="132" x2="48.1875" y2="132" style="visibility: inherit;" fill="rgb(0, 0, 0)" stroke="rgb(204, 204, 204)" stroke-width="1px"></line><line x1="53.1875" y1="117.33333333333334" x2="48.1875" y2="117.33333333333334" style="visibility: inherit;" fill="rgb(0, 0, 0)" stroke="rgb(204, 204, 204)" stroke-width="1px"></line><line x1="53.1875" y1="102.66666666666669" x2="48.1875" y2="102.66666666666669" style="visibility: inherit;" fill="rgb(0, 0, 0)" stroke="rgb(204, 204, 204)" stroke-width="1px"></line><line x1="53.1875" y1="88" x2="48.1875" y2="88" style="visibility: inherit;" fill="rgb(0, 0, 0)" stroke="rgb(204, 204, 204)" stroke-width="1px"></line><line x1="53.1875" y1="73.33333333333333" x2="48.1875" y2="73.33333333333333" style="visibility: inherit;" fill="rgb(0, 0, 0)" stroke="rgb(204, 204, 204)" stroke-width="1px"></line><line x1="53.1875" y1="58.66666666666667" x2="48.1875" y2="58.66666666666667" style="visibility: inherit;" fill="rgb(0, 0, 0)" stroke="rgb(204, 204, 204)" stroke-width="1px"></line><line x1="53.1875" y1="44" x2="48.1875" y2="44" style="visibility: inherit;" fill="rgb(0, 0, 0)" stroke="rgb(204, 204, 204)" stroke-width="1px"></line><line x1="53.1875" y1="29.33333333333333" x2="48.1875" y2="29.33333333333333" style="visibility: inherit;" fill="rgb(0, 0, 0)" stroke="rgb(204, 204, 204)" stroke-width="1px"></line><line x1="53.1875" y1="14.666666666666673" x2="48.1875" y2="14.666666666666673" style="visibility: inherit;" fill="rgb(0, 0, 0)" stroke="rgb(204, 204, 204)" stroke-width="1px"></line><line x1="53.1875" y1="0" x2="48.1875" y2="0" style="visibility: inherit;" fill="rgb(0, 0, 0)" stroke="rgb(204, 204, 204)" stroke-width="1px"></line></g><g transform="translate(43.1875, 0)"><text x="0" y="161.33333333333334" dx="0em" dy="0.3em" style="text-anchor: end; visibility: inherit; font-family: Roboto, sans-serif; font-size: 12px; font-weight: 200;" fill="rgb(33, 33, 33)" stroke="none" stroke-width="1px">0.16</text><text x="0" y="146.66666666666669" dx="0em" dy="0.3em" style="text-anchor: end; visibility: hidden; font-family: Roboto, sans-serif; font-size: 12px; font-weight: 200;" fill="rgb(33, 33, 33)" stroke="none" stroke-width="1px">0.18</text><text x="0" y="132" dx="0em" dy="0.3em" style="text-anchor: end; visibility: inherit; font-family: Roboto, sans-serif; font-size: 12px; font-weight: 200;" fill="rgb(33, 33, 33)" stroke="none" stroke-width="1px">0.2</text><text x="0" y="117.33333333333334" dx="0em" dy="0.3em" style="text-anchor: end; visibility: hidden; font-family: Roboto, sans-serif; font-size: 12px; font-weight: 200;" fill="rgb(33, 33, 33)" stroke="none" stroke-width="1px">0.22</text><text x="0" y="102.66666666666669" dx="0em" dy="0.3em" style="text-anchor: end; visibility: inherit; font-family: Roboto, sans-serif; font-size: 12px; font-weight: 200;" fill="rgb(33, 33, 33)" stroke="none" stroke-width="1px">0.24</text><text x="0" y="88" dx="0em" dy="0.3em" style="text-anchor: end; visibility: hidden; font-family: Roboto, sans-serif; font-size: 12px; font-weight: 200;" fill="rgb(33, 33, 33)" stroke="none" stroke-width="1px">0.26</text><text x="0" y="73.33333333333333" dx="0em" dy="0.3em" style="text-anchor: end; visibility: inherit; font-family: Roboto, sans-serif; font-size: 12px; font-weight: 200;" fill="rgb(33, 33, 33)" stroke="none" stroke-width="1px">0.28</text><text x="0" y="58.66666666666667" dx="0em" dy="0.3em" style="text-anchor: end; visibility: hidden; font-family: Roboto, sans-serif; font-size: 12px; font-weight: 200;" fill="rgb(33, 33, 33)" stroke="none" stroke-width="1px">0.3</text><text x="0" y="44" dx="0em" dy="0.3em" style="text-anchor: end; visibility: inherit; font-family: Roboto, sans-serif; font-size: 12px; font-weight: 200;" fill="rgb(33, 33, 33)" stroke="none" stroke-width="1px">0.32</text><text x="0" y="29.33333333333333" dx="0em" dy="0.3em" style="text-anchor: end; visibility: hidden; font-family: Roboto, sans-serif; font-size: 12px; font-weight: 200;" fill="rgb(33, 33, 33)" stroke="none" stroke-width="1px">0.34</text><text x="0" y="14.666666666666673" dx="0em" dy="0.3em" style="text-anchor: end; visibility: inherit; font-family: Roboto, sans-serif; font-size: 12px; font-weight: 200;" fill="rgb(33, 33, 33)" stroke="none" stroke-width="1px">0.36</text><text x="0" y="0" dx="0em" dy="0.3em" style="text-anchor: end; visibility: hidden; font-family: Roboto, sans-serif; font-size: 12px; font-weight: 200;" fill="rgb(33, 33, 33)" stroke="none" stroke-width="1px">0.38</text></g><line x1="53.1875" y1="0" x2="53.1875" y2="176" fill="rgb(0, 0, 0)" stroke="rgb(204, 204, 204)" stroke-width="1px"></line></g></g><g transform="translate(53, 0)" clip-path="url(#clip_0)"><clipPath id="clip_0"><rect width="276" height="176"></rect></clipPath><g><g><g><line x1="0" y1="0" x2="0" y2="176" fill="rgb(0, 0, 0)" stroke="rgb(66, 66, 66)" stroke-width="1px" opacity="0.25"></line><line x1="30.756944444444443" y1="0" x2="30.756944444444443" y2="176" fill="rgb(0, 0, 0)" stroke="rgb(66, 66, 66)" stroke-width="1px" opacity="0.25"></line><line x1="61.513888888888886" y1="0" x2="61.513888888888886" y2="176" fill="rgb(0, 0, 0)" stroke="rgb(66, 66, 66)" stroke-width="1px" opacity="0.25"></line><line x1="92.27083333333333" y1="0" x2="92.27083333333333" y2="176" fill="rgb(0, 0, 0)" stroke="rgb(66, 66, 66)" stroke-width="1px" opacity="0.25"></line><line x1="123.02777777777777" y1="0" x2="123.02777777777777" y2="176" fill="rgb(0, 0, 0)" stroke="rgb(66, 66, 66)" stroke-width="1px" opacity="0.25"></line><line x1="153.78472222222223" y1="0" x2="153.78472222222223" y2="176" fill="rgb(0, 0, 0)" stroke="rgb(66, 66, 66)" stroke-width="1px" opacity="0.25"></line><line x1="184.54166666666666" y1="0" x2="184.54166666666666" y2="176" fill="rgb(0, 0, 0)" stroke="rgb(66, 66, 66)" stroke-width="1px" opacity="0.25"></line><line x1="215.29861111111111" y1="0" x2="215.29861111111111" y2="176" fill="rgb(0, 0, 0)" stroke="rgb(66, 66, 66)" stroke-width="1px" opacity="0.25"></line><line x1="246.05555555555554" y1="0" x2="246.05555555555554" y2="176" fill="rgb(0, 0, 0)" stroke="rgb(66, 66, 66)" stroke-width="1px" opacity="0.25"></line><line x1="276.8125" y1="0" x2="276.8125" y2="176" fill="rgb(0, 0, 0)" stroke="rgb(66, 66, 66)" stroke-width="1px" opacity="0.25"></line></g><g><line x1="0" y1="161.33333333333334" x2="276.8125" y2="161.33333333333334" fill="rgb(0, 0, 0)" stroke="rgb(66, 66, 66)" stroke-width="1px" opacity="0.25"></line><line x1="0" y1="146.66666666666669" x2="276.8125" y2="146.66666666666669" fill="rgb(0, 0, 0)" stroke="rgb(66, 66, 66)" stroke-width="1px" opacity="0.25"></line><line x1="0" y1="132" x2="276.8125" y2="132" fill="rgb(0, 0, 0)" stroke="rgb(66, 66, 66)" stroke-width="1px" opacity="0.25"></line><line x1="0" y1="117.33333333333334" x2="276.8125" y2="117.33333333333334" fill="rgb(0, 0, 0)" stroke="rgb(66, 66, 66)" stroke-width="1px" opacity="0.25"></line><line x1="0" y1="102.66666666666669" x2="276.8125" y2="102.66666666666669" fill="rgb(0, 0, 0)" stroke="rgb(66, 66, 66)" stroke-width="1px" opacity="0.25"></line><line x1="0" y1="88" x2="276.8125" y2="88" fill="rgb(0, 0, 0)" stroke="rgb(66, 66, 66)" stroke-width="1px" opacity="0.25"></line><line x1="0" y1="73.33333333333333" x2="276.8125" y2="73.33333333333333" fill="rgb(0, 0, 0)" stroke="rgb(66, 66, 66)" stroke-width="1px" opacity="0.25"></line><line x1="0" y1="58.66666666666667" x2="276.8125" y2="58.66666666666667" fill="rgb(0, 0, 0)" stroke="rgb(66, 66, 66)" stroke-width="1px" opacity="0.25"></line><line x1="0" y1="44" x2="276.8125" y2="44" fill="rgb(0, 0, 0)" stroke="rgb(66, 66, 66)" stroke-width="1px" opacity="0.25"></line><line x1="0" y1="29.33333333333333" x2="276.8125" y2="29.33333333333333" fill="rgb(0, 0, 0)" stroke="rgb(66, 66, 66)" stroke-width="1px" opacity="0.25"></line><line x1="0" y1="14.666666666666673" x2="276.8125" y2="14.666666666666673" fill="rgb(0, 0, 0)" stroke="rgb(66, 66, 66)" stroke-width="1px" opacity="0.25"></line><line x1="0" y1="0" x2="276.8125" y2="0" fill="rgb(0, 0, 0)" stroke="rgb(66, 66, 66)" stroke-width="1px" opacity="0.25"></line></g></g></g><g><g><line x1="0" y1="278.6666666666667" x2="276.8125" y2="278.6666666666667" fill="rgb(0, 0, 0)" stroke="rgb(153, 153, 153)" stroke-width="1.5px"></line></g></g><g><g><line x1="30.756944444444443" y1="0" x2="30.756944444444443" y2="176" fill="rgb(0, 0, 0)" stroke="rgb(153, 153, 153)" stroke-width="1.5px"></line></g></g><g><g><g><g><g><path stroke="rgb(255, 112, 67)" stroke-width="2px" d="M39.36888888888889,-2.4886148730243427L39.676458333333336,1.766467472859544L40.137812499999995,-6.153748823240782L40.29159722222222,-3.3876761015432777L40.44538194444444,1.3992571447995417L40.59916666666667,3.1458215179965396L41.01746111111111,7.464943315454109L41.17124583333333,6.078930893657452L41.32503055555556,10.847466715477221L41.47881527777778,7.714048946552943L41.78638472222222,11.016762815912067L41.94016944444445,13.073878433185026L42.24773888888889,15.601222888214826L42.555308333333336,20.637479338465482L42.86287777777778,21.596817131895598L43.0166625,16.79733095726553L43.170447222222215,11.48853937481995L43.32423194444444,16.862894342522168L43.63180138888889,16.860235289442734L43.78558611111111,15.09887232524536L44.093155555555555,20.57344092215729L44.24694027777778,20.49909795096894L44.400724999999994,16.970327294496492L44.70829444444444,15.919319675342836L44.86207916666667,18.83862866916862L45.63100277777777,19.16842155829236L45.7847875,19.055230187426996L46.24614166666667,27.817475664844814L46.39992638888889,27.927559742270333L46.86128055555555,30.938349053624385L47.01506527777777,26.54512578171278L47.32263472222222,24.93421051058246L47.476419444444446,29.592352198480025L47.630204166666665,31.66292633627958L47.78398888888889,30.346369508992268L47.93777361111111,27.299124863201754L48.09155833333333,27.89025299536447L48.24534305555555,34.28838070702905L48.5529125,36.83227649016596L48.706697222222225,33.91213686476202L48.860481944444444,33.75212255642843L49.01426666666667,33.85141057685635L49.47562083333333,41.80963832685721L49.62940555555556,41.14194532165549L50.24454444444445,42.73605617640188L50.39832916666666,42.05053631916308L50.81662361111111,46.45296227408251L50.97040833333334,47.11516455495037L51.12419305555556,39.24572223633732L51.27797777777778,41.90586639768007L51.4317625,44.43191092010015L51.739331944444444,43.93760861235266L52.04690138888889,43.569132899904666L52.20068611111111,45.18200848241513L52.35447083333333,46.580566535829675L52.50825555555555,47.31305753217491L52.66204027777778,41.87325010514069L52.815825,46.685614612594094L53.12339444444444,50.88171289775462L53.27717916666667,52.5769231383822L53.43096388888889,52.928205001244244L53.58474861111111,55.22521218531685L53.73853333333333,59.26206419193757L54.1998875,58.1601207096816L54.81502638888889,55.842876122759236L55.122595833333335,54.91089942040032L55.276380555555555,53.42162424315204L55.58395,48.011541020805794L55.73773472222223,51.1306655398618L56.04530416666666,50.98606559385524L56.19908888888889,53.05077660530607L56.35287361111111,54.88555508722743L56.660443055555554,55.336497103392404L56.9680125,57.68786284638602L57.27558194444444,56.740305312354316L57.42936666666667,56.39119535756845L57.583151388888886,50.77604348305502L57.89072083333333,52.019518988392576L58.04450555555556,57.545493080454165L58.19829027777778,56.39625095182882L58.352075,53.665252948925264L58.50585972222222,57.24245475041391L58.813429166666666,57.64106353704643L58.96721388888889,57.32630854001351L59.12099861111111,56.35543862869766L59.27478333333334,58.01149309410907L59.42856805555556,57.961766334777614L59.58235277777777,61.39410024428699L59.7361375,63.14701430128615L60.197491666666664,65.70767815983257L60.35127638888889,67.83438100860094L60.50506111111111,67.52254690197455L60.76957083333333,66.48101067622908L61.230925,67.6142392004355L61.692279166666665,67.7985915091529L61.846063888888885,62.7968902595974L61.99984861111111,66.44318374046507L62.30741805555556,68.69330787687792L62.46120277777778,69.9744253478207L62.614987500000005,68.24069416056618L62.76877222222222,68.1704344165159L63.076341666666664,71.11656140954292L63.23012638888889,72.39067220491762L63.38391111111111,75.31433760207452L63.69148055555556,74.85714809347125L63.99905,71.78368503401038L64.30661944444444,76.63373491694145L64.46040416666666,77.38981113550831L64.76797361111112,79.17186717421473L64.92175833333333,80.42729696570233L65.07554305555556,79.67695456110475L65.22932777777777,80.35267688451032L65.3831125,78.6126188374628L65.69068194444445,77.74909786802945L65.84446666666666,75.90654385341654L65.99825138888889,74.60146622014116L66.45960555555556,74.64169886202853L66.767175,73.15062003031122L66.92095972222222,69.40388173676378L67.22852916666668,69.55608999023943L67.38231388888889,74.50573708587952L67.53609861111111,74.71474469089945L67.68988333333333,79.21382285188301L67.84366805555555,76.16327086109321L67.99745277777778,77.73492086143334L68.30502222222222,77.64024247454232L68.45880694444445,80.06163047389163L68.76637638888889,79.76367379011296L68.92016111111111,77.88718306689407L69.07394583333333,76.56044084828461L69.22773055555557,77.6583617150865L69.38151527777778,76.68244493127358L69.53529999999999,70.31717312407787L69.99665416666667,77.8728483919638L70.15043888888889,81.0829835496945L70.30422361111111,86.60490875418601L70.45800833333334,86.93807720924784L70.87630277777778,85.33332924714904L71.0300875,87.52781638704471L71.18387222222223,86.87085901023586L71.33765694444445,83.93216388814632L71.64522638888889,84.81261069810179L71.79901111111111,84.03715592564618L72.56793472222222,80.73294005756463L72.87550416666666,82.42032573599549L73.0292888888889,81.54747176555153L73.49064305555555,82.64932825001493L73.64442777777776,82.2379630515918L73.7982125,86.91593161284595L74.10578194444444,85.4782898370008L74.25956666666666,84.57397039395057L74.4133513888889,84.86460636255036L74.56713611111111,86.75814007638033L74.72092083333334,87.24733374268693L74.87470555555555,87.88990110010434L75.02849027777778,90.95021385660087L75.182275,92.21897919998756L75.48984444444444,89.73695974365586L75.64362916666667,91.08651623417367L75.95119861111111,88.84939579142787L76.10498333333332,89.50526831134354L76.72012222222222,92.7405410145771L76.87390694444446,93.96611392110894L77.02769166666667,89.73903124100154L77.1814763888889,94.51042830486804L77.33526111111111,91.71898834430999L77.48904583333332,92.51966182703073L78.10418472222221,94.80312827615516L78.25796944444446,95.30138451688632L78.41175416666667,92.37997679014893L78.56553888888888,93.55170319139893L78.71932361111111,91.20348746176519L78.87310833333333,91.53273278035297L79.18067777777777,91.78388600483083L79.3344625,91.41273212195166L79.48824722222223,92.45121526575522L79.64203194444444,95.67909329646689L79.79581666666667,94.11448592452521L79.94960138888888,96.68448640411088L80.25717083333333,96.48951396249726L80.41095555555556,93.2958527777771L80.67546527777777,95.33202575688641L80.82925,90.4502647819822L80.98303472222223,90.42154636995227L81.29060416666667,92.37114621211823L81.75195833333333,98.96012902861678L82.05952777777777,98.9665647065988L82.2133125,100.36185323296094L82.36709722222223,101.51509825645746L82.52088194444444,101.10185356294429L82.67466666666667,101.01446695738227L83.28980555555555,103.6302114861003L83.44359027777779,106.26307182332624L83.75115972222223,101.38351015739092L84.05872916666667,99.82613639330336L84.21251388888889,99.9585089144834L84.3662986111111,95.17549279477568L84.52008333333333,95.80518586126786L84.67386805555556,96.7270347517003L84.82765277777779,97.92505124258616L84.9814375,96.86841480164301L85.13522222222223,92.01837786174953L85.28900694444445,95.22142793419246L85.59657638888889,96.92927531609307L85.7503611111111,100.61650852487111L85.90414583333333,106.40369861200824L86.05793055555556,105.50559983775244L86.3655,98.5806246248398L86.51928472222221,99.67297691787365L86.82685416666666,103.71149110805045L86.98063888888889,99.2402010918322L87.1344236111111,93.5499555206694L87.28820833333334,96.89334609924147L87.44199305555556,101.23494951020713L87.59577777777777,98.08854454412679L87.7495625,98.55175710710658L87.90334722222222,103.11119118328554L88.05713194444445,102.56759520567853L88.21091666666666,101.21031700092988L88.82605555555556,100.92242042135261L88.97984027777777,99.8428470765217L89.13362500000001,104.28019307104726L89.44119444444445,104.11562985210405L89.59497916666666,104.9500495236841L90.21011805555555,109.39932943433887L90.62841250000001,108.83996873527984L90.78219722222222,107.70600531953706L90.93598194444444,107.49554989213624L91.39733611111112,108.2158008742822L91.55112083333333,108.66863069902814L91.70490555555556,109.04405259671387L91.85869027777778,105.59523807912615L92.012475,102.93604696760306L92.16625972222222,101.5088073390905L92.32004444444443,102.03177862037323L92.47382916666668,107.29424099526268L92.62761388888889,108.71339067857342L92.78139861111111,100.3121530594878L92.93518333333333,103.4763987292321L93.08896805555557,101.99144118405212L93.24275277777778,106.19597713973221L93.3965375,104.33608203426657L93.70410694444443,104.5021963753044L94.01167638888889,106.01940449701185L94.16546111111111,107.12581712778274L94.31924583333333,108.49855029648063L94.47303055555555,112.41073520222614L94.93438472222222,109.84207478705629L95.08816944444445,107.82431198483854L95.24195416666667,109.36598579879295L95.39573888888889,112.35664070921555L95.85709305555555,109.8505569454675L96.01087777777778,109.83449159602198L96.31844722222223,109.99276900215867L96.47223194444445,112.94794777189048L96.93358611111111,113.47736796033992L97.08737083333334,114.62661295111545L97.24115555555555,110.73221030022046L97.548725,113.64948886743392L97.70250972222223,112.46953709589167L97.85629444444444,112.74078968167338L98.31764861111111,109.02059625188531L98.47143333333334,108.6281104004384L98.62521805555555,112.46110001699137L98.77900277777778,112.3441726018747L98.9327875,112.12046703794164L99.08657222222223,113.46700109500823L99.24035694444444,110.4864077893444L99.39414166666666,111.41853177115608L99.70171111111111,113.94378907421402L99.85549583333334,113.08025003436708L100.00928055555555,108.01439950245721L100.16306527777779,109.983984852104L100.88892916666667,108.29432958618918L101.0427138888889,107.87676367514999L101.19649861111111,107.24512037448288L101.35028333333332,108.09426942355753L101.50406805555556,112.6853180342157L101.8116375,115.8652024992251L102.11920694444446,124.13993801641128L102.42677638888888,122.55803323170142L102.58056111111111,120.05904045331833L102.73434583333332,116.4988853213888L103.04191527777778,116.78321567044864L103.1957,115.48032109856334L103.34948472222221,114.23626728606061L103.65705416666667,116.52670158397261L103.96462361111111,113.89862748852038L104.11840833333333,114.9846662334839L104.42597777777777,119.00685624592937L104.5797625,120.14781374323428L104.73354722222223,117.84082714669739L105.19490138888888,114.72867110542158L105.34868611111112,117.35800314250608L105.50247083333333,117.99288099787445L105.65625555555556,118.62226887811312L105.81004027777777,118.30314993223998L105.96382499999999,114.3172027708776L106.11760972222223,114.8272926911724L106.42517916666667,115.06129495928761L106.57896388888888,110.24554229158208L106.73274861111112,113.68954474356599L106.88653333333333,119.61678701218064L107.04031805555556,121.35589046622967L107.19410277777777,121.53688286550238L107.65545694444444,121.39039069100654L107.80924166666667,119.69920554370347L108.11681111111112,120.3085859215895L108.27059583333333,115.7870083886369L108.42438055555554,119.43591435579364L108.73195,119.065915154385L108.88573472222222,114.39595676678465L109.03951944444444,115.74993983041077L109.5008736111111,115.1516220358858L109.65465833333333,114.83822096513802L109.80844305555556,116.03584645466265L109.96222777777778,118.78932233418779L110.1160125,117.3720690633799L110.26979722222222,118.71438919460448L110.53430694444445,120.77899416460004L110.68809166666666,123.12102561100367L110.84187638888889,125.41380373381006L111.14944583333335,125.44257093911824L111.30323055555556,124.12289749053394L111.45701527777778,123.85077996135122L111.6108,124.88738154022117L111.76458472222221,122.76043786196841L111.91836944444445,124.55636418812831L112.22593888888889,123.44309682619588L112.68729305555556,123.35977174623024L113.30243194444445,128.21424793670502L113.61000138888889,120.78325962704375L113.76378611111112,122.22954780071154L113.91757083333333,120.06839186872546L114.07135555555556,119.6262783145438L114.22514027777777,120.94338038378143L114.37892500000001,119.02375698176928L114.53270972222222,123.42760750505076L114.68649444444445,122.35696568202623L114.84027916666666,122.14308354523767L114.9940638888889,127.48580420772427L115.14784861111112,127.79708234127479L115.30163333333333,129.45966300759386L115.45541805555555,124.22822005784712L115.76298750000001,119.52997558456384L115.91677222222222,118.10492126827472L116.37812638888889,124.65886841228624L116.68569583333333,125.8542780360243L116.83948055555555,130.80005374038188L116.99326527777778,126.63106299132488L117.14705000000001,126.74794998580445L117.30083472222222,125.79558556167821L117.60840416666667,127.33035425079984L118.22354305555557,125.79346363385395L118.37732777777778,125.88830530230128L118.5311125,126.06701716333978L118.83868194444443,124.70666110048903L118.99246666666667,121.1393442205402L119.14625138888889,121.91806137075898L119.30003611111111,122.61807402478186L119.60760555555557,126.31410349512016L119.91517499999999,126.9834317193662L120.48725416666667,126.7636681135238L121.10239305555555,129.2327734630748L121.71753194444445,128.92287549981145L121.87131666666666,126.92775932317178L122.02510138888888,132.767963262589L122.33267083333334,131.35810744694345L122.48645555555555,132.20745853542172L122.64024027777778,131.4863071836564L122.794025,129.64873966361284L122.94780972222223,125.49742157132546L123.25537916666666,119.2966333798833L123.4091638888889,121.01112337344492L123.56294861111111,118.22709699134195L123.71673333333334,121.15441259340544L123.87051805555555,122.46752062199175L124.02430277777779,127.1628692552904L124.33187222222222,125.82752535375712L124.48565694444444,121.03178658663884L124.63944166666666,119.29241375076565L124.94701111111111,122.84384205310222L125.25458055555555,128.28343353093868L125.40836527777779,122.59812360656983L125.56215,127.88254086366929L125.71593472222222,129.5215115876494L126.1772888888889,128.32765595504634L126.33107361111111,127.61062135928267L126.63864305555556,126.86003199398553L126.79242777777777,126.42471901086988L126.9462125,127.82905546530897L127.25378194444446,128.03252865297483L127.5613513888889,132.315046573219L127.71513611111111,129.94552890332776L128.02270555555555,132.77028684539937L128.17649027777776,126.28248047465092L128.330275,123.36715388079884L128.4840597222222,128.3608835684085L128.63784444444445,124.71165171544698L129.09919861111112,127.87214246957072L129.25298333333333,132.7212009563162L129.40676805555555,130.4229567766655L129.5605527777778,132.71957718057246L129.8681222222222,134.39726939234822L130.44020138888888,127.60880954126729L130.59398611111112,126.53069974021247L130.74777083333333,132.16161439241645L130.90155555555557,133.29781459225225L131.0553402777778,133.21313103707436L131.209125,133.30475017630144L131.67047916666667,128.42787917377402L131.82426388888888,136.23647402081002L132.13183333333333,136.33834567677843L132.28561805555555,133.23128828413408L132.4394027777778,134.30121050481273L132.5931875,133.9884440553443L132.7469722222222,135.33137980613648L133.20832638888888,133.07938999839746L133.36211111111112,131.5266052578377L133.51589583333333,134.58871502644743L133.66968055555554,133.5074505823866L134.59238888888888,136.4915366024583L134.89995833333333,138.65884334946531L135.05374305555554,140.69166834615584L135.51509722222224,135.04278435386965L135.82266666666666,132.66442860411257L135.9764513888889,133.01158952661345L136.13023611111112,132.05106999048388L136.28402083333333,132.1822101686525L136.43780555555554,133.21802248244256L136.59159027777778,133.2207894187258L136.89915972222224,134.0351465937149L137.05294444444445,131.2501561878116L137.20672916666666,131.73445755469743L137.3605138888889,128.91240474916268L137.66808333333333,133.27270344100455L137.82186805555554,136.27021370253203L137.97565277777778,134.88072569720688L138.1294375,133.07267854741855L138.43700694444442,133.40698519228883L138.5907916666667,135.46672904617978L138.7445763888889,131.70747565504348L138.89836111111111,130.39608304864032L139.05214583333333,131.08193162977216L139.20593055555557,133.54302357772698L139.5135,132.71211472634303L139.9748541666667,132.8182327080796L140.1286388888889,133.17908391132136L140.54693333333336,136.99213810428486L141.16207222222224,141.0685343483955L141.31585694444445,143.54802447993777L141.62342638888887,140.95923411710592L141.7772111111111,138.47560411212962L142.08478055555557,140.36377763858312L142.39235,140.8589780178321L142.69991944444445,145.48723757147707L142.85370416666666,145.24724976944876L143.00748888888887,144.50810947852108L143.31505833333335,143.49344392718936L143.46884305555557,144.84347217143812L143.62262777777778,145.9023873857334L143.7764125,143.56724367449726L143.9301972222222,142.63653028355068L144.08398194444445,142.6282328546804L144.23776666666666,148.82781181618145L144.3915513888889,150.43663367758933L144.5453361111111,151.08052662887619L144.69912083333335,150.5391292167412L144.85290555555557,151.72489340261856L145.160475,151.06347972049062L145.62182916666666,149.3803358588243L145.7756138888889,147.05521345021074L145.9293986111111,145.01507986316133L146.23696805555556,150.15714889801967L146.39075277777778,145.82195417505957L146.5445375,142.30936867647839L146.6983222222222,143.01181994271363L146.85210694444444,146.3657776339377L147.62103055555556,145.38651247562123L147.77481527777778,143.40463702524397L148.23616944444447,145.83505546636198L148.38995416666668,148.11779652190296L148.6975236111111,152.61336701404306L148.85130833333332,151.2657267170623L149.4664472222222,151.5920133859401L149.62023194444447,150.45385886850863L149.77401666666668,150.30858256989467L150.0815861111111,148.31707819247492L150.34609583333335,149.71431401537407L150.49988055555556,147.31743261317342L150.65366527777778,148.4434808876113L150.80745,149.31531125620975L150.96123472222223,152.29774798343166L151.11501944444444,151.3919289115444L151.42258888888887,153.81532422721637L151.57637361111114,150.7498535316403L151.73015833333335,149.1465705395469L151.88394305555556,146.3149067497688L152.03772777777777,149.81661599098268L152.1915125,151.11004111698443L152.34529722222223,151.7246399255465L152.49908194444444,151.18212724120642L152.65286666666665,151.64603228802218L153.11422083333335,149.29768405418434L153.42179027777777,151.38645567532882L153.575575,148.5963970385184L153.88314444444444,147.90652474336963L154.1907138888889,147.68044103328273L154.3444986111111,148.29540640400182L154.49828333333335,149.62935542038878L154.65206805555556,147.954043127925L154.80585277777777,149.36596595714337L155.11342222222223,152.34132813296625L155.26720694444444,153.38338240910713L155.88234583333335,152.4192467903841L156.03613055555556,153.78426824266208L156.18991527777777,153.2930891648203L156.34369999999998,154.09975316536048L156.4974847222222,154.65115686900387L156.80505416666668,152.22063272384983L156.9588388888889,151.49781014832763L157.26640833333335,151.50064910042033L157.42019305555556,151.29889519564952L157.8815472222222,151.88905381889728L158.03533194444447,155.7191837930575L158.18911666666668,151.82987367534014L158.3429013888889,152.06402709140403L158.4966861111111,151.07561034791087L158.65047083333334,149.98360544939288L158.80425555555556,152.7042013714678L158.95804027777777,151.4345422850033L159.11182499999998,145.3361665566353L159.26560972222222,146.57608303385504L159.41939444444446,146.03906989668326L159.57317916666668,151.2984722171695L159.8807486111111,149.23749125686112L160.29904305555556,150.85214569978012L160.45282777777777,152.22860035982984L160.76039722222222,152.96734586767707L160.91418194444444,150.5326651538155L161.06796666666665,150.032818305775L161.37553611111113,148.59128614363144L161.52932083333334,144.7734760528628L161.83689027777777,147.39233160530472L161.990675,151.91146536180344L162.29824444444444,151.83176897868893L162.6058138888889,152.62207431140772L163.06716805555556,150.22452758079706L163.22095277777777,150.7001597940481L163.68230694444443,155.26041047133344L163.9898763888889,157.1627300442696L164.14366111111113,157.41373449135466L164.29744583333334,154.6493735963224L164.60501527777777,151.02969589953335L164.75879999999998,150.65649758452997L164.91258472222222,151.29859315559165L165.3739388888889,148.9191009712511L165.52772361111113,150.10695959601566L165.83529305555555,150.60397867445405L166.14286249999998,150.3173974280611L166.29664722222225,149.84278265188468L166.75800138888889,149.9274994028628L167.06557083333334,152.73999304928503L167.21935555555555,155.10285357251638L167.37314027777776,154.63482992419526L167.68070972222225,151.81453043958896L167.83449444444446,157.32753663902295L167.98827916666667,155.87918613937387L168.14206388888888,154.9067884043071L168.2958486111111,154.40782385002854L168.44963333333334,153.20081419705122L168.60341805555555,155.87142114813386L168.75720277777776,154.11414170051768L168.91098749999998,154.55505628457757L169.06477222222225,150.646053634511L169.21855694444446,153.17012462760604L169.52612638888888,153.51270891276357L169.6799111111111,153.005632311388L169.98748055555555,154.87699403183709L170.405775,153.78190951635668L170.55955972222222,153.78207034919797L171.0209138888889,152.33220319978875L171.17469861111113,152.7643054467389L171.48226805555555,147.93978372466262L171.63605277777776,150.70406083614643L171.7898375,152.28172850023319L171.94362222222222,152.5595780973272L172.09740694444443,154.9282308557413L172.4049763888889,153.9711312217781L172.55876111111112,153.8118067918183L172.86633055555555,152.0226828458684L173.02011527777776,150.66778991636298L173.32768472222222,151.68198328425487L173.48146944444446,148.59266211118302L173.63525416666667,148.87728312130372L173.78903888888888,149.14582204728686L173.94282361111112,152.45167970603325L174.09660833333334,154.84579361247393L174.25039305555555,155.8936619248035L174.40417777777776,158.45960022723926L175.01931666666667,155.2246157907422L175.17310138888888,153.61295430161408L175.32688611111112,154.03693868496728L175.48067083333333,154.2034327295147L175.63445555555555,153.6338219706251L175.78824027777776,154.48984264119667L175.942025,155.0120921539319L176.09580972222224,157.98005511802748L176.24959444444445,155.71287801926718L176.86473333333333,154.8891347591006L177.01851805555555,155.59070460462112L177.17230277777776,155.92455419180914L177.32608749999997,157.39493004646775L177.78744166666667,154.18677131434407L177.94122638888888,157.1649529622006L178.09501111111112,157.39080478068237L178.40258055555555,157.06697545836L178.55636527777776,154.7384854777036L178.86393472222224,154.26555355926618L179.17150416666667,153.48496823632877L179.32528888888888,153.34211284194885L179.47907361111112,152.95548635090094L179.94042777777778,150.30174949982583L180.2049375,149.67604637475105L180.3587222222222,151.5290689170239L180.51250694444443,153.21788600086438L180.66629166666667,158.90400595863224L180.8200763888889,157.3347927455081L180.97386111111112,155.29063014928343L181.28143055555554,153.969111264212L181.4352152777778,155.03582312690997L181.89656944444445,158.4266650002864L182.05035416666666,156.31812835464876L182.66549305555554,155.60275232432286L182.9730625,154.06290620747012L183.12684722222224,150.21145084410588L183.28063194444445,152.0216900522094L183.43441666666666,152.03924905545995L183.5882013888889,155.31156996461243L183.74198611111112,154.70870916588598L184.20334027777776,153.34128510481216L184.357125,155.59718056237358L184.51090972222224,153.17767309178308L184.66469444444445,153.68852902469672L184.81847916666666,154.50799340218887L185.12604861111112,154.80486497607183L185.43361805555554,158.68624953424742L185.58740277777775,160.1037908156463L185.74118750000002,155.03075711089863L186.04875694444445,155.9928383041928L186.20254166666666,154.56292921758748L186.3563263888889,149.52564952248568L186.51011111111112,152.19303937042295L186.66389583333333,151.9357339895837L186.81768055555554,151.5969379637881L186.97146527777775,151.23301708862647L187.12525000000002,151.71422242422182L187.27903472222224,150.49281943221456L187.43281944444445,152.85458522863925L188.04795833333333,152.6435931076273L188.35552777777778,155.09622432885556L188.50931250000002,154.0329379206776L188.66309722222223,152.5533548493711L188.81688194444445,155.34791638252304L188.97066666666666,157.70125900386077L189.43202083333333,156.2091279984214L189.73959027777778,155.5695795472879L190.4654541666667,158.53534024495397L190.7730236111111,160.9348939828387L190.92680833333333,159.2148338023212L191.23437777777778,157.3282657700809L191.8495166666667,160.16918592282326L192.0033013888889,163.27540203309965L192.1570861111111,160.15853499796143L192.31087083333333,157.29993333474485L192.46465555555554,155.40673683914954L193.07979444444445,156.4594697088008L193.3873638888889,155.70085374097062L193.5411486111111,153.32101600714543L193.84871805555554,157.781979155628L194.00250277777778,158.54347888157056L194.46385694444444,159.24238390639596L194.61764166666666,153.5087430174063L194.7714263888889,152.6936062472012L195.07899583333332,151.8387888926434L195.3865652777778,152.91943660526482L195.54035000000002,153.39516170312368L195.69413472222223,152.44111896846337L196.00170416666666,157.73996581212864L196.1554888888889,160.72868051673683L196.46305833333332,162.0290433002256L196.61684305555553,157.03897623813606L196.77062777777778,155.40429304001603L197.07819722222223,157.52906194105472L197.23198194444444,160.23893371487495L197.38576666666665,156.64155552743776L197.5395513888889,159.5645819383397L197.6933361111111,157.0577322092176L197.84712083333332,153.36907160956784L198.30847500000002,152.9878474514432L198.46225972222223,154.21202266459153L198.76982916666665,155.99262785262556L198.9236138888889,157.22828689821577L199.0773986111111,155.6813813345115L199.23118333333335,157.27269533652947L199.53875277777777,156.85493062761753L199.69253750000001,153.70130228297313L199.84632222222223,157.11608323631526L200.11083194444444,151.88867585566345L200.5721861111111,146.30457225267114L200.72597083333332,150.9689944832962L200.87975555555556,150.03802466289847L201.64867916666668,152.9773719463546L201.9562486111111,153.24321096065435L202.26381805555556,153.01538630081888L202.41760277777777,153.77657507908546L202.57138750000001,154.72623306345267L203.03274166666668,154.25534347195222L203.1865263888889,156.05585257708307L203.3403111111111,155.1300929894007L203.49409583333332,160.55214268227158L203.64788055555553,157.95774716293656L203.8016652777778,151.8240969945342L203.95545,152.22354720250868L204.10923472222223,152.78525128890738L204.41680416666668,156.45301188784637L204.5705888888889,157.03257529193837L204.87815833333332,156.1271848852715L205.03194305555553,156.9078107302555L205.1857277777778,155.21263379405946L205.3395125,158.9702411485772L205.80086666666668,156.73003757753338L205.9546513888889,154.12880936915698L206.26222083333332,155.14121449582788L206.41600555555556,153.38600137587198L206.5697902777778,152.83024168067658L206.723575,156.36114095083963L206.87735972222222,156.90505573609724L207.03114444444444,154.85446395949077L207.18492916666665,155.32191739763152L207.3387138888889,159.8539283729712L207.4924986111111,159.1172461305332L207.64628333333332,158.49090266590946L207.9538527777778,157.9401601336338L208.1076375,156.54669001392153L208.41520694444444,155.90493855491258L208.56899166666665,158.89590946206437L208.8765611111111,161.58309103271756L209.03034583333334,163.97013041906393L209.3379152777778,161.7257686944773L209.4917,156.94179153195842L209.64548472222222,155.1638161167611L209.79926944444443,158.00759624392447L210.06377916666668,155.10559001932933L210.2175638888889,158.6044197521829L210.52513333333332,155.78757576399389L210.67891805555556,154.85022239041336L210.83270277777777,153.8150859285514L211.14027222222222,156.94515879208566L211.29405694444446,157.91136230978205L211.6016263888889,157.23750138652025L211.7554111111111,158.1634659312469L211.9091958333333,154.6339187349261L212.06298055555555,154.5517247990001L212.2167652777778,154.0817252124486L212.37055,156.57231657456185L212.52433472222222,153.06823223879434L213.1394736111111,159.37418344448307L213.2932583333333,157.67084183790465L213.44704305555558,158.26923921007818L213.7546125,156.76646019398515L213.90839722222222,157.3132921460033L214.06218194444443,160.09242053843104L214.3697513888889,159.92421001603145L214.6773208333333,161.62168219731217L214.9848902777778,156.30710484412887L215.29245972222222,158.33594240642137L215.60002916666667,154.1810628129833L215.75381388888889,157.2498528055624L215.9075986111111,160.95477569255883L216.0613833333333,157.44424857390118L216.3689527777778,157.7303463162513L216.5227375,154.4165768667975L216.67652222222222,156.1669907119822L216.83030694444443,155.1796021827232L216.98409166666667,159.64528995165256L217.13787638888888,158.68461953844047L217.59923055555555,161.62706610706698L217.7530152777778,158.60721209733038L218.21436944444443,158.27208821230144L218.36815416666667,158.98061175497182L218.52193888888888,159.90004746527558L218.82950833333334,160.37695592489493L218.98329305555555,160.82447421856713L219.44464722222222,159.49997596129572L219.59843194444443,157.37555976818877L219.75221666666667,157.53882283435786L220.1705111111111,158.58219458142833L220.32429583333334,158.26538698760618L220.78565,154.58437560928635L220.93943472222222,155.28971827188792L221.09321944444446,161.06152878697512L221.40078888888888,158.28522074915446L221.86214305555558,158.96032013514127L222.0159277777778,161.06827612331602L222.47728194444446,161.95414457884087L222.63106666666667,162.57561661104356L222.78485138888888,159.11944062689938L223.3999902777778,160.39463034776847L223.70755972222221,156.54105814004737L223.86134444444446,158.5929896813917L224.01512916666667,156.76477133327452L224.16891388888888,160.82331665611503L224.3226986111111,162.1802299991622L224.4764833333333,161.20187599909553L224.63026805555558,159.6279775745804L225.0916222222222,159.51335623545262L225.24540694444445,156.05926888793397L225.39919166666667,160.3688280519427L225.55297638888888,155.1397401612946L225.86054583333333,153.71359797250918L226.1681152777778,156.24831068475063L226.3219,157.5753103651147L226.78325416666667,161.35530835931746L226.93703888888888,156.87229077743638L227.24460833333333,157.94600929057887L227.39839305555557,156.6649384492812L227.55217777777779,157.18444490398034L227.7059625,156.16341117202282L227.8597472222222,159.35443272896032L228.01353194444442,156.7622355543023L228.47488611111112,158.38682504827455L228.62867083333333,155.43378722867175L229.2438097222222,154.14229889830432L229.39759444444442,156.20776948205918L229.5513791666667,155.77083173318084L229.7051638888889,156.30549496962652L229.9696736111111,156.51580696038815L230.27724305555554,157.14174453059283L230.43102777777779,160.2817112901178L230.73859722222224,159.8978117008031L230.89238194444445,161.41660481884202L231.19995138888888,158.5494683475939L231.50752083333333,158.41805198341493L231.66130555555557,161.42285164127676L231.81509027777778,162.485588772674L231.968875,160.92808496768055L232.27644444444445,160.68455151606466L232.43022916666666,158.4651665283573L232.7377986111111,158.23136209607117L232.89158333333336,159.42514145668346L233.19915277777778,159.88752348599434L233.3529375,160.04602196640332L233.66050694444445,160.2992640981668L233.81429166666666,158.8348371098197L233.96807638888887,158.67713485815662L234.1218611111111,154.74003531133258L234.58321527777778,154.28815054254804L234.737,157.64496446862069L234.8907847222222,157.72468103496777L235.04456944444445,159.7819329591307L235.19835416666666,159.65291886081573L235.35213888888887,161.4788480394102L235.81349305555557,162.70947404263518L235.96727777777778,159.24058903589707L236.1210625,159.5060605843953L236.2748472222222,158.47013528188614L236.42863194444445,155.63234827741317L236.58241666666666,154.97199958458145L236.7362013888889,158.50328465637324L236.8899861111111,163.7824163536435L237.04377083333333,163.59476700426373L237.35134027777778,161.6380669057443L238.1202638888889,161.11794516524122L238.42783333333333,159.15128413685431L239.3505416666667,160.6357748817301L239.5043263888889,161.25266943241533L239.92262083333333,161.865423293106L240.07640555555557,160.43675334325965L240.383975,159.51399063510618L240.53775972222223,158.9294736987924L240.99911388888887,159.7986767017787L241.1528986111111,159.0608501110839L241.46046805555557,159.2775512024383L241.61425277777778,156.52862539398396L241.7680375,162.48316597049072L241.92182222222223,161.5972661918678L242.07560694444444,161.69981960930096L242.38317638888887,159.84846337126297L242.69074583333335,164.01257684719525L242.84453055555556,160.93640211557525L242.99831527777778,160.3935240785391L243.1521,160.51935290575685L243.30588472222223,155.51674507030248L243.45966944444444,159.42297603667816L243.61345416666666,155.48888600258653L244.22859305555556,157.93730929129498L244.38237777777778,157.05629119853086L244.5361625,159.0340945973788L244.68994722222223,160.1101420713342L244.84373194444444,161.1782721197333L245.3050861111111,160.68163484229999L245.45887083333335,158.60277297831192L245.61265555555556,154.95495548289983L246.22779444444444,158.01393023198028L246.38157916666665,161.94462735890457L246.5353638888889,160.50815896653597L246.6891486111111,161.76580995994885L246.99671805555556,163.1091446400369L247.15050277777777,162.29030653957633L247.4580722222222,162.03949650003975L247.61185694444444,162.54338086371303L247.9194263888889,161.2635117494544L248.0732111111111,162.1987226718752L248.38078055555556,162.97586440527968L248.53456527777777,164.12679780017058L248.8421347222222,162.05430863196088L248.99591944444447,159.01124083535532L249.14970416666668,158.87306792459881L249.3034888888889,158.12344569517373L249.4572736111111,162.011591115911L249.61105833333335,161.0671451882437L249.87556805555556,160.45349367435267L250.64449166666665,159.2121634640822L251.10584583333335,157.6798453266539L251.25963055555556,160.4197174987267L251.5672,157.64422898378396L251.87476944444444,158.88801169129067L252.02855416666665,158.62766019343448L252.48990833333335,160.66326467100254L252.64369305555556,159.77649928671204L252.79747777777777,159.00603220587226L252.95126249999998,162.10617534553162L253.41261666666665,159.84325615705143L253.5664013888889,159.65794866963878L253.72018611111113,158.30494789491883L253.87397083333335,156.51089904433962L254.18154027777777,154.83626679019022L254.48910972222222,159.9358701115999L254.64289444444444,157.9766317331485L254.79667916666665,160.0184298112209L254.9504638888889,163.1230855000545L255.41181805555556,165.11896297211624L255.71938749999998,157.8519158336034L255.87317222222222,157.83846196964447L256.02695694444446,158.84723018865822L256.1807416666667,162.10286887046323L256.3345263888889,157.17619919512643L256.4883111111111,158.94010284583155L256.6420958333333,161.50359702333043L256.9496652777778,161.14281431967555L257.10345,164.56128309647963L257.2572347222222,165.46674957959289L257.41101944444443,161.56582529796225L257.56480416666665,163.21998236648082L257.71858888888886,165.30686318519815L257.8723736111111,164.38484391158684L258.02615833333334,163.86999667834758L258.17994305555555,161.51423741868047L258.33372777777777,157.608892465577L258.4875125,159.90622657037505L258.9488666666667,163.54898801742033L259.1026513888889,164.93239020882868L259.41022083333337,162.4214870745668L259.5640055555556,161.44524891066925" style="fill: none;" fill="none"></path></g></g></g></g><g opacity="0.2"><g><g><g><path stroke="rgb(255, 112, 67)" stroke-width="2px" d="M39.06131944444444,-4.321043173472074L39.21510416666666,0.5762770970662565L39.36888888888889,-0.17759052912392903L39.676458333333336,8.149090925852464L40.137812499999995,-18.034073193868014L40.29159722222222,0.76143296559653L40.44538194444444,8.579656998316453L40.59916666666667,5.765668074289964L41.01746111111111,13.943626006444308L41.17124583333333,3.9999122619628906L41.32503055555556,18.000270446141574L41.47881527777778,3.0139222939809294L41.78638472222222,15.970833619435641L41.94016944444445,16.159551858901978L42.24773888888889,19.392239570617676L42.555308333333336,28.191864013671875L42.86287777777778,23.035823822021484L43.0166625,9.598101695378634L43.170447222222215,3.5253520011901855L43.32423194444444,24.924426794052124L43.63180138888889,16.85624670982361L43.78558611111111,12.456827878952026L44.093155555555555,28.78529381752014L44.24694027777778,20.3875834941864L44.400724999999994,11.677171309789035L44.70829444444444,14.342808246612549L44.86207916666667,23.217592159907028L45.63100277777777,19.66311089197795L45.7847875,18.88544313112895L46.24614166666667,40.96084388097128L46.39992638888889,28.092685858408615L46.86128055555555,35.45453302065532L47.01506527777777,19.95529087384543L47.32263472222222,22.517837603886935L47.476419444444446,36.57956473032634L47.630204166666665,34.76878754297893L47.78398888888889,28.371534268061325L47.93777361111111,22.72825789451599L48.09155833333333,28.776945193608615L48.24534305555555,43.88557227452597L48.5529125,40.648120164871216L48.706697222222225,29.5319274266561L48.860481944444444,33.512101093928024L49.01426666666667,34.00034260749817L49.47562083333333,53.74697995185852L49.62940555555556,40.14040581385295L50.24454444444445,45.12722245852153L50.39832916666666,41.022256533304855L50.81662361111111,53.05660120646159L50.97040833333334,48.10846797625224L51.12419305555556,27.44155875841777L51.27797777777778,45.896082639694214L51.4317625,48.22097770373027L51.739331944444444,43.196155150731414L52.04690138888889,43.01641933123271L52.20068611111111,47.60132185618083L52.35447083333333,48.67840361595154L52.50825555555555,48.41179402669272L52.66204027777778,33.713538964589446L52.815825,53.904161373774215L53.12339444444444,57.17586032549541L53.27717916666667,55.11973849932353L53.43096388888889,53.45512779553732L53.58474861111111,58.67072296142578L53.73853333333333,65.3173422018687L54.1998875,56.50720548629761L54.81502638888889,52.3670092423757L55.122595833333335,53.512934366861984L55.276380555555555,51.18771147727966L55.58395,39.89641618728638L55.73773472222223,55.809352318445846L56.04530416666666,50.76916567484538L56.19908888888889,56.1478431224823L56.35287361111111,57.637722810109466L56.660443055555554,56.01291012763977L56.9680125,61.214911460876465L57.27558194444444,55.31896901130676L57.42936666666667,55.86753042538962L57.583151388888886,42.353315671285L57.89072083333333,53.884732246398926L58.04450555555556,65.83445421854655L58.19829027777778,54.67238775889079L58.352075,49.568755944569915L58.50585972222222,62.608257452646896L58.813429166666666,58.23897671699524L58.96721388888889,56.85417604446411L59.12099861111111,54.899133761723846L59.27478333333334,60.495574792226165L59.42856805555556,57.88717619578044L59.58235277777777,66.54260110855103L59.7361375,65.77638538678488L60.197491666666664,69.54867394765219L60.35127638888889,71.02443528175354L60.50506111111111,67.05479574203491L60.76957083333333,64.91870633761089L61.230925,69.31408198674521L61.692279166666665,68.075119972229L61.846063888888885,55.29433838526408L61.99984861111111,71.91262396176657L62.30741805555556,72.06849408149719L62.46120277777778,71.89610155423483L62.614987500000005,65.64009737968445L62.76877222222222,68.06504480044048L63.076341666666664,75.53575189908346L63.23012638888889,74.30183839797974L63.38391111111111,79.69983569780986L63.69148055555556,74.1713638305664L63.99905,67.17349044481914L64.30661944444444,83.9088097413381L64.46040416666666,78.52392546335857L64.76797361111112,81.84495123227438L64.92175833333333,82.31044165293376L65.07554305555556,78.55144095420837L65.22932777777777,81.36626036961874L65.3831125,76.00253176689148L65.69068194444445,76.4538164138794L65.84446666666666,73.14271283149719L65.99825138888889,72.64384977022807L66.45960555555556,74.70204782485962L66.767175,70.9140017827352L66.92095972222222,63.78377429644267L67.22852916666668,69.78440237045288L67.38231388888889,81.9302077293396L67.53609861111111,75.02825609842937L67.68988333333333,85.96244009335837L67.84366805555555,71.58744287490845L67.99745277777778,80.09239586194357L68.30502222222222,77.49822489420573L68.45880694444445,83.69371247291565L68.76637638888889,79.31673876444499L68.92016111111111,75.07244698206584L69.07394583333333,74.57032752037048L69.22773055555557,79.3052430152893L69.38151527777778,75.2185697555542L69.53529999999999,60.7692654132843L69.99665416666667,89.20636129379272L70.15043888888889,85.8981862862905L70.30422361111111,94.88779656092326L70.45800833333334,87.43782989184062L70.87630277777778,82.92620730400085L71.0300875,90.81954709688823L71.18387222222223,85.88542294502258L71.33765694444445,79.52412120501201L71.64522638888889,86.13328091303508L71.79901111111111,82.87397376696269L72.56793472222222,75.7766162554423L72.87550416666666,84.95140425364177L73.0292888888889,80.23819080988567L73.49064305555555,84.30211297671L73.64442777777776,81.62091525395712L73.7982125,93.93288445472717L74.10578194444444,83.32182717323303L74.25956666666666,83.21749122937521L74.4133513888889,85.30056031545004L74.56713611111111,89.59844064712524L74.72092083333334,87.98112424214682L74.87470555555555,88.85375213623047L75.02849027777778,95.54068299134573L75.182275,94.12212721506755L75.48984444444444,86.01393055915833L75.64362916666667,93.11085096995036L75.95119861111111,85.49371512730917L76.10498333333332,90.48907709121704L76.72012222222222,97.59345006942749L76.87390694444446,95.80447328090668L77.02769166666667,83.39840722084045L77.1814763888889,101.66752390066783L77.33526111111111,87.5318284034729L77.48904583333332,93.72067205111186L78.10418472222221,98.22832794984183L78.25796944444446,96.0487688779831L78.41175416666667,87.99786520004272L78.56553888888888,95.30929279327393L78.71932361111111,87.68116386731467L78.87310833333333,92.02660075823466L79.18067777777777,92.16061584154765L79.3344625,90.85600129763286L79.48824722222223,94.00893998146057L79.64203194444444,100.52091034253439L79.79581666666667,91.76757486661276L79.94960138888888,100.53948712348938L80.25717083333333,96.19705530007681L80.41095555555556,88.50536100069682L80.67546527777777,98.38628522555034L80.82925,83.12762331962585L80.98303472222223,90.37846875190735L81.29060416666667,95.29554597536723L81.75195833333333,108.84360325336456L82.05952777777777,98.97621822357178L82.2133125,102.45478602250418L82.36709722222223,103.24496579170227L82.52088194444444,100.48198652267456L82.67466666666667,100.88338704903921L83.28980555555555,107.55382827917735L83.44359027777779,110.21236232916515L83.75115972222223,94.06416765848796L84.05872916666667,97.49007574717204L84.21251388888889,100.15706769625346L84.3662986111111,88.00096861521403L84.52008333333333,96.74972546100616L84.67386805555556,98.10980808734894L84.82765277777779,99.7220759789149L84.9814375,95.28346014022827L85.13522222222223,84.74332245190939L85.28900694444445,100.02600304285686L85.59657638888889,99.491046388944L85.7503611111111,106.14735833803813L85.90414583333333,115.08448374271393L86.05793055555556,104.15845167636871L86.3655,88.1931618054708L86.51928472222221,101.31150535742442L86.82685416666666,109.76926239331564L86.98063888888889,92.53326606750488L87.1344236111111,85.01458716392517L87.28820833333334,101.90843196709952L87.44199305555556,107.74735462665558L87.59577777777777,93.36893709500632L87.7495625,99.24657595157623L87.90334722222222,109.95034229755402L88.05713194444445,101.75220123926799L88.21091666666666,99.17439969380698L88.82605555555556,100.4905755519867L88.97984027777777,98.22348705927531L89.13362500000001,110.9362120628357L89.44119444444445,103.86878502368927L89.59497916666666,106.20167903105418L90.21011805555555,116.07324930032095L90.62841250000001,108.00092768669128L90.78219722222222,106.00506019592285L90.93598194444444,107.17986675103506L91.39733611111112,109.29617734750113L91.55112083333333,109.34787543614706L91.70490555555556,109.6071854432424L91.85869027777778,100.42201630274455L92.012475,98.9472603003184L92.16625972222222,99.36794789632162L92.32004444444443,102.81623554229736L92.47382916666668,115.18793455759685L92.62761388888889,110.84211520353954L92.78139861111111,87.71029663085938L92.93518333333333,108.22276723384857L93.08896805555557,99.76400486628215L93.24275277777778,112.50278107325236L93.3965375,101.54623937606812L93.70410694444443,104.75136788686117L94.01167638888889,108.29521667957306L94.16546111111111,108.78543607393901L94.31924583333333,110.5576500495275L94.47303055555555,118.27901256084442L94.93438472222222,105.98908416430156L95.08816944444445,104.79766778151195L95.24195416666667,111.67849651972453L95.39573888888889,116.84262307484946L95.85709305555555,106.09143129984538L96.01087777777778,109.81039357185364L96.31844722222223,110.23018511136374L96.47223194444445,117.38071592648825L96.93358611111111,114.27149824301402L97.08737083333334,116.35048043727875L97.24115555555555,104.89060632387798L97.548725,118.02540671825409L97.70250972222223,110.69960943857829L97.85629444444444,113.14766856034598L98.31764861111111,103.44030610720317L98.47143333333334,108.03938162326813L98.62521805555555,118.21058444182079L98.77900277777778,112.16878147919974L98.9327875,111.78490869204204L99.08657222222223,115.48680218060812L99.24035694444444,106.0155178308487L99.39414166666666,112.8167177438736L99.70171111111111,117.73167502880096L99.85549583333334,111.78494147459666L100.00928055555555,100.41562370459239L100.16306527777779,112.9383628765742L100.88892916666667,105.7598466873169L101.0427138888889,107.25041480859122L101.19649861111111,106.29765542348227L101.35028333333332,109.3679929971695L101.50406805555556,119.57189095020294L101.8116375,120.6350291967392L102.11920694444446,136.55204129219055L102.42677638888888,120.18517605463664L102.58056111111111,116.31055128574371L102.73434583333332,111.15865262349448L103.04191527777778,117.20971119403839L103.1957,113.52597924073538L103.34948472222221,112.37018656730652L103.65705416666667,119.96235303084056L103.96462361111111,109.95651634534201L104.11840833333333,116.61372435092926L104.42597777777777,125.04014126459758L104.5797625,121.8592499891917L104.73354722222223,114.38034725189209L105.19490138888888,110.0604370435079L105.34868611111112,121.30200119813284L105.50247083333333,118.94519778092703L105.65625555555556,119.56635069847107L105.81004027777777,117.82447151343028L105.96382499999999,108.33828202883403L106.11760972222223,115.59242757161459L106.42517916666667,115.41229836146037L106.57896388888888,103.0219132900238L106.73274861111112,118.85554842154185L106.88653333333333,128.50765041510266L107.04031805555556,123.96454564730327L107.19410277777777,121.80837146441142L107.65545694444444,121.1706524292628L107.80924166666667,117.16242782274882L108.11681111111112,121.22265648841858L108.27059583333333,109.00464208920798L108.42438055555554,124.90927330652873L108.73195,118.51091635227203L108.88573472222222,107.39101918538412L109.03951944444444,117.78091442584991L109.5008736111111,114.25414534409842L109.65465833333333,114.36811935901642L109.80844305555556,117.83228468894958L109.96222777777778,122.91953615347545L110.1160125,115.24618915716808L110.26979722222222,120.72786939144135L110.53430694444445,123.87590161959331L110.68809166666666,126.63407278060913L110.84187638888889,128.85297091801962L111.14944583333335,125.48572174708049L111.30323055555556,122.14338731765747L111.45701527777778,123.44260366757712L111.6108,126.44228390852611L111.76458472222221,119.57002234458923L111.91836944444445,127.25025367736816L112.22593888888889,121.77319578329723L112.68729305555556,123.23478412628174L113.30243194444445,135.4959622224172L113.61000138888889,109.63677716255188L113.76378611111112,124.39898006121318L113.91757083333333,116.82665797074637L114.07135555555556,118.96310798327129L114.22514027777777,122.91903348763785L114.37892500000001,116.14432187875113L114.53270972222222,130.03338328997296L114.68649444444445,120.75100294748943L114.84027916666666,121.82226034005484L114.9940638888889,135.49988520145416L115.14784861111112,128.26399954160055L115.30163333333333,131.95353400707245L115.45541805555555,116.38105563322704L115.76298750000001,112.48260887463888L115.91677222222222,115.96733979384105L116.37812638888889,134.48978912830353L116.68569583333333,127.64739247163138L116.83948055555555,138.21871729691824L116.99326527777778,120.37757686773936L117.14705000000001,126.9232804775238L117.30083472222222,124.3670389254888L117.60840416666667,129.63250728448233L118.22354305555557,123.48812770843506L118.37732777777778,126.03056780497234L118.5311125,126.33508495489757L118.83868194444443,122.66612700621288L118.99246666666667,115.78836890061697L119.14625138888889,123.08613709608714L119.30003611111111,123.66809300581615L119.60760555555557,131.85814770062765L119.91517499999999,127.98742405573527L120.48725416666667,126.43402270476024L121.10239305555555,132.93643148740134L121.71753194444445,128.45802855491638L121.87131666666666,123.93508505821228L122.02510138888888,141.52826917171478L122.33267083333334,129.24332372347516L122.48645555555555,133.48148516813916L122.64024027777778,130.40458015600842L122.794025,126.89238838354747L122.94780972222223,119.2704444328944L123.25537916666666,109.99545109272003L123.4091638888889,123.58285836378734L123.56294861111111,114.05105741818747L123.71673333333334,125.54538599650066L123.87051805555555,124.43718266487122L124.02430277777779,134.20589220523834L124.33187222222222,123.82450950145721L124.48565694444444,113.83817843596141L124.63944166666666,116.68335449695587L124.94701111111111,128.17098450660706L125.25458055555555,136.4428207476934L125.40836527777779,114.07015872001648L125.56215,135.80916674931845L125.71593472222222,131.9799676736196L126.1772888888889,126.53687250614166L126.33107361111111,126.5350694656372L126.63864305555556,125.73414794603984L126.79242777777777,125.7717495361964L126.9462125,129.9355601469676L127.25378194444446,128.3377384344737L127.5613513888889,138.73882345358533L127.71513611111111,126.3912523984909L128.02270555555555,137.00742375850677L128.17649027777776,116.55077091852824L128.330275,118.99416399002075L128.4840597222222,135.851478099823L128.63784444444445,119.23780393600464L129.09919861111112,132.61287860075635L129.25298333333333,139.99478868643445L129.40676805555555,126.97559050718944L129.5605527777778,136.16450778643292L129.8681222222222,136.9138077100118L130.44020138888888,117.4261197646459L130.59398611111112,124.91353503863017L130.74777083333333,140.60798637072247L130.90155555555557,135.00211489200592L131.0553402777778,133.08610570430756L131.209125,133.44217888514203L131.67047916666667,121.11257266998291L131.82426388888888,147.94936629136404L132.13183333333333,136.49115316073102L132.28561805555555,128.57070219516754L132.4394027777778,135.9060938358307L132.5931875,133.51929438114166L132.7469722222222,137.34578343232474L133.20832638888888,129.70140528678894L133.36211111111112,129.1974281469981L133.51589583333333,139.181879679362L133.66968055555554,131.88555391629538L134.59238888888888,140.96766563256583L134.89995833333333,141.9098034699758L135.05374305555554,143.74090584119162L135.51509722222224,126.56945836544037L135.82266666666666,129.09689497947693L135.9764513888889,133.5323309103648L136.13023611111112,130.6102906862895L136.28402083333333,132.37892043590546L136.43780555555554,134.77174095312756L136.59159027777778,133.22493982315063L136.89915972222224,135.25668235619864L137.05294444444445,127.0726705789566L137.20672916666666,132.46090960502625L137.3605138888889,124.6793255408605L137.66808333333333,139.8131514787674L137.82186805555554,140.7664790948232L137.97565277777778,132.79649368921918L138.1294375,130.3606078227361L138.43700694444442,133.90844515959424L138.5907916666667,138.5563448270162L138.7445763888889,126.06859556833903L138.89836111111111,128.42899413903555L139.05214583333333,132.11070450146994L139.20593055555557,137.23466149965924L139.5135,131.4657514492671L139.9748541666667,132.97740968068442L140.1286388888889,133.720360716184L140.54693333333336,142.71171939373016L141.16207222222224,147.18312871456146L141.31585694444445,147.2672596772512L141.62342638888887,137.07604857285818L141.7772111111111,134.75015910466513L142.08478055555557,143.19603792826337L142.39235,141.60177858670554L142.69991944444445,152.4296269019445L142.85370416666666,144.88726806640625L143.00748888888887,143.39939904212952L143.31505833333335,141.97144560019177L143.46884305555557,146.86851453781128L143.62262777777778,147.4907602071762L143.7764125,140.06452810764313L143.9301972222222,141.24046019713086L144.08398194444445,142.61578671137494L144.23776666666666,158.12718025843304L144.3915513888889,152.84986646970114L144.5453361111111,152.0463660558065L144.69912083333335,149.72703309853873L144.85290555555557,153.50353968143463L145.160475,150.0713591972987L145.62182916666666,146.8556200663249L145.7756138888889,143.56752983729046L145.9293986111111,141.9548794825872L146.23696805555556,157.87025245030722L146.39075277777778,139.31916209061941L146.5445375,137.0404904286067L146.6983222222222,144.06549684206647L146.85210694444444,151.39671417077383L147.62103055555556,143.91761473814648L147.77481527777778,140.43182384967804L148.23616944444447,149.48068312803906L148.38995416666668,151.54190810521445L148.6975236111111,159.35672275225323L148.85130833333332,149.2442662715912L149.4664472222222,152.0814433892568L149.62023194444447,148.74662709236145L149.77401666666668,150.0906681219737L150.0815861111111,145.32982162634534L150.34609583333335,151.8101677497228L150.49988055555556,143.72211050987244L150.65366527777778,150.1325532992681L150.80745,150.62305680910748L150.96123472222223,156.77140307426453L151.11501944444444,150.0332003037135L151.42258888888887,157.4504172007243L151.57637361111114,146.15164748827618L151.73015833333335,146.74164605140686L151.88394305555556,142.06741106510162L152.03772777777777,155.06917985280356L152.1915125,153.05017880598706L152.34529722222223,152.6465381383896L152.49908194444444,150.36835821469626L152.65286666666665,152.34188985824585L153.11422083333335,145.77516170342764L153.42179027777777,154.5196131070455L153.575575,144.41130908330283L153.88314444444444,146.87171630064648L154.1907138888889,147.34131546815237L154.3444986111111,149.21785446008047L154.49828333333335,151.63027894496918L154.65206805555556,145.44107468922934L154.80585277777777,151.48385020097098L155.11342222222223,156.80437139670056L155.26720694444444,154.94646382331848L155.88234583333335,150.97304336229962L156.03613055555556,155.831800421079L156.18991527777777,152.55632054805756L156.34369999999998,155.30974916617077L156.4974847222222,155.478262424469L156.80505416666668,148.57484650611877L156.9588388888889,150.41357628504437L157.26640833333335,151.5049075285594L157.42019305555556,150.99626433849335L157.8815472222222,152.77429175376892L158.03533194444447,161.4643787542979L158.18911666666668,145.99590849876404L158.3429013888889,152.41525721549988L158.4966861111111,149.5929852326711L158.65047083333334,148.3455981016159L158.80425555555556,156.7850952545802L158.95804027777777,149.53005365530652L159.11182499999998,136.18860296408337L159.26560972222222,148.43595774968466L159.41939444444446,145.2335501909256L159.57317916666668,159.18757569789886L159.8807486111111,146.14601981639862L160.29904305555556,153.27412736415863L160.45282777777777,154.2932823499044L160.76039722222222,154.07546412944794L160.91418194444444,146.88064408302307L161.06796666666665,149.2830480337143L161.37553611111113,146.42898790041608L161.52932083333334,139.0467609167099L161.83689027777777,151.3206149339676L161.990675,158.6901659965515L162.29824444444444,151.71222440401715L162.6058138888889,153.80753231048584L163.06716805555556,146.6282074848811L163.22095277777777,151.41360811392468L163.68230694444443,162.10078648726147L163.9898763888889,160.01620940367383L164.14366111111113,157.79024116198224L164.29744583333334,150.50283225377402L164.60501527777777,145.6001793543498L164.75879999999998,150.09670011202496L164.91258472222222,152.26173651218414L165.3739388888889,145.3498626947403L165.52772361111113,151.88874753316244L165.83529305555555,151.34950729211172L166.14286249999998,149.88752555847168L166.29664722222225,149.13086048762005L166.75800138888889,150.05457452932995L167.06557083333334,156.95873351891836L167.21935555555555,158.6471443573634L167.37314027777776,153.93279445171356L167.68070972222225,147.58408121267956L167.83449444444446,165.59704593817395L167.98827916666667,153.7066603899002L168.14206388888888,153.44819180170697L168.2958486111111,153.65937701861066L168.44963333333334,151.39029971758526L168.60341805555555,159.8773315747579L168.75720277777776,151.47822252909344L168.91098749999998,155.21642816066742L169.06477222222225,144.78254965941113L169.21855694444446,156.95623111724854L169.52612638888888,154.02658534049988L169.6799111111111,152.24501740932465L169.98748055555555,157.68403661251068L170.405775,152.1392827431361L170.55955972222222,153.7823115984599L171.0209138888889,150.15740247567496L171.17469861111113,153.41245881716412L171.48226805555555,140.70300114154816L171.63605277777776,154.8504765033722L171.7898375,154.64822999636334L171.94362222222222,152.97635249296826L172.09740694444443,158.48120999336243L172.4049763888889,152.53548177083334L172.55876111111112,153.57282014687857L172.86633055555555,149.33899692694348L173.02011527777776,148.63545052210492L173.32768472222222,153.20327333609265L173.48146944444446,143.95868035157523L173.63525416666667,149.3042146364848L173.78903888888888,149.5486304362615L173.94282361111112,157.41046619415283L174.09660833333334,158.43696447213492L174.25039305555555,157.46546439329785L174.40417777777776,162.30850768089294L175.01931666666667,150.37213913599652L175.17310138888888,151.19546206792197L175.32688611111112,154.67291525999707L175.48067083333333,154.45317379633588L175.63445555555555,152.77940583229065L175.78824027777776,155.77387364705405L175.942025,155.79546642303467L176.09580972222224,162.43199956417084L176.24959444444445,152.31211237112683L176.86473333333333,153.6535198688507L177.01851805555555,156.64305937290192L177.17230277777776,156.42532857259116L177.32608749999997,159.60049382845563L177.78744166666667,149.37453321615857L177.94122638888888,161.6322254339854L178.09501111111112,157.72958250840506L178.40258055555555,156.5812314748764L178.55636527777776,151.24575050671896L178.86393472222224,153.5561556816101L179.17150416666667,152.3140902519226L179.32528888888888,153.12782975037894L179.47907361111112,152.37554661432904L179.94042777777778,146.3211442232132L180.2049375,148.73749168713888L180.3587222222222,154.30860273043317L180.51250694444443,155.75111162662506L180.66629166666667,167.43318589528403L180.8200763888889,154.98097292582196L180.97386111111112,152.2243862549464L181.28143055555554,151.98683293660483L181.4352152777778,156.63589092095694L181.89656944444445,163.51292781035107L182.05035416666666,153.15532338619232L182.66549305555554,154.52968827883404L182.9730625,151.75313703219098L183.12684722222224,144.43426779905957L183.28063194444445,154.73704886436462L183.43441666666666,152.0655875603358L183.5882013888889,160.22005132834119L183.74198611111112,153.80441796779633L184.20334027777776,151.29014901320141L184.357125,158.98102374871573L184.51090972222224,149.54841188589734L184.66469444444445,154.4548129240672L184.81847916666666,155.73718996842703L185.12604861111112,155.25017233689627L185.43361805555554,164.50832637151083L185.58740277777775,162.23010273774466L185.74118750000002,147.42120655377707L186.04875694444445,157.43596009413403L186.20254166666666,152.41806558767956L186.3563263888889,141.96972997983298L186.51011111111112,156.19412414232892L186.66389583333333,151.5497759183248L186.81768055555554,151.0887439250946L186.97146527777775,150.687135775884L187.12525000000002,152.43603042761487L187.27903472222224,148.6607149442037L187.43281944444445,156.39723392327627L188.04795833333333,152.3271049261093L188.35552777777778,158.77517116069794L188.50931250000002,152.43800830841064L188.66309722222223,150.33398024241131L188.81688194444445,159.53975868225098L188.97066666666666,161.2312729358673L189.43202083333333,153.97093149026236L189.73959027777778,154.61025687058768L190.4654541666667,162.98398129145306L190.7730236111111,164.53422458966574L190.92680833333333,156.634743531545L191.23437777777778,154.4984137217204L191.8495166666667,164.43056615193686L192.0033013888889,167.9347261985143L192.1570861111111,155.48323444525403L192.31087083333333,153.01203083992004L192.46465555555554,152.56694209575653L193.07979444444445,158.0385690132777L193.3873638888889,154.56292978922528L193.5411486111111,149.75125940640768L193.84871805555554,164.47342387835187L194.00250277777778,159.68572847048443L194.46385694444444,160.29074144363403L194.61764166666666,144.9082816839218L194.7714263888889,151.47090109189352L195.07899583333332,150.5565628608068L195.3865652777778,154.5404081741969L195.54035000000002,154.10874934991202L195.69413472222223,151.0100548664729L196.00170416666666,165.68823607762656L196.1554888888889,165.2117525736491L196.46305833333332,163.9795874754588L196.61684305555553,149.55387564500174L196.77062777777778,152.952268242836L197.07819722222223,160.71621529261273L197.23198194444444,164.30374137560528L197.38576666666665,151.24548824628195L197.5395513888889,163.9491215546926L197.6933361111111,153.29745761553448L197.84712083333332,147.8360807100932L198.30847500000002,152.4160112142563L198.46225972222223,156.04828548431396L198.76982916666665,158.66353563467663L198.9236138888889,159.08177546660107L199.0773986111111,153.3610229889552L199.23118333333335,159.6596663395564L199.53875277777777,156.2282835642497L199.69253750000001,148.97085976600647L199.84632222222223,162.23825466632843L200.11083194444444,144.0475647846858L200.5721861111111,137.92841684818268L200.72597083333332,157.96562782923382L200.87975555555556,148.64156993230185L201.64867916666668,157.38639287153882L201.9562486111111,153.641969482104L202.26381805555556,152.67364931106567L202.41760277777777,154.9183582464854L202.57138750000001,156.15072004000348L203.03274166666668,153.54900908470154L203.1865263888889,158.75661623477936L203.3403111111111,153.7414536078771L203.49409583333332,168.68521722157797L203.64788055555553,154.06615388393402L203.8016652777778,142.62362174193066L203.95545,152.82272251447043L204.10923472222223,153.62780741850537L204.41680416666668,161.95465278625488L204.5705888888889,157.90192039807638L204.87815833333332,154.76909927527112L205.03194305555553,158.07874949773154L205.1857277777778,152.66986838976544L205.3395125,164.60665218035382L205.80086666666668,153.36973222096762L205.9546513888889,150.22696705659231L206.26222083333332,156.65982218583426L206.41600555555556,150.7531816959381L206.5697902777778,151.9966021378835L206.723575,161.6574898560842L206.87735972222222,157.72092791398367L207.03114444444444,151.77857629458111L207.18492916666665,156.02309755484265L207.3387138888889,166.65194483598074L207.4924986111111,158.01222276687622L207.64628333333332,157.55138746897381L207.9538527777778,157.11404633522034L208.1076375,154.45648483435315L208.41520694444444,154.94231136639914L208.56899166666665,163.38236582279205L208.8765611111111,165.61386338869733L209.03034583333334,167.5506894985835L209.3379152777778,158.35922610759735L209.4917,149.76582578818005L209.64548472222222,152.49685299396515L209.79926944444443,162.2732664346695L210.06377916666668,150.75258068243664L210.2175638888889,163.85266435146332L210.52513333333332,151.56230978171033L210.67891805555556,153.44419233004254L210.83270277777777,152.26238123575848L211.14027222222222,161.64026808738708L211.29405694444446,159.3606675863266L211.6016263888889,156.22671000162762L211.7554111111111,159.5524127483368L211.9091958333333,149.33959794044495L212.06298055555555,154.42843389511108L212.2167652777778,153.37672583262128L212.37055,160.30820361773175L212.52433472222222,147.81210573514304L213.1394736111111,168.83311025301617L213.2932583333333,155.11582942803702L213.44704305555558,159.16683526833853L213.7546125,154.51229166984558L213.90839722222222,158.13354007403058L214.06218194444443,164.26111312707266L214.3697513888889,159.67189423243207L214.6773208333333,164.1678904692332L214.9848902777778,148.33523881435394L215.29245972222222,161.37919874986014L215.60002916666667,147.94874342282614L215.75381388888889,161.85303779443106L215.9075986111111,166.5121600230535L216.0613833333333,152.17845789591473L216.3689527777778,158.15949292977652L216.5227375,149.4459226926168L216.67652222222222,158.79261147975922L216.83030694444443,153.69851938883465L216.98409166666667,166.3438216050466L217.13787638888888,157.24361391862234L217.59923055555555,166.0407359600067L217.7530152777778,154.07743108272552L218.21436944444443,157.769402384758L218.36815416666667,160.04339706897736L218.52193888888888,161.2792010307312L218.82950833333334,161.09231861432394L218.98329305555555,161.49575165907544L219.44464722222222,157.5132285753886L219.59843194444443,154.18893547852835L219.75221666666667,157.78371743361157L220.1705111111111,160.147252202034L220.32429583333334,157.79017559687298L220.78565,149.06285854180655L220.93943472222222,156.3477322657903L221.09321944444446,169.71924455960593L221.40078888888888,154.12075869242352L221.86214305555558,159.97296921412152L222.0159277777778,164.23021010557812L222.47728194444446,163.2829472621282L222.63106666666667,163.50782465934753L222.78485138888888,153.9351766506831L223.3999902777778,162.30741492907208L223.70755972222221,150.7606998284658L223.86134444444446,161.6708869934082L224.01512916666667,154.02244381109875L224.16891388888888,166.9111346403758L224.3226986111111,164.2156000137329L224.4764833333333,159.73434499899548L224.63026805555558,157.26712993780774L225.0916222222222,159.34142422676086L225.24540694444445,150.878137866656L225.39919166666667,166.83316679795584L225.55297638888888,147.29610832532248L225.86054583333333,151.57438468933105L226.1681152777778,160.0503797531128L226.3219,159.56580988566083L226.78325416666667,167.02530535062155L226.93703888888888,150.14776440461478L227.24460833333333,159.55658706029257L227.39839305555557,154.74333218733472L227.55217777777779,157.96370458602905L227.7059625,154.63186057408652L227.8597472222222,164.14096506436667L228.01353194444442,152.87393979231518L228.47488611111112,160.8237092892329L228.62867083333333,151.00423049926758L229.2438097222222,152.2050664027532L229.39759444444442,159.30597535769147L229.5513791666667,155.11542510986328L229.7051638888889,157.10748982429504L229.9696736111111,156.83127494653067L230.27724305555554,158.08065088589987L230.43102777777779,164.9916614294052L230.73859722222224,159.32196231683096L230.89238194444445,163.69479449590048L231.19995138888888,154.24876364072165L231.50752083333333,158.2209274371465L231.66130555555557,165.93005112806958L231.81509027777778,164.0796944697698L231.968875,158.59182926019034L232.27644444444445,160.31925133864087L232.43022916666666,155.13608904679617L232.7377986111111,157.88065544764203L232.89158333333336,161.21581049760184L233.19915277777778,160.58109652996063L233.3529375,160.28376968701681L233.66050694444445,160.67912729581198L233.81429166666666,156.638196627299L233.96807638888887,158.44058148066205L234.1218611111111,148.8343859910965L234.58321527777778,153.61032338937125L234.737,162.6801853577296L234.8907847222222,157.84425588448843L235.04456944444445,162.86781084537506L235.19835416666666,159.45939771334332L235.35213888888887,164.21774180730185L235.81349305555557,164.55541304747265L235.96727777777778,154.03726152578992L236.1210625,159.90426790714264L236.2748472222222,156.91624732812247L236.42863194444445,151.37566777070364L236.58241666666666,153.98147654533386L236.7362013888889,163.80021226406097L236.8899861111111,171.70111389954886L237.04377083333333,163.3132929801941L237.35134027777778,158.7030167579651L238.1202638888889,160.3377625544866L238.42783333333333,156.2012925942739L239.3505416666667,162.8625109990438L239.5043263888889,162.1780112584432L239.92262083333333,162.78455408414206L240.07640555555557,158.2937484184901L240.383975,158.12984657287598L240.53775972222223,158.05269829432171L240.99911388888887,161.10248120625815L241.1528986111111,157.95411022504172L241.46046805555557,159.6026028394699L241.61425277777778,152.4052366813024L241.7680375,171.41497683525085L241.92182222222223,160.2684165239334L242.07560694444444,161.85364973545074L242.38317638888887,157.07142901420593L242.69074583333335,170.25874706109366L242.84453055555556,156.32214001814526L242.99831527777778,159.57920702298483L243.1521,160.70809614658356L243.30588472222223,148.01283331712088L243.45966944444444,165.28232248624167L243.61345416666666,149.5877509514491L244.22859305555556,161.6099442243576L244.38237777777778,155.73476405938467L244.5361625,162.00079969565076L244.68994722222223,161.72421328226727L244.84373194444444,162.78046719233197L245.3050861111111,159.93667892615002L245.45887083333335,155.48448018232983L245.61265555555556,149.4832292397817L246.22779444444444,162.602392355601L246.38157916666665,167.84067304929098L246.5353638888889,158.3534563779831L246.6891486111111,163.65228645006817L246.99671805555556,165.12414666016898L247.15050277777777,161.0620493888855L247.4580722222222,161.66328144073486L247.61185694444444,163.29920740922293L247.9194263888889,159.34370807806653L248.0732111111111,163.6015390555064L248.38078055555556,164.14157700538635L248.53456527777777,165.85319789250693L248.8421347222222,158.9455748796463L248.99591944444447,154.446639140447L249.14970416666668,158.66580855846405L249.3034888888889,156.99901235103607L249.4572736111111,167.8438092470169L249.61105833333335,159.65047629674277L249.87556805555556,159.53301640351614L250.64449166666665,157.35016814867657L251.10584583333335,155.38136812051138L251.25963055555556,164.52952575683594L251.5672,153.48099621136984L251.87476944444444,160.75368575255078L252.02855416666665,158.2371329466502L252.48990833333335,163.71667138735455L252.64369305555556,158.4463512102763L252.79747777777777,157.85033158461255L252.95126249999998,166.75639005502066L253.41261666666665,156.44887737433118L253.5664013888889,159.3799874385198L253.72018611111113,156.27544673283896L253.87397083333335,153.81982576847076L254.18154027777777,152.32431840896606L254.48910972222222,167.58527509371442L254.64289444444444,155.0377741654714L254.79667916666665,163.08112692832947L254.9504638888889,167.78006903330487L255.41181805555556,168.11277918020886L255.71938749999998,146.95134512583417L255.87317222222222,157.81828117370605L256.02695694444446,160.36038251717886L256.1807416666667,166.98632689317068L256.3345263888889,149.78619468212128L256.4883111111111,161.58595832188925L256.6420958333333,165.34883828957877L256.9496652777778,160.60164026419324L257.10345,169.6889862616857L257.2572347222222,166.82494930426282L257.41101944444443,155.71443887551627L257.56480416666665,165.70121796925864L257.71858888888886,168.43718441327414L257.8723736111111,163.00181500116986L258.02615833333334,163.09772582848868L258.17994305555555,157.9805985291799L258.33372777777777,151.75087503592175L258.4875125,163.35222772757214L258.9488666666667,169.01313018798828L259.1026513888889,167.00749349594116L259.41022083333337,158.65513237317404L259.5640055555556,159.9808916648229" style="fill: none;" fill="none"></path></g></g></g></g></g></g><g transform="translate(53, 176)" clip-path="url(#clip_1)"><clipPath id="clip_1"><rect width="276" height="24"></rect></clipPath><g><g><line x1="0" y1="0" x2="0" y2="5" style="visibility: inherit;" fill="rgb(0, 0, 0)" stroke="rgb(204, 204, 204)" stroke-width="1px"></line><line x1="30.756944444444443" y1="0" x2="30.756944444444443" y2="5" style="visibility: inherit;" fill="rgb(0, 0, 0)" stroke="rgb(204, 204, 204)" stroke-width="1px"></line><line x1="61.513888888888886" y1="0" x2="61.513888888888886" y2="5" style="visibility: inherit;" fill="rgb(0, 0, 0)" stroke="rgb(204, 204, 204)" stroke-width="1px"></line><line x1="92.27083333333333" y1="0" x2="92.27083333333333" y2="5" style="visibility: inherit;" fill="rgb(0, 0, 0)" stroke="rgb(204, 204, 204)" stroke-width="1px"></line><line x1="123.02777777777777" y1="0" x2="123.02777777777777" y2="5" style="visibility: inherit;" fill="rgb(0, 0, 0)" stroke="rgb(204, 204, 204)" stroke-width="1px"></line><line x1="153.78472222222223" y1="0" x2="153.78472222222223" y2="5" style="visibility: inherit;" fill="rgb(0, 0, 0)" stroke="rgb(204, 204, 204)" stroke-width="1px"></line><line x1="184.54166666666666" y1="0" x2="184.54166666666666" y2="5" style="visibility: inherit;" fill="rgb(0, 0, 0)" stroke="rgb(204, 204, 204)" stroke-width="1px"></line><line x1="215.29861111111111" y1="0" x2="215.29861111111111" y2="5" style="visibility: inherit;" fill="rgb(0, 0, 0)" stroke="rgb(204, 204, 204)" stroke-width="1px"></line><line x1="246.05555555555554" y1="0" x2="246.05555555555554" y2="5" style="visibility: inherit;" fill="rgb(0, 0, 0)" stroke="rgb(204, 204, 204)" stroke-width="1px"></line><line x1="276.8125" y1="0" x2="276.8125" y2="5" style="visibility: inherit;" fill="rgb(0, 0, 0)" stroke="rgb(204, 204, 204)" stroke-width="1px"></line></g><g transform="translate(0, 8)"><text x="0" y="0" dx="0em" dy="0.95em" style="text-anchor: middle; visibility: hidden; font-family: Roboto, sans-serif; font-size: 12px; font-weight: 200;" fill="rgb(33, 33, 33)" stroke="none" stroke-width="1px">-10k</text><text x="30.756944444444443" y="0" dx="0em" dy="0.95em" style="text-anchor: middle; visibility: inherit; font-family: Roboto, sans-serif; font-size: 12px; font-weight: 200;" fill="rgb(33, 33, 33)" stroke="none" stroke-width="1px">0</text><text x="61.513888888888886" y="0" dx="0em" dy="0.95em" style="text-anchor: middle; visibility: inherit; font-family: Roboto, sans-serif; font-size: 12px; font-weight: 200;" fill="rgb(33, 33, 33)" stroke="none" stroke-width="1px">10k</text><text x="92.27083333333333" y="0" dx="0em" dy="0.95em" style="text-anchor: middle; visibility: inherit; font-family: Roboto, sans-serif; font-size: 12px; font-weight: 200;" fill="rgb(33, 33, 33)" stroke="none" stroke-width="1px">20k</text><text x="123.02777777777777" y="0" dx="0em" dy="0.95em" style="text-anchor: middle; visibility: inherit; font-family: Roboto, sans-serif; font-size: 12px; font-weight: 200;" fill="rgb(33, 33, 33)" stroke="none" stroke-width="1px">30k</text><text x="153.78472222222223" y="0" dx="0em" dy="0.95em" style="text-anchor: middle; visibility: inherit; font-family: Roboto, sans-serif; font-size: 12px; font-weight: 200;" fill="rgb(33, 33, 33)" stroke="none" stroke-width="1px">40k</text><text x="184.54166666666666" y="0" dx="0em" dy="0.95em" style="text-anchor: middle; visibility: inherit; font-family: Roboto, sans-serif; font-size: 12px; font-weight: 200;" fill="rgb(33, 33, 33)" stroke="none" stroke-width="1px">50k</text><text x="215.29861111111111" y="0" dx="0em" dy="0.95em" style="text-anchor: middle; visibility: inherit; font-family: Roboto, sans-serif; font-size: 12px; font-weight: 200;" fill="rgb(33, 33, 33)" stroke="none" stroke-width="1px">60k</text><text x="246.05555555555554" y="0" dx="0em" dy="0.95em" style="text-anchor: middle; visibility: inherit; font-family: Roboto, sans-serif; font-size: 12px; font-weight: 200;" fill="rgb(33, 33, 33)" stroke="none" stroke-width="1px">70k</text><text x="276.8125" y="0" dx="0em" dy="0.95em" style="text-anchor: middle; visibility: hidden; font-family: Roboto, sans-serif; font-size: 12px; font-weight: 200;" fill="rgb(33, 33, 33)" stroke="none" stroke-width="1px">80k</text></g><line x1="0" y1="0" x2="276.8125" y2="0" fill="rgb(0, 0, 0)" stroke="rgb(204, 204, 204)" stroke-width="1px"></line></g></g></g></g></svg>