<svg viewBox="0 0 330 200" xmlns="http://www.w3.org/2000/svg"><g><g><g><g><g><line x1="53.1875" y1="176" x2="48.1875" y2="176" style="visibility: inherit;" fill="rgb(0, 0, 0)" stroke="rgb(204, 204, 204)" stroke-width="1px"></line><line x1="53.1875" y1="150.85714285714283" x2="48.1875" y2="150.85714285714283" style="visibility: inherit;" fill="rgb(0, 0, 0)" stroke="rgb(204, 204, 204)" stroke-width="1px"></line><line x1="53.1875" y1="125.71428571428574" x2="48.1875" y2="125.71428571428574" style="visibility: inherit;" fill="rgb(0, 0, 0)" stroke="rgb(204, 204, 204)" stroke-width="1px"></line><line x1="53.1875" y1="100.57142857142857" x2="48.1875" y2="100.57142857142857" style="visibility: inherit;" fill="rgb(0, 0, 0)" stroke="rgb(204, 204, 204)" stroke-width="1px"></line><line x1="53.1875" y1="75.42857142857146" x2="48.1875" y2="75.42857142857146" style="visibility: inherit;" fill="rgb(0, 0, 0)" stroke="rgb(204, 204, 204)" stroke-width="1px"></line><line x1="53.1875" y1="50.285714285714285" x2="48.1875" y2="50.285714285714285" style="visibility: inherit;" fill="rgb(0, 0, 0)" stroke="rgb(204, 204, 204)" stroke-width="1px"></line><line x1="53.1875" y1="25.14285714285711" x2="48.1875" y2="25.14285714285711" style="visibility: inherit;" fill="rgb(0, 0, 0)" stroke="rgb(204, 204, 204)" stroke-width="1px"></line><line x1="53.1875" y1="0" x2="48.1875" y2="0" style="visibility: inherit;" fill="rgb(0, 0, 0)" stroke="rgb(204, 204, 204)" stroke-width="1px"></line></g><g transform="translate(43.1875, 0)"><text x="0" y="176" dx="0em" dy="0.3em" style="text-anchor: end; visibility: hidden; font-family: Roboto, sans-serif; font-size: 12px; font-weight: 200;" fill="rgb(33, 33, 33)" stroke="none" stroke-width="1px">0.5</text><text x="0" y="150.85714285714283" dx="0em" dy="0.3em" style="text-anchor: end; visibility: inherit; font-family: Roboto, sans-serif; font-size: 12px; font-weight: 200;" fill="rgb(33, 33, 33)" stroke="none" stroke-width="1px">0.55</text><text x="0" y="125.71428571428574" dx="0em" dy="0.3em" style="text-anchor: end; visibility: inherit; font-family: Roboto, sans-serif; font-size: 12px; font-weight: 200;" fill="rgb(33, 33, 33)" stroke="none" stroke-width="1px">0.6</text><text x="0" y="100.57142857142857" dx="0em" dy="0.3em" style="text-anchor: end; visibility: inherit; font-family: Roboto, sans-serif; font-size: 12px; font-weight: 200;" fill="rgb(33, 33, 33)" stroke="none" stroke-width="1px">0.65</text><text x="0" y="75.42857142857146" dx="0em" dy="0.3em" style="text-anchor: end; visibility: inherit; font-family: Roboto, sans-serif; font-size: 12px; font-weight: 200;" fill="rgb(33, 33, 33)" stroke="none" stroke-width="1px">0.7</text><text x="0" y="50.285714285714285" dx="0em" dy="0.3em" style="text-anchor: end; visibility: inherit; font-family: Roboto, sans-serif; font-size: 12px; font-weight: 200;" fill="rgb(33, 33, 33)" stroke="none" stroke-width="1px">0.75</text><text x="0" y="25.14285714285711" dx="0em" dy="0.3em" style="text-anchor: end; visibility: inherit; font-family: Roboto, sans-serif; font-size: 12px; font-weight: 200;" fill="rgb(33, 33, 33)" stroke="none" stroke-width="1px">0.8</text><text x="0" y="0" dx="0em" dy="0.3em" style="text-anchor: end; visibility: hidden; font-family: Roboto, sans-serif; font-size: 12px; font-weight: 200;" fill="rgb(33, 33, 33)" stroke="none" stroke-width="1px">0.85</text></g><line x1="53.1875" y1="0" x2="53.1875" y2="176" fill="rgb(0, 0, 0)" stroke="rgb(204, 204, 204)" stroke-width="1px"></line></g></g><g transform="translate(53, 0)" clip-path="url(#clip_0)"><clipPath id="clip_0"><rect width="276" height="176"></rect></clipPath><g><g><g><line x1="0" y1="0" x2="0" y2="176" fill="rgb(0, 0, 0)" stroke="rgb(66, 66, 66)" stroke-width="1px" opacity="0.25"></line><line x1="30.756944444444443" y1="0" x2="30.756944444444443" y2="176" fill="rgb(0, 0, 0)" stroke="rgb(66, 66, 66)" stroke-width="1px" opacity="0.25"></line><line x1="61.513888888888886" y1="0" x2="61.513888888888886" y2="176" fill="rgb(0, 0, 0)" stroke="rgb(66, 66, 66)" stroke-width="1px" opacity="0.25"></line><line x1="92.27083333333333" y1="0" x2="92.27083333333333" y2="176" fill="rgb(0, 0, 0)" stroke="rgb(66, 66, 66)" stroke-width="1px" opacity="0.25"></line><line x1="123.02777777777777" y1="0" x2="123.02777777777777" y2="176" fill="rgb(0, 0, 0)" stroke="rgb(66, 66, 66)" stroke-width="1px" opacity="0.25"></line><line x1="153.78472222222223" y1="0" x2="153.78472222222223" y2="176" fill="rgb(0, 0, 0)" stroke="rgb(66, 66, 66)" stroke-width="1px" opacity="0.25"></line><line x1="184.54166666666666" y1="0" x2="184.54166666666666" y2="176" fill="rgb(0, 0, 0)" stroke="rgb(66, 66, 66)" stroke-width="1px" opacity="0.25"></line><line x1="215.29861111111111" y1="0" x2="215.29861111111111" y2="176" fill="rgb(0, 0, 0)" stroke="rgb(66, 66, 66)" stroke-width="1px" opacity="0.25"></line><line x1="246.05555555555554" y1="0" x2="246.05555555555554" y2="176" fill="rgb(0, 0, 0)" stroke="rgb(66, 66, 66)" stroke-width="1px" opacity="0.25"></line><line x1="276.8125" y1="0" x2="276.8125" y2="176" fill="rgb(0, 0, 0)" stroke="rgb(66, 66, 66)" stroke-width="1px" opacity="0.25"></line></g><g><line x1="0" y1="176" x2="276.8125" y2="176" fill="rgb(0, 0, 0)" stroke="rgb(66, 66, 66)" stroke-width="1px" opacity="0.25"></line><line x1="0" y1="150.85714285714283" x2="276.8125" y2="150.85714285714283" fill="rgb(0, 0, 0)" stroke="rgb(66, 66, 66)" stroke-width="1px" opacity="0.25"></line><line x1="0" y1="125.71428571428574" x2="276.8125" y2="125.71428571428574" fill="rgb(0, 0, 0)" stroke="rgb(66, 66, 66)" stroke-width="1px" opacity="0.25"></line><line x1="0" y1="100.57142857142857" x2="276.8125" y2="100.57142857142857" fill="rgb(0, 0, 0)" stroke="rgb(66, 66, 66)" stroke-width="1px" opacity="0.25"></line><line x1="0" y1="75.42857142857146" x2="276.8125" y2="75.42857142857146" fill="rgb(0, 0, 0)" stroke="rgb(66, 66, 66)" stroke-width="1px" opacity="0.25"></line><line x1="0" y1="50.285714285714285" x2="276.8125" y2="50.285714285714285" fill="rgb(0, 0, 0)" stroke="rgb(66, 66, 66)" stroke-width="1px" opacity="0.25"></line><line x1="0" y1="25.14285714285711" x2="276.8125" y2="25.14285714285711" fill="rgb(0, 0, 0)" stroke="rgb(66, 66, 66)" stroke-width="1px" opacity="0.25"></line><line x1="0" y1="0" x2="276.8125" y2="0" fill="rgb(0, 0, 0)" stroke="rgb(66, 66, 66)" stroke-width="1px" opacity="0.25"></line></g></g></g><g><g><line x1="0" y1="427.42857142857144" x2="276.8125" y2="427.42857142857144" fill="rgb(0, 0, 0)" stroke="rgb(153, 153, 153)" stroke-width="1.5px"></line></g></g><g><g><line x1="30.756944444444443" y1="0" x2="30.756944444444443" y2="176" fill="rgb(0, 0, 0)" stroke="rgb(153, 153, 153)" stroke-width="1.5px"></line></g></g><g><g><g><g><g><path stroke="rgb(255, 112, 67)" stroke-width="2px" d="M38.44618055555556,-15.081425013285777L38.599965277777784,5.780564960704595L38.753750000000004,-2.885682404212421L38.907534722222216,-1.1781315551152503L39.06131944444444,1.3344316945130785L39.21510416666666,3.4534590409283794L39.36888888888889,6.378165237438511L39.676458333333336,-2.9595785764577336L40.137812499999995,3.207508099890399L40.29159722222222,9.391267525427114L40.44538194444444,22.597556989382944L40.59916666666667,22.551298911784627L41.01746111111111,19.452944916520032L41.17124583333333,16.243785817567975L41.32503055555556,12.254435595946187L41.47881527777778,16.107923024402453L41.78638472222222,12.957816950954507L41.94016944444445,16.978570044816312L42.24773888888889,13.170264280222241L42.555308333333336,19.474666807964383L42.86287777777778,35.364161264803826L43.0166625,33.07926968193209L43.170447222222215,32.9942680905485L43.32423194444444,26.724715499965498L43.63180138888889,24.531942773051775L43.78558611111111,14.985593494112425L44.093155555555555,34.21321627365104L44.24694027777778,28.261364822782998L44.400724999999994,30.964842400924596L44.70829444444444,24.137371234708738L44.86207916666667,11.610537277655009L45.63100277777777,17.096679945415733L45.7847875,18.615437035678596L46.24614166666667,31.63365213142401L46.39992638888889,32.63440597437619L46.86128055555555,40.71158862682721L47.01506527777777,29.84629805088699L47.32263472222222,31.939756456787833L47.476419444444446,36.89128786891091L47.630204166666665,44.32890658888285L47.78398888888889,53.4636340185501L47.93777361111111,52.37630619586781L48.09155833333333,54.14386298474999L48.24534305555555,54.476206227303635L48.5529125,48.45812756241461L48.706697222222225,48.9412167386904L48.860481944444444,42.08999729000554L49.01426666666667,41.037492069943625L49.47562083333333,46.016731779354586L49.62940555555556,49.27775779145486L50.24454444444445,47.63106485728084L50.39832916666666,40.52042183847567L50.81662361111111,41.027439739873905L50.97040833333334,52.74645957146338L51.12419305555556,49.31049694125972L51.27797777777778,44.13512367396342L51.4317625,55.111816522667674L51.739331944444444,58.613265843078835L52.04690138888889,56.0127379482301L52.20068611111111,53.253396465924666L52.35447083333333,43.81987235221107L52.50825555555555,50.58506393169495L52.66204027777778,47.16235318707222L52.815825,48.31465826757256L53.12339444444444,47.858149862538504L53.27717916666667,58.42824331979708L53.43096388888889,51.27633751496694L53.58474861111111,52.42426568734231L53.73853333333333,60.518046438075004L54.1998875,59.316116777116804L54.81502638888889,50.395217072059694L55.122595833333335,55.15566749211974L55.276380555555555,50.81850861469146L55.58395,47.572389392098934L55.73773472222223,55.18916117432186L56.04530416666666,58.539230652347044L56.19908888888889,59.29864672881055L56.35287361111111,63.971216409914675L56.660443055555554,64.09873064812514L56.9680125,65.98129344258597L57.27558194444444,59.3690229091621L57.42936666666667,58.022442623845464L57.583151388888886,55.06290383288704L57.89072083333333,57.934423513111106L58.04450555555556,60.332858261745024L58.19829027777778,69.74799332967537L58.352075,65.68064588619804L58.50585972222222,75.07927899377239L58.813429166666666,72.86738245973996L58.96721388888889,72.45033321468325L59.12099861111111,72.04871795161972L59.27478333333334,71.67006656024358L59.42856805555556,71.38981219653958L59.58235277777777,76.77240922082555L59.7361375,75.5120447756594L60.197491666666664,74.83820286114066L60.35127638888889,74.33045620154766L60.50506111111111,78.20373985513619L60.76957083333333,77.61202139634067L61.230925,74.66797926498072L61.692279166666665,89.79935061702419L61.846063888888885,80.42168059552141L61.99984861111111,76.82760596124703L62.30741805555556,77.9670105720747L62.46120277777778,78.77637050165718L62.614987500000005,65.1798178803051L62.76877222222222,66.7155236104375L63.076341666666664,69.00130077340536L63.23012638888889,71.11340253435573L63.38391111111111,81.68804971676296L63.69148055555556,86.87259785286747L63.99905,79.62510050336392L64.30661944444444,84.8849133380814L64.46040416666666,78.20461394871943L64.76797361111112,71.62279321925955L64.92175833333333,78.21730168141622L65.07554305555556,79.84166924301543L65.22932777777777,86.66771277104644L65.3831125,79.12015041130252L65.69068194444445,72.61053062415317L65.84446666666666,72.48522946370787L65.99825138888889,69.1503823245696L66.45960555555556,80.20096809451859L66.767175,85.67625865212133L66.92095972222222,81.8874507479134L67.22852916666668,74.48781669247012L67.38231388888889,76.64313993177673L67.53609861111111,77.67287453349407L67.68988333333333,87.36319999213887L67.84366805555555,87.7846133285004L67.99745277777778,89.05993534677938L68.30502222222222,82.49244662938459L68.45880694444445,82.70599087453367L68.76637638888889,70.89702940892779L68.92016111111111,73.81342036926851L69.07394583333333,75.53432537132396L69.22773055555557,75.75614493156951L69.38151527777778,83.14239523705277L69.53529999999999,74.65565787151459L69.99665416666667,87.64403581003208L70.15043888888889,93.33939869374801L70.30422361111111,94.13763274652224L70.45800833333334,90.19111563249763L70.87630277777778,96.4939610229138L71.0300875,89.84650282573207L71.18387222222223,90.32364876575171L71.33765694444445,92.53759550073168L71.64522638888889,86.50407629109198L71.79901111111111,79.76001435201285L72.56793472222222,77.21696790947777L72.87550416666666,84.34067508685578L73.0292888888889,91.37015059654706L73.49064305555555,96.62585971479206L73.64442777777776,85.93804852628031L73.7982125,99.09573316850255L74.10578194444444,98.02887784578627L74.25956666666666,90.69791643787076L74.4133513888889,85.49295618770847L74.56713611111111,86.49241438122161L74.72092083333334,85.50121448915432L74.87470555555555,71.91597680140275L75.02849027777778,85.20248786655591L75.182275,85.75902410944246L75.48984444444444,90.43457597340824L75.64362916666667,100.99863184939095L75.95119861111111,97.72076942422723L76.10498333333332,95.01684537384438L76.72012222222222,93.68076544487026L76.87390694444446,98.5756779384484L77.02769166666667,88.40999808910139L77.1814763888889,90.48644990326554L77.33526111111111,89.02152518051962L77.48904583333332,96.66963725884186L78.10418472222221,94.98830404894348L78.25796944444446,96.88076994854856L78.41175416666667,94.88883423998568L78.56553888888888,87.62744204092223L78.71932361111111,88.04285948550475L78.87310833333333,84.65283426517281L79.18067777777777,82.483282939126L79.3344625,89.14514576270834L79.48824722222223,84.612187293702L79.64203194444444,88.57406482634676L79.79581666666667,81.90008312188229L79.94960138888888,87.44890367649154L80.25717083333333,89.07492387093397L80.41095555555556,85.59641262682935L80.67546527777777,81.55347244530797L80.82925,83.32253255514519L80.98303472222223,89.67074339260161L81.29060416666667,92.2144895797853L81.75195833333333,92.74179777793537L82.05952777777777,96.43278814813678L82.2133125,92.8546817389797L82.36709722222223,97.82949256738333L82.52088194444444,97.26558472674415L82.67466666666667,100.28750657160731L83.28980555555555,96.98655118417535L83.44359027777779,100.89437516851302L83.75115972222223,89.60156280165192L84.05872916666667,94.32345686346883L84.21251388888889,98.17364826707687L84.3662986111111,94.95082919287728L84.52008333333333,95.28068210347749L84.67386805555556,87.76946778608198L84.82765277777779,94.84433992981049L84.9814375,100.43939792935676L85.13522222222223,93.01731895955326L85.28900694444445,100.65586627284416L85.59657638888889,90.04373883632091L85.7503611111111,85.88653557299789L85.90414583333333,98.48189387797844L86.05793055555556,101.52212691865368L86.3655,88.25263009406329L86.51928472222221,96.98133007931743L86.82685416666666,98.38085562990072L86.98063888888889,91.62833811984892L87.1344236111111,86.94289468273521L87.28820833333334,85.65387811474717L87.44199305555556,97.86455979644319L87.59577777777777,100.40092429339326L87.7495625,101.36725440513749L87.90334722222222,102.09922946541788L88.05713194444445,93.08964152620945L88.21091666666666,84.39516086613024L88.82605555555556,87.40485404444098L88.97984027777777,85.76295528206359L89.13362500000001,101.13316815389219L89.44119444444445,101.00218351998598L89.59497916666666,106.75734387315228L90.21011805555555,105.35524708316869L90.62841250000001,106.3409641504313L90.78219722222222,102.4280009494524L90.93598194444444,97.14099987561445L91.39733611111112,100.65878423410193L91.55112083333333,109.38806904597178L91.70490555555556,101.303696922491L91.85869027777778,91.92650046725018L92.012475,95.44211984996505L92.16625972222222,97.86206778225863L92.32004444444443,98.92953576561632L92.47382916666668,100.5802137863787L92.62761388888889,102.10866511962297L92.78139861111111,94.14379317054613L92.93518333333333,96.7579647451011L93.08896805555557,98.58019192427888L93.24275277777778,97.84469478800762L93.3965375,96.44450041423875L93.70410694444443,89.8881732884428L94.01167638888889,99.34476550173474L94.16546111111111,96.75377048616922L94.31924583333333,104.2231025278204L94.47303055555555,104.419288283224L94.93438472222222,98.86893725390483L95.08816944444445,102.94833030016657L95.24195416666667,100.07618550571378L95.39573888888889,106.33525510923181L95.85709305555555,101.80742726161887L96.01087777777778,107.50825352842784L96.31844722222223,102.6845639770595L96.47223194444445,111.78695189593152L96.93358611111111,103.81533912374752L97.08737083333334,101.9750834268155L97.24115555555555,100.08942387898274L97.548725,108.34892998831313L97.70250972222223,103.39773515537625L97.85629444444444,107.80000736519841L98.31764861111111,115.36538083164696L98.47143333333334,114.71756703484196L98.62521805555555,117.20494360225287L98.77900277777778,111.64465587605596L98.9327875,102.6537645688116L99.08657222222223,99.55928079241703L99.24035694444444,103.08389894594406L99.39414166666666,97.05725465076955L99.70171111111111,101.81031932575748L99.85549583333334,98.29815535801028L100.00928055555555,96.54405434761865L100.16306527777779,105.70459662747466L100.88892916666667,99.87177465652101L101.0427138888889,99.13095336987527L101.19649861111111,103.37607285025945L101.35028333333332,101.7270015243995L101.50406805555556,109.62791778998849L101.8116375,113.31659638583736L102.11920694444446,116.84061417741478L102.42677638888888,115.38485404111684L102.58056111111111,106.75186993548205L102.73434583333332,101.78929705371388L103.04191527777778,109.99801518291191L103.1957,108.24343975985875L103.34948472222221,110.11728120210661L103.65705416666667,114.51492002567245L103.96462361111111,106.54431033536723L104.11840833333333,104.98647106275767L104.42597777777777,110.18936907913064L104.5797625,114.29700331829312L104.73354722222223,115.04211451887768L105.19490138888888,106.6200188159583L105.34868611111112,112.04541761804876L105.50247083333333,113.37139119582928L105.65625555555556,112.13516730678332L105.81004027777777,114.15284437646673L105.96382499999999,111.60328935467469L106.11760972222223,103.45774758218263L106.42517916666667,96.16434036536708L106.57896388888888,87.84695627000148L106.73274861111112,101.80359852309182L106.88653333333333,105.16461499415644L107.04031805555556,103.70995172703235L107.19410277777777,107.24553890731316L107.65545694444444,111.22088967216416L107.80924166666667,109.23456932575941L108.11681111111112,111.31740589337699L108.27059583333333,106.27435597673488L108.42438055555554,114.48183291151526L108.73195,116.32184859596047L108.88573472222222,109.51510012437318L109.03951944444444,113.40689746824837L109.5008736111111,112.02175013168842L109.65465833333333,114.38248214688417L109.80844305555556,120.6089036558063L109.96222777777778,122.90930777837498L110.1160125,117.21488463737937L110.26979722222222,117.08680279170497L110.53430694444445,119.95536318660224L110.68809166666666,120.5936965147794L110.84187638888889,119.08596361024875L111.14944583333335,122.8110748004963L111.30323055555556,120.57361496435192L111.45701527777778,119.86033631957095L111.6108,123.72274606838876L111.76458472222221,120.77075331032734L111.91836944444445,119.02385945689954L112.22593888888889,121.98128824319664L112.68729305555556,117.34924156512838L113.30243194444445,124.6307555278047L113.61000138888889,118.26227202483012L113.76378611111112,124.74259205313751L113.91757083333333,115.38129087990151L114.07135555555556,112.74850043649283L114.22514027777777,112.38181815740354L114.37892500000001,106.99642313495548L114.53270972222222,112.81383659058542L114.68649444444445,111.52411912790036L114.84027916666666,121.46564465963644L114.9940638888889,120.68905803427234L115.14784861111112,118.57268164673528L115.30163333333333,126.71386328666006L115.45541805555555,120.1546178028414L115.76298750000001,116.19954035246383L115.91677222222222,117.40330662637784L116.37812638888889,123.71043686540537L116.68569583333333,121.52247837552115L116.83948055555555,123.33261064766202L116.99326527777778,124.47563799155478L117.14705000000001,129.71997839342617L117.30083472222222,118.83736968288888L117.60840416666667,118.63820192622326L118.22354305555557,121.07621709776797L118.37732777777778,125.56277214621659L118.5311125,134.84197999915577L118.83868194444443,123.23798611263521L118.99246666666667,117.82560591144274L119.14625138888889,115.1416390944382L119.30003611111111,115.8564030908008L119.60760555555557,119.91851867332814L119.91517499999999,116.7441579918038L120.48725416666667,118.01485308016875L121.10239305555555,124.44427757947682L121.71753194444445,130.87595702445788L121.87131666666666,127.01393350248165L122.02510138888888,124.94109216587232L122.33267083333334,124.61077302762048L122.48645555555555,126.63872006831613L122.64024027777778,125.64988700925137L122.794025,130.90389792123165L122.94780972222223,113.66686529431266L123.25537916666666,106.5952102061635L123.4091638888889,110.58394584328515L123.56294861111111,107.11599315991921L123.71673333333334,109.49296560333158L123.87051805555555,116.68821928596658L124.02430277777779,120.26046793109447L124.33187222222222,117.23681294162265L124.48565694444444,118.71386554468897L124.63944166666666,118.13942336559688L124.94701111111111,121.423267579626L125.25458055555555,122.33655964271144L125.40836527777779,115.93201369264415L125.56215,122.44258485481637L125.71593472222222,118.26456824687418L126.1772888888889,118.21490179319983L126.33107361111111,119.73116166569389L126.63864305555556,122.9528737223516L126.79242777777777,129.63490695523012L126.9462125,120.33742196506053L127.25378194444446,117.8457153337517L127.5613513888889,126.30572588342628L127.71513611111111,124.583893729693L128.02270555555555,126.30273666331803L128.17649027777776,116.71663694079217L128.330275,120.87218732107405L128.4840597222222,121.98308433914276L128.63784444444445,123.40566394053926L129.09919861111112,124.5847023804368L129.25298333333333,126.05104420658235L129.40676805555555,118.6977418716754L129.5605527777778,123.42640290934733L129.8681222222222,120.55082988734944L130.44020138888888,117.52738383154468L130.59398611111112,115.7248976189603L130.74777083333333,125.75702610450956L130.90155555555557,124.85496552319677L131.0553402777778,128.33919609335447L131.209125,127.61883006881959L131.67047916666667,119.03650320660984L131.82426388888888,127.75581065896867L132.13183333333333,131.99973731090853L132.28561805555555,128.79619357411488L132.4394027777778,127.22587397266368L132.5931875,131.54098790201337L132.7469722222222,135.24187266587322L133.20832638888888,133.20419320576002L133.36211111111112,125.91564249293148L133.51589583333333,125.03122928063613L133.66968055555554,126.81151841729354L134.59238888888888,132.60548710018085L134.89995833333333,128.8003676298071L135.05374305555554,133.27471934846187L135.51509722222224,129.38913994996722L135.82266666666666,124.14868564757515L135.9764513888889,127.52816991079676L136.13023611111112,127.43510568182963L136.28402083333333,123.35841600919542L136.43780555555554,124.90241750800048L136.59159027777778,126.51284158320432L136.89915972222224,128.5348636326095L137.05294444444445,121.68691636594967L137.20672916666666,129.78051769589516L137.3605138888889,123.81171860267938L137.66808333333333,123.8491296374726L137.82186805555554,126.33694425674418L137.97565277777778,133.9435802154583L138.1294375,125.40271647121136L138.43700694444442,128.52901347996453L138.5907916666667,127.14203206781966L138.7445763888889,124.56730694821128L138.89836111111111,124.50801090406908L139.05214583333333,116.31708681587895L139.20593055555557,121.27800756525282L139.5135,118.39286240919914L139.9748541666667,118.08848408195917L140.1286388888889,119.796913691363L140.54693333333336,134.20158179112917L141.16207222222224,134.19320510843866L141.31585694444445,140.31430715930148L141.62342638888887,136.48864576670252L141.7772111111111,134.3775805525857L142.08478055555557,138.44490509075902L142.39235,138.0180828859984L142.69991944444445,143.92350929493608L142.85370416666666,147.89153713039354L143.00748888888887,148.5968723078818L143.31505833333335,140.02141727772573L143.46884305555557,137.62242765458188L143.62262777777778,135.97410073163024L143.7764125,136.12995081286212L143.9301972222222,133.3254440682139L144.08398194444445,130.46741762501034L144.23776666666666,134.32838453496714L144.3915513888889,143.1650408876935L144.5453361111111,142.83917149655306L144.69912083333335,135.0884871595808L144.85290555555557,141.42615944313965L145.160475,143.46908220152832L145.62182916666666,144.766482410691L145.7756138888889,142.99762138000833L145.9293986111111,136.02023682075057L146.23696805555556,142.8945785722913L146.39075277777778,138.40085607369008L146.5445375,135.86594721180614L146.6983222222222,137.563929550577L146.85210694444444,136.74500162508673L147.62103055555556,142.80726643438518L147.77481527777778,136.34265301248658L148.23616944444447,143.12053059794954L148.38995416666668,142.2978354137362L148.6975236111111,147.8335827528455L148.85130833333332,146.75333590484627L149.4664472222222,147.30716184738603L149.62023194444447,148.12561333157618L149.77401666666668,147.65247698157685L150.0815861111111,142.10415599747012L150.34609583333335,143.76733128856299L150.49988055555556,144.88336455857305L150.65366527777778,140.78606688316282L150.80745,151.4891818517866L150.96123472222223,150.20175692252568L151.11501944444444,149.1297795650667L151.42258888888887,149.83988098366896L151.57637361111114,148.44076505085985L151.73015833333335,142.20756641751365L151.88394305555556,143.05950078800817L152.03772777777777,148.2954375420711L152.1915125,153.27025699720141L152.34529722222223,150.38173776416903L152.49908194444444,144.9581213328178L152.65286666666665,145.59359446193957L153.11422083333335,146.2382537579394L153.42179027777777,149.78530258784122L153.575575,143.6150481734497L153.88314444444444,141.5626845175603L154.1907138888889,142.5872695676093L154.3444986111111,139.75519311786746L154.49828333333335,140.27440079154917L154.65206805555556,137.2404533324211L154.80585277777777,142.28514593569707L155.11342222222223,148.39915348810626L155.26720694444444,146.4577503238906L155.88234583333335,147.2440061862428L156.03613055555556,150.97825556198285L156.18991527777777,149.10207763092572L156.34369999999998,151.5548381051319L156.4974847222222,149.76795491734808L156.80505416666668,143.3258462361929L156.9588388888889,144.94079909739372L157.26640833333335,145.4484322259446L157.42019305555556,143.4771549950952L157.8815472222222,146.94912476672786L158.03533194444447,152.67062319290503L158.18911666666668,146.42102277176977L158.3429013888889,142.25256897660816L158.4966861111111,139.87394085234322L158.65047083333334,141.32537050157057L158.80425555555556,148.58617536490723L158.95804027777777,146.5223669272312L159.11182499999998,137.22727339294585L159.26560972222222,138.13988925200633L159.41939444444446,138.75843393485337L159.57317916666668,144.79794693143384L159.8807486111111,141.56363122212758L160.29904305555556,143.43455215508175L160.45282777777777,154.36346305225663L160.76039722222222,154.31991520753982L160.91418194444444,150.51761985729456L161.06796666666665,145.26589592386335L161.37553611111113,143.5476367887628L161.52932083333334,138.53825941526378L161.83689027777777,144.13007561811756L161.990675,147.97195667806918L162.29824444444444,144.36833069280692L162.6058138888889,145.40147632095758L163.06716805555556,147.5043490581298L163.22095277777777,149.10583034726625L163.68230694444443,153.2287347631868L163.9898763888889,155.36970938121007L164.14366111111113,162.9325632385893L164.29744583333334,157.27562790025456L164.60501527777777,152.92023274078048L164.75879999999998,154.69316507868984L164.91258472222222,149.33367183076584L165.3739388888889,141.5283043383451L165.52772361111113,141.454537316665L165.83529305555555,142.68577998974789L166.14286249999998,139.80419260322373L166.29664722222225,140.47231854916916L166.75800138888889,144.37791671195126L167.06557083333334,149.00626837259486L167.21935555555555,153.2396130743382L167.37314027777776,141.4682806532664L167.68070972222225,141.36297784368972L167.83449444444446,148.42370079487173L167.98827916666667,145.15243650649896L168.14206388888888,143.18735205805672L168.2958486111111,144.1148731314579L168.44963333333334,143.8540683578089L168.60341805555555,144.75579886380643L168.75720277777776,145.67004425969006L168.91098749999998,145.67201077386645L169.06477222222225,145.10930976196215L169.21855694444446,147.7025199740858L169.52612638888888,152.17110152302567L169.6799111111111,154.59274749654418L169.98748055555555,149.35208142900908L170.405775,146.63722541990543L170.55955972222222,150.0355956192005L171.0209138888889,148.15359941079208L171.17469861111113,150.56916770311585L171.48226805555555,142.50323245083155L171.63605277777776,146.95599918032036L171.7898375,146.82684963026253L171.94362222222222,151.9161962300967L172.09740694444443,152.77004157315847L172.4049763888889,150.3083214178069L172.55876111111112,145.75407222254515L172.86633055555555,143.69702166779047L173.02011527777776,146.56655872995717L173.32768472222222,144.36683103352394L173.48146944444446,135.45156049929966L173.63525416666667,138.92030741948773L173.78903888888888,141.0415630266089L173.94282361111112,149.9785554568694L174.09660833333334,148.3848248373192L174.25039305555555,156.9008100199278L174.40417777777776,155.97944213639863L175.01931666666667,155.64870654160478L175.17310138888888,150.59448471946624L175.32688611111112,150.17810588818088L175.48067083333333,142.98293884157204L175.63445555555555,146.2198144000883L175.78824027777776,146.88521396615508L175.942025,144.1521589147098L176.09580972222224,144.8382732366607L176.24959444444445,145.87725680611473L176.86473333333333,147.30915241479326L177.01851805555555,151.53652904653225L177.17230277777776,154.02890726120617L177.32608749999997,154.46904614766956L177.78744166666667,153.6178122711213L177.94122638888888,152.18889066205895L178.09501111111112,151.7220449859631L178.40258055555555,143.47431564078263L178.55636527777776,145.30789478695286L178.86393472222224,141.41107877367838L179.17150416666667,139.37300311660655L179.32528888888888,139.1443375842496L179.47907361111112,141.29516425709272L179.94042777777778,139.51425784729415L180.2049375,145.2740885916075L180.3587222222222,145.8095866911671L180.51250694444443,147.19827054322988L180.66629166666667,157.5486873189625L180.8200763888889,151.42998731987916L180.97386111111112,146.61107968092026L181.28143055555554,147.55009224040205L181.4352152777778,143.9303648796765L181.89656944444445,150.08600169496552L182.05035416666666,147.8922094502941L182.66549305555554,151.3383678367501L182.9730625,147.69730955528667L183.12684722222224,135.25603156359887L183.28063194444445,142.20460683575976L183.43441666666666,143.60560057955294L183.5882013888889,140.5889842142217L183.74198611111112,141.06077011488904L184.20334027777776,150.4533725129206L184.357125,153.06732205685947L184.51090972222224,147.345331196239L184.66469444444445,148.6476070429387L184.81847916666666,143.95549232634914L185.12604861111112,148.00348621786583L185.43361805555554,149.3298535715398L185.58740277777775,148.0167403987135L185.74118750000002,151.38201079196244L186.04875694444445,151.26362158399442L186.20254166666666,147.82987574406295L186.3563263888889,145.04521395962135L186.51011111111112,148.3488529677092L186.66389583333333,148.49984108621985L186.81768055555554,149.07295719428217L186.97146527777775,149.65073319631256L187.12525000000002,148.02555998265922L187.27903472222224,143.82103798108548L187.43281944444445,142.9136332692595L188.04795833333333,146.0664811351746L188.35552777777778,146.0800574433118L188.50931250000002,145.67777014016403L188.66309722222223,140.403982640739L188.81688194444445,146.21629443935413L188.97066666666666,147.6871954868547L189.43202083333333,153.20615295931427L189.73959027777778,148.34822572857405L190.4654541666667,152.48376126896642L190.7730236111111,157.31113558043677L190.92680833333333,156.79782680375868L191.23437777777778,156.8089420539349L191.8495166666667,159.89751602407415L192.0033013888889,163.21523058786804L192.1570861111111,156.04473959260642L192.31087083333333,159.13094793385625L192.46465555555554,148.03483619892984L193.07979444444445,153.03748998491315L193.3873638888889,147.876326562795L193.5411486111111,147.5715662013489L193.84871805555554,154.0707942042775L194.00250277777778,152.13656788347612L194.46385694444444,155.96748062963923L194.61764166666666,150.25003052691855L194.7714263888889,146.86879948767734L195.07899583333332,144.04941907946466L195.3865652777778,144.25316349776253L195.54035000000002,146.43104042392258L195.69413472222223,144.54588621724417L196.00170416666666,157.38985211260098L196.1554888888889,158.33039193685468L196.46305833333332,159.17762141002015L196.61684305555553,156.54985178539545L196.77062777777778,151.1966876738461L197.07819722222223,153.16876987621058L197.23198194444444,156.80548207081563L197.38576666666665,155.94350195000888L197.5395513888889,158.91676950496625L197.6933361111111,150.4102059639312L197.84712083333332,145.73950409768065L198.30847500000002,141.11110292770718L198.46225972222223,151.33352380845187L198.76982916666665,155.42373074886854L198.9236138888889,156.09698965258562L199.0773986111111,144.58880619215125L199.23118333333335,145.7455481631842L199.53875277777777,147.79048336917168L199.69253750000001,142.25325926850357L199.84632222222223,150.85772621714284L200.11083194444444,144.12451274444584L200.5721861111111,136.289978860744L200.72597083333332,148.66433722227788L200.87975555555556,140.54480311287284L201.64867916666668,149.68782481729124L201.9562486111111,151.24823152018777L202.26381805555556,150.76137547914672L202.41760277777777,148.75274181755222L202.57138750000001,148.73173193483933L203.03274166666668,152.01037160196108L203.1865263888889,155.69660512844783L203.3403111111111,151.87699061264345L203.49409583333332,156.34705727390582L203.64788055555553,152.87806795634964L203.8016652777778,154.60475585646884L203.95545,148.26552554582884L204.10923472222223,145.42191450962622L204.41680416666668,144.5818967003349L204.5705888888889,141.45355522165184L204.87815833333332,142.20898572436948L205.03194305555553,147.7297630776881L205.1857277777778,141.7051105234404L205.3395125,150.19907818976176L205.80086666666668,146.80404730796977L205.9546513888889,141.97703331293474L206.26222083333332,151.9634891876771L206.41600555555556,145.92211054141484L206.5697902777778,145.67196073926016L206.723575,151.11134512728935L206.87735972222222,148.55624690442886L207.03114444444444,147.53001300907755L207.18492916666665,149.52836481751405L207.3387138888889,156.7231230600815L207.4924986111111,154.98986051294622L207.64628333333332,154.1769755641851L207.9538527777778,148.93862007449042L208.1076375,155.9536878353611L208.41520694444444,151.73905513460116L208.56899166666665,152.43889032127413L208.8765611111111,156.12404477277286L209.03034583333334,158.71809163242767L209.3379152777778,156.33273638814802L209.4917,160.27156195530785L209.64548472222222,158.15181634973328L209.79926944444443,161.8495495004789L210.06377916666668,155.0104272449302L210.2175638888889,159.26448366803794L210.52513333333332,154.9751511644807L210.67891805555556,158.13876697693897L210.83270277777777,150.03753046727385L211.14027222222222,150.8141111235563L211.29405694444446,153.61263681399143L211.6016263888889,148.91876965814933L211.7554111111111,149.88794348783046L211.9091958333333,145.20883311801913L212.06298055555555,145.1547358187746L212.2167652777778,142.6695099308574L212.37055,144.1701335620998L212.52433472222222,142.55887400409864L213.1394736111111,149.530858590866L213.2932583333333,153.7572818519945L213.44704305555558,156.8301972274774L213.7546125,149.50153303549592L213.90839722222222,147.984943215201L214.06218194444443,150.5958251994889L214.3697513888889,155.74666028954545L214.6773208333333,159.4369374753456L214.9848902777778,155.65456535211587L215.29245972222222,153.60783865497766L215.60002916666667,147.35895695100834L215.75381388888889,151.74954448484888L215.9075986111111,156.38574440854327L216.0613833333333,145.466067965578L216.3689527777778,144.33123793859625L216.5227375,144.47999407105397L216.67652222222222,139.21942257265468L216.83030694444443,141.1700067278841L216.98409166666667,148.8992299888789L217.13787638888888,144.38398858972803L217.59923055555555,152.80454127744176L217.7530152777778,145.56941692257556L218.21436944444443,145.86520274841135L218.36815416666667,152.61390772082413L218.52193888888888,148.16281135961503L218.82950833333334,152.045115709812L218.98329305555555,155.8358794147265L219.44464722222222,156.43318963614058L219.59843194444443,158.60708937982886L219.75221666666667,152.56107544011832L220.1705111111111,157.31567031464297L220.32429583333334,161.51266334078073L220.78565,156.011960056296L220.93943472222222,150.39767569372458L221.09321944444446,157.31563679702438L221.40078888888888,156.456226037478L221.86214305555558,151.59240344300855L222.0159277777778,154.6734537583972L222.47728194444446,158.35927375824707L222.63106666666667,154.09748280789185L222.78485138888888,157.11833705324798L223.3999902777778,156.10554638652465L223.70755972222221,154.77724624534955L223.86134444444446,161.52406324490784L224.01512916666667,163.06336111240228L224.16891388888888,161.86459050254177L224.3226986111111,162.5212512933638L224.4764833333333,159.86650465611032L224.63026805555558,152.21182588065003L225.0916222222222,152.4701952859932L225.24540694444445,150.73583879024827L225.39919166666667,151.909266466462L225.55297638888888,140.18554728047707L225.86054583333333,136.949506294486L226.1681152777778,147.43692833375079L226.3219,153.49928773755514L226.78325416666667,159.08384475469822L226.93703888888888,147.99144411216602L227.24460833333333,145.73076930805016L227.39839305555557,143.8412833708931L227.55217777777779,146.27032940974289L227.7059625,146.54180035057507L227.8597472222222,152.1929456365448L228.01353194444442,144.31696040124885L228.47488611111112,152.35208092999315L228.62867083333333,148.227296880401L229.2438097222222,146.63764983931765L229.39759444444442,147.42763275898957L229.5513791666667,147.66694887449253L229.7051638888889,139.10283263733504L229.9696736111111,143.6061835301549L230.27724305555554,144.98134208482006L230.43102777777779,152.385631422767L230.73859722222224,151.095125932692L230.89238194444445,153.38884414046063L231.19995138888888,151.69949932921224L231.50752083333333,149.2628523249269L231.66130555555557,155.6760624866135L231.81509027777778,157.17896665456576L231.968875,153.17106189494373L232.27644444444445,155.797822989017L232.43022916666666,160.2184612494649L232.7377986111111,152.37756134266164L232.89158333333336,155.8583524707058L233.19915277777778,154.52385787437382L233.3529375,152.11439864796415L233.66050694444445,154.05377102471596L233.81429166666666,154.49230878356562L233.96807638888887,156.67479418824757L234.1218611111111,153.6761287363721L234.58321527777778,149.1320727670744L234.737,158.1084372114444L234.8907847222222,159.77617617487167L235.04456944444445,157.77400648617296L235.19835416666666,154.4364480462797L235.35213888888887,148.63529085099606L235.81349305555557,154.6671392584352L235.96727777777778,151.8920571059121L236.1210625,153.10326448466893L236.2748472222222,156.70226521807533L236.42863194444445,150.84915672082843L236.58241666666666,146.68132282016444L236.7362013888889,149.49537969063377L236.8899861111111,156.57032547934958L237.04377083333333,161.89355201194016L237.35134027777778,154.03082768805135L238.1202638888889,153.8326088128866L238.42783333333333,154.22003495325927L239.3505416666667,158.49199673227923L239.5043263888889,160.22663463255952L239.92262083333333,158.93557140802343L240.07640555555557,154.4003885601461L240.383975,155.7041103507919L240.53775972222223,155.15320918271283L240.99911388888887,157.99952656640784L241.1528986111111,146.86931193070686L241.46046805555557,149.5793994404414L241.61425277777778,143.29083359039487L241.7680375,155.8161461852079L241.92182222222223,159.48483933989144L242.07560694444444,154.3664893234522L242.38317638888887,156.07457782433082L242.69074583333335,158.67272978786022L242.84453055555556,156.64268729375408L242.99831527777778,152.67717949748572L243.1521,154.37045869946797L243.30588472222223,146.05255628657534L243.45966944444444,150.52726458074818L243.61345416666666,143.8703068511275L244.22859305555556,145.6806060903082L244.38237777777778,146.19543553616037L244.5361625,153.5723448962637L244.68994722222223,153.42934421977554L244.84373194444444,154.76654796427326L245.3050861111111,154.73207058938985L245.45887083333335,154.69555862037498L245.61265555555556,155.28913322433152L246.22779444444444,153.22176375679481L246.38157916666665,160.51300079383694L246.5353638888889,162.18903216575524L246.6891486111111,160.33194194349613L246.99671805555556,158.3534332673812L247.15050277777777,164.27351996496276L247.4580722222222,158.56783250771653L247.61185694444444,155.93576917190117L247.9194263888889,159.1126466750855L248.0732111111111,161.17771199361158L248.38078055555556,161.2141417138148L248.53456527777777,163.62582454942446L248.8421347222222,162.71521183170546L248.99591944444447,160.79283712099596L249.14970416666668,158.5553745138085L249.3034888888889,150.86706957435652L249.4572736111111,153.11834442318533L249.61105833333335,151.53703165216731L249.87556805555556,153.98357850580933L250.64449166666665,153.65362889757043L251.10584583333335,154.4620678240333L251.25963055555556,158.19625924910747L251.5672,151.46234783462074L251.87476944444444,154.2933802932669L252.02855416666665,154.41371346125584L252.48990833333335,150.62048825218596L252.64369305555556,148.84466429792153L252.79747777777777,147.22165518973227L252.95126249999998,155.30054050327854L253.41261666666665,148.15656920117192L253.5664013888889,147.8795520466518L253.72018611111113,149.39729953505022L253.87397083333335,145.94087714883423L254.18154027777777,149.7114690819205L254.48910972222222,160.21315398856356L254.64289444444444,159.50692572705276L254.79667916666665,159.23142136640743L254.9504638888889,161.73024119526295L255.41181805555556,166.83661818430343L255.71938749999998,152.7953211303086L255.87317222222222,152.7376759022365L256.02695694444446,155.7860606107476L256.1807416666667,162.58153081922478L256.3345263888889,157.30869784944502L256.4883111111111,158.6511538990504L256.6420958333333,158.8010903322455L256.9496652777778,147.43679913168546L257.10345,156.2557922039694L257.2572347222222,157.7551958598398L257.41101944444443,152.52625223793234L257.56480416666665,153.7903175571846L257.71858888888886,157.48021099852676L257.8723736111111,156.40842841796373L258.02615833333334,153.1879532125389L258.17994305555555,152.97884204819854L258.33372777777777,146.92305243002127L258.4875125,150.52031770766396L258.9488666666667,154.91307585234668L259.1026513888889,159.68215795037287L259.41022083333337,160.79507641259255L259.5640055555556,159.5837479436772" style="fill: none;" fill="none"></path></g></g></g></g><g opacity="0.2"><g><g><g><path stroke="rgb(255, 112, 67)" stroke-width="2px" d="M37.06211805555556,-23.44627489362446L38.13861111111111,0.6869604928152846L38.29239583333334,-26.072565896170502L38.44618055555556,-11.561471121651802L38.599965277777784,37.07354300362722L38.753750000000004,-15.885051727294922L38.907534722222216,1.3831945146833036L39.06131944444444,5.103276388985767L39.21510416666666,6.631999969482402L39.36888888888889,10.76522445678709L39.676458333333336,-16.96619415283203L40.137812499999995,12.458138057163772L40.29159722222222,18.666906629289894L40.44538194444444,42.406991141183035L40.59916666666667,22.48191179547991L41.01746111111111,14.805413927350711L41.17124583333333,11.43004717145647L41.32503055555556,6.2704102652413365L41.47881527777778,21.88815416608538L41.78638472222222,8.232657841273708L41.94016944444445,23.009699685232963L42.24773888888889,7.457805633544902L42.555308333333336,28.931270599365234L42.86287777777778,59.1984029497419L43.0166625,29.651932307652054L43.170447222222215,32.86676570347376L43.32423194444444,17.32038661411829L43.63180138888889,21.24278368268694L43.78558611111111,0.6660695757184598L44.093155555555555,63.05465044294085L44.24694027777778,19.333587646484354L44.400724999999994,35.02005876813616L44.70829444444444,13.896164485386429L44.86207916666667,-7.179713657924118L45.63100277777777,25.32589394705635L45.7847875,20.893572671072807L46.24614166666667,51.16097477504185L46.39992638888889,34.1355367388044L46.86128055555555,52.827362605503616L47.01506527777777,13.548362186976833L47.32263472222222,35.07994406563894L47.476419444444446,44.31858498709541L47.630204166666665,55.48533466884068L47.78398888888889,67.16572516305105L47.93777361111111,50.74531446184429L48.09155833333333,56.79519816807337L48.24534305555555,54.97472109113421L48.5529125,39.43100956508091L48.706697222222225,49.66585050310405L48.860481944444444,31.813168116978225L49.01426666666667,39.45873423985071L49.47562083333333,53.48559134347097L49.62940555555556,54.16929680960518L50.24454444444445,45.1610254560198L50.39832916666666,29.854457310267847L50.81662361111111,41.78796659197124L50.97040833333334,70.32498931884766L51.12419305555556,44.15655299595423L51.27797777777778,36.37206377301897L51.4317625,71.57685579572404L51.739331944444444,63.86543982369558L52.04690138888889,52.11194610595703L52.20068611111111,49.11438424246651L52.35447083333333,29.669586181640625L52.50825555555555,60.73285130092076L52.66204027777778,42.02828707013811L52.815825,50.0431158883231L53.12339444444444,47.17338725498743L53.27717916666667,74.28338350568498L53.43096388888889,40.54847880772181L53.58474861111111,54.1461579459054L53.73853333333333,72.6587175641741L54.1998875,57.5132222856794L54.81502638888889,37.01386751447405L55.122595833333335,62.29634312220982L55.276380555555555,44.3127702985491L55.58395,42.70321055821009L55.73773472222223,66.61431884765625L56.04530416666666,63.564334869384766L56.19908888888889,60.43777084350586L56.35287361111111,70.98007093157088L56.660443055555554,64.29000200544084L56.9680125,68.80513763427734L57.27558194444444,49.450617109026226L57.42936666666667,56.002572195870535L57.583151388888886,50.62359564644949L57.89072083333333,62.241703033447266L58.04450555555556,63.93051038469585L58.19829027777778,83.87069593157088L58.352075,59.57962472098213L58.50585972222222,89.17722865513393L58.813429166666666,69.5495376586914L58.96721388888889,71.82475934709822L59.12099861111111,71.44629505702427L59.27478333333334,71.1020894731794L59.42856805555556,70.96943065098353L59.58235277777777,84.84630475725447L59.7361375,73.62149810791016L60.197491666666664,73.82743998936243L60.35127638888889,73.5688362121582L60.50506111111111,84.01366533551897L60.76957083333333,76.72444370814732L61.230925,70.25191606794084L61.692279166666665,112.49640764508928L61.846063888888885,66.3551755632673L61.99984861111111,71.43649400983537L62.30741805555556,79.67611748831612L62.46120277777778,79.99041039603097L62.614987500000005,44.784988948277054L62.76877222222222,69.01908220563615L63.076341666666664,72.42996651785714L63.23012638888889,74.28155517578125L63.38391111111111,97.55002049037388L63.69148055555556,94.64942005702427L63.99905,68.75385447910853L64.30661944444444,92.77463259015764L64.46040416666666,68.18416486467635L64.76797361111112,61.75006212506975L64.92175833333333,88.10906437465123L65.07554305555556,82.27822058541433L65.22932777777777,96.90677806309291L65.3831125,67.79880687168665L65.69068194444445,62.84610094342913L65.84446666666666,72.2972777230399L65.99825138888889,64.14811161586216L66.45960555555556,96.77684674944194L66.767175,93.88919448852539L66.92095972222222,76.20423889160156L67.22852916666668,63.388365609305225L67.38231388888889,79.8761247907366L67.53609861111111,79.21747643607003L67.68988333333333,101.898688180106L67.84366805555555,88.41673333304269L67.99745277777778,90.9729183741978L68.30502222222222,72.6412135532924L68.45880694444445,83.02630724225725L68.76637638888889,53.18358721051897L68.92016111111111,78.18800680977957L69.07394583333333,78.11568287440709L69.22773055555557,76.08887427193777L69.38151527777778,94.22177069527761L69.53529999999999,61.9255518232073L69.99665416666667,107.12660271780831L70.15043888888889,101.88244301932198L70.30422361111111,95.3349838256836L70.45800833333334,84.27133996146065L70.87630277777778,105.94822910853794L71.0300875,79.87531552995955L71.18387222222223,91.03936767578125L71.33765694444445,95.85851560320171L71.64522638888889,77.45379747663225L71.79901111111111,69.64392144339425L72.56793472222222,73.40239824567522L72.87550416666666,95.02623585292271L73.0292888888889,101.91436386108398L73.49064305555555,104.50942339215959L73.64442777777776,69.90633174351282L73.7982125,118.83226013183594L74.10578194444444,96.42859486171177L74.25956666666666,79.70147432599748L74.4133513888889,77.68551581246511L74.56713611111111,87.99160167149134L74.72092083333334,84.0144146510533L74.87470555555555,51.53812026977539L75.02849027777778,105.1322544642857L75.182275,86.59382847377232L75.48984444444444,97.44790376935686L75.64362916666667,116.84471566336495L75.95119861111111,92.80397578648159L76.10498333333332,90.96095929827007L76.72012222222222,91.67664555140904L76.87390694444446,105.91804667881557L77.02769166666667,73.16147831508091L77.1814763888889,93.60112762451172L77.33526111111111,86.82413809640066L77.48904583333332,108.14180537632534L78.10418472222221,92.46630423409597L78.25796944444446,99.7194687979562L78.41175416666667,91.90093067714146L78.56553888888888,76.735353742327L78.71932361111111,88.66598565237862L78.87310833333333,79.56779643467493L79.18067777777777,79.22895595005579L79.3344625,99.13793999808175L79.48824722222223,77.81274959019251L79.64203194444444,94.51688112531389L79.79581666666667,71.88911056518555L79.94960138888888,95.77213450840541L80.25717083333333,91.51395416259766L80.41095555555556,80.37864576067244L80.67546527777777,75.48906217302596L80.82925,85.97612271990096L80.98303472222223,99.19305964878627L81.29060416666667,96.03010886056082L81.75195833333333,93.53276007516043L82.05952777777777,101.96927370343889L82.2133125,87.48752212524414L82.36709722222223,105.29170880998882L82.52088194444444,96.41972296578543L82.67466666666667,104.82038933890206L83.28980555555555,92.03511810302734L83.44359027777779,106.75611114501953L83.75115972222223,72.66234425136021L84.05872916666667,101.4062979561942L84.21251388888889,103.94893537248882L84.3662986111111,90.11660058157784L84.52008333333333,95.77546146937779L84.67386805555556,76.50264630998885L84.82765277777779,105.45664814540318L84.9814375,108.83198492867605L85.13522222222223,81.88420050484793L85.28900694444445,112.11368724278041L85.59657638888889,74.12554768153599L85.7503611111111,79.65073067801339L85.90414583333333,117.37493133544922L86.05793055555556,106.08247647966655L86.3655,68.34838485717773L86.51928472222221,110.07438005719865L86.82685416666666,100.48014395577566L86.98063888888889,81.4995618547712L87.1344236111111,79.91472952706472L87.28820833333334,83.72035326276506L87.44199305555556,116.18058231898716L87.59577777777777,104.20547103881836L87.7495625,102.8167495727539L87.90334722222222,103.19719205583843L88.05713194444445,79.57525961739675L88.21091666666666,71.35343987601144L88.82605555555556,91.91939381190709L88.97984027777777,83.30010713849748L89.13362500000001,124.18848746163505L89.44119444444445,100.80570656912667L89.59497916666666,115.39008440290178L90.21011805555555,103.25210189819336L90.62841250000001,107.81953975132534L90.78219722222222,96.55855614798409L90.93598194444444,89.21049826485769L91.39733611111112,105.93546077183315L91.55112083333333,122.48199626377651L91.70490555555556,89.1771387372698L91.85869027777778,77.86070578438894L92.012475,100.71554892403738L92.16625972222222,101.49198968069894L92.32004444444443,100.53073774065288L92.47382916666668,103.05623081752232L92.62761388888889,104.4013421194894L92.78139861111111,82.19648524693079L92.93518333333333,100.6792221069336L93.08896805555557,101.31353269304546L93.24275277777778,96.74144908360073L93.3965375,94.34420885358537L93.70410694444443,80.05368259974888L94.01167638888889,113.52965382167271L94.16546111111111,92.86727796282085L94.31924583333333,115.42710059029714L94.47303055555555,104.71356691632951L94.93438472222222,90.54341070992605L95.08816944444445,109.06741986955913L95.24195416666667,95.76796831403459L95.39573888888889,115.72385951450893L95.85709305555555,95.01568549019949L96.01087777777778,116.05949292864116L96.31844722222223,95.44902965000698L96.47223194444445,125.44053377423967L96.93358611111111,91.85791996547154L97.08737083333334,99.2146998814174L97.24115555555555,97.26093455723354L97.548725,120.73818915230886L97.70250972222223,95.97094290597097L97.85629444444444,114.40341567993164L98.31764861111111,126.71344103131975L98.47143333333334,113.74584633963448L98.62521805555555,120.93600845336914L98.77900277777778,103.3042242867606L98.9327875,89.16742760794503L99.08657222222223,94.91755512782505L99.24035694444444,108.37082617623464L99.39414166666666,88.01728820800781L99.70171111111111,108.9399163382394L99.85549583333334,93.0299094063895L100.00928055555555,93.91290283203125L100.16306527777779,119.44541004725865L100.88892916666667,91.12254170009068L101.0427138888889,98.01972143990652L101.19649861111111,109.74375207083565L101.35028333333332,99.25339453560964L101.50406805555556,121.47929218837193L101.8116375,118.84961427961076L102.11920694444446,122.12664086478097L102.42677638888888,113.20121383666992L102.58056111111111,93.80239377702983L102.73434583333332,94.34543773106166L103.04191527777778,122.31109237670898L103.1957,105.61157662527901L103.34948472222221,112.92804336547852L103.65705416666667,121.1113782610212L103.96462361111111,94.58839579990932L104.11840833333333,102.64971215384347L104.42597777777777,117.99371610368999L104.5797625,120.45845467703683L104.73354722222223,116.15978131975444L105.19490138888888,93.98687526157924L105.34868611111112,120.18351582118443L105.50247083333333,115.3603515625L105.65625555555556,110.28083147321428L105.81004027777777,117.1793599809919L105.96382499999999,107.7789568219866L106.11760972222223,91.23943492344448L106.42517916666667,85.22422954014368L106.57896388888888,75.37088012695312L106.73274861111112,122.7385619027274L106.88653333333333,110.20613970075334L107.04031805555556,101.52795682634624L107.19410277777777,112.54891967773438L107.65545694444444,117.18391581944057L107.80924166666667,106.25508880615234L108.11681111111112,114.44166074480327L108.27059583333333,98.70978110177175L108.42438055555554,126.79304831368583L108.73195,119.08187212262834L108.88573472222222,99.30497741699219L109.03951944444444,119.24459348406108L109.5008736111111,109.94402912684849L109.65465833333333,117.92358016967773L109.80844305555556,129.94853591918945L109.96222777777778,126.35991396222795L110.1160125,108.67324992588588L110.26979722222222,116.89468002319336L110.53430694444445,124.2582037789481L110.68809166666666,121.5511965070452L110.84187638888889,116.82436425345284L111.14944583333335,128.39874158586773L111.30323055555556,117.2174252101353L111.45701527777778,118.79041835239956L111.6108,129.51636069161552L111.76458472222221,116.34276417323521L111.91836944444445,116.40351867675781L112.22593888888889,126.4174314226423L112.68729305555556,110.40117154802593L113.30243194444445,135.55302647181918L113.61000138888889,108.7095467703683L113.76378611111112,134.46307209559848L113.91757083333333,101.33933912004741L114.07135555555556,108.79931477137974L114.22514027777777,111.83179473876953L114.37892500000001,98.91833060128347L114.53270972222222,121.53995677403041L114.68649444444445,109.58954293387276L114.84027916666666,136.37793295724052L114.9940638888889,119.52417809622628L115.14784861111112,115.39811706542969L115.30163333333333,138.92563574654716L115.45541805555555,110.31574957711355L115.76298750000001,110.26692417689732L115.91677222222222,119.20895603724888L116.37812638888889,133.1711322239467L116.68569583333333,118.24054064069475L116.83948055555555,126.04780905587333L116.99326527777778,126.19017900739397L117.14705000000001,137.58648899623324L117.30083472222222,102.51345661708287L117.60840416666667,118.33945029122488L118.22354305555557,124.7332398550851L118.37732777777778,132.2926047188895L118.5311125,148.76079177856445L118.83868194444443,105.83199528285435L118.99246666666667,109.70703560965401L119.14625138888889,111.11568886893136L119.30003611111111,116.92854908534459L119.60760555555557,126.01169204711914L119.91517499999999,111.9826169695173L120.48725416666667,119.92089571271623L121.10239305555555,134.0884143284389L121.71753194444445,140.5234761919294L121.87131666666666,121.2208982195173L122.02510138888888,121.83183016095842L122.33267083333334,124.11529432024273L122.48645555555555,129.68064062935966L122.64024027777778,124.1666374206543L122.794025,138.784914289202L122.94780972222223,87.81131635393416L123.25537916666666,95.98772757393972L123.4091638888889,116.56704929896763L123.56294861111111,101.91406413487026L123.71673333333334,113.05842426845005L123.87051805555555,127.48109980991909L124.02430277777779,125.61884089878627L124.33187222222222,112.7013304574149L124.48565694444444,120.9294444492885L124.63944166666666,117.2777600969587L124.94701111111111,126.34903390066964L125.25458055555555,123.70649773733956L125.40836527777779,106.32519476754324L125.56215,132.20844159807478L125.71593472222222,111.99754333496094L126.1772888888889,118.14040211268834L126.33107361111111,122.00555147443498L126.63864305555556,127.78544180733817L126.79242777777777,139.657956804548L126.9462125,106.39119447980607L127.25378194444446,114.1081553867885L127.5613513888889,138.99574170793807L127.71513611111111,122.00114549909318L128.02270555555555,128.88100106375558L128.17649027777776,102.33748735700334L128.330275,127.10551289149693L128.4840597222222,123.64942986624581L128.63784444444445,125.53953334263393L129.09919861111112,126.3532600402832L129.25298333333333,128.25055694580078L129.40676805555555,107.66778836931499L129.5605527777778,130.51939446585519L129.8681222222222,116.23747035435268L130.44020138888888,112.99221474783761L130.59398611111112,113.0211683000837L130.74777083333333,140.80521883283342L130.90155555555557,123.50187465122768L131.0553402777778,133.56554194859098L131.209125,126.5382810320173L131.67047916666667,106.16301291329519L131.82426388888888,140.834771837507L132.13183333333333,138.36562728881836L132.28561805555555,123.99087796892437L132.4394027777778,124.87039457048687L132.5931875,138.01365879603793L132.7469722222222,140.79319981166293L133.20832638888888,130.14767401559013L133.36211111111112,114.98281642368862L133.51589583333333,123.70460946219308L133.66968055555554,129.48195212227958L134.59238888888888,141.29644012451172L134.89995833333333,123.09268842424663L135.05374305555554,139.98624692644393L135.51509722222224,123.56077085222515L135.82266666666666,116.28800419398716L135.9764513888889,132.5973963056292L136.13023611111112,127.2955093383789L136.28402083333333,117.24338150024414L136.43780555555554,127.21841975620815L136.59159027777778,128.92847769601005L136.89915972222224,131.56789670671733L137.05294444444445,111.41499546595982L137.20672916666666,141.92091969081332L137.3605138888889,114.85851996285574L137.66808333333333,123.90524618966239L137.82186805555554,130.06866618565152L137.97565277777778,145.35353415352958L138.1294375,112.59142085484096L138.43700694444442,133.21845899309432L138.5907916666667,125.0615599496024L138.7445763888889,120.70521926879883L138.89836111111111,124.41906683785575L139.05214583333333,104.03070068359375L139.20593055555557,128.71938868931363L139.5135,114.06514467511857L139.9748541666667,117.63191659109933L140.1286388888889,122.35955810546875L140.54693333333336,155.80858394077848L141.16207222222224,134.1806400844029L141.31585694444445,149.4959602355957L141.62342638888887,130.75015367780412L141.7772111111111,131.21098273141044L142.08478055555557,144.54589189801897L142.39235,137.37784957885742L142.69991944444445,152.78164890834262L142.85370416666666,153.8435788835798L143.00748888888887,149.6548750741141L143.31505833333335,127.15823473249162L143.46884305555557,134.02394321986606L143.62262777777778,133.50161034720284L143.7764125,136.3637259347098L143.9301972222222,129.11868395124162L144.08398194444445,126.18037796020508L144.23776666666666,140.11983489990234L144.3915513888889,156.42002541678292L144.5453361111111,142.35036740984236L144.69912083333335,123.46246065412248L144.85290555555557,150.93266786847795L145.160475,146.53346633911133L145.62182916666666,146.71258272443498L145.7756138888889,140.34432983398438L145.9293986111111,125.55415998186382L146.23696805555556,153.20609119960238L146.39075277777778,131.66027232578824L146.5445375,132.06358391898019L146.6983222222222,140.11090305873324L146.85210694444444,135.51660973685128L147.62103055555556,151.90066364833285L147.77481527777778,126.64573287963867L148.23616944444447,153.28734697614397L148.38995416666668,141.0637926374163L148.6975236111111,156.13720376150948L148.85130833333332,145.13296563284737L149.4664472222222,148.1379007611956L149.62023194444447,149.35329055786133L149.77401666666668,146.94277245657784L150.0815861111111,133.78167452130998L150.34609583333335,146.2620942252023L150.49988055555556,146.55741446358817L150.65366527777778,134.64012037004744L150.80745,167.54385430472237L150.96123472222223,148.2706195286342L151.11501944444444,147.52181352887834L151.42258888888887,150.90503311157227L151.57637361111114,146.3420911516462L151.73015833333335,132.85776846749442L151.88394305555556,144.33740234375L152.03772777777777,156.14934267316545L152.1915125,160.73248617989677L152.34529722222223,146.04895891462053L152.49908194444444,136.82269668579102L152.65286666666665,146.54680415562223L153.11422083333335,147.20524270193917L153.42179027777777,155.10587583269393L153.575575,134.35966655186246L153.88314444444444,138.48413903372628L154.1907138888889,144.12414714268277L154.3444986111111,135.50707844325473L154.49828333333335,141.0532123020717L154.65206805555556,132.68953214372908L154.80585277777777,149.85218484061105L155.11342222222223,157.57016481672014L155.26720694444444,143.54564557756697L155.88234583333335,148.4233899797712L156.03613055555556,156.57962962559293L156.18991527777777,146.28781073434013L156.34369999999998,155.23397881644112L156.4974847222222,147.08763013567244L156.80505416666668,133.66268321446012L156.9588388888889,147.36322838919503L157.26640833333335,146.20988191877092L157.42019305555556,140.52023914882113L157.8815472222222,152.1570794241769L158.03533194444447,161.25287083217074L158.18911666666668,137.04662214006697L158.3429013888889,135.9998882838658L158.4966861111111,136.30599866594588L158.65047083333334,143.50251497541154L158.80425555555556,159.4773826599121L158.95804027777777,143.42665427071708L159.11182499999998,123.28463309151786L159.26560972222222,139.5088130405971L159.41939444444446,139.68625095912387L159.57317916666668,153.8572164263044L159.8807486111111,136.71215765816825L160.29904305555556,146.2409335545131L160.45282777777777,170.75682939801897L160.76039722222222,154.25459344046456L160.91418194444444,144.8141768319266L161.06796666666665,137.3883100237165L161.37553611111113,140.9702480861119L161.52932083333334,131.02419335501534L161.83689027777777,152.51779992239815L161.990675,153.73477826799666L162.29824444444444,138.9628917149135L162.6058138888889,146.9511947631836L163.06716805555556,150.6586581638881L163.22095277777777,151.508052280971L163.68230694444443,159.41309138706754L163.9898763888889,158.58117130824496L164.14366111111113,174.2768440246582L164.29744583333334,148.79022489275252L164.60501527777777,146.3871400015695L164.75879999999998,157.35256358555387L164.91258472222222,141.29443195887973L165.3739388888889,129.82025309971402L165.52772361111113,141.34388678414481L165.83529305555555,144.53264399937223L166.14286249999998,135.4818115234375L166.29664722222225,141.47450746808732L166.75800138888889,150.23631395612443L167.06557083333334,155.94879586356026L167.21935555555555,159.58963012695312L167.37314027777776,123.81128202165874L167.68070972222225,141.20502362932478L167.83449444444446,159.01478522164481L167.98827916666667,140.24554007393974L168.14206388888888,140.2397253853934L168.2958486111111,145.50615474155973L168.44963333333334,143.46286119733537L168.60341805555555,146.10839462280273L168.75720277777776,147.04141235351562L168.91098749999998,145.67496054513114L169.06477222222225,144.26525824410575L169.21855694444446,151.5923352922712L169.52612638888888,158.87397384643555L169.6799111111111,158.22521645682198L169.98748055555555,141.49108232770647L170.405775,142.56494140625L170.55955972222222,155.13315091814314L171.0209138888889,145.3306050981794L171.17469861111113,154.19252014160156L171.48226805555555,130.40432957240512L171.63605277777776,153.63514927455356L171.7898375,146.63312530517578L171.94362222222222,159.55021612984794L172.09740694444443,154.05080958775113L172.4049763888889,146.61574118477958L172.55876111111112,138.92269842965263L172.86633055555555,140.6114458356585L173.02011527777776,150.87086432320731L173.32768472222222,141.06723948887418L173.48146944444446,122.07865469796317L173.63525416666667,144.12342779976981L173.78903888888888,144.22344643729073L173.94282361111112,163.38404410226005L174.09660833333334,145.99422890799386L174.25039305555555,169.67478779384066L174.40417777777776,154.5973903111049L175.01931666666667,155.15260314941406L175.17310138888888,143.01315198625838L175.32688611111112,149.55353764125277L175.48067083333333,132.19018827165877L175.63445555555555,151.07512773786272L175.78824027777776,147.8833133152553L175.942025,140.05257633754184L176.09580972222224,145.86744471958707L176.24959444444445,147.43573216029574L176.86473333333333,149.4569958278111L177.01851805555555,157.87759399414062L177.17230277777776,157.76747458321708L177.32608749999997,155.12925447736467L177.78744166666667,152.34096145629883L177.94122638888888,150.0455082484654L178.09501111111112,151.02177647181918L178.40258055555555,131.102721623012L178.55636527777776,148.05826350620816L178.86393472222224,135.56585475376676L179.17150416666667,136.31588963099887L179.32528888888888,138.80133928571428L179.47907361111112,144.52140426635742L179.94042777777778,136.84289823259627L180.2049375,153.91383470807756L180.3587222222222,146.61283384050643L180.51250694444443,149.28129632132394L180.66629166666667,173.07431248256137L180.8200763888889,142.2519373212542L180.97386111111112,139.38271822248186L181.28143055555554,148.95861107962472L181.4352152777778,138.50077383858817L181.89656944444445,159.319456917899L182.05035416666666,144.60152108328683L182.66549305555554,156.50760541643416L182.9730625,142.2357221330915L183.12684722222224,116.59411457606724L183.28063194444445,152.62746974400113L183.43441666666666,145.70709119524275L183.5882013888889,136.0640596662249L183.74198611111112,141.76844896589006L184.20334027777776,164.54227610996793L184.357125,156.98824637276786L184.51090972222224,138.7623449053083L184.66469444444445,150.60102081298828L184.81847916666666,136.91732025146484L185.12604861111112,154.0754770551409L185.43361805555554,151.31940460205078L185.58740277777775,146.04707063947404L185.74118750000002,156.42991638183594L186.04875694444445,151.0860377720424L186.20254166666666,142.67925698416573L186.3563263888889,140.86822128295898L186.51011111111112,153.30431147984098L186.66389583333333,148.72632326398576L186.81768055555554,149.93263135637557L186.97146527777775,150.51739719935824L187.12525000000002,145.58780016217912L187.27903472222224,137.5142549787249L187.43281944444445,141.55252620152066L188.04795833333333,150.79575293404716L188.35552777777778,146.10042190551758L188.50931250000002,145.07433918544223L188.66309722222223,132.49330139160156L188.81688194444445,154.93476213727678L188.97066666666666,149.89354705810547L189.43202083333333,161.48458916800362L189.73959027777778,141.0613348824637L190.4654541666667,158.68706457955497L190.7730236111111,164.5521970476423L190.92680833333333,156.02786363874162L191.23437777777778,156.82561492919922L191.8495166666667,164.53037697928292L192.0033013888889,168.19180243355888L192.1570861111111,145.28900309971402L192.31087083333333,163.76026044573103L192.46465555555554,131.3906685965402L193.07979444444445,160.5414706638881L193.3873638888889,140.13458142961775L193.5411486111111,147.1144256591797L193.84871805555554,163.8196362086705L194.00250277777778,149.235228402274L194.46385694444444,161.71384974888394L194.61764166666666,141.6738553728376L194.7714263888889,141.79695292881559L195.07899583333332,139.82034846714566L195.3865652777778,144.55878012520927L195.54035000000002,149.69785581316268L195.69413472222223,141.71815490722656L196.00170416666666,176.65580095563618L196.1554888888889,159.7412016732352L196.46305833333332,160.4484656197684L196.61684305555553,152.60819734845842L196.77062777777778,143.16694150652205L197.07819722222223,156.12689317975725L197.23198194444444,162.26055036272322L197.38576666666665,154.65053176879883L197.5395513888889,163.37667083740234L197.6933361111111,137.65036065237862L197.84712083333332,138.73345129830497L198.30847500000002,134.16850117274691L198.46225972222223,166.66715512956893L198.76982916666665,161.55904115949357L198.9236138888889,157.1068780081613L199.0773986111111,127.32653100149972L199.23118333333335,147.48066111973355L199.53875277777777,150.8578861781529L199.69253750000001,133.9474231175014L199.84632222222223,163.76442664010185L200.11083194444444,134.0246925354004L200.5721861111111,124.53817803519112L200.72597083333332,167.2258747645787L200.87975555555556,128.36550194876534L201.64867916666668,163.4023573739188L201.9562486111111,153.58884157453264L202.26381805555556,150.03109141758512L202.41760277777777,145.73979132516044L202.57138750000001,148.7002171107701L203.03274166666668,156.9283311026437L203.1865263888889,161.22595541817802L203.3403111111111,146.14756883893693L203.49409583333332,163.0521572657994L203.64788055555553,147.67458398001534L203.8016652777778,157.19478770664762L203.95545,138.75668007986886L204.10923472222223,141.15649795532227L204.41680416666668,143.32186998639787L204.5705888888889,136.76104300362724L204.87815833333332,143.34213147844588L205.03194305555553,156.01092910766602L205.1857277777778,132.66813169206893L205.3395125,162.94002968924386L205.80086666666668,141.71150098528182L205.9546513888889,134.73651232038225L206.26222083333332,166.94317299979073L206.41600555555556,136.86004257202148L206.5697902777778,145.29673603602816L206.723575,159.27042170933316L206.87735972222222,144.7235995701381L207.03114444444444,145.9906621660505L207.18492916666665,152.5258925301688L207.3387138888889,167.51526042393277L207.4924986111111,152.38996669224332L207.64628333333332,152.95764814104353L207.9538527777778,141.0810868399484L208.1076375,166.47628947666715L208.41520694444444,145.41710608346122L208.56899166666665,153.4886431012835L208.8765611111111,161.65177645002092L209.03034583333334,162.60916192190987L209.3379152777778,152.75470352172852L209.4917,166.1798003060477L209.64548472222222,154.97219794137138L209.79926944444443,167.39614922659737L210.06377916666668,144.75174386160714L210.2175638888889,165.6455683026995L210.52513333333332,148.54115240914481L210.67891805555556,162.8841906956264L210.83270277777777,137.8856757027762L211.14027222222222,151.9789821079799L211.29405694444446,157.81042534964425L211.6016263888889,141.87796892438615L211.7554111111111,151.34170423235213L211.9091958333333,138.19016756330217L212.06298055555555,145.07358986990792L212.2167652777778,138.9416710989816L212.37055,146.42106900896346L212.52433472222222,140.14198466709684L213.1394736111111,159.988835471017L213.2932583333333,160.09691674368722L213.44704305555558,161.43957029070174L213.7546125,138.50853674752372L213.90839722222222,145.71005848475863L214.06218194444443,154.51214817592074L214.3697513888889,163.4729129246303L214.6773208333333,164.97235325404574L214.9848902777778,149.9810071672712L215.29245972222222,150.53774860927035L215.60002916666667,137.9856343950544L215.75381388888889,158.33542578560966L215.9075986111111,163.3400442940848L216.0613833333333,129.08655330113004L216.3689527777778,142.6289928981236L216.5227375,144.70312826974052L216.67652222222222,131.32856532505582L216.83030694444443,144.09588296072823L216.98409166666667,160.4930648803711L217.13787638888888,137.61112649100167L217.59923055555555,165.43537030901228L217.7530152777778,134.7167303902762L218.21436944444443,146.3088814871652L218.36815416666667,162.73696517944336L218.52193888888888,141.48616681780135L218.82950833333334,157.86857223510742L218.98329305555555,161.52202497209822L219.44464722222222,157.32915496826172L219.59843194444443,161.86793899536133L219.75221666666667,143.49205453055245L220.1705111111111,164.44756262642997L220.32429583333334,167.80815287998746L220.78565,147.76090512956893L220.93943472222222,141.97624914986747L221.09321944444446,167.69257845197404L221.40078888888888,155.1671098981585L221.86214305555558,144.2966695513044L222.0159277777778,159.29502923148019L222.47728194444446,163.88800375802177L222.63106666666667,147.7047963823591L222.78485138888888,161.64961842128207L223.3999902777778,154.58636038643974L223.70755972222221,152.78479603358676L223.86134444444446,171.64428874424527L224.01512916666667,165.37230791364397L224.16891388888888,160.06643458775113L224.3226986111111,163.50624247959684L224.4764833333333,155.88438470023019L224.63026805555558,140.72980771745955L225.0916222222222,152.8577493940081L225.24540694444445,148.13430404663086L225.39919166666667,153.66940798078264L225.55297638888888,122.59996850149972L225.86054583333333,132.09544481549943L226.1681152777778,163.16806139264787L226.3219,162.59282684326172L226.78325416666667,167.46068028041293L226.93703888888888,131.35284314836773L227.24460833333333,142.3397571018764L227.39839305555557,141.00705446515764L227.55217777777779,149.91389846801758L227.7059625,146.9490067618234L227.8597472222222,160.66966356549943L228.01353194444442,132.50298254830497L228.47488611111112,164.40476172310966L228.62867083333333,142.04012080601285L229.2438097222222,144.25317927769254L229.39759444444442,148.61260713849748L229.5513791666667,148.02592304774691L229.7051638888889,126.25665828159877L229.9696736111111,150.36120986938477L230.27724305555554,147.0440799168178L230.43102777777779,163.4920654296875L230.73859722222224,149.1593676975795L230.89238194444445,156.82942145211356L231.19995138888888,149.16548211233956L231.50752083333333,145.60788181849887L231.66130555555557,165.2958777291434L231.81509027777778,159.43332290649414L231.968875,147.1592047555106L232.27644444444445,159.73796463012695L232.43022916666666,166.84941864013672L232.7377986111111,140.61621148245675L232.89158333333336,161.07953916277205L233.19915277777778,152.52211597987582L233.3529375,148.5002098083496L233.66050694444445,156.96282958984375L233.81429166666666,155.15011542184013L233.96807638888887,159.94852229527066L234.1218611111111,149.17813055855888L234.58321527777778,142.31598881312777L234.737,171.57298387799943L234.8907847222222,162.27778462001254L235.04456944444445,154.770751953125L235.19835416666666,149.43011038643974L235.35213888888887,139.9335550580706L235.81349305555557,163.71491186959403L235.96727777777778,147.72943387712752L236.1210625,154.92007555280412L236.2748472222222,162.10076631818498L236.42863194444445,142.06949397495816L236.58241666666666,140.42957196916853L236.7362013888889,153.7164649963379L236.8899861111111,167.18274416242326L237.04377083333333,169.8783918108259L237.35134027777778,142.23674120221818L238.1202638888889,153.5352805001395L238.42783333333333,154.80117416381836L239.3505416666667,164.89993940080916L239.5043263888889,162.8285914829799L239.92262083333333,156.99897657121932L240.07640555555557,147.59761428833008L240.383975,157.6596930367606L240.53775972222223,154.32685743059432L240.99911388888887,162.26900264195035L241.1528986111111,130.17398997715543L241.46046805555557,153.64453070504325L241.61425277777778,133.85798481532504L241.7680375,174.60411507742745L241.92182222222223,164.98787907191684L242.07560694444444,146.68896429879325L242.38317638888887,158.63671057564872L242.69074583333335,162.5699577331543L242.84453055555556,153.59762355259488L242.99831527777778,146.72891780308316L243.1521,156.9103775024414L243.30588472222223,133.57570266723633L243.45966944444444,157.23932702200753L243.61345416666666,133.88487025669644L244.22859305555556,148.39605494907926L244.38237777777778,146.96767970493863L244.5361625,164.6377089364188L244.68994722222223,153.21484320504325L244.84373194444444,156.77235358101981L245.3050861111111,154.68035452706474L245.45887083333335,154.6407906668527L245.61265555555556,156.17949513026645L246.22779444444444,150.12070955548967L246.38157916666665,171.4498563494001L246.5353638888889,164.7030792236328L246.6891486111111,157.54630661010742L246.99671805555556,155.3856702532087L247.15050277777777,173.15365001133512L247.4580722222222,150.0093013218471L247.61185694444444,151.98767416817802L247.9194263888889,163.8779629298619L248.0732111111111,164.27530997140067L248.38078055555556,161.2687862941197L248.53456527777777,167.24334880283902L248.8421347222222,161.34929275512695L248.99591944444447,157.90927505493164L249.14970416666668,155.19918060302734L249.3034888888889,139.33461216517856L249.4572736111111,156.49525669642856L249.61105833333335,149.16506249564034L249.87556805555556,157.6533987862723L250.64449166666665,153.15870448521207L251.10584583333335,155.6747262137277L251.25963055555556,163.79754638671875L251.5672,141.36148071289062L251.87476944444444,158.53992898123605L252.02855416666665,154.5942132132394L252.48990833333335,144.9306504385812L252.64369305555556,146.18092836652482L252.79747777777777,144.7871415274484L252.95126249999998,167.41886847359794L253.41261666666665,137.440612248012L253.5664013888889,147.46402631487166L253.72018611111113,151.67392076764787L253.87397083333335,140.75624356951033L254.18154027777777,155.36735698154996L254.48910972222222,175.96568134852816L254.64289444444444,158.44758333478654L254.79667916666665,158.81816482543945L254.9504638888889,165.4784709385463L255.41181805555556,174.4961836678641L255.71938749999998,131.7333755493164L255.87317222222222,152.65120806012834L256.02695694444446,160.35863767351424L256.1807416666667,172.77473613194059L256.3345263888889,149.3994483947754L256.4883111111111,160.66483797345842L256.6420958333333,159.02599498203824L256.9496652777778,130.39036233084542L257.10345,169.48428181239535L257.2572347222222,160.00430134364535L257.41101944444443,144.68283680507113L257.56480416666665,155.68641553606307L257.71858888888886,163.01505116053988L257.8723736111111,154.80075454711914L258.02615833333334,148.35724040440152L258.17994305555555,152.66517530168807L258.33372777777777,137.8393680027553L258.4875125,155.91621562412809L258.9488666666667,161.5022130693708L259.1026513888889,166.8357810974121L259.41022083333337,162.46445410592216L259.5640055555556,157.76675524030412" style="fill: none;" fill="none"></path></g></g></g></g></g></g><g transform="translate(53, 176)" clip-path="url(#clip_1)"><clipPath id="clip_1"><rect width="276" height="24"></rect></clipPath><g><g><line x1="0" y1="0" x2="0" y2="5" style="visibility: inherit;" fill="rgb(0, 0, 0)" stroke="rgb(204, 204, 204)" stroke-width="1px"></line><line x1="30.756944444444443" y1="0" x2="30.756944444444443" y2="5" style="visibility: inherit;" fill="rgb(0, 0, 0)" stroke="rgb(204, 204, 204)" stroke-width="1px"></line><line x1="61.513888888888886" y1="0" x2="61.513888888888886" y2="5" style="visibility: inherit;" fill="rgb(0, 0, 0)" stroke="rgb(204, 204, 204)" stroke-width="1px"></line><line x1="92.27083333333333" y1="0" x2="92.27083333333333" y2="5" style="visibility: inherit;" fill="rgb(0, 0, 0)" stroke="rgb(204, 204, 204)" stroke-width="1px"></line><line x1="123.02777777777777" y1="0" x2="123.02777777777777" y2="5" style="visibility: inherit;" fill="rgb(0, 0, 0)" stroke="rgb(204, 204, 204)" stroke-width="1px"></line><line x1="153.78472222222223" y1="0" x2="153.78472222222223" y2="5" style="visibility: inherit;" fill="rgb(0, 0, 0)" stroke="rgb(204, 204, 204)" stroke-width="1px"></line><line x1="184.54166666666666" y1="0" x2="184.54166666666666" y2="5" style="visibility: inherit;" fill="rgb(0, 0, 0)" stroke="rgb(204, 204, 204)" stroke-width="1px"></line><line x1="215.29861111111111" y1="0" x2="215.29861111111111" y2="5" style="visibility: inherit;" fill="rgb(0, 0, 0)" stroke="rgb(204, 204, 204)" stroke-width="1px"></line><line x1="246.05555555555554" y1="0" x2="246.05555555555554" y2="5" style="visibility: inherit;" fill="rgb(0, 0, 0)" stroke="rgb(204, 204, 204)" stroke-width="1px"></line><line x1="276.8125" y1="0" x2="276.8125" y2="5" style="visibility: inherit;" fill="rgb(0, 0, 0)" stroke="rgb(204, 204, 204)" stroke-width="1px"></line></g><g transform="translate(0, 8)"><text x="0" y="0" dx="0em" dy="0.95em" style="text-anchor: middle; visibility: hidden; font-family: Roboto, sans-serif; font-size: 12px; font-weight: 200;" fill="rgb(33, 33, 33)" stroke="none" stroke-width="1px">-10k</text><text x="30.756944444444443" y="0" dx="0em" dy="0.95em" style="text-anchor: middle; visibility: inherit; font-family: Roboto, sans-serif; font-size: 12px; font-weight: 200;" fill="rgb(33, 33, 33)" stroke="none" stroke-width="1px">0</text><text x="61.513888888888886" y="0" dx="0em" dy="0.95em" style="text-anchor: middle; visibility: inherit; font-family: Roboto, sans-serif; font-size: 12px; font-weight: 200;" fill="rgb(33, 33, 33)" stroke="none" stroke-width="1px">10k</text><text x="92.27083333333333" y="0" dx="0em" dy="0.95em" style="text-anchor: middle; visibility: inherit; font-family: Roboto, sans-serif; font-size: 12px; font-weight: 200;" fill="rgb(33, 33, 33)" stroke="none" stroke-width="1px">20k</text><text x="123.02777777777777" y="0" dx="0em" dy="0.95em" style="text-anchor: middle; visibility: inherit; font-family: Roboto, sans-serif; font-size: 12px; font-weight: 200;" fill="rgb(33, 33, 33)" stroke="none" stroke-width="1px">30k</text><text x="153.78472222222223" y="0" dx="0em" dy="0.95em" style="text-anchor: middle; visibility: inherit; font-family: Roboto, sans-serif; font-size: 12px; font-weight: 200;" fill="rgb(33, 33, 33)" stroke="none" stroke-width="1px">40k</text><text x="184.54166666666666" y="0" dx="0em" dy="0.95em" style="text-anchor: middle; visibility: inherit; font-family: Roboto, sans-serif; font-size: 12px; font-weight: 200;" fill="rgb(33, 33, 33)" stroke="none" stroke-width="1px">50k</text><text x="215.29861111111111" y="0" dx="0em" dy="0.95em" style="text-anchor: middle; visibility: inherit; font-family: Roboto, sans-serif; font-size: 12px; font-weight: 200;" fill="rgb(33, 33, 33)" stroke="none" stroke-width="1px">60k</text><text x="246.05555555555554" y="0" dx="0em" dy="0.95em" style="text-anchor: middle; visibility: inherit; font-family: Roboto, sans-serif; font-size: 12px; font-weight: 200;" fill="rgb(33, 33, 33)" stroke="none" stroke-width="1px">70k</text><text x="276.8125" y="0" dx="0em" dy="0.95em" style="text-anchor: middle; visibility: hidden; font-family: Roboto, sans-serif; font-size: 12px; font-weight: 200;" fill="rgb(33, 33, 33)" stroke="none" stroke-width="1px">80k</text></g><line x1="0" y1="0" x2="276.8125" y2="0" fill="rgb(0, 0, 0)" stroke="rgb(204, 204, 204)" stroke-width="1px"></line></g></g></g></g></svg>